<svg xmlns="http://www.w3.org/2000/svg" width="725.08" height="448.55" viewBox="0 0 725.08 448.55">
  <g id="Ambulance" transform="translate(-203.022 -197.413)">
    <g id="Group_413" data-name="Group 413" transform="translate(203.022 197.413)">
      <g id="Group_412" data-name="Group 412">
        <path id="Path_1022" data-name="Path 1022" d="M194.825,428.149c0,10.1,173.884,18.3,342.591,18.3s330.217-8.191,330.217-18.3-161.512-18.3-330.217-18.3S194.825,418.043,194.825,428.149Z" transform="translate(-170.704 -2.539)" fill="#182852" opacity="0.2" style="mix-blend-mode: multiply;isolation: isolate"/>
        <path id="Path_1023" data-name="Path 1023" d="M506.913,166.34h-26.57l2.475-19.191a10.774,10.774,0,0,1,10.561-9.547h0a10.761,10.761,0,0,1,10.52,9.262Z" transform="translate(-42.442 -137.603)" fill="#f45571"/>
        <path id="Path_1024" data-name="Path 1024" d="M485.67,160.628s1.212-14.343,5.565-14.343,5.346,14.343,5.346,14.343" transform="translate(-40.049 -133.296)" fill="#ffb956"/>
        <path id="Rectangle_70" data-name="Rectangle 70" d="M14.4,0H43.837a14.4,14.4,0,0,1,14.4,14.4V34.518A15.467,15.467,0,0,1,42.766,49.985H14.4A14.4,14.4,0,0,1,0,35.589V14.4A14.4,14.4,0,0,1,14.4,0Z" transform="translate(421.724 24.447)" fill="#182852"/>
        <path id="Path_1025" data-name="Path 1025" d="M178.184,382.029c0,3.366.014,6.673.043,9.949.058,8.992.217,17.654.464,25.868.638,21.514,1.913,39.856,3.942,52.289a73.142,73.142,0,0,0,3.043,12.822c1.087,2.992,2.29,5.027,3.652,5.955,12.246,8.318,95.229,6.194,196.79,8.812,47.506,1.212,171.545,1.825,221.818,1.855,137.589.075,265.628,3.291,274.817-4.907,2.768-2.484,5.275-6.538,7.492-11.715a93.656,93.656,0,0,0,3.478-9.62c.319-1.032.623-2.109.928-3.2a222.781,222.781,0,0,0,5.826-29.892c1-7.451,1.725-15.051,2.188-22.4.58-9.276.739-18.148.464-25.868-.116-3.606-.333-6.942-.652-9.949-.623-6.014-1.623-10.7-3.014-13.405-4.246-8.273-22.333-20.257-39.593-30.281-17.782-10.338-40.462-23.07-40.462-23.07s-1.174-4.354-3.3-11.58c-6.145-20.736-20.275-65.125-37.52-97.785-2.42-4.578-4.9-8.917-7.42-12.941a100.563,100.563,0,0,0-12.652-16.7,37.729,37.729,0,0,0-5.275-4.518c-7.434-5.1-68.592-8.662-145.3-10.4-46.868-1.062-172.023-1.436-221.818-1.107-27.753.195-54.592.254-79.026.4-64.23.4-111.837,1.347-115.474,6.523a15.135,15.135,0,0,0-1.71,4.683c-.3,1.272-.623,2.738-.928,4.413-.783,4.339-1.565,9.994-2.3,16.7-3.768,33.632-6.855,93.626-8.014,145.376C178.329,353.139,178.155,367.891,178.184,382.029Z" transform="translate(-178.181 -126.427)" fill="#fcffff"/>
        <path id="Path_1026" data-name="Path 1026" d="M350.794,401.837q-24.4-.46-48.779-1.056c-20.3-.506-40.626-1.071-60.85-3.122-5.975-.613-11.905-1.5-17.807-2.5,6.6-29.71,32.367-51.873,63.147-51.873C319.555,343.29,346.82,368.836,350.794,401.837Z" transform="translate(-157.886 -35.561)" fill="#182852"/>
        <path id="Path_1027" data-name="Path 1027" d="M676.258,397.521c-42.523,3.9-85.314,5.019-128.059,5.525,3.439-33.582,30.973-59.756,64.422-59.756C644.217,343.29,670.534,366.632,676.258,397.521Z" transform="translate(-11.96 -35.561)" fill="#182852"/>
        <path id="Path_1028" data-name="Path 1028" d="M183.353,375.908c1.087,2.992,2.29,5.027,3.652,5.955,12.246,8.318,95.229,6.194,196.79,8.812,47.506,1.212,171.545,1.825,221.818,1.855,137.589.075,265.628,3.291,274.817-4.907,2.768-2.484,5.275-6.538,7.492-11.715Z" transform="translate(-175.857 -19.379)" fill="#182852"/>
        <g id="Group_409" data-name="Group 409" transform="translate(538.787 310.738)">
          <path id="Path_1185" data-name="Path 1185" d="M51.526-.372c28.457-.205,51.359,23.363,51.154,52.642s-23.441,53.18-51.9,53.386S-.578,82.293-.372,53.014,23.069-.167,51.526-.372Z" transform="translate(0 24.4) rotate(-13.283)" fill="#2d3c62"/>
          <path id="Path_1186" data-name="Path 1186" d="M29.988-.217c16.562-.12,29.891,13.6,29.772,30.638s-13.643,30.951-30.2,31.071S-.336,47.895-.217,30.854,13.426-.1,29.988-.217Z" transform="translate(25.865 40.903) rotate(-13.282)" fill="#e3e4f7"/>
          <path id="Path_1029" data-name="Path 1029" d="M598.313,413.092c-10.063,0-18.253-8.454-18.253-18.843s8.19-18.843,18.253-18.843,18.254,8.454,18.254,18.843S608.378,413.092,598.313,413.092Zm0-36.191c-9.265,0-16.8,7.781-16.8,17.347s7.539,17.347,16.8,17.347,16.805-7.781,16.805-17.347S607.579,376.9,598.313,376.9Z" transform="translate(-536.434 -330.367)" fill="#182852"/>
          <path id="Path_1030" data-name="Path 1030" d="M597.758,389.334a3.9,3.9,0,1,0-3.9,4.021A3.959,3.959,0,0,0,597.758,389.334Z" transform="translate(-531.983 -325.452)" fill="#2d3c62"/>
        </g>
        <g id="Group_410" data-name="Group 410" transform="translate(56.446 299.523)">
          <path id="Path_1181" data-name="Path 1181" d="M52.27-.832a50.306,50.306,0,0,1,51.438,51.438,54.324,54.324,0,0,1-53.1,53.1A50.306,50.306,0,0,1-.832,52.27,54.324,54.324,0,0,1,52.27-.832Z" transform="translate(0 75.097) rotate(-45)" fill="#2d3c62"/>
          <path id="Path_1182" data-name="Path 1182" d="M30.764-.342c16.99-.189,30.61,13.124,30.421,29.737S47.069,59.627,30.079,59.816-.531,46.691-.342,30.079,13.773-.153,30.764-.342Z" transform="translate(33.629 91.823) rotate(-67.5)" fill="#e3e4f7"/>
          <path id="Path_1031" data-name="Path 1031" d="M272.983,413.092c-10.063,0-18.253-8.454-18.253-18.843s8.19-18.843,18.253-18.843,18.253,8.454,18.253,18.843S283.048,413.092,272.983,413.092Zm0-36.191c-9.265,0-16.8,7.781-16.8,17.347s7.539,17.347,16.8,17.347,16.8-7.781,16.8-17.347S282.249,376.9,272.983,376.9Z" transform="translate(-200.239 -319.151)" fill="#182852"/>
          <path id="Path_1032" data-name="Path 1032" d="M272.428,389.334a3.9,3.9,0,1,0-3.9,4.021A3.959,3.959,0,0,0,272.428,389.334Z" transform="translate(-195.789 -314.236)" fill="#2d3c62"/>
        </g>
        <path id="Path_1033" data-name="Path 1033" d="M653.995,306.564h-138.6V179.871H606.4A944.121,944.121,0,0,1,653.995,306.564Z" transform="translate(-26.698 -116.634)" fill="#182852"/>
        <rect id="Rectangle_71" data-name="Rectangle 71" width="201.084" height="278.417" rx="8.088" transform="translate(459.422 337.002) rotate(180)" fill="#eeeffa"/>
        <path id="Path_1034" data-name="Path 1034" d="M902.664,344.265H178.69c-.246-8.214-.407-16.876-.465-25.868-.028-3.276-.043-6.583-.043-9.949H902.474c.32,3.007.538,6.344.654,9.949C903.4,326.117,903.243,334.989,902.664,344.265Z" transform="translate(-178.181 -52.846)" fill="#ec4965"/>
        <path id="Path_1035" data-name="Path 1035" d="M597.066,308.448l-34.695,35.817h-10.42l34.694-35.817Z" transform="translate(-10.274 -52.846)" fill="#fcffff"/>
        <path id="Path_1036" data-name="Path 1036" d="M613.121,308.448l-34.694,35.817H568.021l34.694-35.817Z" transform="translate(-3.055 -52.846)" fill="#fcffff"/>
        <path id="Path_1037" data-name="Path 1037" d="M629.2,308.448,594.5,344.265h-10.42l34.694-35.817Z" transform="translate(4.16 -52.846)" fill="#fcffff"/>
        <path id="Path_1038" data-name="Path 1038" d="M645.251,308.448l-34.694,35.817H600.152l34.694-35.817Z" transform="translate(11.379 -52.846)" fill="#fcffff"/>
        <path id="Path_1039" data-name="Path 1039" d="M389,209.769v74.386a14.807,14.807,0,0,0,14.565,15.036h75.258a14.469,14.469,0,0,0,12.376-7.106,15.32,15.32,0,0,0,2.2-7.929V209.769a14.822,14.822,0,0,0-14.579-15.051H403.568A14.81,14.81,0,0,0,389,209.769Z" transform="translate(-83.474 -109.268)" fill="#4ad4f6"/>
        <path id="Path_1040" data-name="Path 1040" d="M675.691,380.452a30.523,30.523,0,0,0,6.877-14.6,62.012,62.012,0,0,0-.123-18.5s-12.642.6-16.41,4.15S660.9,375.794,675.691,380.452Z" transform="translate(39.852 -33.543)" fill="#fcb75d"/>
        <path id="Path_1041" data-name="Path 1041" d="M186.273,171.684l105.1,228.081h133.22L314.334,160.478c-75.106.4-122.713,1.347-126.351,6.523A15.135,15.135,0,0,0,186.273,171.684Z" transform="translate(-174.546 -126.255)" fill="#ec4965"/>
        <path id="Path_1042" data-name="Path 1042" d="M191.3,362.745a9.922,9.922,0,1,0,9.917-10.238A10.082,10.082,0,0,0,191.3,362.745Z" transform="translate(-172.287 -30.988)" fill="#ffb956"/>
        <ellipse id="Ellipse_33" data-name="Ellipse 33" cx="54.91" cy="56.686" rx="54.91" ry="56.686" transform="translate(118.505 83.17)" fill="#fcffff"/>
        <g id="Group_411" data-name="Group 411" transform="translate(134.613 101.803)">
          <rect id="Rectangle_72" data-name="Rectangle 72" width="20.441" height="76.106" transform="translate(26.812)" fill="#275dbd"/>
          <path id="Path_1183" data-name="Path 1183" d="M0,0,20.937-.286,19.9,74.031l-20.937.286Z" transform="translate(0 28.164) rotate(-60)" fill="#275dbd"/>
          <path id="Path_1184" data-name="Path 1184" d="M0,0,20.937.286,21.969,74.6,1.033,74.318Z" transform="translate(10.22 66.217) rotate(-120)" fill="#275dbd"/>
        </g>
        <path id="Path_1043" data-name="Path 1043" d="M540.517,443.9H368.577a6.835,6.835,0,0,1-6.716-6.933V189.356a6.835,6.835,0,0,1,6.716-6.933h171.94a6.835,6.835,0,0,1,6.716,6.933V436.967A6.835,6.835,0,0,1,540.517,443.9ZM368.577,183.919a5.359,5.359,0,0,0-5.266,5.437V436.967a5.359,5.359,0,0,0,5.266,5.437h171.94a5.359,5.359,0,0,0,5.266-5.437V189.356a5.359,5.359,0,0,0-5.266-5.437Z" transform="translate(-95.667 -115.368)" fill="#182852"/>
        <path id="Path_1044" data-name="Path 1044" d="M226.85,179.862a8.806,8.806,0,1,0,8.8-9.086A8.947,8.947,0,0,0,226.85,179.862Z" transform="translate(-156.317 -121.146)" fill="#ffb956"/>
        <path id="Path_1045" data-name="Path 1045" d="M205.757,179.862a8.806,8.806,0,1,0,8.8-9.086A8.948,8.948,0,0,0,205.757,179.862Z" transform="translate(-165.793 -121.146)" fill="#eeeffa"/>
        <path id="Path_1046" data-name="Path 1046" d="M459.978,299.942H488.8a5.145,5.145,0,0,0,5.061-5.224h0a5.144,5.144,0,0,0-5.061-5.224H459.978a5.145,5.145,0,0,0-5.061,5.224h0A5.146,5.146,0,0,0,459.978,299.942Z" transform="translate(-53.864 -62.25)" fill="#182852"/>
        <path id="Path_1047" data-name="Path 1047" d="M521.256,299.942h28.825a5.145,5.145,0,0,0,5.061-5.224h0a5.144,5.144,0,0,0-5.061-5.224H521.256a5.144,5.144,0,0,0-5.061,5.224h0A5.145,5.145,0,0,0,521.256,299.942Z" transform="translate(-26.337 -62.25)" fill="#182852"/>
        <path id="Path_1048" data-name="Path 1048" d="M521.353,184.948V291.381H639.03c-8.347-26.556-38.984-106.433-38.984-106.433Z" transform="translate(-24.019 -114.115)" fill="#4ad4f6"/>
        <path id="Path_1049" data-name="Path 1049" d="M533.753,184.948l78.968,106.433h10.551L547.564,184.948Z" transform="translate(-18.449 -114.115)" fill="#fcffff" style="mix-blend-mode: soft-light;isolation: isolate"/>
        <path id="Path_1050" data-name="Path 1050" d="M521.353,186.238v44.075l43.9,60.428h28.956Z" transform="translate(-24.019 -113.475)" fill="#fcffff" style="mix-blend-mode: soft-light;isolation: isolate"/>
        <path id="Path_1051" data-name="Path 1051" d="M600.579,237.242l-15.32,33.91h32.032Z" transform="translate(4.689 -88.172)" fill="#182852"/>
        <path id="Path_1052" data-name="Path 1052" d="M418.5,194.718l59.447,97.366a15.32,15.32,0,0,0,2.2-7.929V259.963l-39.984-65.245Z" transform="translate(-70.222 -109.268)" fill="#fcffff" style="mix-blend-mode: soft-light;isolation: isolate"/>
        <path id="Path_1053" data-name="Path 1053" d="M389,209.769v9.171l58.81,80.251h23.521L410.176,194.718h-6.608A14.81,14.81,0,0,0,389,209.769Z" transform="translate(-83.474 -109.268)" fill="#fcffff" style="mix-blend-mode: soft-light;isolation: isolate"/>
        <path id="Path_1054" data-name="Path 1054" d="M605.652,270.821h0a15.85,15.85,0,0,0,15.592-16.1V247.5a15.851,15.851,0,0,0-15.592-16.1h0Z" transform="translate(13.85 -91.07)" fill="#182852"/>
      </g>
      <text id="AMBULANCE-2" data-name="AMBULANCE" transform="translate(31.441 282.234)" fill="#fcffff" font-size="28" font-family="Montserrat-Bold, Montserrat" font-weight="700"><tspan x="0" y="0">AMBULANCE</tspan></text>
      <text id="_911" data-name="911" transform="translate(469.67 313.862)" fill="#182852" font-size="17" font-family="Montserrat-Bold, Montserrat" font-weight="700"><tspan x="0" y="0">911</tspan></text>
    </g>
  </g>
</svg>
