<svg xmlns="http://www.w3.org/2000/svg" xmlns:xlink="http://www.w3.org/1999/xlink" width="1491" height="1201.769" viewBox="0 0 1491 1201.769"><defs><clipPath id="clip-path"><path d="M40 270h1491v1201.769H40z" fill="none"/></clipPath><filter id="Path_2245" x="-35" y="160" width="1581" height="1031.769" filterUnits="userSpaceOnUse"><feOffset dx="10" dy="10" input="SourceAlpha"/><feGaussianBlur stdDeviation="15" result="blur"/><feFlood flood-opacity=".549"/><feComposite operator="in" in2="blur"/><feComposite in="SourceGraphic"/></filter><filter id="Path_2244" x="-40" y="-40" width="1581" height="1007" filterUnits="userSpaceOnUse"><feOffset dx="5" dy="5" input="SourceAlpha"/><feGaussianBlur stdDeviation="15" result="blur-2"/><feFlood flood-opacity=".58"/><feComposite operator="in" in2="blur-2"/><feComposite in="SourceGraphic"/></filter><filter id="Path_2243" x="-39" y="-270" width="1581" height="1007" filterUnits="userSpaceOnUse"><feOffset dx="6" dy="6" input="SourceAlpha"/><feGaussianBlur stdDeviation="15" result="blur-3"/><feFlood flood-color="#00bbd9" flood-opacity=".58"/><feComposite operator="in" in2="blur-3"/><feComposite in="SourceGraphic"/></filter></defs><g id="background2" transform="translate(-40 -270)" clip-path="url(#clip-path)" style="isolation:isolate"><g id="background2-2" data-name="background2" transform="translate(40 39)"><g transform="matrix(1, 0, 0, 1, 0, 231)" filter="url(#Path_2245)"><path id="Path_2245-2" data-name="Path 2245" d="M0 0H1491V941.769L411.436 106.1.0 941.769z" transform="translate(0 195)" fill="rgba(0,200,0,0.95)"/></g><g transform="matrix(1, 0, 0, 1, 0, 231)" filter="url(#Path_2244)"><path id="Path_2244-2" data-name="Path 2244" d="M0 0H1491V917L391.152 236.195.0 917z" fill="#7efbff"/></g><g transform="matrix(1, 0, 0, 1, 0, 231)" filter="url(#Path_2243)"><path id="Path_2243-2" data-name="Path 2243" d="M0 0H1491V917L362.756 394.175.0 917z" transform="translate(0 -231)" fill="#059daf"/></g></g></g></svg>