<svg xmlns="http://www.w3.org/2000/svg" width="1922" height="1385" viewBox="0 0 1922 1385"><g id="background4" opacity=".56"><path id="Path_48" data-name="Path 48" d="M0 0H1920V887s-76.815-470.3-402.928-481.623S1102.637 681.667 629.319 686.2C149.319 686.2.0 887 0 887z" transform="translate(2 498)" fill="#cb116e"/><path id="Path_47" data-name="Path 47" d="M0 0H1920V887s-76.815-470.3-402.928-481.623S1102.637 681.667 629.319 686.2C149.319 686.2.0 887 0 887z" transform="translate(0 380)" fill="#ffb8d7"/><path id="Path_46" data-name="Path 46" d="M0 0H1920V887s-76.815-470.3-402.928-481.623S1102.637 681.667 629.319 686.2C149.319 686.2.0 887 0 887z" transform="translate(0 248)" fill="#ff8ebf"/><path id="Path_45" data-name="Path 45" d="M0 0H1920V887s-76.815-470.3-402.928-481.623S1102.637 681.667 629.319 686.2C149.319 686.2.0 887 0 887z" fill="#ff51a3"/></g></svg>