<svg xmlns="http://www.w3.org/2000/svg" xmlns:xlink="http://www.w3.org/1999/xlink" width="830.266" height="663.346" viewBox="0 0 830.266 663.346"><defs><clipPath id="clip-path"><circle id="Ellipse_88" data-name="Ellipse 88" cx="61.477" cy="61.477" r="61.477" transform="translate(446.819 580.155) rotate(-45)" fill="#fff"/></clipPath></defs><g id="beavolunteer" transform="translate(-118.734 -87.743)"><path id="Path_2134" data-name="Path 2134" d="M522.059 113.878C683.4 63.413 762.743 101.566 762.743 101.566l5.995 117.207s-79.344-38.152-240.683 12.313S294.8 243.019 294.8 243.019l-6-117.208S360.721 164.343 522.059 113.878z" fill="#f7f7f7"/><g id="Group_813" data-name="Group 813"><path id="Path_2135" data-name="Path 2135" d="M379.415 230.074l-17.047-48.579 6.192-.321 8.175 23.941c2.255 6.561 4.213 12.478 5.7 18.2l.132-.007c.956-5.774 2.478-12.09 4.12-18.634l6.247-24.76 6.127-.318-13.32 50.153z" fill="#5d66d3"/><path id="Path_2136" data-name="Path 2136" d="M443.22 197.239c2.6 16.8-5.215 27.136-16.428 28.871-11.6 1.794-21.3-6.941-23.584-21.717-2.4-15.5 4.7-26.981 16.438-28.8C431.642 173.741 440.979 182.754 443.22 197.239zm-33.972 6.072c1.614 10.43 8.144 18.987 17.075 17.6 9-1.392 12.658-11.376 10.944-22.459-1.5-9.705-7.633-19.141-17.086-17.679C410.794 182.231 407.59 192.59 409.248 203.311z" fill="#5d66d3"/><path id="Path_2137" data-name="Path 2137" d="M445.449 171.783l5.59-1.3L461 213.389l18.507-4.3 1.209 5.211-24.1 5.594z" fill="#5d66d3"/><path id="Path_2138" data-name="Path 2138" d="M477.938 163.857l8.2 28.068c3.1 10.622 8.66 13.884 14.358 12.22 6.331-1.851 9.027-7.677 5.966-18.16l-8.2-28.067 5.571-1.628 8.076 27.645c4.254 14.562-.9 22.558-10.145 25.26-8.737 2.553-16.945-1.081-21.24-15.782l-8.158-27.928z" fill="#5d66d3"/><path id="Path_2139" data-name="Path 2139" d="M527.009 200.495 514.322 152.75l6.056-1.61 20.189 20.5A144.792 144.792.0 0 1 552.4 185.1l.109-.1c-2.2-6.239-3.875-12.014-5.851-19.452l-5.309-19.978 5.228-1.389 12.687 47.745-5.61 1.491-20.08-20.6a162.323 162.323.0 0 1-12.268-13.8l-.173.122c1.919 5.936 3.571 11.641 5.68 19.574l5.421 20.4z" fill="#5d66d3"/><path id="Path_2140" data-name="Path 2140" d="M567.989 145.173l-13.259 2.655-1.065-5.318 32.275-6.461L587 141.368l-13.323 2.666 8.633 43.119-5.693 1.139z" fill="#5d66d3"/><path id="Path_2141" data-name="Path 2141" d="M619.466 157.839l-17.125 2.354 2.428 17.647 19.085-2.624.729 5.3-24.771 3.4-6.734-48.947 23.792-3.27.729 5.3-18.1 2.489 2.128 15.468 17.125-2.354z" fill="#5d66d3"/><path id="Path_2142" data-name="Path 2142" d="M652.588 155.246l-17.244 1.162 1.2 17.772 19.219-1.3.36 5.338L631.175 179.9l-3.321-49.292L651.811 129l.359 5.338-18.231 1.229 1.05 15.577 17.244-1.162z" fill="#5d66d3"/><path id="Path_2143" data-name="Path 2143" d="M663.422 129.335a53.859 53.859.0 0 1 11.032-.827c6.134.111 10.068 1.429 12.788 4.264a13.006 13.006.0 0 1 3.325 9.444c-.118 6.522-3.89 10.779-8.6 12.453v.22c3.406 1.38 5.386 4.935 6.348 10.085 1.327 6.914 2.3 11.7 3.184 13.619l-5.935-.108c-.7-1.4-1.613-5.674-2.754-11.851-1.2-6.84-3.523-9.448-8.729-9.762l-5.408-.1-.388 21.4-5.737-.1zm5.33 22.6 5.87.107c6.133.11 10.092-3.556 10.194-9.2.116-6.375-3.989-9.236-10.055-9.419a21.318 21.318.0 0 0-5.682.484z" fill="#5d66d3"/></g><g id="Group_815" data-name="Group 815"><g id="Group_814" data-name="Group 814"><path id="Path_2144" data-name="Path 2144" d="M240.53 99.781c-17.021 4.345-34.815 20.346-34.925 36.193-9.833-12.427-38.226-12.391-54.319-5.349-42.468 18.585-40.5 72.4-10.709 98.791 16.035 14.207 35.666 24.7 56.059 33.169 17.077 7.092 59.3 20.072 59.372 19.952.132.049 25.439-36.153 34.542-52.249 10.87-19.221 19.9-39.568 23.8-60.632C321.608 130.519 285.446 88.315 240.53 99.781z" fill="#d67086"/></g></g><g id="Group_816" data-name="Group 816"><path id="Path_2145" data-name="Path 2145" d="M725.07 326.951s-50.326 24.617-65.469 15.432c-1.922-1.166-46.791-18.935-46.791-18.935l-9.239 10.3 51.528 35.17 17.128 2.906 43.266-12.4z" fill="#3b3387"/></g><g id="Group_817" data-name="Group 817"><path id="Path_2146" data-name="Path 2146" d="M758.493 331.433s29.083 47.885 46.787 48.325c2.248.055 49.611 9.311 49.611 9.311l2.219 13.66-62.362 1.8-15.987-6.8-29.731-33.79z" fill="#3b3387"/></g><g id="Group_837" data-name="Group 837"><g id="Group_836" data-name="Group 836"><g id="Group_818" data-name="Group 818"><path id="Path_2147" data-name="Path 2147" d="M752.113 327.834q.324.118.643.243c10.2 3.945 18.233 21.717 22.838 32.161 11.888 26.96 17.112 55.067 18.107 84.883.537 16.054.377 32.137-.1 48.2-.133 4.439-3.907 44.184-1.937 45.13-20.2-9.7-40.743-18.854-62.24-24.37s-44.1-7.3-65.8-2.2c6.507-50.456 15.977-101.8 29.683-150.563 1.639-5.833 2.73-12.049 5.166-17.578 2.8-6.369 7.029-8.255 12.364-12.027a34.7 34.7.0 0 1 5.679-3.494C727.11 323.468 741.371 323.876 752.113 327.834z" fill="#3b3387"/></g><g id="Group_822" data-name="Group 822"><g id="Group_820" data-name="Group 820"><g id="Group_819" data-name="Group 819"><path id="Path_2148" data-name="Path 2148" d="M783.46 486.544 760.5 580.477l-.388 69.206-11.227 2.45-4.51-64.355-11.247-117.85z" fill="#eac1a4"/></g></g><g id="Group_821" data-name="Group 821"><path id="Path_2149" data-name="Path 2149" d="M748.751 654.073l-1.8 7.023 1.618 13.768h9.1l3.371-19.914-1.063-3.327z" fill="#292949"/></g></g><g id="Group_825" data-name="Group 825"><g id="Group_823" data-name="Group 823"><path id="Path_2150" data-name="Path 2150" d="M695.119 476.339l-1.889 81.133 11.044 114.563 11.09.791 3.787-105.053 22.4-95.272z" fill="#eac1a4"/></g><g id="Group_824" data-name="Group 824"><path id="Path_2151" data-name="Path 2151" d="M704.618 670.12 689.7 678.078l1.2 6.974 26.378-3.281-1.287-10.037z" fill="#292949"/></g></g><g id="Group_826" data-name="Group 826"><path id="Path_2152" data-name="Path 2152" d="M691.888 486.813l-7.34 93.747 7.767 64.268 30.032-1.758 5.216-73.094 12.839-79.7-2.041-12.4-43.286.715z" fill="#3b3387"/></g><g id="Group_827" data-name="Group 827"><path id="Path_2153" data-name="Path 2153" d="M737.586 573.64l3.655 67.225 26.1-1.388-.651-63.76 16.312-80.1-3.8-22.376-43.9 2.815z" fill="#3b3387"/></g><g id="Group_828" data-name="Group 828"><path id="Path_2154" data-name="Path 2154" d="M676.464 488.515c26.88 4.053 71.6 7.1 98.481 11.155 1.357-48.59-3.532-104.69-15.343-151.686-2.142-8.524-5.3-17.724-12.76-22.054-7.992-4.639-24.924-3.976-29.779 5.074-7.1 13.24-8.47 34.3-11.623 49.024C698.307 413.346 680.858 454.717 676.464 488.515z" fill="#fff"/></g><g id="Group_834" data-name="Group 834"><g id="Group_829" data-name="Group 829"><path id="Path_2155" data-name="Path 2155" d="M718.179 288.21c7.091-18.937 30.966-11.328 35.243 5.738 2.817 11.241-6.2 25.615-17.5 28.387q.327 4.167.3 8.354l-9.076-.94c-.936-.1-2.022-.291-2.458-1.125a2.893 2.893.0 0 1-.138-1.678l.669-5.726c-.216-.1-.433-.211-.65-.326-5.366-2.851-8.576-8.83-9.288-14.864S716.049 293.9 718.179 288.21z" fill="#eac1a4"/></g><g id="Group_833" data-name="Group 833"><g id="Group_832" data-name="Group 832"><g id="Group_830" data-name="Group 830"><path id="Path_2156" data-name="Path 2156" d="M719.78 293.958c-4.043 5.4-3.272 12.845-2.545 19.232.644 5.664.361 9.157-5.862 8.556-3.506-.339-9.751-.872-11.778-4.318-1.534-2.611 1.625-8.042 3.449-10.01 1.394-1.5 3.821-1.693 5.174-3.232a6.607 6.607.0 0 0 1.153-2.238 34.347 34.347.0 0 0 1.889-10.136 34.73 34.73.0 0 1 .465-7c.792-3.3 4.309-6.289 6.484-8.842 4.047-4.75 14.225-9.541 19.261-3.078a9.97 9.97.0 0 1 1.63 5.273 8.278 8.278.0 0 1-.161 3.314c-1.354 4.231-5.438 3.661-8.764 4.782A22.244 22.244.0 0 0 719.78 293.958z" fill="#292949"/></g><g id="Group_831" data-name="Group 831"><path id="Path_2157" data-name="Path 2157" d="M750.046 305.134c-.752 3.063-3.422 5.86-2.616 8.91a13.7 13.7.0 0 0 2.117 3.621A11.163 11.163.0 0 1 750 328.648l18.155 5.277a5.682 5.682.0 0 0 2.8.322c1.981-.45 2.839-2.738 3.373-4.7 1.05-3.86 2.093-8.019.722-11.777-.636-1.742-1.757-3.276-2.387-5.02-3.029-8.389 5.983-18.349 1.455-26.034-2.021-3.428-6.089-4.987-9.1-7.593-5.246-4.544-7.144-12.18-12.673-16.374-10.443-7.92-26.629 2.639-23.143 15.453C732.052 288.655 753.076 292.8 750.046 305.134z" fill="#292949"/></g></g></g></g><g id="Group_835" data-name="Group 835"><path id="Path_2158" data-name="Path 2158" d="M751.356 329.287s8.775 120.627-9.912 144.45-26.683 32.8-26.683 32.8l76.83 31.91S789.595 362.531 751.356 329.287z" fill="#3b3387"/></g></g></g><g id="Group_838" data-name="Group 838"><path id="Path_2159" data-name="Path 2159" d="M409.579 325.6s-45.438 32.773-61.916 26.281c-2.092-.824-49.319-10.749-49.319-10.749l-7.364 11.716 56.734 25.95 17.372-.033 40.546-19.539z" fill="#8cabef"/></g><g id="Group_866" data-name="Group 866"><g id="Group_840" data-name="Group 840"><g id="Group_839" data-name="Group 839"><path id="Path_2160" data-name="Path 2160" d="M277.174 283.23s7 3.5 8.235 21.937 5.537 29.743 5.537 29.743-5.494 4.163-10.573 2.384-6.874-1.958-6.835-9.569-4.4-42.864-4.4-42.864z" fill="#292949"/></g></g><g id="Group_842" data-name="Group 842"><g id="Group_841" data-name="Group 841"><path id="Path_2161" data-name="Path 2161" d="M263.866 292.553a18.476 18.476.0 0 1 16.226 12.206 16.283 16.283.0 0 0-9.28-24.9 18.827 18.827.0 0 0-6.416 12.7z" fill="#292949"/></g></g><g id="Group_843" data-name="Group 843"><path id="Path_2162" data-name="Path 2162" d="M255.254 336.172l-46.033.879-16.189-74.485-15.253 2.146v91.195l27.134 13.058 49.571 7.065z" fill="#474ebb"/></g><g id="Group_857" data-name="Group 857"><g id="Group_848" data-name="Group 848"><g id="Group_845" data-name="Group 845"><g id="Group_844" data-name="Group 844"><path id="Path_2163" data-name="Path 2163" d="M234.626 667.009l-.806 6.548L245.545 682l7.073-5.6-5.46-7.5-11.726-8.442z" fill="#292949"/></g></g><g id="Group_847" data-name="Group 847"><g id="Group_846" data-name="Group 846"><path id="Path_2164" data-name="Path 2164" d="M239.286 466.362l-2.45 19.888L253.2 555.118 234.23 664.8l12.11 4.476L280.85 562.541l5.786-31.143 1.253-66.168z" fill="#f2f2f2"/></g></g></g><g id="Group_853" data-name="Group 853"><g id="Group_850" data-name="Group 850"><g id="Group_849" data-name="Group 849"><path id="Path_2165" data-name="Path 2165" d="M332.649 490.617 302.974 674.451l-11.666-.254.471-118.24L272.35 472.535z" fill="#f2f2f2"/></g></g><g id="Group_852" data-name="Group 852"><g id="Group_851" data-name="Group 851"><path id="Path_2166" data-name="Path 2166" d="M291.407 672.74l-.144 6.623 12.471 6.9 6.452-6.486-6.164-6.761z" fill="#292949"/></g></g></g><g id="Group_856" data-name="Group 856"><g id="Group_855" data-name="Group 855"><g id="Group_854" data-name="Group 854"><path id="Path_2167" data-name="Path 2167" d="M232.242 470.245c10.1-59.119 7.892-102.381 8.607-114.231a24.768 24.768.0 0 1 8.978-17.83c3.583-.737 6.737-3.021 10.358-3.871 24.5-5.749 37.367 13.594 46.039 34.344a598.531 598.531.0 0 1 26.6 78.793c6.188 23.572 12.386 47.355 14.666 71.728.94 10.056 1.7 19.59-9.116 23.783-17.237 6.68-36.431 6.109-54.524 7.978-20.783 2.146-41.579 3.593-62.463 4.027C210.489 555.194 222.142 529.364 232.242 470.245z" fill="#474ebb"/></g></g></g></g><g id="Group_858" data-name="Group 858"><path id="Path_2168" data-name="Path 2168" d="M183.135 264.12l-8.934-9.342 3.461-16.006 8.815.192 2.288 14.056 4.415 2.786-.147 6.759z" fill="#eac1a4"/></g><g id="Group_859" data-name="Group 859"><path id="Path_2169" data-name="Path 2169" d="M272.012 333.353l23.243 4.656 46.7 47.185 55.526-.868L400.22 401.5l-65.062 10-52.663-35.383z" fill="#474ebb"/></g><g id="Group_860" data-name="Group 860"><path id="Path_2170" data-name="Path 2170" d="M277.737 334.716l2.923 63.166-31.032-60.66 9.5-3.163 6.781-1.875z" fill="#fff"/></g><g id="Group_861" data-name="Group 861"><path id="Path_2171" data-name="Path 2171" d="M398.006 388.609l10.344-6.122 13.033 3.561-.153 7.02L399.3 396.714z" fill="#eac1a4"/></g><g id="Group_863" data-name="Group 863"><g id="Group_862" data-name="Group 862"><path id="Path_2172" data-name="Path 2172" d="M279.661 298.524c-7.657-17.681-29.976-9.3-33.213 7.151-1.84 9.353 2.785 25.776 13.99 26.173.53 1.6 1.433 4.616 2.928 5.428 1.618.879 5.622-1.209 7.2-1.972a2.636 2.636.0 0 0 1.151-.866c.325-.516.141-1.661-.133-2.913a15.713 15.713.0 0 0 3.589-1.589c4.961-2.971 7.722-8.814 8.106-14.592S281.962 303.838 279.661 298.524z" fill="#eac1a4"/></g></g><g id="Group_865" data-name="Group 865"><g id="Group_864" data-name="Group 864"><path id="Path_2173" data-name="Path 2173" d="M270.358 279.908s4.484 9.514-7.687 15.182-18.225 17.559-13.633 27.634 15.809 15.732 11.428 19.644-23.371 5.269-23.371 5.269-19.536-34.773-8.15-54.3S261.908 268.364 270.358 279.908z" fill="#292949"/></g></g></g><g id="Group_869" data-name="Group 869"><path id="Path_2174" data-name="Path 2174" d="M834.56 169.868s-19.912 22.76-28.284 85.79l16.484 2.752s3.787-55.648 20.1-84.778z" fill="#292949"/><g id="Group_867" data-name="Group 867"><path id="Path_2175" data-name="Path 2175" d="M932.107 89.909s-57.453.984-82.7 23.262-13.976 62.048-13.976 62.048 38.058 16.131 63.3-6.148S932.107 89.909 932.107 89.909z" fill="#474ebb"/><path id="Path_2176" data-name="Path 2176" d="M835.433 175.219s2.2.926 5.857 2.026l54.918-55.657-62.057 47.567C834.787 172.925 835.433 175.219 835.433 175.219z" fill="#292949"/></g><g id="Group_868" data-name="Group 868"><path id="Path_2177" data-name="Path 2177" d="M746.7 112.876s1.073 51.269 21.04 73.724 55.422 12.263 55.422 12.263 14.267-34.02-5.7-56.475S746.7 112.876 746.7 112.876z" fill="#474ebb"/><path id="Path_2178" data-name="Path 2178" d="M823.165 198.862s.818-1.963 1.788-5.234L775.1 144.8l42.661 55.222C821.119 199.446 823.165 198.862 823.165 198.862z" fill="#292949"/></g><path id="Path_2179" data-name="Path 2179" d="M835.433 175.219s62.282-.791 86.9-46.277C922.336 128.942 904.3 203.5 835.433 175.219z" fill="#3742aa"/></g><g id="Group_877" data-name="Group 877"><g id="Group_874" data-name="Group 874"><path id="Path_2180" data-name="Path 2180" d="M655.367 669.142l1.037 7.948-14.858 10.021-8.985-6.911 6.911-8.984 14.858-10.022z" fill="#242835"/><g id="Group_870" data-name="Group 870"><path id="Path_2181" data-name="Path 2181" d="M655.865 666.472 644.2 565.111l13.591-113.524-3.149-24.137-61.661-2.227-2.151 39.3 10.539 100.824 39.14 106.335z" fill="#d6d6d8"/></g><g id="Group_871" data-name="Group 871"><path id="Path_2182" data-name="Path 2182" d="M547.763 436.669l.03 102.309 20.84 131.666 14.822-.176 7.919-121.812 18.841-121.941z" fill="#d6d6d8"/><path id="Path_2183" data-name="Path 2183" d="M583.443 676.72l-15.934 8.2L559.4 677l7.919-8.109 16.029-.19z" fill="#242835"/></g><g id="Group_872" data-name="Group 872"><path id="Path_2184" data-name="Path 2184" d="M664.21 471.246c-.15-4.433-.4-8.132-.441-9.453-.339-11.893-1.421-23.757-2.933-35.563-1.353-10.58-3.087-36.847-4.917-47.36-1.512-8.681-6.763-30.345-10.543-38.392-9.4-20.012-6.51-21.868-47.647-27.738-18.028-2.573-22.268 8.668-36.978 21.612-1.451 1.277-1.357 8.862-1.69 10.872-.588 3.538-1.217 7.071-1.94 10.587-.568 2.763-1.195 5.518-1.9 8.256h0s-12.265 56.317-20.423 68.288-25.027 28.718 3.262 38.871a101.138 101.138.0 0 0 15.274 3.955s23.115-2.612 35.006-2.546a201.99 201.99.0 0 1 32.718 2.985c7.2 1.19 14.551 2.925 21 6.276 6.15 3.2 10.594 7.911 16.834 11.223a3.257 3.257.0 0 0 1.91.543C664.38 493.158 664.525 480.577 664.21 471.246z" fill="#d67086"/></g><g id="Group_873" data-name="Group 873"><path id="Path_2185" data-name="Path 2185" d="M597.693 318.388c2.077 1.021 6.975 1.379 12.08-.631a2.667 2.667.0 0 0 1.705-2.5 69.038 69.038.0 0 0-.764-9.272c3.83-1.354 8.254-3.383 8.914-7.391a11.459 11.459.0 0 0-.233-3.812q-1.365-7.815-2.731-15.63a13.98 13.98.0 0 0-1.633-5.2c-1.725-2.707-5.066-3.886-8.229-4.429-8.073-1.386-16.864.379-23.112 5.676a12.517 12.517.0 0 0-3.9 5.158c-1.126 3.167-.273 6.656.587 9.906q1.191 4.5 2.381 9c.913 3.45 2.228 7.371 5.556 8.659 1.767.684 3.851.479 5.452 1.493C596.593 311.2 596.221 315.389 597.693 318.388z" fill="#eac1a4"/><path id="Path_2186" data-name="Path 2186" d="M551.017 266.5a33.8 33.8.0 0 0-2.609-3.73c-2.075-2.548-4.628-4.73-6.3-7.559s-2.264-6.666-.271-9.278c1.287-1.685 3.378-2.53 5.41-3.133a39.371 39.371.0 0 1 20.7-.421c6.452 1.629 12.228 4.337 18.715 1.9 6.1-2.289 10.5-1.369 16.88.893 6.9 2.449 16.164 3.012 22.414 6.475a18.415 18.415.0 0 1 6.322 6.211 27.755 27.755.0 0 1 .131 29.35 39.685 39.685.0 0 1-4.309 5.452c-3.247 3.536-7.132 7.9-11.606 9.219-.114-4.005 3.51-16.64.428-19.916-4.89-5.2-15.923-3.362-21.975-2.068-6.6 1.411-12.48 6.1-19.026 7.111-4.71.728-10.728-1.572-14.739-4C556.237 280.008 553.919 271.245 551.017 266.5z" fill="#292949"/></g></g><g id="Group_875" data-name="Group 875"><path id="Path_2187" data-name="Path 2187" d="M465.741 337.97l-12.76-8.182 3.259-5.606 9.978 3.668.311-3.367 10.066 8.331-2.6 6.285z" fill="#aa6755"/><path id="Path_2188" data-name="Path 2188" d="M585.028 314.636l-66.44 27.386L476.6 332.815l-4.086 8.035 38.337 28.113 52.753-6.38z" fill="#d67086"/></g><g id="Group_876" data-name="Group 876"><path id="Path_2189" data-name="Path 2189" d="M677.49 211.475 676.4 194.832l-7.133.157-1.774 11.562-3.408-1.491 2.671 14.127 7.437.837z" fill="#eac1a4"/><path id="Path_2190" data-name="Path 2190" d="M613.693 323.747l36.381-48.411 16.677-56.147 9.913.338.159 64.887L642.4 352.981z" fill="#d67086"/></g></g><g id="Group_886" data-name="Group 886"><g id="Group_880" data-name="Group 880"><g id="Group_878" data-name="Group 878"><path id="Path_2191" data-name="Path 2191" d="M400.539 676.341l-.345 6.959 13.574 7.649 7.3-6.614-6.614-7.3-13.574-7.649z" fill="#f2f2f2"/><path id="Path_2192" data-name="Path 2192" d="M389.088 465.183l-1.048 21.135L411.681 579.3l-11.76 94.76 13.667 3.445L451.3 563.61l.617-34.254-9.555-70.4z" fill="#353a85"/></g><g id="Group_879" data-name="Group 879"><path id="Path_2193" data-name="Path 2193" d="M492.993 462.99l10.681 88.3L499.467 667.1l-12.811 1.4L467.075 564.2 438.054 460.935z" fill="#353a85"/><path id="Path_2194" data-name="Path 2194" d="M487.32 673.892l14.61 5.413 6.17-7.683-7.683-6.17-13.853 1.513z" fill="#f2f2f2"/></g></g><g id="Group_885" data-name="Group 885"><g id="Group_881" data-name="Group 881"><path id="Path_2195" data-name="Path 2195" d="M498.14 448.277c-13.246-26.846-18.57-56.3-25.537-85.27-2.06-8.548-4.2-17.279-8.966-24.664-5.478-8.479-13.03-12.27-21.39-13.717-10.642-1.842-22.592.112-33.241 1.022-6.406 20.144-10.625 8.729-18.154 28.481-1.561 4.094-5.947 39.539-7.591 43.6h0s-17.285 54.483-11.639 97.537c.056.427.1.842.153 1.26 1.124.191 2.2.383 3.207.585a216.112 216.112.0 0 0 45.65 4.393A177.965 177.965.0 0 0 461 496.343c18.058-4.5 39.513-2.717 54.261-14.65C510.915 472.883 502.487 457.087 498.14 448.277z" fill="#8cabef"/></g><g id="Group_882" data-name="Group 882"><path id="Path_2196" data-name="Path 2196" d="M505.647 246.733l-.584-15.146-6.484-.033-1.9 10.461-3.06-1.439 2.079 12.9 6.736.944z" fill="#aa6755"/><path id="Path_2197" data-name="Path 2197" d="M443.694 323.617l38.655-29.277L495.7 253.477l9 .551 4.8 47.3-41.159 58.694z" fill="#8cabef"/></g><g id="Group_884" data-name="Group 884"><path id="Path_2198" data-name="Path 2198" d="M400.485 290.854c5.4-17.081 30.141-23.337 36.176-3.651 1.813 5.916 2.942 12.2 1.845 18.292s-4.731 11.968-10.362 14.533c-.032.015-.064.027-.1.042q.363 2.359.727 4.719a1.071 1.071.0 0 1-1.116 1.478l-5.633.918a6.218 6.218.0 0 1-2.8.026c-1.974-.6-2.823-2.948-2.937-5.009-.027-.493-.029-.992-.029-1.491C405.07 317.046 396.952 302.02 400.485 290.854z" fill="#aa6755"/><g id="Group_883" data-name="Group 883"><path id="Path_2199" data-name="Path 2199" d="M434.623 262.778c4.588-.244 8.025 4.508 11.981 7.207 3.291 2.246 7.18 3.127 10.629 5.057s6.673 5.58 6.355 9.737c3.827-1.552 7.963-3.125 11.975-1.95s7.345 6.414 5.335 10.282c-1.8 3.464-6.579 3.867-8.478 7.264-3.005 5.374 2.856 14.718-2.06 18.005-1.181.791-2.694.865-3.859 1.684-1.447 1.016-2.063 2.94-2.825 4.629-3.451 7.658-11.919 12.072-19.7 10.267a21.007 21.007.0 0 1-9.375-13.467c-1.49-6.744 2.228-8.7 3.4-14.783a26.908 26.908.0 0 0-3.912-19.579c-2.429-3.653-6.088-6.95-10.209-7.741-1.675-.322-1.277 1.139-3.055-.349a8.511 8.511.0 0 1-1.811-3.908C423.914 271.9 428.586 263.1 434.623 262.778z" fill="#292949"/><path id="Path_2200" data-name="Path 2200" d="M385.892 266.589c-2.395.429-4.921.093-7.236.858-3.479 1.147-3.605 4.633-4.836 7.554-1.362 3.235-3.308 7.566-5.753 9.951-1.761 1.718-4.08 2.573-6.147 3.832s-4.043 3.219-4.249 5.822c-.194 2.466 1.252 4.834 1.261 7.316-.052 3.694-.864 5.511-.089 9.366.4 1.988.859 4.1 2.185 5.554 1.748 1.92 4.475 2.144 6.9 1.971s4.966-.6 7.25.414c4.953 2.206 3.508 7.29 4.458 11.756 1.447 6.8 8.735 11.373 14.811 9.581 5.152-1.519 8.572-7.011 8.887-12.721.158-2.86-.725-5.622-.537-8.481.181-2.757 2.092-6.418-.193-8.836a19.829 19.829.0 0 1-1.8-1.6 4.05 4.05.0 0 1-.668-1.881 7.936 7.936.0 0 1 1.925-6.367c1.081-1.159 2.547-1.942 3.281-3.395.839-1.665.5-3.737.563-5.658.161-4.645 3.116-8.934 7.132-10.352 2.646-.935 5-1.412 7.381-2.99.363-.24 5.827-4.217 5.865-3.242a10.177 10.177.0 0 0-1.77-4.694 20.1 20.1.0 0 0-5.194-6.231c-7.015-4.983-8.316 4.931-14.148 3.058-1.407-.452-2.364-1.872-3.583-2.78-2.3-1.717-5.353-1.471-7.956-.594S388.591 266.106 385.892 266.589z" fill="#292949"/></g></g></g></g><g id="Group_918" data-name="Group 918"><g id="Group_888" data-name="Group 888"><g id="Group_887" data-name="Group 887"><path id="Path_2201" data-name="Path 2201" d="M329.526 571.381l147.926 57.15 162.121-54.143L502.025 521.18z" fill="#5d66d3"/></g></g><g id="Group_912" data-name="Group 912"><g id="Group_911" data-name="Group 911"><circle id="Ellipse_87" data-name="Ellipse 87" cx="61.477" cy="61.477" r="61.477" transform="translate(446.819 580.155) rotate(-45)" fill="#fff"/><g id="Group_910" data-name="Group 910" clip-path="url(#clip-path)"><g id="Group_894" data-name="Group 894"><g id="Group_889" data-name="Group 889"><path id="Path_2202" data-name="Path 2202" d="M573.746 543.166l1.431-1.068c-.29-.389-7.275-9.6-21.082-14.926l-.643 1.666A49.279 49.279.0 0 1 573.746 543.166z" fill="#5c5955"/></g><g id="Group_890" data-name="Group 890"><path id="Path_2203" data-name="Path 2203" d="M493.539 543.016a49.433 49.433.0 0 1 20.348-14.252l-.636-1.669c-13.827 5.276-20.846 14.459-21.138 14.848z" fill="#5c5955"/></g><g id="Group_891" data-name="Group 891"><path id="Path_2204" data-name="Path 2204" d="M578.766 612.967c4.2-4.469 7.515-11.6 9.857-21.184a97.41 97.41.0 0 0 2.263-13.042l-1.779-.155c-.02.229-2.1 23.006-11.643 33.159z" fill="#5c5955"/></g><g id="Group_892" data-name="Group 892"><path id="Path_2205" data-name="Path 2205" d="M488.45 612.8l1.3-1.218c-9.505-10.194-11.5-32.973-11.518-33.2l-1.779.148a97.317 97.317.0 0 0 2.214 13.051C480.978 601.174 484.268 608.313 488.45 612.8z" fill="#5c5955"/></g><g id="Group_893" data-name="Group 893"><path id="Path_2206" data-name="Path 2206" d="M532.538 636.673a67.32 67.32.0 0 0 14.745-1.6l-.424-1.735c-.143.035-14.405 3.445-27.048-.044l-.475 1.721A50.461 50.461.0 0 0 532.538 636.673z" fill="#5c5955"/></g></g><g id="Group_895" data-name="Group 895"><path id="Path_2207" data-name="Path 2207" d="M533.781 557.12l20.88 15.23-8.032 24.565-25.845-.049-7.94-24.594z" fill="#292949"/></g><g id="Group_896" data-name="Group 896"><path id="Path_2208" data-name="Path 2208" d="M533.806 543.813l-20.88-15.23 8.032-24.565 25.845.049 7.94 24.595z" fill="#292949"/></g><g id="Group_899" data-name="Group 899"><g id="Group_897" data-name="Group 897"><path id="Path_2209" data-name="Path 2209" d="M553.279 610.223l25.842.365 7.639 24.69-21.121 14.895-20.692-15.484z" fill="#292949"/></g><g id="Group_898" data-name="Group 898"><path id="Rectangle_77" data-name="Rectangle 77" d="M0 0h1.785v27.697H0z" transform="matrix(0.895, -0.446, 0.446, 0.895, 542.8, 591.225)" fill="#292949"/></g></g><g id="Group_902" data-name="Group 902"><g id="Group_900" data-name="Group 900"><path id="Path_2210" data-name="Path 2210" d="M567.628 567.107l5.9-25.161 25.754-2.16L609.3 563.612 589.733 580.5z" fill="#292949"/></g><g id="Group_901" data-name="Group 901"><path id="Rectangle_78" data-name="Rectangle 78" d="M0 0h27.697v1.785H0z" transform="translate(548.832 574.159) rotate(-23.452)" fill="#292949"/></g></g><g id="Group_905" data-name="Group 905"><g id="Group_903" data-name="Group 903"><path id="Path_2211" data-name="Path 2211" d="M513.956 610.47l-25.843.268L480.381 635.4l21.065 14.974 20.75-15.407z" fill="#292949"/></g><g id="Group_904" data-name="Group 904"><path id="Rectangle_79" data-name="Rectangle 79" d="M0 0h27.697v1.785H0z" transform="translate(510.476 615.458) rotate(-63.327)" fill="#292949"/></g></g><g id="Group_908" data-name="Group 908"><g id="Group_906" data-name="Group 906"><path id="Path_2212" data-name="Path 2212" d="M499.555 567.128l-6.18-25.095L467.6 540.156l-9.75 23.935L477.6 580.76z" fill="#292949"/></g><g id="Group_907" data-name="Group 907"><path id="Rectangle_80" data-name="Rectangle 80" d="M0 0h1.785v27.697H0z" transform="translate(492.206 564.876) rotate(-67.179)" fill="#292949"/></g></g><g id="Group_909" data-name="Group 909"><path id="Rectangle_81" data-name="Rectangle 81" d="M0 0h29.175v1.786H0z" transform="matrix(0.002, -1, 1, 0.002, 532.883, 560.071)" fill="#292949"/></g></g></g></g><path id="Path_2213" data-name="Path 2213" d="M477.222 751.088 329.329 676.249l.2-104.989 147.868 57.164z" fill="#5d66d3"/><path id="Path_2214" data-name="Path 2214" d="M477.222 751.088l162.153-71.33.2-105.408L477.394 628.424z" fill="#474ebb"/><g id="Group_917" data-name="Group 917"><path id="Path_2215" data-name="Path 2215" d="M464.549 545.127a13.8 13.8.0 0 0-8.942 17.353h0a13.8 13.8.0 0 0 17.353 8.943l19.055-6.095a13.8 13.8.0 0 0 8.942-17.354h0a13.8 13.8.0 0 0-17.353-8.942z" fill="#eed5d5"/><path id="Path_2216" data-name="Path 2216" d="M484.727 589.679a16.735 16.735.0 0 0-22.541 7.21h0a16.734 16.734.0 0 0 7.21 22.541l21.559 11.11a16.735 16.735.0 0 0 22.541-7.21h0a16.736 16.736.0 0 0-7.21-22.542z" fill="#eed5d5"/><path id="Path_2217" data-name="Path 2217" d="M414.086 612.275a16.734 16.734.0 0 1 22.541-7.21h0a16.733 16.733.0 0 1 7.21 22.541l-11.109 21.559a16.735 16.735.0 0 1-22.541 7.21h0a16.734 16.734.0 0 1-7.21-22.541z" fill="#eed5d5"/><path id="Path_2218" data-name="Path 2218" d="M384.375 570.773a13.8 13.8.0 0 0-8.943 17.353h0a13.8 13.8.0 0 0 17.354 8.942l19.054-6.095a13.8 13.8.0 0 0 8.942-17.353h0a13.8 13.8.0 0 0-17.353-8.942z" fill="#eed5d5"/><path id="Path_2219" data-name="Path 2219" d="M411.609 608.78a38.378 38.378.0 0 0 48.246 24.861h0A38.377 38.377.0 0 0 484.716 585.4l-4.272-13.356A38.378 38.378.0 0 0 432.2 547.179h0a38.376 38.376.0 0 0-24.861 48.245z" fill="#eed5d5"/><g id="Group_916" data-name="Group 916"><circle id="Ellipse_89" data-name="Ellipse 89" cx="41.441" cy="41.441" r="41.441" transform="translate(370.955 504.435) rotate(-23.372)" fill="#eed5d5"/><path id="Path_2220" data-name="Path 2220" d="M426.186 528.382a41.41 41.41.0 0 1 39.418 7.853 41.448 41.448.0 0 1-66.962 21.419A41.411 41.411.0 0 1 426.186 528.382z" fill="#fff"/><g id="Group_913" data-name="Group 913"><path id="Path_2221" data-name="Path 2221" d="M432.194 498.042A19.365 19.365.0 1 0 444.739 473.7 19.365 19.365.0 0 0 432.194 498.042z" fill="#eed5d5"/><path id="Path_2222" data-name="Path 2222" d="M366.8 518.962a19.365 19.365.0 1 0 12.545-24.345A19.365 19.365.0 0 0 366.8 518.962z" fill="#eed5d5"/></g><g id="Group_914" data-name="Group 914"><path id="Path_2223" data-name="Path 2223" d="M438.539 515.194a4.238 4.238.0 1 0 2.745-5.328A4.238 4.238.0 0 0 438.539 515.194z" fill="#353a85"/><path id="Path_2224" data-name="Path 2224" d="M400.4 527.394a4.238 4.238.0 1 0 2.745-5.328A4.237 4.237.0 0 0 400.4 527.394z" fill="#353a85"/></g><path id="Path_2225" data-name="Path 2225" d="M418.684 545.789a2.4 2.4.0 0 1 3.233-1.034 12.736 12.736.0 0 0 7.409 1.324l-3.05-9.534c-5.309-1.69-6.28-5.479-6.28-5.479a3.82 3.82.0 0 1 2.29-4.769l5.868-1.877a3.821 3.821.0 0 1 4.632 2.555l.009.03c.124.356 1.22 3.853-1.946 8.076l3.05 9.535a12.732 12.732.0 0 0 5.265-5.378 2.4 2.4.0 0 1 4.268 2.2 17.625 17.625.0 0 1-23.714 7.585A2.4 2.4.0 0 1 418.684 545.789z" fill="#353a85"/><g id="Group_915" data-name="Group 915"><path id="Path_2226" data-name="Path 2226" d="M454.733 483.739a10.4 10.4.0 0 1 3.243 14.345l-17.588-11.1A10.4 10.4.0 0 1 454.733 483.739z" fill="#fff"/><path id="Path_2227" data-name="Path 2227" d="M377.029 508.594a10.4 10.4.0 0 1 13.564-5.684l-7.879 19.248A10.4 10.4.0 0 1 377.029 508.594z" fill="#fff"/></g></g></g><path id="Path_2228" data-name="Path 2228" d="M477.394 628.424l28.837 49.519 157.4-62.137L639.435 574.35z" fill="#7786e0"/><path id="Path_2229" data-name="Path 2229" d="M302.947 604.254 443.42 671.025l33.974-42.6L329.371 571.259z" fill="#474ebb"/></g><g id="Group_932" data-name="Group 932"><g id="Group_919" data-name="Group 919"><path id="Path_2230" data-name="Path 2230" d="M810.761 258.634l-8.934-9.342 3.461-16.006 8.815.192 2.288 14.056 4.415 2.786-.147 6.759z" fill="#eac1a4"/></g><g id="Group_922" data-name="Group 922"><g id="Group_920" data-name="Group 920"><path id="Path_2231" data-name="Path 2231" d="M876.241 341.289l13.277-.6a66.328 66.328.0 0 0-.15-10.585c.04.427 7.116-3.321 7.741-4.169 1.8-2.442 2-6.538 2.747-9.44 1.587-6.183 3.076-13.145-.2-18.623-3.393-5.674-10.714-7.6-17.323-7.765-8.3-.2-17.557 2.235-21.811 9.363-3.841 6.437 1.039 15.912 2.44 22.71.69 3.352 1.742 7.176 4.86 8.586 1.655.748 3.661.663 5.14 1.719C875.57 334.344 874.991 338.339 876.241 341.289z" fill="#eac1a4"/></g><g id="Group_921" data-name="Group 921"><path id="Path_2232" data-name="Path 2232" d="M847.426 287.2l-1.506-13.756a11.91 11.91.0 0 1 .181-5.093c.911-2.7 3.648-4.39 6.4-5.14s5.645-.783 8.426-1.4c2.969-.66 5.854-1.988 8.892-1.86 5.778.244 10.21 5.594 15.922 6.5 7.909 1.249 15.163-2.387 19.954 6.909.881 1.708 1.127 3.676 1.9 5.433 1 2.27 2.826 4.059 4.251 6.091 6.269 8.935 4.273 22.516-3.291 30.112-3.667 3.683-5.163 7.011-10.223 8.2 2.309-4.716-.787-23.48-7.137-25.575-1.682-.553-6.727 1.512-8.588 1.788a49.385 49.385.0 0 0-12.009 2.893 59.94 59.94.0 0 1-18.233 4.575 2.306 2.306.0 0 1-3.059-2.5Q848.366 295.786 847.426 287.2z" fill="#292949"/></g></g><g id="Group_930" data-name="Group 930"><g id="Group_925" data-name="Group 925"><g id="Group_923" data-name="Group 923"><path id="Path_2233" data-name="Path 2233" d="M947.206 679.51 949 686.984l-13.153 11.061-9.267-5.68 5.68-9.267 13.153-11.061z" fill="#292949"/></g><g id="Group_924" data-name="Group 924"><path id="Path_2234" data-name="Path 2234" d="M916.536 448.274l5.448 22.7-6.656 105.62L947.41 676.914 933.3 683.437 869.177 567.665l-7.658-37.007L857.513 452.4z" fill="#353a85"/></g></g><g id="Group_928" data-name="Group 928"><g id="Group_926" data-name="Group 926"><path id="Path_2235" data-name="Path 2235" d="M828.034 457.444l-.951 98.1L845.807 682l14.215-.027 8.759-116.727L888.014 448.5z" fill="#353a85"/></g><g id="Group_927" data-name="Group 927"><path id="Path_2236" data-name="Path 2236" d="M859.937 680.281l.014 7.686-15.357 7.715-7.7-7.672 7.671-7.7z" fill="#292949"/></g></g><g id="Group_929" data-name="Group 929"><path id="Path_2237" data-name="Path 2237" d="M933.5 476.011c.213 8.95-.046 21.012-3.484 21.46a3.114 3.114.0 0 1-1.826-.54c-5.952-3.235-10.167-7.8-16.034-10.921-6.149-3.276-13.18-5.009-20.074-6.219a193.732 193.732.0 0 0-31.344-3.176 247.487 247.487.0 0 0-24.765 1.29c-6.837.582-13.2 2.62-20.164 2.151a44.781 44.781.0 0 1-20.288-6.4 1.2 1.2.0 0 1-.554-.538 1.225 1.225.0 0 1 .094-.836c1.451-4 2.492-7.959 5.134-11.273 2.95-3.7 5.043-8.4 7.173-12.613a202.1 202.1.0 0 0 11.714-27.32c4.681-12.7 10.033-25.083 14.558-37.83 3.136-8.835 5.995-17.827 10.257-26.206 3.337-6.56 9.289-16.146 16.475-19.046a22.375 22.375.0 0 1 7.739-1.154l23.856-.731c2.9-.088 5.914-.155 8.56 1.035 3.963 1.782 6.21 5.937 8.174 9.814a190.4 190.4.0 0 1 17.61 55.476c1.655 10.1 3.188 20.217 4.385 30.375 1.336 11.334 2.26 22.722 2.472 34.128C933.189 468.208 933.4 471.758 933.5 476.011z" fill="#5d66d3"/></g></g><g id="Group_931" data-name="Group 931"><path id="Path_2238" data-name="Path 2238" d="M840.4 369.436l-45.473-37.068 11.257-78.231 17.387-.1-2.485 67.817 40.234 19.579z" fill="#5d66d3"/></g></g><g id="Group_935" data-name="Group 935"><path id="Rectangle_82" data-name="Rectangle 82" d="M0 0h14.558v226.217H0z" transform="translate(844.794 421.91) rotate(12.445)" fill="#292949"/><path id="Path_2239" data-name="Path 2239" d="M776.942 580.995l-9.217 41.762c-8.748 39.642 26 64.34 26 64.34s41.914-7.779 50.663-47.422l9.216-41.762z" fill="#c7c7c9"/><g id="Group_934" data-name="Group 934"><g id="Group_933" data-name="Group 933"><path id="Path_2240" data-name="Path 2240" d="M849.2 435.717l-2.023-1.439c-1.208-.857-29.505-21.416-22.1-54.97l1.263-5.722 69.746 15.392-1.262 5.722c-7.4 33.554-41.727 40.294-43.183 40.564zm-13.518-48.068c-1.237 18.35 11.336 31.164 16.311 35.48 6.383-1.8 23.108-8.057 29.706-25.324z" fill="#c7c7c9"/></g><path id="Rectangle_83" data-name="Rectangle 83" d="M0 0h14.558v30.045H0z" transform="translate(844.793 421.909) rotate(12.445)" fill="#f2f2f2"/></g></g><g id="Group_938" data-name="Group 938"><g id="Group_936" data-name="Group 936"><path id="Path_2241" data-name="Path 2241" d="M879.054 418.169l-6.481 2.593-5.619-2.513-1.137.92 1.076 1.446-5.261-.751-3.677 2.254-.4 5.725 3.307 4.923 5.728-.2 5.778-3.616 9.026-3.165z" fill="#eac1a4"/></g><g id="Group_937" data-name="Group 937"><path id="Path_2242" data-name="Path 2242" d="M871.565 416.465l36.358-23.026-7.4-56.291L938.875 367.1 933 416.907l-56.5 12.245z" fill="#5d66d3"/></g></g></g></svg>