<svg xmlns="http://www.w3.org/2000/svg" width="1920" height="765.36" viewBox="0 0 1920 765.36"><g id="distance" transform="translate(-9.785 -40.171)"><g id="Group_191" data-name="Group 191" transform="translate(1129.995 40.171)"><g id="Group_189" data-name="Group 189"><path id="Path_490" data-name="Path 490" d="M729.177 409.139H454.65v149.47H711.769z" transform="translate(-357.419 206.751)" fill="#19194f" fill-rule="evenodd"/><path id="Path_491" data-name="Path 491" d="M496.466 194.19s-24.6 6.177-38.662 34.575-48.316 118.049-56.88 143.2 22.515 132.779 62.145 190.12h52.069s-50.3-143.468-52.462-157.26 47.593-94.116 47.593-94.116C523.994 270.474 523.166 230.29 496.466 194.19z" transform="translate(-399.494 68.101)" fill="#19194f" fill-rule="evenodd"/><path id="Path_492" data-name="Path 492" d="M550.306 108.422h0c23.105.0 42.012 30.165 42.012 67.037v54.447c0 36.873-18.906 67.04-42.012 67.04h0c-23.1.0-42.01-30.167-42.01-67.04V175.459C508.3 138.587 527.2 108.422 550.306 108.422z" transform="translate(-316.496 12.778)" fill="#d7766d" fill-rule="evenodd"/><path id="Path_493" data-name="Path 493" d="M620.288 194.19s24.6 6.177 38.662 34.575 48.316 118.049 56.881 143.2-22.518 132.779-62.143 190.12H601.618s50.3-143.468 52.462-157.26-47.6-94.116-47.6-94.116C592.76 270.474 593.588 230.29 620.288 194.19z" transform="translate(-248.279 68.101)" fill="#19194f" fill-rule="evenodd"/><path id="Path_494" data-name="Path 494" d="M604.236 203.545l-6.8.762-3.529 2.252-3.534-2.252-6.806-.762-40.1-29.357L456.38 207.094l-4.338 77.98C458.547 362.571 479 486.83 479 492.838s-13.808 48.093-22.365 73.684H731.166C722.6 540.93 708.8 498.845 708.8 492.838s20.454-130.267 26.959-207.764l-4.335-77.98-87.088-32.906z" transform="translate(-359.408 55.199)" fill="#2c2a64" fill-rule="evenodd"/><path id="Path_495" data-name="Path 495" d="M529.167 193.051l4.072-.554a3.087 3.087.0 0 1 .922 1.89c.118 1.193.206 4.7.206 4.7l-3.115.906s-6.17.143-6.108-.071S529.167 193.051 529.167 193.051z" transform="translate(-303.644 67.009)" fill="#accbdb" fill-rule="evenodd"/><path id="Path_496" data-name="Path 496" d="M539.079 193.051l-4.074-.554a3.076 3.076.0 0 0-.922 1.89c-.115 1.193-.206 4.7-.206 4.7l3.115.906s6.17.143 6.112-.071S539.079 193.051 539.079 193.051z" transform="translate(-296.982 67.009)" fill="#accbdb" fill-rule="evenodd"/><path id="Path_497" data-name="Path 497" d="M572.314 166.721s3.623-.505 4.872.0 5.5 14.557 8.12 18.007c0 0 2.376 2.838.626 7.605s-24.613 43.913-24.613 43.913-1.624 2.079-4.247.051-22.556-27.026-22.556-27.026l37.8-39.407z" transform="translate(-296.493 50.238)" fill="#fff" fill-rule="evenodd"/><path id="Path_498" data-name="Path 498" d="M514.467 166.959s-3.623-.507-4.874.0-5.495 14.165-8.118 17.615c0 0-2.376 2.838-.628 7.605s24.614 43.913 24.614 43.913 1.625 2.079 4.25.051 22.552-27.026 22.552-27.026l-37.8-39.014z" transform="translate(-322.668 50.391)" fill="#fff" fill-rule="evenodd"/><g id="Group_182" data-name="Group 182" transform="translate(139.181 110.021)"><path id="Path_499" data-name="Path 499" d="M586.677 101.646c.569.076 1.127.164 1.68.276h.014v0c10.2 2.063 17.891 10.472 18.023 20.622.15 11.8-9.978 21.479-22.621 21.619s-23.016-9.308-23.167-21.1a20.813 20.813.0 0 1 8.622-16.965c-.626 6.3.39 14.114 9.008 14.953l-.155-12.32C578.013 103.745 583.016 101.485 586.677 101.646z" transform="translate(-415.775 -101.619)" fill="#d77f68" fill-rule="evenodd"/><path id="Path_500" data-name="Path 500" d="M498.482 101.631c-.571.067-1.128.151-1.684.255l-.014.007v0c-10.228 1.93-18.044 10.239-18.33 20.387-.324 11.795 9.659 21.606 22.295 21.91s23.155-9.007 23.485-20.8a20.773 20.773.0 0 0-8.372-17.075c.536 6.309-.6 14.108-9.228 14.835l.34-12.318C507.111 103.843 502.145 101.519 498.482 101.631z" transform="translate(-478.447 -101.627)" fill="#d77f68" fill-rule="evenodd"/></g><path id="Path_501" data-name="Path 501" d="M566.439 250.129c-42.738.0-78.39-49.211-78.39-88.064V110.451c0-40.231 35.276-73.145 78.377-73.145h.012c43.1.0 78.379 32.914 78.379 73.145v50.521C644.818 203.553 613.718 250.129 566.439 250.129z" transform="translate(-331.941 -33.094)" fill="#e6ad83" fill-rule="evenodd"/><g id="Group_183" data-name="Group 183" transform="translate(167.224 127.061)"><path id="Path_502" data-name="Path 502" d="M568.65 111.987c-7.3.125-13.1 5.746-12.967 12.557s6.163 12.226 13.456 12.1 13.1-5.749 12.968-12.557S575.947 111.86 568.65 111.987z" transform="translate(-447.573 -111.985)" fill="#d7766d" fill-rule="evenodd"/><path id="Path_503" data-name="Path 503" d="M507.323 113.179c-7.295.127-13.1 5.748-12.966 12.557s6.159 12.228 13.454 12.1 13.1-5.748 12.967-12.555S514.619 113.055 507.323 113.179z" transform="translate(-494.355 -111.216)" fill="#d7766d" fill-rule="evenodd"/></g><path id="Path_506" data-name="Path 506" d="M537.184 115.511c1.463 3.7 4.016 10.4 3.8 11.527-.308 1.573-8.985 3.025-11.266.957-1.52-1.375.363-7.419 2.01-11.489C533.971 110.959 535.219 110.528 537.184 115.511z" transform="translate(-300.583 15.113)" fill="#ebbf9e" fill-rule="evenodd"/><g id="Group_184" data-name="Group 184" transform="translate(218.022 157.034)"><path id="Path_507" data-name="Path 507" d="M556.113 133.033c0 8.487-7.376 15.37-16.47 15.37s-16.472-6.883-16.472-15.37a2.938 2.938.0 0 1 3.032-2.828h26.875A2.943 2.943.0 0 1 556.113 133.033z" transform="translate(-523.171 -130.205)" fill="#12151d" fill-rule="evenodd"/><path id="Path_508" data-name="Path 508" d="M525.832 130.205h23.559v2.6a2.564 2.564.0 0 1-2.641 2.461H528.471a2.562 2.562.0 0 1-2.639-2.461z" transform="translate(-521.141 -130.205)" fill="#fff" fill-rule="evenodd"/><path id="Path_509" data-name="Path 509" d="M549.615 140.237a17.3 17.3.0 0 1-23.872.0 17.287 17.287.0 0 1 23.872.0z" transform="translate(-521.209 -126.819)" fill="#d26070" fill-rule="evenodd"/></g><g id="Group_187" data-name="Group 187" transform="translate(211.308 260.453)"><g id="Group_186" data-name="Group 186"><path id="Path_512" data-name="Path 512" d="M519.362 194.988a2.343 2.343.0 0 1 2.8-1.877l14.513 6.9 5.87 6.373-5.87 6.37-14.513 6.9a2.343 2.343.0 0 1-2.8-1.877l4.384-11.4z" transform="translate(-519.362 -193.073)" fill="#cf4a60" fill-rule="evenodd"/><path id="Path_513" data-name="Path 513" d="M555.7 194.988a2.345 2.345.0 0 0-2.8-1.877l-14.515 6.9-5.865 6.373 5.865 6.37 14.515 6.9a2.345 2.345.0 0 0 2.8-1.877l-4.382-11.4z" transform="translate(-509.328 -193.073)" fill="#cf4a60" fill-rule="evenodd"/></g><path id="Rectangle_41" data-name="Rectangle 41" d="M1.588.0h8.561a1.588 1.588.0 0 1 1.588 1.588V16.382a1.587 1.587.0 0 1-1.587 1.587H1.589A1.589 1.589.0 0 1 0 16.38V1.588A1.588 1.588.0 0 1 1.588.0z" transform="translate(17.316 4.327)" fill="#ba3147"/></g><path id="Path_514" data-name="Path 514" d="M565.968 161.29a1.173 1.173.0 0 1-1.311-.98 1.131 1.131.0 0 1 1.052-1.227l.418-.043c7.108-.831 12.922-6.942 16.83-14.345a47.925 47.925.0 0 0 5.34-17.605 23.693 23.693.0 0 0 2.443-.992 49.466 49.466.0 0 1-5.648 19.578c-4.225 8.006-10.649 14.634-18.675 15.572z" transform="translate(-273.508 24.18)" fill="#accbdb" fill-rule="evenodd"/><path id="Path_515" data-name="Path 515" d="M510.353 161.29a1.178 1.178.0 0 0 1.315-.98 1.136 1.136.0 0 0-1.054-1.227l-.42-.043c-7.1-.831-12.92-6.942-16.828-14.345a47.884 47.884.0 0 1-5.336-17.605 23.457 23.457.0 0 1-2.447-.992 49.447 49.447.0 0 0 5.652 19.578c4.226 8.006 10.648 14.634 18.672 15.572z" transform="translate(-333.822 24.18)" fill="#accbdb" fill-rule="evenodd"/><g id="Group_188" data-name="Group 188" transform="translate(152.175)"><path id="Path_516" data-name="Path 516" d="M536.5 90.33c-8.347.0-24.482 3.69-24.482 19.242s-3.163 27.892-13.8 27.892v12.2c0 6.822-.712 13.721-7.608 13.721.0-14.675-4.795-20.441-4.795-20.441v-36.8c0-17.163 5.17-40.224 29.311-56.046 31.239-20.476 74.764-20.476 106.006.0 24.139 15.822 29.309 38.884 29.309 56.046v36.8s-4.791 5.766-4.791 20.441c-6.9.0-7.614-6.9-7.614-13.721v-12.2c-10.632.0-13.794-12.336-13.794-27.892S608.114 90.33 599.767 90.33z" transform="translate(-485.816 -34.746)" fill="#19194f" fill-rule="evenodd"/><path id="Path_517" data-name="Path 517" d="M485.818 102.824s6.716 37.456 6.716 55.155 23.171 45.411 43.288 51.847 27.112 6.034 32.309 6.034 12.2.4 32.307-6.034 44.968-33.754 44.968-51.455 5.038-55.546 5.038-55.546L639.731 96.95c0 10.045-4.048 33.182-4.844 45.915-.823 13.131-11.432 14.345-25.187 17.784-9.815 2.454-12.007 27.064-19.915 27.064S577 184.88 574.8 184.023s-6.663-.88-6.663-.88-4.456.021-6.667.88-7.076 3.69-14.986 3.69-8.421-25-18.237-27.456c-13.754-3.438-24.364-4.654-25.186-17.783-.8-12.736-6.526-35.48-6.526-45.525z" transform="translate(-485.818 5.378)" fill="#19194f" fill-rule="evenodd"/><path id="Path_518" data-name="Path 518" d="M519.573 73.471a16.635 16.635.0 0 0-7.55 14.481c0 15.555-3.163 27.892-13.8 27.892v8.706a6.024 6.024.0 0 1-6.205 5.791h0a6.025 6.025.0 0 1-6.2-5.791v-7.327l.005-.23V84.529a78.479 78.479.0 0 1 1.216-13.943c14.388-6.569 32.53 2.885 32.53 2.885zm118.471 43.521-.005.23v7.327a6.025 6.025.0 0 0 6.205 5.791h0a6.026 6.026.0 0 0 6.205-5.791V84.529a78.283 78.283.0 0 0-1.215-13.938h-.011c-14.309-6.534-32.334 2.78-32.526 2.882a16.63 16.63.0 0 1 7.552 14.485c0 15.555 3.162 27.892 13.794 27.892z" transform="translate(-485.818 -13.126)" fill="#2c2a64" fill-rule="evenodd"/></g></g><path id="Path_519" data-name="Path 519" d="M570.06 131.3a1.276 1.276.0 0 1-1.565.793 1.169 1.169.0 0 1-.846-1.462c.023-.066 6.367-20.134 17.263-28.477l.658 2.486C575.934 112.731 570.081 131.234 570.06 131.3z" transform="translate(-271.259 8.732)" fill="#accbdb" fill-rule="evenodd"/><path id="Path_520" data-name="Path 520" d="M502.749 131.3a1.275 1.275.0 0 0 1.564.793 1.163 1.163.0 0 0 .846-1.462c-.019-.066-6.362-20.134-17.263-28.477l-.656 2.486C496.876 112.731 502.727 131.234 502.749 131.3z" transform="translate(-332.558 8.732)" fill="#accbdb" fill-rule="evenodd"/><g id="Group_190" data-name="Group 190" transform="translate(167.491 131.047)"><path id="Path_521" data-name="Path 521" d="M561.508 114.408l64.5 3.216s2.574.691 2.5 2.9-2.339 44.855-2.339 44.855a13.591 13.591.0 0 1-2.664 7.156c-2.558 3.316-22.855 34.534-62 34.534s-59.443-31.218-62-34.534a13.621 13.621.0 0 1-2.665-7.156s-2.258-42.643-2.336-44.855 2.5-2.9 2.5-2.9z" transform="translate(-494.506 -114.408)" fill="#fff" fill-rule="evenodd"/><path id="Path_522" data-name="Path 522" d="M559.34 117.224l-61.985 3.089c.547 14.322 1.587 28.719 2.272 43.044a9.129 9.129.0 0 0 1.74 4.664c1.726 2.239 3.267 4.433 5.125 6.625a81.93 81.93.0 0 0 11.351 11.071c11.836 9.457 25.783 14.911 41.5 14.911s29.658-5.453 41.492-14.911a81.866 81.866.0 0 0 11.354-11.071c1.856-2.191 3.4-4.386 5.123-6.625a9.129 9.129.0 0 0 1.74-4.664c.686-14.325 1.728-28.722 2.269-43.044z" transform="translate(-492.333 -112.592)" fill="#d3e4ec" fill-rule="evenodd"/><path id="Path_523" data-name="Path 523" d="M497.877 131.9c.315 5.6.65 11.2.959 16.793l57.174-20.583-58.133 3.79zm1.26 22.542.092 1.9a9.129 9.129.0 0 0 1.74 4.664c1.726 2.239 3.267 4.433 5.125 6.625A81.929 81.929.0 0 0 517.444 178.7c11.836 9.457 25.783 14.911 41.5 14.911s29.658-5.453 41.492-14.911a81.865 81.865.0 0 0 11.354-11.071c1.856-2.191 3.4-4.386 5.123-6.625a7.652 7.652.0 0 0 .719-1.138s-10.05 10.148-44.947 10.148-73.546-15.569-73.546-15.569zm119.714-2.106c.212-4.1.45-8.214.686-12.321l-42.631-2.778z" transform="translate(-491.935 -105.57)" fill="#accbdb" fill-rule="evenodd"/></g></g><g id="Group_200" data-name="Group 200" transform="translate(319.38 40.171)"><g id="Group_199" data-name="Group 199"><path id="Path_524" data-name="Path 524" d="M210.867 194.19s-24.6 6.177-38.659 34.575-48.318 118.049-56.881 143.2 22.517 132.779 62.145 190.12h52.069s-50.3-143.468-52.462-157.26 47.6-94.116 47.6-94.116C238.4 270.474 237.572 230.29 210.867 194.19z" transform="translate(-113.897 66.777)" fill="#e7f0f4" fill-rule="evenodd"/><path id="Path_525" data-name="Path 525" d="M264.711 108.422h0c23.106.0 42.01 30.165 42.01 67.037v54.447c0 36.873-18.9 67.04-42.01 67.04h0c-23.107.0-42.012-30.167-42.012-67.04V175.459C222.7 138.587 241.6 108.422 264.711 108.422z" transform="translate(-16.441 10.487)" fill="#d7766d" fill-rule="evenodd"/><path id="Path_526" data-name="Path 526" d="M334.694 194.19s24.6 6.177 38.659 34.575 48.316 118.049 56.88 143.2-22.515 132.779-62.143 190.12H316.019s50.3-143.468 52.465-157.26-47.6-94.116-47.6-94.116C307.162 270.474 307.994 230.29 334.694 194.19z" transform="translate(66.338 66.777)" fill="#e7f0f4" fill-rule="evenodd"/><path id="Path_527" data-name="Path 527" d="M334.206 203.545l-7.5.762-3.892 2.252-3.894-2.252-7.5-.762-44.2-29.357-95.991 32.906-4.782 77.98c7.172 77.5 29.716 201.757 29.716 207.764s-15.219 48.093-24.653 73.684H474.117c-9.434-25.592-24.653-67.677-24.653-73.684s22.546-130.267 29.718-207.764l-4.782-77.98-96-32.906z" transform="translate(-73.812 53.875)" fill="#fff" fill-rule="evenodd"/><path id="Path_528" data-name="Path 528" d="M269.011 204.46l1.874 9.33 18.99 231.03-30.251 60.039-30.254-60.039 18.987-231.03 1.875-9.33 9.392 5.677z" transform="translate(-11.35 73.401)" fill="#cf4a60" fill-rule="evenodd"/><path id="Path_529" data-name="Path 529" d="M258.331 204.46l1.874 9.331L279.2 444.821l-30.252 60.037s17.766-51.707 18.473-59.72-10.693-228.35-14.041-230.4-10.008-1.852-10.008-1.852l4.257-3.538 1.319.793z" transform="translate(0.159 73.401)" fill="#ba3147" fill-rule="evenodd"/><path id="Path_530" data-name="Path 530" d="M243.572 193.051l4.07-.554a3.084 3.084.0 0 1 .924 1.89c.116 1.193.2 4.7.2 4.7l-3.113.906s-6.17.143-6.112-.071S243.572 193.051 243.572 193.051z" transform="translate(-4.067 64.909)" fill="#accbdb" fill-rule="evenodd"/><path id="Path_531" data-name="Path 531" d="M253.479 193.051l-4.07-.554a3.077 3.077.0 0 0-.922 1.89c-.116 1.193-.2 4.7-.2 4.7l3.111.906s6.17.143 6.112-.071S253.479 193.051 253.479 193.051z" transform="translate(3.569 64.909)" fill="#accbdb" fill-rule="evenodd"/><path id="Path_532" data-name="Path 532" d="M243.979 219.23l-8.871-18.155c7.668-6.73 32.6-6.73 40.272.0l-8.874 18.155A55.392 55.392.0 0 0 243.979 219.23z" transform="translate(-6.97 67.213)" fill="#cf4a60" fill-rule="evenodd"/><path id="Path_533" data-name="Path 533" d="M238.643 208.308l-3.535-7.233c2.759-2.42 7.751-3.971 13.369-4.649l-9.835 11.882zm16.8-12.279c8.081.025 16.13 1.709 19.934 5.045l-8.874 18.155a44.7 44.7.0 0 0-8.488-1.1c1.675-1.257 3.878-2.982 3.952-3.394.116-.668-.03-16.288-.735-16.551z" transform="translate(-6.97 67.214)" fill="#ba3147" fill-rule="evenodd"/><path id="Path_534" data-name="Path 534" d="M286.717 166.839s3.624-.507 4.872.0 5.5 14.363 8.121 17.812c0 0 2.375 2.838.626 7.605s-24.613 43.913-24.613 43.913-1.625 2.079-4.25.051-22.554-27.026-22.554-27.026l37.8-39.209z" transform="translate(5.67 48.174)" fill="#d3e4ec" fill-rule="evenodd"/><path id="Path_535" data-name="Path 535" d="M228.871 166.364s-3.623-.507-4.872.0-5.5 15.144-8.121 18.594c0 0-2.376 2.838-.626 7.605s24.613 43.913 24.613 43.913 1.627 2.079 4.248.051S266.666 209.5 266.666 209.5l-37.8-39.994z" transform="translate(-24.714 47.867)" fill="#d3e4ec" fill-rule="evenodd"/><g id="Group_192" data-name="Group 192" transform="translate(153.692 107.616)"><path id="Path_536" data-name="Path 536" d="M301.08 101.646c.569.076 1.125.164 1.68.276h.016v0c10.2 2.063 17.891 10.472 18.021 20.622.15 11.8-9.978 21.479-22.617 21.619s-23.019-9.308-23.171-21.1a20.807 20.807.0 0 1 8.626-16.965c-.629 6.3.386 14.114 9 14.953l-.155-12.32C292.416 103.745 297.42 101.485 301.08 101.646z" transform="translate(-130.18 -101.619)" fill="#d77f68" fill-rule="evenodd"/><path id="Path_537" data-name="Path 537" d="M212.882 101.631c-.569.067-1.126.151-1.678.255l-.019.007v0c-10.224 1.93-18.039 10.239-18.326 20.387-.326 11.795 9.657 21.606 22.295 21.91s23.153-9.007 23.481-20.8a20.762 20.762.0 0 0-8.37-17.075c.534 6.309-.6 14.108-9.228 14.835l.34-12.318C221.517 103.843 216.547 101.519 212.882 101.631z" transform="translate(-192.851 -101.627)" fill="#d77f68" fill-rule="evenodd"/></g><path id="Path_538" data-name="Path 538" d="M280.842 250.129c-42.74.0-78.39-49.211-78.39-88.064V110.451c0-40.231 35.276-73.145 78.377-73.145h.012c43.1.0 78.377 32.914 78.377 73.145v50.521C359.219 203.553 328.121 250.129 280.842 250.129z" transform="translate(-31.835 -35.743)" fill="#e6ad83" fill-rule="evenodd"/><g id="Group_193" data-name="Group 193" transform="translate(181.733 124.686)"><path id="Path_539" data-name="Path 539" d="M283.055 111.987c-7.295.125-13.1 5.746-12.969 12.557s6.165 12.226 13.459 12.1 13.1-5.749 12.966-12.557S290.352 111.86 283.055 111.987z" transform="translate(-161.976 -111.985)" fill="#d7766d" fill-rule="evenodd"/><path id="Path_540" data-name="Path 540" d="M221.729 113.179c-7.3.127-13.1 5.748-12.969 12.557s6.159 12.228 13.456 12.1 13.1-5.748 12.966-12.555S229.024 113.055 221.729 113.179z" transform="translate(-208.758 -111.216)" fill="#d7766d" fill-rule="evenodd"/></g><path id="Path_543" data-name="Path 543" d="M251.587 115.511c1.463 3.7 4.016 10.4 3.8 11.527-.3 1.573-8.985 3.025-11.268.957-1.514-1.375.365-7.419 2.013-11.489C248.373 110.959 249.619 110.528 251.587 115.511z" transform="translate(-0.477 12.734)" fill="#ebbf9e" fill-rule="evenodd"/><g id="Group_195" data-name="Group 195" transform="translate(232.532 154.72)"><path id="Path_544" data-name="Path 544" d="M270.516 133.033c0 8.487-7.377 15.37-16.472 15.37s-16.47-6.883-16.47-15.37a2.938 2.938.0 0 1 3.03-2.828h26.878A2.942 2.942.0 0 1 270.516 133.033z" transform="translate(-237.574 -130.205)" fill="#12151d" fill-rule="evenodd"/><path id="Path_545" data-name="Path 545" d="M240.235 130.205h23.559v2.6a2.563 2.563.0 0 1-2.639 2.461H242.874a2.563 2.563.0 0 1-2.639-2.461z" transform="translate(-235.544 -130.205)" fill="#fff" fill-rule="evenodd"/><path id="Path_546" data-name="Path 546" d="M264.018 140.237a17.3 17.3.0 0 1-23.872.0 17.287 17.287.0 0 1 23.872.0z" transform="translate(-235.612 -126.819)" fill="#d26070" fill-rule="evenodd"/></g><path id="Path_549" data-name="Path 549" d="M282.461 131.573a1.208 1.208.0 0 1-1.483.747 1.1 1.1.0 0 1-.8-1.382c.021-.064 6.027-19.058 16.341-26.957l.621 2.352C288.021 114 282.479 131.512 282.461 131.573z" transform="translate(31.724 7.51)" fill="#accbdb" fill-rule="evenodd"/><path id="Path_550" data-name="Path 550" d="M280.372 161.29a1.172 1.172.0 0 1-1.312-.98 1.13 1.13.0 0 1 1.051-1.227l.419-.043c7.106-.831 12.922-6.942 16.828-14.345a47.893 47.893.0 0 0 5.34-17.605 23.527 23.527.0 0 0 2.442-.992 49.41 49.41.0 0 1-5.646 19.578c-4.227 8.006-10.649 14.634-18.676 15.572z" transform="translate(31.166 21.861)" fill="#accbdb" fill-rule="evenodd"/><path id="Path_551" data-name="Path 551" d="M218.742 131.573a1.206 1.206.0 0 0 1.481.747 1.1 1.1.0 0 0 .8-1.382c-.023-.064-6.029-19.058-16.343-26.957l-.622 2.352C213.184 114 218.723 131.512 218.742 131.573z" transform="translate(-34.912 7.51)" fill="#accbdb" fill-rule="evenodd"/><path id="Path_552" data-name="Path 552" d="M224.754 161.29a1.178 1.178.0 0 0 1.317-.98 1.135 1.135.0 0 0-1.054-1.227l-.42-.043c-7.1-.831-12.92-6.942-16.828-14.345a47.959 47.959.0 0 1-5.34-17.605 23.876 23.876.0 0 1-2.443-.992 49.5 49.5.0 0 0 5.648 19.578c4.227 8.006 10.649 14.634 18.677 15.572z" transform="translate(-38.282 21.861)" fill="#accbdb" fill-rule="evenodd"/><g id="Group_197" data-name="Group 197" transform="translate(185.579 130.653)"><path id="Path_553" data-name="Path 553" d="M274.362 115.584l61.054 3.045s2.44.653 2.368 2.747-2.211 42.458-2.211 42.458a12.873 12.873.0 0 1-2.524 6.774c-2.419 3.14-21.637 32.69-58.687 32.69s-56.264-29.55-58.687-32.69a12.855 12.855.0 0 1-2.524-6.774s-2.138-40.366-2.211-42.458 2.366-2.747 2.366-2.747z" transform="translate(-210.939 -115.584)" fill="#fff" fill-rule="evenodd"/><path id="Path_554" data-name="Path 554" d="M272.309 118.249l-58.672 2.925c.515 13.56 1.5 27.186 2.147 40.746a8.658 8.658.0 0 0 1.646 4.414c1.634 2.124 3.1 4.2 4.851 6.274a77.62 77.62.0 0 0 10.748 10.479c11.2 8.951 24.4 14.116 39.279 14.116s28.075-5.165 39.281-14.116a77.888 77.888.0 0 0 10.744-10.479c1.756-2.076 3.215-4.15 4.85-6.274a8.593 8.593.0 0 0 1.645-4.414c.652-13.56 1.636-27.186 2.152-40.746z" transform="translate(-208.881 -113.865)" fill="#d3e4ec" fill-rule="evenodd"/><path id="Path_555" data-name="Path 555" d="M214.128 132.14c.3 5.3.621 10.6.911 15.9l54.123-19.484-55.034 3.586zm1.2 21.339.086 1.793a8.658 8.658.0 0 0 1.646 4.414c1.634 2.124 3.1 4.2 4.851 6.274a77.619 77.619.0 0 0 10.748 10.479c11.2 8.951 24.4 14.116 39.279 14.116s28.075-5.165 39.281-14.116a77.886 77.886.0 0 0 10.744-10.479c1.756-2.076 3.215-4.15 4.85-6.274a7.473 7.473.0 0 0 .679-1.076s-9.512 9.605-42.548 9.605-69.618-14.736-69.618-14.736zm113.322-1.99c.2-3.887.427-7.776.651-11.665l-40.357-2.63z" transform="translate(-208.506 -107.218)" fill="#accbdb" fill-rule="evenodd"/></g><g id="Group_198" data-name="Group 198" transform="translate(165.785)"><path id="Path_556" data-name="Path 556" d="M282.927 36.356c18.894.0 37.792 5.174 53.581 15.523 24.4 16 29.633 39.311 29.633 56.662v37.2s-4.846 5.832-4.846 20.668c-6.974.0-7.695-6.978-7.695-13.874V140.2c-15.337.0-17.179-38.323-14.319-42.911 2.325-3.729 9.588-13.6 12.134-16.482.0.0 1.058-1.324.005-1.9s-1.895.383-6.256 4.517-9.66 8.474-12.2 9.694c-3.815 1.833-16.345-.571-22.443-.571H255.334c-6.1.0-18.631 2.4-22.444.571-2.542-1.221-7.845-5.56-12.2-9.694s-5.2-5.095-6.253-4.517.005 1.9.005 1.9c2.547 2.884 9.808 12.752 12.132 16.482 2.861 4.588 1.019 42.911-14.32 42.911v12.336c0 6.9-.717 13.874-7.693 13.874.0-14.837-4.846-20.668-4.846-20.668v-37.2c0-17.35 5.225-40.664 29.632-56.662C245.136 41.53 264.032 36.356 282.927 36.356z" transform="translate(-199.711 -36.356)" fill="#2c2a64" fill-rule="evenodd"/><path id="Path_557" data-name="Path 557" d="M210.749 78.906c1.054-.577 1.9.383 6.253 4.517s9.662 8.474 12.2 9.694c3.813 1.833 16.349-.571 22.444-.571h55.187c6.1.0 18.628 2.4 22.443.571 2.54-1.221 7.845-5.56 12.2-9.694s5.2-5.095 6.256-4.517-.005 1.9-.005 1.9l1.43-1.564L353.948 74a64.1 64.1.0 0 0-21.122-22.119c-15.79-10.349-34.687-15.523-53.581-15.523S241.453 41.53 225.66 51.879A64.111 64.111.0 0 0 204.539 74l4.788 5.243 1.428 1.564S209.7 79.481 210.749 78.906z" transform="translate(-196.028 -36.356)" fill="#19194f" fill-rule="evenodd"/></g></g><path id="Path_558" data-name="Path 558" d="M422.931 412.684H196.119V556.323h212.43z" transform="translate(-33.806 207.713)" fill="#19194f" fill-rule="evenodd"/></g><g id="Group_206" data-name="Group 206" transform="translate(9.785 227.082)"><path id="Path_559" data-name="Path 559" d="M98.469 239.7s2.144 33.166-11.249 63.018c0 0-2.408 7.465 2.947 11.885s42.846 16.587 90.777 16.587 85.422-12.163 90.779-16.587 2.944-11.885 2.944-11.885c-13.387-29.852-11.245-63.018-11.245-63.018l-82.478-7.6z" transform="translate(48.873 -99.78)" fill="#19194f" fill-rule="evenodd"/><path id="Path_560" data-name="Path 560" d="M92.338 637.5c7.467-36.581 2.142-70.171-5.44-120.048-14.411-26.108-25.434-73.574-17.8-107.592s8.486-83.143 8.486-83.143 71.837-14.758 78.2-17.725 6.939-15.425 6.939-15.425l33.545-6.727 33.549 6.727s.576 12.459 6.937 15.425 78.2 17.725 78.2 17.725.857 49.124 8.486 83.143-3.392 81.483-17.8 107.592c-7.582 49.886-12.907 83.469-5.44 120.048z" transform="translate(33.558 -64.474)" fill="#e6ad83" fill-rule="evenodd"/><path id="Path_561" data-name="Path 561" d="M154.683 242.962h0c18.466.0 33.577 14.1 33.577 31.331v59.983c0 17.233-15.111 31.333-33.577 31.333h0c-18.466.0-33.575-14.1-33.575-31.333V274.293C121.108 257.06 136.217 242.962 154.683 242.962z" transform="translate(75.136 -92.775)" fill="#e6ad83" fill-rule="evenodd"/><g id="Group_201" data-name="Group 201" transform="translate(138.183 121.632)"><path id="Path_562" data-name="Path 562" d="M192.225 226.186c.531.072 1.051.155 1.569.258l.014.007v0c9.521 1.925 16.7 9.775 16.826 19.252.139 11.012-9.315 20.05-21.115 20.181s-21.487-8.691-21.628-19.7a19.425 19.425.0 0 1 8.053-15.84c-.589 5.886.36 13.178 8.407 13.96l-.146-11.5C184.139 228.147 188.807 226.036 192.225 226.186z" transform="translate(-27.363 -225.233)" fill="#d7766d" fill-rule="evenodd"/><path id="Path_563" data-name="Path 563" d="M106.876 225.607c-.532.064-1.052.143-1.571.239l-.016.007v0c-9.548 1.8-16.846 9.559-17.112 19.033-.3 11.01 9.019 20.17 20.816 20.453s21.614-8.408 21.919-19.416a19.379 19.379.0 0 0-7.815-15.942c.5 5.891-.555 13.17-8.617 13.851l.321-11.5C114.934 227.675 110.3 225.5 106.876 225.607z" transform="translate(-88.172 -225.604)" fill="#d7766d" fill-rule="evenodd"/></g><path id="Path_564" data-name="Path 564" d="M171.825 364.8c-39.9.0-73.179-45.943-73.179-82.211V234.406c0-37.556 32.93-68.282 73.166-68.282h.012c40.235.0 73.17 30.726 73.17 68.282v47.163C244.995 321.316 215.961 364.8 171.825 364.8z" transform="translate(58.001 -142.338)" fill="#e6ad83" fill-rule="evenodd"/><path id="Path_565" data-name="Path 565" d="M103.152 196.842a69.875 69.875.0 0 1 16.89-20.3L203.211 187.1s29.947 19.367 38.04 34.4c.2 2.037.307 4.1.307 6.182v5.157c-1.712 2.055-4.8 3.69-9.667 4.726-37.15 7.9-62.824-19.37-62.824-19.37s24.31.763-8.465 10.448-54.9-18.094-54.9-18.094z" transform="translate(61.438 -135.618)" fill="#d7766d" fill-rule="evenodd"/><g id="Group_202" data-name="Group 202" transform="translate(164.616 153.179)"><path id="Path_566" data-name="Path 566" d="M175.3 244.783c-6.667.117-11.971 5.253-11.85 11.472s5.63 11.171 12.3 11.058 11.971-5.254 11.848-11.477S181.961 244.669 175.3 244.783z" transform="translate(-57.185 -244.781)" fill="#d7766d" fill-rule="evenodd"/><path id="Path_567" data-name="Path 567" d="M115.015 245.873c-6.665.115-11.971 5.253-11.846 11.474s5.627 11.168 12.3 11.056 11.97-5.254 11.846-11.474S121.68 245.759 115.015 245.873z" transform="translate(-103.167 -244.078)" fill="#d7766d" fill-rule="evenodd"/></g><path id="Path_570" data-name="Path 570" d="M129.875 258.428c-.109 11.161 9.5 20.295 21.464 20.4s21.746-8.865 21.857-20.028h-.037a3.624 3.624.0 0 0-3.706-3.522l-35.77-.3a3.643 3.643.0 0 0-3.774 3.461z" transform="translate(81.823 -85.032)" fill="#fff" fill-rule="evenodd"/><path id="Path_571" data-name="Path 571" d="M134.365 269.007a22.936 22.936.0 0 0 25.029 1.635c-1.624-4.162-6.457-7.307-12.313-7.557C141.492 262.839 136.57 265.3 134.365 269.007z" transform="translate(85.248 -79.806)" fill="#fff" fill-rule="evenodd"/><path id="Path_572" data-name="Path 572" d="M166.234 255.26l-33.615-.288c-.568 3.466 1.119 6.983 3.612 7.768 3.036.956 27.366.571 29.1-1.2C166.174 260.679 166.315 257.9 166.234 255.26z" transform="translate(83.832 -85.028)" fill="#fff" fill-rule="evenodd"/><path id="Path_573" data-name="Path 573" d="M146.707 239.4c1.572 4.164 4.308 11.688 4.074 12.867-.328 1.647-9.644 2.078-12.09-.436-1.631-1.675.39-7.916 2.156-12.07C143.259 234.1 144.6 233.8 146.707 239.4z" transform="translate(88.091 -97.682)" fill="#f1d3c8" fill-rule="evenodd"/><path id="Path_574" data-name="Path 574" d="M267.308 306.032l-14.415 181.6 29.644.721s5.787 87.815 16.572 136.766H77.585c10.787-48.951 16.571-136.766 16.571-136.766l29.642-.721-14.416-181.6C151.631 370.573 225.06 370.573 267.308 306.032z" transform="translate(41.935 -52.093)" fill="#fff" fill-rule="evenodd"/><g id="Group_203" data-name="Group 203" transform="translate(119.52 285.525)"><path id="Path_575" data-name="Path 575" d="M159 612.731H77.585c10.787-48.951 16.571-136.766 16.571-136.766l29.642-.721-11.6-146.166c10.046-1.587 19.054-2.857 26.615-3.844a90.314 90.314.0 0 0 24.244 12.631c-1.675 260.118-4.1 273.72-4.1 273.72z" transform="translate(-77.585 -325.233)" fill="#cfd0d2" fill-rule="evenodd"/><path id="Path_576" data-name="Path 576" d="M205.625 329.077l-11.6 146.166 29.644.721s5.787 87.815 16.572 136.766h-81.42l.049-1.147s-2.424-13.6-4.1-273.72a90.184 90.184.0 0 0 24.244-12.631C186.567 326.22 195.579 327.49 205.625 329.077z" transform="translate(-18.712 -325.233)" fill="#cfd0d2" fill-rule="evenodd"/></g><path id="Path_577" data-name="Path 577" d="M162.482 333.2s-3.686-4.206-4.917-7.265-.816-5.162 2.872-8.6 17.613-15.485 20.278-17.776a4.931 4.931.0 0 1 6.859.1c1.435 1.337 6.822 7.417 6.822 7.417S185.121 323.359 162.482 333.2z" transform="translate(102.473 -57.136)" fill="#ba3147" fill-rule="evenodd"/><path id="Path_578" data-name="Path 578" d="M160.75 329.729a40.152 40.152.0 0 0-1.534 11.375c0 6.689 2.457 99.781 4.093 146.423s2.463 122.723 2.463 128.457 2.868 7.648 7.781 6.881 65.146-13 85.626-17.585c0 0 7.785-4.206 7.785-11.853s-9.422-144.511-9.422-144.511-18.684-91.619 12.37-118.067a35.522 35.522.0 0 0-9.093-9.242c-6.145-4.4-68.155-18.008-68.155-18.008z" transform="translate(104.206 -53.662)" fill="#cf4a60" fill-rule="evenodd"/><path id="Path_579" data-name="Path 579" d="M134.557 333.2s3.686-4.206 4.917-7.265.82-5.162-2.866-8.6-17.618-15.485-20.281-17.776a4.933 4.933.0 0 0-6.861.1c-1.435 1.337-6.824 7.417-6.824 7.417S111.921 323.359 134.557 333.2z" transform="translate(61.048 -57.136)" fill="#ba3147" fill-rule="evenodd"/><path id="Path_580" data-name="Path 580" d="M167.985 329.729a40.068 40.068.0 0 1 1.537 11.375c0 6.689-2.461 99.781-4.1 146.423s-2.459 122.723-2.459 128.457-2.87 7.648-7.785 6.881-65.142-13-85.626-17.585c0 0-7.783-4.206-7.783-11.853S71.2 448.916 71.2 448.916 89.879 357.3 58.82 330.849a35.613 35.613.0 0 1 9.1-9.242c6.147-4.4 68.153-18.008 68.153-18.008z" transform="translate(27.62 -53.662)" fill="#cf4a60" fill-rule="evenodd"/><path id="Path_581" data-name="Path 581" d="M194.32 296.782V281.815a64.189 64.189.0 0 1-33.1 9.4c-.157.0-.31.0-.467.0s-.314.0-.471.0c-11.869-.107-23.139-4.272-33.11-11.022v18.1c-.178 2.249-1.267 12.348-6.909 14.978a56.345 56.345.0 0 1-7.1 2.115c.686.594 4.347 4.16 5.1 4.812z" transform="translate(69.075 -68.759)" fill="#d7766d" fill-rule="evenodd"/><path id="Path_582" data-name="Path 582" d="M110.239 289.55s16.581-6.115 9.928-24.212c0 0 18.573-11.469 14.2-42.565 2.152 7.551 27.3 34.71 55.72 26.506 17.674-5.1 8.467-17.842 8.467-17.842s14.337 16.569 40.286 14.4c0 0-6.648 19.869 11.469 24.342.0.0-2.066 18.35 6.277 19.88.0.0 1.722-16.228 9.26-12.445.0.0 11.1-50 6.18-77.014s-80.845-48.936-102.7-48.936-57.9 23.958-60.086 41.8c0 0-24.036 5.1-25.676 17.33S97.6 279.407 97.6 279.407 110.239 275.533 110.239 289.55z" transform="translate(46.408 -151.665)" fill="#19194f" fill-rule="evenodd"/><g id="Group_205" data-name="Group 205" transform="translate(149.299 125.439)"><path id="Path_584" data-name="Path 584" d="M172.457 254.462a1.2 1.2.0 0 1-1.479.749 1.1 1.1.0 0 1-.8-1.382c.019-.066 17.318-27.212 26.48-25.862l-2.586 1.877C184.952 237.51 172.477 254.4 172.457 254.462z" transform="translate(-36.77 -227.918)" fill="#accbdb" fill-rule="evenodd"/><path id="Path_585" data-name="Path 585" d="M119.668 253.231a1.212 1.212.0 0 0 1.481.749 1.1 1.1.0 0 0 .8-1.382c-.023-.064-17.508-24.659-26.67-23.307l1.41.559 1.119.709C106.934 238.222 119.649 253.17 119.668 253.231z" transform="translate(-93.864 -227.068)" fill="#accbdb" fill-rule="evenodd"/><path id="Path_586" data-name="Path 586" d="M123.052 282.809a1.175 1.175.0 0 0 1.315-.982 1.134 1.134.0 0 0-1.054-1.227l-.416-.041C109.529 279 97.875 260.486 96.953 249.471c-.839-.441-1.654-.913-2.475-1.436.626 12.413 13.13 32.98 28.13 34.73z" transform="translate(-94.478 -214.942)" fill="#accbdb" fill-rule="evenodd"/><path id="Path_587" data-name="Path 587" d="M170.066 282.809a1.175 1.175.0 0 1-1.315-.982 1.136 1.136.0 0 1 1.054-1.227l.418-.041c13.364-1.561 27.465-20.073 28.385-31.088.841-.441 1.655-.913 2.477-1.436-.626 12.413-15.576 32.98-30.575 34.73z" transform="translate(-37.825 -214.942)" fill="#accbdb" fill-rule="evenodd"/><g id="Group_204" data-name="Group 204" transform="translate(24.132 21.261)"><path id="Path_588" data-name="Path 588" d="M164.549 240.843l54.278 2.7s2.17.584 2.1 2.443-1.969 37.747-1.969 37.747a11.444 11.444.0 0 1-2.242 6.021c-2.149 2.793-19.233 29.061-52.171 29.061s-50.022-26.268-52.169-29.061a11.444 11.444.0 0 1-2.242-6.021s-1.9-35.885-1.969-37.747 2.1-2.443 2.1-2.443z" transform="translate(-108.167 -240.843)" fill="#fff" fill-rule="evenodd"/><path id="Path_589" data-name="Path 589" d="M162.725 243.213l-52.159 2.6c.458 12.053 1.333 24.166 1.909 36.222a7.69 7.69.0 0 0 1.467 3.923c1.453 1.887 2.75 3.733 4.312 5.577a69.222 69.222.0 0 0 9.551 9.314 54.86 54.86.0 0 0 69.838.0 69.137 69.137.0 0 0 9.553-9.314c1.562-1.844 2.859-3.69 4.312-5.577a7.673 7.673.0 0 0 1.465-3.923c.576-12.056 1.453-24.169 1.911-36.222z" transform="translate(-106.337 -239.314)" fill="#d3e4ec" fill-rule="evenodd"/><path id="Path_590" data-name="Path 590" d="M111 255.559c.266 4.715.548 9.428.806 14.136l48.113-17.322L111 255.559zm1.059 18.972.076 1.594a7.69 7.69.0 0 0 1.467 3.923c1.453 1.887 2.75 3.733 4.312 5.577a69.222 69.222.0 0 0 9.551 9.314 54.86 54.86.0 0 0 69.838.0 69.137 69.137.0 0 0 9.553-9.314c1.562-1.844 2.859-3.69 4.312-5.577a6.3 6.3.0 0 0 .6-.957s-8.455 8.541-37.823 8.541-61.89-13.1-61.89-13.1zm100.739-1.77q.27-5.182.58-10.37l-35.875-2.338z" transform="translate(-106.002 -233.406)" fill="#accbdb" fill-rule="evenodd"/></g></g><path id="Path_591" data-name="Path 591" d="M105.322 314.546s-17.091 5.33-25.237 20.533S14.636 473.7 11.921 486.876c-2.616 12.7-7.249 48.992 17.683 132.748H99.118c-2.672-10.732-18-100.357-20.394-102.846l30.19-76.57S144.3 347.881 105.322 314.546z" transform="translate(-9.785 -46.601)" fill="#ba3147" fill-rule="evenodd"/><path id="Path_592" data-name="Path 592" d="M224.775 314.546s17.091 5.33 25.239 20.533 65.445 138.619 68.162 151.8c2.618 12.7 7.247 48.992-17.683 132.748H230.978c2.672-10.732 18-100.357 20.394-102.846l-30.192-76.57S185.793 347.881 224.775 314.546z" transform="translate(140.25 -46.601)" fill="#ba3147" fill-rule="evenodd"/></g><g id="Group_211" data-name="Group 211" transform="translate(1468.302 213.291)"><path id="Path_593" data-name="Path 593" d="M578.833 298.578l-12.828 5.063s1.773 52.317-11.261 88.338-2.671 66.469 18.37 59.178c0 0 1.227 21.945 18.663 27.018s39.11 9 39.11 9l58.669 3.433s55.7 16.292 59.852-52.748c0 0 18.965-.855 19.259-24.868s-25.776-63.038-25.776-112.782-164.058-1.637-164.058-1.637zM570.959 257.4l-4.132-6.82s-7.816-40.568-7.275-54.76 14.124-31.932 52.688-48.15S681.215 164.9 689.906 172c0 0 41.279-1.52 51.6 9.123s2.4 73.487 2.4 73.487z" transform="translate(-424.609 -143.282)" fill="#19194f" fill-rule="evenodd"/><path id="Path_594" data-name="Path 594" d="M561.506 637.254c7.466-36.581 2.142-70.169-5.44-120.046-14.413-26.108-25.434-73.576-17.8-107.6s5.6-72.454 5.6-72.454 74.728-25.445 81.085-28.413 6.937-15.425 6.937-15.425l33.547-6.725 33.549 6.725s.578 12.458 6.937 15.425 78.2 17.727 78.2 17.727.858 49.122 8.486 83.14-3.394 81.487-17.8 107.6c-7.58 49.884-12.908 83.467-5.444 120.046z" transform="translate(-434.688 -50.84)" fill="#e6ad83" fill-rule="evenodd"/><path id="Path_595" data-name="Path 595" d="M623.853 242.719h0c18.467.0 33.577 14.1 33.577 31.331v59.983c0 17.235-15.109 31.333-33.577 31.333h0c-18.466.0-33.578-14.1-33.578-31.333V274.05C590.274 256.819 605.387 242.719 623.853 242.719z" transform="translate(-393.112 -79.142)" fill="#e6ad83" fill-rule="evenodd"/><g id="Group_207" data-name="Group 207" transform="translate(139.107 135.024)"><path id="Path_596" data-name="Path 596" d="M661.393 225.944c.531.069 1.052.155 1.567.26h.016v0c9.521 1.925 16.7 9.776 16.825 19.252.141 11.014-9.313 20.05-21.115 20.183s-21.485-8.689-21.628-19.7a19.429 19.429.0 0 1 8.053-15.838c-.59 5.883.36 13.177 8.405 13.961l-.143-11.5C653.307 227.9 657.975 225.793 661.393 225.944z" transform="translate(-496.533 -224.991)" fill="#d7766d" fill-rule="evenodd"/><path id="Path_597" data-name="Path 597" d="M576.043 225.365c-.532.064-1.051.141-1.567.239h-.017v0c-9.548 1.8-16.847 9.559-17.112 19.033-.3 11.012 9.019 20.17 20.812 20.453s21.616-8.409 21.922-19.416a19.389 19.389.0 0 0-7.816-15.942c.5 5.891-.555 13.172-8.615 13.851l.317-11.5C584.1 227.432 579.466 225.259 576.043 225.365z" transform="translate(-557.341 -225.362)" fill="#d7766d" fill-rule="evenodd"/></g><path id="Path_598" data-name="Path 598" d="M640.993 364.555c-39.895.0-73.179-45.939-73.179-82.209V234.163c0-37.554 32.93-68.282 73.166-68.282h.012c40.233.0 73.168 30.728 73.168 68.282v47.163C714.161 321.077 685.129 364.555 640.993 364.555z" transform="translate(-410.245 -128.705)" fill="#e6ad83" fill-rule="evenodd"/><path id="Path_599" data-name="Path 599" d="M682.228 201.138s-12.373-5.174-26.615 2.533-35.576 39.027-75.222 34.972 51.87-39.28 51.87-39.28 46.165-21.543 48.61-20.273S682.228 201.138 682.228 201.138z" transform="translate(-408.249 -120.22)" fill="#d7766d" fill-rule="evenodd"/><g id="Group_208" data-name="Group 208" transform="translate(165.54 166.571)"><path id="Path_600" data-name="Path 600" d="M644.463 244.541c-6.665.114-11.97 5.253-11.848 11.471s5.63 11.171 12.3 11.058 11.968-5.251 11.848-11.474S651.128 244.426 644.463 244.541z" transform="translate(-526.354 -244.539)" fill="#d7766d" fill-rule="evenodd"/><path id="Path_601" data-name="Path 601" d="M584.184 245.631c-6.669.115-11.971 5.251-11.846 11.474s5.625 11.168 12.292 11.055 11.971-5.254 11.85-11.474S590.848 245.516 584.184 245.631z" transform="translate(-572.336 -243.836)" fill="#d7766d" fill-rule="evenodd"/></g><path id="Path_604" data-name="Path 604" d="M599.043 258.185c-.109 11.165 9.5 20.295 21.464 20.4s21.748-8.865 21.854-20.03h-.035a3.621 3.621.0 0 0-3.7-3.519l-35.768-.3a3.645 3.645.0 0 0-3.778 3.46z" transform="translate(-386.423 -71.397)" fill="#fff" fill-rule="evenodd"/><path id="Path_605" data-name="Path 605" d="M603.534 268.764a22.924 22.924.0 0 0 25.024 1.637c-1.62-4.162-6.454-7.307-12.308-7.561C610.658 262.6 605.738 265.058 603.534 268.764z" transform="translate(-382.997 -66.173)" fill="#fff" fill-rule="evenodd"/><path id="Path_606" data-name="Path 606" d="M635.4 255.017l-33.617-.288c-.566 3.468 1.121 6.985 3.614 7.769 3.036.954 27.366.569 29.1-1.206C635.343 260.437 635.484 257.657 635.4 255.017z" transform="translate(-384.414 -71.395)" fill="#fff" fill-rule="evenodd"/><path id="Path_607" data-name="Path 607" d="M615.875 239.159c1.573 4.164 4.31 11.69 4.074 12.867-.33 1.647-9.645 2.078-12.088-.436-1.632-1.673.388-7.918 2.154-12.068C612.425 233.858 613.763 233.557 615.875 239.159z" transform="translate(-380.154 -84.048)" fill="#f1d3c8" fill-rule="evenodd"/><path id="Path_608" data-name="Path 608" d="M736.476 305.79l-14.415 181.6 29.646.722s5.786 87.812 16.571 136.765H546.753c10.785-48.953 16.572-136.765 16.572-136.765l29.642-.722-14.418-181.6C620.8 370.33 694.228 370.33 736.476 305.79z" transform="translate(-426.311 -38.459)" fill="#fff" fill-rule="evenodd"/><path id="Path_609" data-name="Path 609" d="M631.651 332.961s-3.686-4.206-4.917-7.264-.818-5.164 2.866-8.6 17.614-15.485 20.28-17.778a4.933 4.933.0 0 1 6.861.1c1.437 1.337 6.822 7.417 6.822 7.417S654.29 323.116 631.651 332.961z" transform="translate(-365.772 -43.503)" fill="#fff" fill-rule="evenodd"/><path id="Path_610" data-name="Path 610" d="M649.3 329.487c-.434 1.383-30.682 134.394-35.814 165.222-.471 2.857-10.506 54.508-10.506 55.423.0 1.319 16.53 41.312 30.832 76.71H760.82c-8-40.917-21.836-108.987-21.921-111.24-.185-4.9 7.191-66.927 7.191-66.927s-18.683-91.62 12.372-118.067a35.511 35.511.0 0 0-9.093-9.243c-6.145-4.4-68.156-18.008-68.156-18.008z" transform="translate(-383.42 -40.029)" fill="#2f3a72" fill-rule="evenodd"/><path id="Path_611" data-name="Path 611" d="M618.767 407.94c-2.415 11.652-4.3 21.224-5.281 27.087-.471 2.857-10.506 54.508-10.506 55.423.0 1.319 16.53 41.312 30.832 76.71h38.86L625.445 444.03l25.734-46.8-16.5-1.351S627.877 400.9 618.767 407.94z" transform="translate(-383.42 19.654)" fill="#232458" fill-rule="evenodd"/><path id="Path_612" data-name="Path 612" d="M632.627 357.822c-10.593 47.456-24.1 109.442-24.1 116.044l66.219-75.046-15.206-54.232S647.35 350.439 632.627 357.822z" transform="translate(-379.192 -13.433)" fill="#385da2" fill-rule="evenodd"/><path id="Path_613" data-name="Path 613" d="M596.451 312.612l50-18.416 17.036-6.279v-6.345a64.165 64.165.0 0 1-33.1 9.4h-.469c-.153.0-.312.0-.469.0-11.867-.107-23.139-4.272-33.113-11.022v18.1c-.173 2.25-1.264 12.348-6.905 14.976a56.437 56.437.0 0 1-7.1 2.114c.684.6 1.407 1.224 2.161 1.874z" transform="translate(-399.171 -55.125)" fill="#d7766d" fill-rule="evenodd"/><g id="Group_210" data-name="Group 210" transform="translate(150.221 138.832)"><path id="Path_615" data-name="Path 615" d="M641.627 254.218a1.206 1.206.0 0 1-1.483.748 1.1 1.1.0 0 1-.8-1.382c.019-.066 17.316-27.211 26.481-25.86l-2.586 1.879C654.119 237.266 641.643 254.158 641.627 254.218z" transform="translate(-505.938 -227.676)" fill="#accbdb" fill-rule="evenodd"/><path id="Path_616" data-name="Path 616" d="M588.837 252.988a1.209 1.209.0 0 0 1.481.748 1.1 1.1.0 0 0 .8-1.38c-.021-.066-17.508-24.657-26.67-23.309l1.412.563 1.121.706C576.1 237.979 588.818 252.926 588.837 252.988z" transform="translate(-563.033 -226.826)" fill="#accbdb" fill-rule="evenodd"/><path id="Path_617" data-name="Path 617" d="M592.218 282.566a1.177 1.177.0 0 0 1.319-.982 1.136 1.136.0 0 0-1.054-1.227l-.418-.041c-13.366-1.561-25.023-20.073-25.942-31.088-.841-.439-1.655-.911-2.477-1.436.626 12.412 13.131 32.983 28.13 34.728z" transform="translate(-563.646 -214.701)" fill="#accbdb" fill-rule="evenodd"/><path id="Path_618" data-name="Path 618" d="M639.234 282.566a1.171 1.171.0 0 1-1.315-.982 1.135 1.135.0 0 1 1.054-1.227l.416-.041c13.364-1.561 27.465-20.073 28.389-31.088.841-.439 1.654-.911 2.473-1.436-.624 12.412-15.573 32.983-30.573 34.728z" transform="translate(-506.993 -214.701)" fill="#accbdb" fill-rule="evenodd"/><g id="Group_209" data-name="Group 209" transform="translate(24.134 21.26)"><path id="Path_619" data-name="Path 619" d="M633.717 240.6l54.278 2.706s2.17.582 2.1 2.443-1.967 37.744-1.967 37.744a11.469 11.469.0 0 1-2.242 6.024c-2.151 2.792-19.232 29.056-52.173 29.056s-50.022-26.265-52.169-29.056a11.468 11.468.0 0 1-2.242-6.024s-1.9-35.883-1.967-37.744 2.1-2.443 2.1-2.443z" transform="translate(-577.336 -240.6)" fill="#fff" fill-rule="evenodd"/><path id="Path_620" data-name="Path 620" d="M631.893 242.97l-52.159 2.6c.458 12.052 1.334 24.169 1.911 36.222a7.681 7.681.0 0 0 1.463 3.925c1.453 1.885 2.752 3.731 4.314 5.575a69.06 69.06.0 0 0 9.553 9.316 54.866 54.866.0 0 0 69.838.0 69.245 69.245.0 0 0 9.553-9.316c1.564-1.844 2.859-3.69 4.31-5.575a7.719 7.719.0 0 0 1.467-3.925c.573-12.053 1.451-24.17 1.909-36.222z" transform="translate(-575.507 -239.071)" fill="#d3e4ec" fill-rule="evenodd"/><path id="Path_621" data-name="Path 621" d="M580.172 255.319c.268 4.713.548 9.426.809 14.134l48.113-17.324-48.922 3.19zm1.059 18.971.079 1.594a7.681 7.681.0 0 0 1.463 3.925c1.453 1.885 2.752 3.731 4.314 5.575a69.06 69.06.0 0 0 9.553 9.316 54.866 54.866.0 0 0 69.838.0 69.245 69.245.0 0 0 9.553-9.316c1.564-1.844 2.859-3.69 4.31-5.575a6.516 6.516.0 0 0 .6-.959s-8.455 8.541-37.823 8.541-61.891-13.1-61.891-13.1zm100.743-1.77q.267-5.184.578-10.37l-35.874-2.339z" transform="translate(-575.173 -233.163)" fill="#accbdb" fill-rule="evenodd"/></g></g><path id="Path_622" data-name="Path 622" d="M694.307 314.3s17.089 5.332 25.239 20.537 65.443 138.616 68.162 151.794c2.614 12.7 7.245 48.991-17.685 132.748H700.509c2.674-10.732 18-100.359 20.392-102.846l-32.968-61.8S655.324 347.638 694.307 314.3z" transform="translate(-328.359 -32.967)" fill="#304786" fill-rule="evenodd"/><path id="Path_623" data-name="Path 623" d="M574.473 265.155s8.477-5.693 8.477-19.5c0 0 13.579-11.783 12.491-24.2s-16.095-28.915-16.095-28.915-13.507 7.881-18.393 16.5 1.357 44.094 1.357 44.094S571.543 246.791 574.473 265.155z" transform="translate(-416.904 -111.513)" fill="#19194f" fill-rule="evenodd"/><path id="Path_624" data-name="Path 624" d="M659.933 265.155s-8.479-5.693-8.479-19.5c0 0-13.577-11.783-12.491-24.2s16.1-28.915 16.1-28.915 13.505 7.881 18.393 16.5-1.359 44.094-1.359 44.094S662.861 246.791 659.933 265.155z" transform="translate(-356.018 -111.513)" fill="#19194f" fill-rule="evenodd"/><path id="Path_625" data-name="Path 625" d="M680.832 208.734l-.254-.1a1.422 1.422.0 0 1-1.208-.064c-10.773-5.878-20.712 2.573-32.382 12.5-11.785 10.026-25.26 21.484-43.426 22.116a35.331 35.331.0 0 1-5 .923c-31.126 3.387-45.358-36.128-16.523-62.316 30.922-28.084 98.5-32.213 106.23 12.881.0.0 1.416 9.666-7.436 14.063zm-19.612-1.546c-16.782 4.463-30.483 22.591-47.205 31.756 12.238-3.6 22.219-12.083 31.184-19.714C650.8 214.463 656.027 210.017 661.22 207.187z" transform="translate(-411.335 -132.053)" fill="#19194f" fill-rule="evenodd"/><path id="Path_626" data-name="Path 626" d="M633.032 204.835s-1.652 33.3 18.716 38.11 27.428-19.768 17.38-43.588-35.3-34.465-40.464-32.69S633.032 204.835 633.032 204.835z" transform="translate(-364.996 -128.321)" fill="#19194f" fill-rule="evenodd"/><path id="Path_627" data-name="Path 627" d="M638.365 329.487c-.259.829-11.206 48.843-21.052 93.859l73.537-72.432-11.917-45.62c-5.269-1.2-8.656-1.938-8.656-1.938z" transform="translate(-372.486 -40.029)" fill="#304786" fill-rule="evenodd"/><path id="Path_628" data-name="Path 628" d="M603.2 332.961s3.684-4.206 4.917-7.264.82-5.164-2.868-8.6-17.616-15.485-20.28-17.778a4.936 4.936.0 0 0-6.863.1c-1.433 1.337-6.824 7.417-6.824 7.417S580.566 323.116 603.2 332.961z" transform="translate(-407.597 -43.503)" fill="#fff" fill-rule="evenodd"/><path id="Path_629" data-name="Path 629" d="M637.65 329.487c.473 1.515 36.544 160.187 36.544 170.975.0 1.518-.12 74.293-.2 126.38H526.128c8-40.917 21.84-108.987 21.921-111.24.183-4.9-7.191-66.927-7.191-66.927s18.684-91.62-12.373-118.067a35.6 35.6.0 0 1 9.1-9.243c6.144-4.4 68.149-18.008 68.149-18.008z" transform="translate(-442.045 -40.029)" fill="#2f3a72" fill-rule="evenodd"/><path id="Path_630" data-name="Path 630" d="M614.675 357.822c10.591 47.456 24.1 109.442 24.1 116.044L572.559 398.82l15.206-54.232S599.953 350.439 614.675 357.822z" transform="translate(-406.625 -13.433)" fill="#385da2" fill-rule="evenodd"/><path id="Path_631" data-name="Path 631" d="M573.969 314.3s-17.093 5.332-25.24 20.537-65.447 138.616-68.162 151.794c-2.618 12.7-7.247 48.991 17.686 132.748h69.51c-2.674-10.732-17.995-100.359-20.4-102.846l33.3-64.494S612.948 347.638 573.969 314.3z" transform="translate(-478.43 -32.967)" fill="#304786" fill-rule="evenodd"/><path id="Path_632" data-name="Path 632" d="M612.1 329.487c.261.829 11.2 48.843 21.052 93.859l-73.54-72.432 11.92-45.62c5.266-1.2 8.65-1.938 8.65-1.938z" transform="translate(-416.499 -40.029)" fill="#304786" fill-rule="evenodd"/><path id="Path_633" data-name="Path 633" d="M605.814 435.327a3.555 3.555.0 1 0-3.8-3.548A3.689 3.689.0 0 0 605.814 435.327z" transform="translate(-384.157 40.522)" fill="#fff" fill-rule="evenodd"/><path id="Path_634" data-name="Path 634" d="M605.814 456.124a3.556 3.556.0 1 0-3.8-3.548A3.688 3.688.0 0 0 605.814 456.124z" transform="translate(-384.157 53.935)" fill="#fff" fill-rule="evenodd"/></g><g id="Group_220" data-name="Group 220" transform="translate(740.593 148.336)"><path id="Path_635" data-name="Path 635" d="M392.794 195.418h0c23.107.0 42.012 30.167 42.012 67.038V316.9c0 36.872-18.9 67.038-42.012 67.038h0c-23.106.0-42.012-30.167-42.012-67.038V262.456C350.782 225.585 369.688 195.418 392.794 195.418z" transform="translate(-164.282 -44.697)" fill="#d7766d" fill-rule="evenodd"/><path id="Path_636" data-name="Path 636" d="M459.773 276.36s24.6 6.177 38.661 34.574 48.312 118.049 56.878 143.2S532.8 586.914 493.166 644.255H441.1S491.4 500.789 493.561 487s-47.6-94.116-47.6-94.116C432.241 352.643 433.069 312.46 459.773 276.36z" transform="translate(-98.357 7.513)" fill="#5e90cc" fill-rule="evenodd"/><path id="Path_637" data-name="Path 637" d="M548.743 402.684c-6.475 43.332-31.731 116.343-61.965 160.088H454.462c-5.2-6.613-8.885-11.573-8.885-11.573l4.994-34.095C508.544 572.881 542.168 436.843 548.743 402.684z" transform="translate(-91.969 88.997)" fill="#4377b3" fill-rule="evenodd"/><path id="Path_638" data-name="Path 638" d="M447.315 290.542l-6.8.763-4.213 2.686-4.217-2.686-6.8-.763-40.1-29.357-87.089 32.907-4.338 77.975c6.51 77.5 25.97 201.763 25.97 207.768s-13.808 48.093-22.363 73.683H574.24c-8.555-25.59-22.365-67.675-22.365-73.683s20.454-130.264 26.961-207.768L574.5 294.092l-87.088-32.907z" transform="translate(-207.785 -2.275)" fill="#19194f" fill-rule="evenodd"/><path id="Path_639" data-name="Path 639" d="M397.094 291.457l1.873 9.33 18.992 231.028-30.253 60.039-30.253-60.039 18.988-231.028 1.874-9.33 9.391 5.677z" transform="translate(-159.194 17.252)" fill="#cf4a60" fill-rule="evenodd"/><path id="Path_640" data-name="Path 640" d="M386.411 291.457l1.876 9.331 18.991 231.029-30.252 60.039s17.766-51.707 18.473-59.72-10.693-228.349-14.039-230.4-10.008-1.852-10.008-1.852l4.257-3.543 1.317.8z" transform="translate(-148.514 17.251)" fill="#ba3147" fill-rule="evenodd"/><path id="Path_641" data-name="Path 641" d="M371.655 280.049l4.07-.554a3.084 3.084.0 0 1 .924 1.89c.118 1.193.2 4.7.2 4.7l-3.115.9s-6.168.143-6.108-.071S371.655 280.049 371.655 280.049z" transform="translate(-151.43 9.536)" fill="#19194f" fill-rule="evenodd"/><path id="Path_642" data-name="Path 642" d="M381.564 280.049l-4.072-.554a3.08 3.08.0 0 0-.92 1.89c-.118 1.193-.206 4.7-.206 4.7l3.115.9s6.166.143 6.112-.071S381.564 280.049 381.564 280.049z" transform="translate(-144.767 9.536)" fill="#19194f" fill-rule="evenodd"/><path id="Path_643" data-name="Path 643" d="M372.063 306.227l-8.872-18.153c7.668-6.731 32.6-6.731 40.274.0l-8.876 18.153A55.384 55.384.0 0 0 372.063 306.227z" transform="translate(-154.816 11.813)" fill="#cf4a60" fill-rule="evenodd"/><path id="Path_644" data-name="Path 644" d="M366.724 295.3l-3.533-7.23c2.759-2.42 7.751-3.971 13.369-4.652L366.724 295.3zm16.805-12.277c8.081.026 16.13 1.709 19.936 5.047l-8.876 18.153a44.553 44.553.0 0 0-8.488-1.1c1.675-1.257 3.88-2.981 3.954-3.392.116-.67-.032-16.289-.733-16.552z" transform="translate(-154.816 11.813)" fill="#ba3147" fill-rule="evenodd"/><path id="Path_645" data-name="Path 645" d="M414.8 251.735s3.626-.508 4.872.0 10.5 24.106 8.747 28.877S403.8 324.524 403.8 324.524s-1.622 2.079-4.245.049S377 297.547 377 297.547l37.8-42.672z" transform="translate(-144.279 -8.517)" fill="#2c2a64" fill-rule="evenodd"/><path id="Path_646" data-name="Path 646" d="M414.722 260.222 491.8 286.245c1.609.548 17.59 6.518 19.49 28.092.894 10.179-6.732 58.147-13.107 114.257-7.848 69.083-14.88 147.88-14.88 151.861.0 7.217 13.956 48.537 22.5 74.082H393.473l19.679-391.467A3.54 3.54.0 0 1 414.722 260.222z" transform="translate(-131.716 -2.896)" fill="#5e90cc" fill-rule="evenodd"/><path id="Path_647" data-name="Path 647" d="M356.954 251.644s-3.623-.508-4.872.0-5.5 17.972-8.121 21.42c0 0-2.376 2.836-.626 7.607s24.614 43.913 24.614 43.913 1.625 2.079 4.248.049 22.552-27.026 22.552-27.026l-37.8-42.822z" transform="translate(-170.454 -8.575)" fill="#2c2a64" fill-rule="evenodd"/><path id="Path_648" data-name="Path 648" d="M385.506 261.555l-77.068 23.83c-1.608.548-17.59 6.521-19.49 28.092C288.03 323.922 296.809 374 303.39 431.7c7.732 67.787 13.546 144 13.546 147.9.0 7.217-13.955 48.537-22.5 74.083H406.77L385.506 273.07S387.015 262.327 385.506 261.555z" transform="translate(-211.501 -2.036)" fill="#5e90cc" fill-rule="evenodd"/><path id="Path_649" data-name="Path 649" d="M466.8 281.593c-7.013 18.569-26.67 79.912-7.933 143.1a.917.917.0 0 1-.651 1.087q-1.444-2.542-2.865-5.007c-16.967-62.923 2.821-123.083 9.482-140.484C465.474 280.7 466.132 281.136 466.8 281.593z" transform="translate(-89.63 10.05)" fill="#4377b3" fill-rule="evenodd"/><path id="Path_650" data-name="Path 650" d="M341.957 276.36s-24.6 6.177-38.663 34.574-48.312 118.049-56.878 143.2 22.517 132.779 62.145 190.12h52.069S310.33 500.789 308.167 487s47.6-94.116 47.6-94.116C369.489 352.643 368.657 312.46 341.957 276.36z" transform="translate(-244.987 7.513)" fill="#5e90cc" fill-rule="evenodd"/><path id="Path_651" data-name="Path 651" d="M245.9 402.684c6.477 43.332 31.731 116.343 61.965 160.088h23.918c.427-.543 9.752-45.669 10.189-50.371-9.4 6.2-17.343 13.164-37.829 6.824C278.236 511.2 252.68 437.906 245.9 402.684z" transform="translate(-244.29 88.997)" fill="#4377b3" fill-rule="evenodd"/><path id="Path_652" data-name="Path 652" d="M283.028 442.817c-.5-1.852-.834-3.257-.973-4.134-1.271-8.094 13.662-37.921 27.6-62.156 2.195-3.818 3.9 36.808 5.888 33.444-.709-7.926.934-58.29.855-58.655-.5-2.234-34.737 62.676-36.736 67.746s3.36 23.756 3.36 23.756z" transform="translate(-218.874 55.826)" fill="#4377b3" fill-rule="evenodd"/><path id="Path_653" data-name="Path 653" d="M291.058 281.593c7.014 18.569 26.67 79.912 7.933 143.1a.918.918.0 0 0 .652 1.087q1.444-2.542 2.861-5.007c16.967-62.923-2.817-123.083-9.479-140.484C292.382 280.7 291.721 281.136 291.058 281.593z" transform="translate(-209.842 10.05)" fill="#4377b3" fill-rule="evenodd"/><g id="Group_212" data-name="Group 212" transform="translate(264.505 257.051)"><path id="Path_654" data-name="Path 654" d="M414.12 260.722l20.486 7.162c5.572 11.586 24.854 51.911 24 53.3-1 1.625-30.236 6.287-30.236 6.287s22.367 8.62 23.116 9.128 2 1.418 1.5 4.46c-.437 2.647-45.985 191.65-57.953 241.3l17.517-318.786A3.54 3.54.0 0 1 414.12 260.722z" transform="translate(-395.032 -259.625)" fill="#4377b3" fill-rule="evenodd"/><path id="Path_655" data-name="Path 655" d="M415.985 297.748l29.487 9.939s3 1.52 2.746 3.346S395.265 547.7 395.265 547.7l9.468-247.438z" transform="translate(-394.854 -235.742)" fill="#f0f5fb" fill-rule="evenodd"/><path id="Path_656" data-name="Path 656" d="M397.189 456.622 403.2 299.431l1.791-.4c-3.154 64.031-7.8 157.775-7.8 157.775z" transform="translate(-393.387 -234.914)" fill="#adb3d9" fill-rule="evenodd"/><path id="Path_657" data-name="Path 657" d="M408.485 260.055l15.229 4.988a2.589 2.589.0 0 1 1.759 1.778c.427 1.469 21.478 47.459 21.976 49.081s-.871 3.349-3.746 4.157-43.209 11.053-43.209 11.053l5.909-68.975S406.687 260.108 408.485 260.055z" transform="translate(-390.865 -260.055)" fill="#fff" fill-rule="evenodd"/></g><g id="Group_213" data-name="Group 213" transform="translate(128.87 257.874)"><path id="Path_658" data-name="Path 658" d="M361.168 261.389l-19.053 6.065c-5.571 11.586-24.854 51.911-24 53.3 1 1.625 30.234 6.287 30.234 6.287s-22.365 8.62-23.114 9.128-2 1.418-1.5 4.46c.439 2.647 45.985 191.65 57.955 241.3L361.755 269.339S362.679 262.161 361.168 261.389z" transform="translate(-318.09 -260.017)" fill="#4377b3" fill-rule="evenodd"/><path id="Path_659" data-name="Path 659" d="M356.138 297.748l-29.489 9.939s-3 1.52-2.747 3.346S376.856 547.7 376.856 547.7L367.39 300.258z" transform="translate(-313.668 -236.564)" fill="#f0f5fb" fill-rule="evenodd"/><path id="Path_660" data-name="Path 660" d="M355.389 456.622l-6.011-157.191-1.795-.4c3.157 64.031 7.8 157.775 7.8 157.775z" transform="translate(-295.592 -235.737)" fill="#adb3d9" fill-rule="evenodd"/><path id="Path_661" data-name="Path 661" d="M361.7 260.555l-15.851 4.165a2.589 2.589.0 0 0-1.761 1.778c-.427 1.469-21.475 47.459-21.976 49.081s.873 3.349 3.746 4.157 43.211 11.053 43.211 11.053S362.878 276.458 361.7 260.555z" transform="translate(-315.099 -260.555)" fill="#fff" fill-rule="evenodd"/></g><g id="Group_214" data-name="Group 214" transform="translate(133.882 139.546)"><path id="Path_662" data-name="Path 662" d="M429.165 188.643c.568.076 1.125.165 1.676.278h.019-.005c10.2 2.063 17.891 10.472 18.023 20.624.148 11.8-9.976 21.478-22.619 21.617s-23.016-9.306-23.167-21.1a20.8 20.8.0 0 1 8.622-16.967c-.628 6.3.388 14.114 9.008 14.953l-.159-12.32C420.5 190.744 425.5 188.482 429.165 188.643z" transform="translate(-258.261 -188.618)" fill="#d77f68" fill-rule="evenodd"/><path id="Path_663" data-name="Path 663" d="M340.965 188.629c-.568.067-1.125.151-1.678.253l-.018.007v0c-10.226 1.93-18.041 10.24-18.328 20.387-.328 11.795 9.659 21.606 22.295 21.91s23.155-9.01 23.481-20.8a20.757 20.757.0 0 0-8.37-17.075c.536 6.31-.6 14.109-9.229 14.835l.342-12.315C349.6 190.839 344.632 188.515 340.965 188.629z" transform="translate(-320.934 -188.625)" fill="#d77f68" fill-rule="evenodd"/></g><path id="Path_664" data-name="Path 664" d="M408.926 337.126c-42.736.0-78.392-49.211-78.392-88.062V197.448c0-40.231 35.28-73.145 78.383-73.145h.009c43.1.0 78.383 32.914 78.383 73.145V247.97C487.308 290.55 456.2 337.126 408.926 337.126z" transform="translate(-179.728 -90.569)" fill="#e6ad83" fill-rule="evenodd"/><path id="Path_665" data-name="Path 665" d="M331.04 183.818c5.717-35.074 38.38-62.172 77.491-62.172h.009c37.859.0 69.68 25.4 76.86 58.84-10.852.021-22.931 12.769-22.931 12.769-73.27 32.559-118.441.3-118.441.3A73.881 73.881.0 0 1 331.04 183.818z" transform="translate(-179.342 -92.282)" fill="#d7766d" fill-rule="evenodd"/><g id="Group_215" data-name="Group 215" transform="translate(161.925 156.582)"><path id="Path_666" data-name="Path 666" d="M411.137 198.983c-7.295.127-13.1 5.749-12.967 12.557s6.163 12.228 13.457 12.1 13.1-5.748 12.966-12.557S418.434 198.859 411.137 198.983z" transform="translate(-290.06 -198.981)" fill="#d7766d" fill-rule="evenodd"/><path id="Path_667" data-name="Path 667" d="M349.811 200.177c-7.295.125-13.1 5.748-12.967 12.557s6.159 12.228 13.456 12.1 13.1-5.749 12.966-12.557S357.106 200.052 349.811 200.177z" transform="translate(-336.842 -198.211)" fill="#d7766d" fill-rule="evenodd"/></g><path id="Path_670" data-name="Path 670" d="M379.672 202.51c1.461 3.7 4.016 10.4 3.8 11.527-.307 1.571-8.987 3.025-11.27.959-1.516-1.379.367-7.422 2.013-11.492C376.456 197.958 377.7 197.525 379.672 202.51z" transform="translate(-148.37 -42.361)" fill="#ebbf9e" fill-rule="evenodd"/><g id="Group_217" data-name="Group 217" transform="translate(212.724 186.555)"><path id="Path_671" data-name="Path 671" d="M398.6 220.03c0 8.49-7.379 15.371-16.474 15.371s-16.47-6.881-16.47-15.371a2.937 2.937.0 0 1 3.029-2.829h26.878A2.946 2.946.0 0 1 398.6 220.03z" transform="translate(-365.658 -217.201)" fill="#12151d" fill-rule="evenodd"/><path id="Path_672" data-name="Path 672" d="M368.318 217.2h23.56v2.6a2.563 2.563.0 0 1-2.637 2.463H370.957a2.564 2.564.0 0 1-2.639-2.463z" transform="translate(-363.629 -217.2)" fill="#fff" fill-rule="evenodd"/><path id="Path_673" data-name="Path 673" d="M392.1 227.233a17.292 17.292.0 0 1-23.872.0 17.292 17.292.0 0 1 23.872.0z" transform="translate(-363.697 -213.813)" fill="#d26070" fill-rule="evenodd"/></g><path id="Path_676" data-name="Path 676" d="M334.348 234.02l7.575-28.614s24.4-16.7 15.728-39.946-10.365-20.945-10.365-20.945-32.512 13.665-18.039 75.277z" transform="translate(-183.542 -77.571)" fill="#19194f" fill-rule="evenodd"/><path id="Path_677" data-name="Path 677" d="M430.355 234.02l-7.573-28.614s-24.4-16.7-15.73-39.946 10.369-20.945 10.369-20.945 32.508 13.665 18.037 75.277z" transform="translate(-122.778 -77.571)" fill="#19194f" fill-rule="evenodd"/><path id="Path_678" data-name="Path 678" d="M410.545 218.57a1.209 1.209.0 0 1-1.483.748 1.1 1.1.0 0 1-.8-1.382c.021-.066 6.024-19.059 16.341-26.959l.619 2.354C416.1 201 410.563 218.509 410.545 218.57z" transform="translate(-120.473 -47.561)" fill="#accbdb" fill-rule="evenodd"/><path id="Path_679" data-name="Path 679" d="M408.456 248.287a1.17 1.17.0 0 1-1.312-.98 1.135 1.135.0 0 1 1.051-1.229l.418-.041c7.108-.829 12.923-6.942 16.83-14.345a47.974 47.974.0 0 0 5.341-17.605 23.088 23.088.0 0 0 2.44-.992 49.4 49.4.0 0 1-5.646 19.581c-4.227 8-10.649 14.633-18.675 15.567z" transform="translate(-121.293 -33.295)" fill="#accbdb" fill-rule="evenodd"/><path id="Path_680" data-name="Path 680" d="M346.826 218.57a1.207 1.207.0 0 0 1.481.748 1.1 1.1.0 0 0 .8-1.382c-.023-.066-6.027-19.059-16.343-26.959l-.624 2.354C341.267 201 346.806 218.509 346.826 218.57z" transform="translate(-178.501 -47.561)" fill="#accbdb" fill-rule="evenodd"/><path id="Path_681" data-name="Path 681" d="M352.837 248.287a1.177 1.177.0 0 0 1.319-.98 1.14 1.14.0 0 0-1.054-1.229l-.42-.041c-7.1-.829-12.92-6.942-16.83-14.345a47.965 47.965.0 0 1-5.338-17.605 23.027 23.027.0 0 1-2.445-.992 49.49 49.49.0 0 0 5.648 19.581c4.227 8 10.651 14.633 18.674 15.567z" transform="translate(-181.609 -33.295)" fill="#accbdb" fill-rule="evenodd"/><g id="Group_219" data-name="Group 219" transform="translate(165.769 162.506)"><path id="Path_682" data-name="Path 682" d="M402.447 202.582l61.054 3.043s2.44.655 2.367 2.747-2.211 42.46-2.211 42.46a12.885 12.885.0 0 1-2.526 6.773c-2.417 3.14-21.632 32.69-58.685 32.69s-56.268-29.55-58.688-32.69a12.881 12.881.0 0 1-2.523-6.773s-2.137-40.367-2.212-42.46 2.366-2.747 2.366-2.747z" transform="translate(-339.022 -202.582)" fill="#fff" fill-rule="evenodd"/><path id="Path_683" data-name="Path 683" d="M400.392 205.247 341.72 208.17c.516 13.56 1.5 27.186 2.147 40.747a8.685 8.685.0 0 0 1.647 4.414c1.634 2.122 3.1 4.2 4.853 6.274a77.41 77.41.0 0 0 10.746 10.477c11.2 8.952 24.4 14.116 39.279 14.116s28.077-5.164 39.281-14.116a77.7 77.7.0 0 0 10.746-10.477c1.758-2.076 3.214-4.152 4.85-6.274a8.617 8.617.0 0 0 1.643-4.414c.654-13.562 1.638-27.187 2.151-40.747z" transform="translate(-336.964 -200.863)" fill="#d3e4ec" fill-rule="evenodd"/><path id="Path_684" data-name="Path 684" d="M342.211 219.138c.3 5.3.622 10.6.911 15.9l54.123-19.484-55.034 3.586zm1.2 21.339.086 1.793a8.685 8.685.0 0 0 1.647 4.414c1.634 2.122 3.1 4.2 4.853 6.274a77.41 77.41.0 0 0 10.746 10.477c11.2 8.952 24.4 14.116 39.279 14.116s28.077-5.164 39.281-14.116a77.7 77.7.0 0 0 10.746-10.477c1.758-2.076 3.214-4.152 4.85-6.274a7.4 7.4.0 0 0 .68-1.077s-9.514 9.605-42.548 9.605-69.621-14.735-69.621-14.735zm113.326-2c.2-3.882.425-7.773.649-11.662l-40.358-2.63z" transform="translate(-336.589 -194.216)" fill="#accbdb" fill-rule="evenodd"/></g><path id="Path_685" data-name="Path 685" d="M353.38 199.052s41.931 32.256 109.945-.3c0 0 17.448-19.834 28.359-10.071.0.0 4.293-54.74-37.862-55.29.0.0 7.608-7.676 5.437-13.887s-19.961-21.15-57.449.969c0 0-2.817-16.139-16.824-16.659C357.775 102.8 294.72 160.989 353.38 199.052z" transform="translate(-180.75 -103.796)" fill="#19194f" fill-rule="evenodd"/><path id="Path_686" data-name="Path 686" d="M483.6 442.817c.5-1.852.837-3.259.973-4.134 1.292-8.248-13.461-38.324-27.557-62.752-1.914-3.315-6.288 54.628-8.033 51.671.709-7.926 1.169-75.922 1.248-76.287.5-2.231 34.735 62.676 36.732 67.746s-3.362 23.756-3.362 23.756z" transform="translate(-89.371 55.826)" fill="#4377b3" fill-rule="evenodd"/></g></g></svg>