<svg xmlns="http://www.w3.org/2000/svg" width="410.492" height="229.245" viewBox="0 0 410.492 229.245"><g id="doctorsfightcovid" transform="translate(-51.342 -133.112)"><g id="Group_1519" data-name="Group 1519"><g id="Group_1492" data-name="Group 1492"><path id="Rectangle_343" data-name="Rectangle 343" d="M0 0h37.684v8.946H0z" transform="matrix(0.532, -0.846, 0.846, 0.532, 326.029, 318.149)" fill="#fa3650"/></g><path id="Path_3477" data-name="Path 3477" d="M342.4 292.128a64.535 64.535.0 0 0 8.071 3.971l3.2-5.083-7.572-4.762z" fill="#7d1b28"/><g id="Group_1493" data-name="Group 1493"><path id="Path_3478" data-name="Path 3478" d="M342.739 320.531a12.926 12.926.0 1 1-12.925-12.926A12.924 12.924.0 0 1 342.739 320.531z" fill="#fa3650"/></g><path id="Path_3479" data-name="Path 3479" d="M336.1 309.24a12.921 12.921.0 0 1-18.6 15.221 12.925 12.925.0 1 0 18.6-15.221z" fill="#7d1b28"/><path id="Path_3480" data-name="Path 3480" d="M325.8 312.42c-1.655-.77-3.986.728-5.2 3.347s-.864 5.366.792 6.135 3.982-.728 5.2-3.345S327.451 313.191 325.8 312.42z" fill="#fb5e73"/><g id="Group_1494" data-name="Group 1494"><path id="Rectangle_344" data-name="Rectangle 344" d="M0 0h8.946v37.06H0z" transform="translate(391.681 284.075) rotate(-21.485)" fill="#bc293c"/></g><path id="Path_3481" data-name="Path 3481" d="M400.005 280.8l-8.324 3.275 5.127 13.027A64.487 64.487.0 0 0 405 293.5z" fill="#7d1b28"/><g id="Group_1495" data-name="Group 1495"><circle id="Ellipse_130" data-name="Ellipse 130" cx="11.338" cy="11.338" r="11.338" transform="translate(398.078 305.584)" fill="#bc293c"/></g><path id="Path_3482" data-name="Path 3482" d="M415.343 307.27a11.316 11.316.0 0 1-16.9 12.466 11.331 11.331.0 1 0 16.9-12.466z" fill="#7d1b28"/><path id="Path_3483" data-name="Path 3483" d="M406.578 309.8c-1.655-.772-3.985.728-5.2 3.345s-.863 5.368.792 6.137 3.982-.73 5.2-3.348S408.23 310.57 406.578 309.8z" fill="#fa3650"/><g id="Group_1496" data-name="Group 1496"><path id="Path_3484" data-name="Path 3484" d="M453.882 229.524a6.976 6.976.0 1 1-6.977-6.976A6.976 6.976.0 0 1 453.882 229.524z" fill="#7d1b28"/></g><g id="Group_1497" data-name="Group 1497"><path id="Path_3485" data-name="Path 3485" d="M382.632 309.3a6.975 6.975.0 1 1-6.976-6.977A6.975 6.975.0 0 1 382.632 309.3z" fill="#7d1b28"/></g><g id="Group_1498" data-name="Group 1498"><path id="Path_3486" data-name="Path 3486" d="M392.9 155.689a5.39 5.39.0 1 1-5.388-5.39A5.389 5.389.0 0 1 392.9 155.689z" fill="#7d1b28"/></g><g id="Group_1499" data-name="Group 1499"><path id="Rectangle_345" data-name="Rectangle 345" d="M0 0h15.59v5.748H0z" transform="translate(297.24 247.938) rotate(-5.549)" fill="#bc293c"/></g><path id="Path_3487" data-name="Path 3487" d="M302.7 252.947a8.76 8.76.0 0 0-1.831-5.362l-3.629.354.556 5.72 4.891-.476C302.69 253.1 302.7 253.027 302.7 252.947z" fill="#7d1b28"/><g id="Group_1500" data-name="Group 1500"><path id="Rectangle_346" data-name="Rectangle 346" d="M0 0h16.307v5.368H0z" transform="matrix(0.166, -0.986, 0.986, 0.166, 382.16, 171.325)" fill="#7d1b28"/></g><g id="Group_1501" data-name="Group 1501"><path id="Rectangle_347" data-name="Rectangle 347" d="M0 0h17.649v5.367H0z" transform="translate(429.256 226.84)" fill="#7d1b28"/></g><g id="Group_1502" data-name="Group 1502"><path id="Rectangle_348" data-name="Rectangle 348" d="M0 0h5.367v18.001H0z" transform="matrix(0.997, -0.08, 0.08, 0.997, 371.548, 291.57)" fill="#7d1b28"/></g><g id="Group_1503" data-name="Group 1503"><path id="Rectangle_349" data-name="Rectangle 349" d="M0 0h12.465v4.146H0z" transform="translate(314.531 280.468) rotate(-37.372)" fill="#bc293c"/></g><path id="Path_3488" data-name="Path 3488" d="M317.048 283.764l4.76-3.635a5.955 5.955.0 0 0-3.5-2.545l-3.777 2.885z" fill="#7d1b28"/><g id="Group_1504" data-name="Group 1504"><path id="Rectangle_350" data-name="Rectangle 350" d="M0 0h3.775v10.214H0z" transform="translate(298.758 217.461) rotate(-68.794)" fill="#bc293c"/></g><path id="Path_3489" data-name="Path 3489" d="M298.758 217.461l4.827 1.873a4.157 4.157.0 0 0 1.041-3.645l-4.5-1.747z" fill="#7d1b28"/><g id="Group_1505" data-name="Group 1505"><circle id="Ellipse_131" data-name="Ellipse 131" cx="64.858" cy="64.858" r="64.858" transform="translate(299.216 171.866) rotate(-5.641)" fill="#fa3650"/></g><path id="Path_3490" data-name="Path 3490" d="M370.135 165.176a64.951 64.951.0 0 0-15.538 1.887 64.854 64.854.0 0 1 6.729 127.22 64.854 64.854.0 1 0 8.809-129.107z" fill="#bc293c"/><g id="Group_1506" data-name="Group 1506"><path id="Rectangle_351" data-name="Rectangle 351" d="M0 0h34.184v8.946H0z" transform="translate(398.762 179.738) rotate(-56.605)" fill="#bc293c"/></g><path id="Path_3491" data-name="Path 3491" d="M417.577 151.2 409.3 163.76a13.736 13.736.0 0 0 6.713 6.071l9.038-13.709z" fill="#7d1b28"/><g id="Group_1507" data-name="Group 1507"><path id="Rectangle_352" data-name="Rectangle 352" d="M0 0h19.984v6.906H0z" transform="translate(423.838 199.886) rotate(-31.226)" fill="#bc293c"/></g><path id="Path_3492" data-name="Path 3492" d="M440.926 189.525l-7.051 4.275a8.023 8.023.0 0 0-.048.853 7.847 7.847.0 0 0 2.495 5.74l8.185-4.963z" fill="#7d1b28"/><g id="Group_1508" data-name="Group 1508"><path id="Rectangle_353" data-name="Rectangle 353" d="M0 0h8.945v28.234H0z" transform="matrix(0.511, -0.859, 0.859, 0.511, 422.281, 254.228)" fill="#bc293c"/></g><path id="Path_3493" data-name="Path 3493" d="M432.509 260.312l14.037 8.352 4.574-7.688-12.242-7.283A13.039 13.039.0 0 0 432.509 260.312z" fill="#7d1b28"/><g id="Group_1509" data-name="Group 1509"><path id="Rectangle_354" data-name="Rectangle 354" d="M0 0h8.946v35.056H0z" transform="translate(294.642 174.966) rotate(-45.608)" fill="#fa3650"/></g><path id="Path_3494" data-name="Path 3494" d="M300.9 168.574l-6.258 6.392 11.47 11.231a14.4 14.4.0 0 0 7.773-4.911z" fill="#7d1b28"/><g id="Group_1510" data-name="Group 1510"><path id="Rectangle_355" data-name="Rectangle 355" d="M0 0h5.367v30.291H0z" transform="translate(341.844 143.636) rotate(-12.079)" fill="#fa3650"/></g><path id="Path_3495" data-name="Path 3495" d="M347.093 142.513l-5.249 1.123 2.44 11.4a9.787 9.787.0 0 0 5.562.336z" fill="#7d1b28"/><path id="Path_3496" data-name="Path 3496" d="M358.976 226.515c0 5.322-2.652 9.638-5.924 9.638s-5.922-4.316-5.922-9.638 2.652-9.637 5.922-9.637S358.976 221.193 358.976 226.515z" fill="#26264a"/><path id="Path_3497" data-name="Path 3497" d="M363.89 240.511c-5.936-2.733-9.046 2.5-12.643 6.2a22.961 22.961.0 0 1-17.053 7.09 46.285 46.285.0 0 1-15.995-3.142 7.229 7.229.0 0 0-.8-.243 2.578 2.578.0 0 0-3.027 3.272c4.09 13.456 10.76 16.892 16.91 21.746 2.982 2.354 8.573 3.2 12.373 3.349 5.122.2 11.328-.143 15.849-2.593a16.736 16.736.0 0 0 6.922-6.172 21.368 21.368.0 0 0 3.48-11.467C369.933 253 369.87 243.264 363.89 240.511z" fill="#7d1b28"/><path id="Path_3498" data-name="Path 3498" d="M369.9 258.553c.026-4.6-.016-12.07-3.432-16.064-20.57 12.828-24.991 29-25.925 36.045 1.032.122 2.067.21 3.106.251 5.122.2 11.328-.143 15.849-2.593a16.736 16.736.0 0 0 6.922-6.172A21.368 21.368.0 0 0 369.9 258.553z" fill="#5e141e"/><path id="Path_3499" data-name="Path 3499" d="M352.817 278.33a21.381 21.381.0 0 0 6.682-2.138 16.736 16.736.0 0 0 6.922-6.172 21.368 21.368.0 0 0 3.48-11.467 58.255 58.255.0 0 0-.343-7.627C357.9 261.058 354.065 271.917 352.817 278.33z" fill="#3f0e14"/><path id="Path_3500" data-name="Path 3500" d="M363.89 240.511c-5.936-2.733-9.046 2.5-12.643 6.2a22.961 22.961.0 0 1-17.053 7.09 46.285 46.285.0 0 1-15.995-3.142c-1.858-.677-2.824 1.458-3.983 2.22 1.135 4.686 2.217 6.479 5.015 11.3h.008l1.31-1.707a1.442 1.442.0 0 1 1.707-.449l5.607 2.383 2.354-3.62 7.422 3.952 4.32-3.714 7.728 1.882 4.345-5.669 7.271 3.888 3.081-7.486 5.52 3.577C369.888 251.556 369.415 243.055 363.89 240.511z" fill="#fff"/><path id="Path_3501" data-name="Path 3501" d="M327.045 204.722a4.278 4.278.0 1 1-4.277-4.278A4.276 4.276.0 0 1 327.045 204.722z" fill="#fb5e73"/><path id="Path_3502" data-name="Path 3502" d="M407.823 199.112a5.61 5.61.0 1 1-5.609-5.611A5.609 5.609.0 0 1 407.823 199.112z" fill="#fa3650"/><path id="Path_3503" data-name="Path 3503" d="M409.981 264.82a5.609 5.609.0 1 1-5.609-5.61A5.61 5.61.0 0 1 409.981 264.82z" fill="#fa3650"/><path id="Path_3504" data-name="Path 3504" d="M417.275 233.878a9.452 9.452.0 1 1-9.452-9.453A9.452 9.452.0 0 1 417.275 233.878z" fill="#fa3650"/><path id="Path_3505" data-name="Path 3505" d="M387.106 195.7a9.452 9.452.0 1 1-9.452-9.453A9.452 9.452.0 0 1 387.106 195.7z" fill="#fb5e73"/><circle id="Ellipse_132" data-name="Ellipse 132" cx="3.791" cy="3.791" r="3.791" transform="translate(352.418 179.754)" fill="#fb5e73"/><path id="Path_3506" data-name="Path 3506" d="M348.682 198.75a3.791 3.791.0 1 1-3.791-3.791A3.792 3.792.0 0 1 348.682 198.75z" fill="#fb5e73"/><path id="Path_3507" data-name="Path 3507" d="M375.339 217.287a3.791 3.791.0 1 1-3.79-3.792A3.791 3.791.0 0 1 375.339 217.287z" fill="#fb5e73"/><path id="Path_3508" data-name="Path 3508" d="M400.394 213.5A3.791 3.791.0 1 1 396.6 209.7 3.791 3.791.0 0 1 400.394 213.5z" fill="#fb5e73"/><path id="Path_3509" data-name="Path 3509" d="M338.554 186.088a2.624 2.624.0 1 1-2.623-2.624A2.623 2.623.0 0 1 338.554 186.088z" fill="#fb5e73"/><path id="Path_3510" data-name="Path 3510" d="M326.476 227.866c0 4.739-2.362 8.582-5.275 8.582s-5.273-3.843-5.273-8.582 2.361-8.58 5.273-8.58S326.476 223.127 326.476 227.866z" fill="#26264a"/><path id="Path_3511" data-name="Path 3511" d="M313.928 219.564l21.383 13.972 26.225-18.6-3.22-5.444-42.926 5.036z" fill="#fa3650"/><g id="Group_1511" data-name="Group 1511"><path id="Path_3512" data-name="Path 3512" d="M434.993 153.66a13.682 13.682.0 1 1-13.682-13.683A13.682 13.682.0 0 1 434.993 153.66z" fill="#bc293c"/></g><path id="Path_3513" data-name="Path 3513" d="M428.7 142.159a13.664 13.664.0 0 1-20.2 16.275 13.674 13.674.0 1 0 20.2-16.275z" fill="#7d1b28"/><g id="Group_1512" data-name="Group 1512"><path id="Path_3514" data-name="Path 3514" d="M456.021 190.229a10.2 10.2.0 1 1-10.2-10.205A10.2 10.2.0 0 1 456.021 190.229z" fill="#bc293c"/></g><path id="Path_3515" data-name="Path 3515" d="M451.728 181.921a10.191 10.191.0 0 1-15.068 12.791 10.2 10.2.0 1 0 15.068-12.791z" fill="#7d1b28"/><g id="Group_1513" data-name="Group 1513"><path id="Path_3516" data-name="Path 3516" d="M461.834 264.82a13 13 0 1 1-13-13 13 13 0 0 1 13 13z" fill="#bc293c"/></g><path id="Path_3517" data-name="Path 3517" d="M456.392 254.255a12.982 12.982.0 0 1-20.11 13.911 12.994 12.994.0 1 0 20.11-13.911z" fill="#7d1b28"/><g id="Group_1514" data-name="Group 1514"><path id="Path_3518" data-name="Path 3518" d="M312.176 171.77a14.4 14.4.0 1 1-14.4-14.4A14.4 14.4.0 0 1 312.176 171.77z" fill="#fa3650"/></g><path id="Path_3519" data-name="Path 3519" d="M300.656 157.656a14.4 14.4.0 0 1-12.509 24.81 14.4 14.4.0 1 0 12.509-24.81z" fill="#bc293c"/><g id="Group_1515" data-name="Group 1515"><path id="Path_3520" data-name="Path 3520" d="M354.433 143.075a9.964 9.964.0 1 1-9.963-9.963A9.963 9.963.0 0 1 354.433 143.075z" fill="#fa3650"/></g><path id="Path_3521" data-name="Path 3521" d="M347.674 133.648a9.947 9.947.0 0 1-12.325 13.431 9.961 9.961.0 1 0 12.325-13.431z" fill="#bc293c"/><g id="Group_1516" data-name="Group 1516"><path id="Path_3522" data-name="Path 3522" d="M319.872 283.766a5.945 5.945.0 1 1-5.944-5.946A5.943 5.943.0 0 1 319.872 283.766z" fill="#bc293c"/></g><path id="Path_3523" data-name="Path 3523" d="M315.485 278.033a5.931 5.931.0 0 1-6.184 9.459 5.942 5.942.0 1 0 6.184-9.459z" fill="#7d1b28"/><g id="Group_1517" data-name="Group 1517"><path id="Path_3524" data-name="Path 3524" d="M302.7 214.659a5.945 5.945.0 1 1-5.944-5.944A5.943 5.943.0 0 1 302.7 214.659z" fill="#bc293c"/></g><path id="Path_3525" data-name="Path 3525" d="M299.034 209.169a5.941 5.941.0 0 1-7.637 8.051 5.942 5.942.0 1 0 7.637-8.051z" fill="#7d1b28"/><g id="Group_1518" data-name="Group 1518"><path id="Path_3526" data-name="Path 3526" d="M299.621 251.219a8.811 8.811.0 1 1-8.81-8.81A8.81 8.81.0 0 1 299.621 251.219z" fill="#bc293c"/></g><path id="Path_3527" data-name="Path 3527" d="M294.327 243.143a8.8 8.8.0 0 1-11.116 12.519 8.807 8.807.0 1 0 11.116-12.519z" fill="#7d1b28"/><path id="Path_3528" data-name="Path 3528" d="M293.286 167.1c-1.682 1.969-4.054 2.7-5.3 1.641s-.888-3.521.793-5.49 4.054-2.7 5.3-1.64S294.968 165.132 293.286 167.1z" fill="#fb5e73"/><path id="Path_3529" data-name="Path 3529" d="M341.245 139.762c-.894 1.047-2.156 1.438-2.817.872s-.473-1.872.421-2.92 2.157-1.437 2.818-.872S342.14 138.715 341.245 139.762z" fill="#fb5e73"/><path id="Path_3530" data-name="Path 3530" d="M421.354 143.617c-.578-1.219-2.61-1.466-4.538-.551s-3.022 2.644-2.444 3.863 2.609 1.464 4.537.549S421.932 144.834 421.354 143.617z" fill="#fa3650"/><path id="Path_3531" data-name="Path 3531" d="M446.668 184.052c-.578-1.219-2.61-1.465-4.538-.551s-3.023 2.645-2.444 3.864 2.609 1.464 4.537.549S447.245 185.271 446.668 184.052z" fill="#fa3650"/><path id="Path_3532" data-name="Path 3532" d="M452.269 255.292c-1.656-.771-3.987.728-5.2 3.346s-.863 5.366.792 6.135 3.983-.728 5.2-3.346S453.92 256.062 452.269 255.292z" fill="#fa3650"/><path id="Path_3533" data-name="Path 3533" d="M289.933 246.288c-.814-.732-2.414-.282-3.573 1.006s-1.438 2.927-.624 3.659 2.413.281 3.572-1.006S290.745 247.021 289.933 246.288z" fill="#fa3650"/><path id="Path_3534" data-name="Path 3534" d="M296.427 210.173c-.693-.623-2.054-.24-3.039.856s-1.224 2.489-.531 3.111 2.052.239 3.037-.855S297.117 210.8 296.427 210.173z" fill="#fa3650"/><path id="Path_3535" data-name="Path 3535" d="M313.506 279.6c-.735-.661-2.178-.254-3.222.906s-1.3 2.64-.562 3.3 2.175.255 3.219-.907S314.237 280.262 313.506 279.6z" fill="#fa3650"/><path id="Path_3536" data-name="Path 3536" d="M319.323 255.7a46.3 46.3.0 0 0 15.995 3.143 22.959 22.959.0 0 0 17.053-7.09c3.6-3.7 6.707-8.936 12.643-6.2a9.135 9.135.0 0 1 4.566 5.535c-.54-4.434-1.965-8.858-5.69-10.573-5.936-2.733-9.046 2.5-12.643 6.2a22.961 22.961.0 0 1-17.053 7.09 46.285 46.285.0 0 1-15.995-3.142 6.853 6.853.0 0 0-1.344-.347 2.383 2.383.0 0 0-2.577 3.075q.373 1.216.815 2.4A5.139 5.139.0 0 1 319.323 255.7z" fill="#c1cbff"/><path id="Path_3537" data-name="Path 3537" d="M338.28 216.638a2.35 2.35.0 1 1-2.349-2.35A2.35 2.35.0 0 1 338.28 216.638z" fill="#fb5e73"/><path id="Path_3538" data-name="Path 3538" d="M392.51 224.425a2.351 2.351.0 1 1-2.35-2.35A2.351 2.351.0 0 1 392.51 224.425z" fill="#fb5e73"/><path id="Path_3539" data-name="Path 3539" d="M404.563 242.408a2.35 2.35.0 1 1-2.349-2.351A2.349 2.349.0 0 1 404.563 242.408z" fill="#fb5e73"/></g><g id="Group_1527" data-name="Group 1527"><g id="Group_1526" data-name="Group 1526"><path id="Path_3540" data-name="Path 3540" d="M111.387 253.495l-48.229 94.78H77.393l47.69-70.611 33.074 23.221-13.37 37.449H156.75l23.925-44.867-33.864-33.216S128.185 252.78 111.387 253.495z" fill="#458ae7"/><path id="Path_3541" data-name="Path 3541" d="M154.678 267.967a349.231 349.231.0 0 0 11.892 51.951l14.1-26.451z" fill="#26264a"/><path id="Path_3542" data-name="Path 3542" d="M146.811 260.251s-18.626-7.471-35.424-6.756l-2.266 4.453C134.674 268.945 146.811 260.251 146.811 260.251z" fill="#26264a"/><path id="Path_3543" data-name="Path 3543" d="M99.443 213.66s1.747 13.862 13.826 15.917l1.693-9.616-7.76-8.622z" fill="#26264a"/><path id="Path_3544" data-name="Path 3544" d="M65.529 265.6c-1.518-6.572-4.573-11.69-7.572-13.255l-.279-1.207-2.365.8c-3.669 1-5.043 8.74-3.07 17.286s6.547 14.658 10.216 13.66l2.365-.8-.21-.908C66.577 278.256 67.046 272.174 65.529 265.6z" fill="#9198bf"/><path id="Path_3545" data-name="Path 3545" d="M65.529 265.6c-1.186-5.137-3.313-9.376-5.616-11.733a35.217 35.217.0 0 1 1.2 4.06c1.974 8.544.6 16.282-3.07 17.282-1.462.4-3.067-.348-4.6-1.914 2.286 6.32 5.96 10.42 9.013 9.59l2.365-.8-.21-.908C66.577 278.256 67.046 272.174 65.529 265.6z" fill="#26264a"/><path id="Path_3546" data-name="Path 3546" d="M67.894 264.8c1.973 8.543.6 16.281-3.07 17.281s-8.243-5.113-10.216-13.658-.6-16.284 3.07-17.284S65.921 256.255 67.894 264.8z" fill="#c1cbff"/><path id="Path_3547" data-name="Path 3547" d="M111.006 251.055c-.786-3.406-2.61-5.844-4.071-5.445L59.827 261.534c-1.462.4-2.011 3.483-1.224 6.89s2.609 5.843 4.073 5.445l47.107-15.924C111.244 257.546 111.793 254.463 111.006 251.055z" fill="#9198bf"/><path id="Path_3548" data-name="Path 3548" d="M82.32 259.516a16.374 16.374.0 0 0-4.248-4.15l-6.624 2.239c-1.617 2.266-3.2 5.543-2.473 9.18a23.613 23.613.0 0 0 2.083 4.252l11.381-3.848C83.016 264.881 83.479 261.649 82.32 259.516z" fill="#26264a"/><path id="Path_3549" data-name="Path 3549" d="M110.641 257.263c-.174-.938-.363-1.886-.585-2.847a60.944 60.944.0 0 0-2.738-8.839 1.2 1.2.0 0 0-.383.033l-11.544 3.9a63.072 63.072.0 0 0 1.378 8.529c.314 1.363.666 2.681 1.043 3.951l11.971-4.047A1.554 1.554.0 0 0 110.641 257.263z" fill="#26264a"/><path id="Path_3550" data-name="Path 3550" d="M104.7 211.339l-27.3 39.819s3.267-1.27 8.051 5.07l12.24-14.254 15.529-18.081S110.181 213.367 104.7 211.339z" fill="#adb9ff"/><path id="Path_3551" data-name="Path 3551" d="M112.82 222.686c-.862-2.476-3.125-8.105-6.6-10.533l-2.129.068-2.913 4.248c5.556 2.4 9.037 7.6 10.195 9.568l.874-1.019z" fill="#26264a"/><path id="Path_3552" data-name="Path 3552" d="M171.449 208.918a94.526 94.526.0 0 0-19.018-15.937l-8.647-3.5s-12.6.889-22.5 4.8A62.135 62.135.0 0 0 99.443 213.66s10.471 2.757 13.826 15.917l4.663-8.092-6.545 32.01s18.408 12 35.424 6.756c0 0 2.619-19.38 13.091-34.052C159.9 226.2 174.42 223.365 171.449 208.918z" fill="#458ae7"/><g id="Group_1521" data-name="Group 1521"><g id="Group_1520" data-name="Group 1520"><path id="Path_3553" data-name="Path 3553" d="M158.86 197.407a73.319 73.319.0 0 0-6.429-4.426l-8.647-3.5s-.214.015-.6.049h0c-.112.01-.233.02-.371.034-.236.021-.51.049-.819.081 1.626 3.832 7.6 18.683 7.936 31.074A96.444 96.444.0 0 0 158.86 197.407z" fill="#ecbc96"/><path id="Path_3554" data-name="Path 3554" d="M158.86 197.407a73.319 73.319.0 0 0-6.429-4.426l-8.647-3.5s-.214.015-.6.049h0c-.112.01-.233.02-.371.034-.236.021-.51.049-.819.081 1.626 3.832 7.6 18.683 7.936 31.074A96.444 96.444.0 0 0 158.86 197.407z" fill="#ecbc96"/></g></g><path id="Path_3555" data-name="Path 3555" d="M158.8 197.361q-.651-.5-1.324-.989c-.129-.1-.26-.189-.39-.283q-.584-.422-1.179-.838c-.257-.178-.518-.353-.778-.529-.3-.2-.6-.408-.9-.607-.591-.386-1.187-.766-1.793-1.134l-6.414-2.6.279-.755-2.218-2.28-.623 2.155h0l-.272.024h0c-.112.01-.233.02-.371.034s-.275.025-.428.041a40.077 40.077.0 0 0 6.454 5.96c4.239 3.408 7.363 4.1 9.674 3.259.119-.467.236-.938.348-1.413z" fill="#e98478"/><path id="Path_3556" data-name="Path 3556" d="M153.845 153.252s13.715.709 12.3 26.972c0 0 .108 27.091-16.219 13.959.0.0-10.232-7.217-11.1-15.141.0.0-1.627-16.446 4.206-22.554C143.03 156.488 146.373 152.391 153.845 153.252z" fill="#ecbc96"/><path id="Path_3558" data-name="Path 3558" d="M170.061 160.277s-.988-2.379-4.524-.358v-.008a2.616 2.616.0 0 1-3.3-.819l-.007.013c-3.622-5.6-8.388-5.853-8.388-5.853-7.472-.861-10.815 3.236-10.815 3.236-5.833 6.108-4.206 22.554-4.206 22.554a11.963 11.963.0 0 0 .774 3.043 8.186 8.186.0 0 0 5.708-6.038h4.98v-5.489s-.143-2.551 2.489-1.237c0 0 8.211 5.636 13.172 1.551C165.947 170.872 172.622 166.384 170.061 160.277z" fill="#26264a"/><path id="Path_3559" data-name="Path 3559" d="M147.758 206.351a72.075 72.075.0 0 1 2.034 11.907c0 .058.009.115.014.173.019.267.038.532.053.8.031.5.056 1 .07 1.487a92.368 92.368.0 0 0 6.018-13.53A23.884 23.884.0 0 1 147.758 206.351z" fill="#adb9ff"/><path id="Path_3560" data-name="Path 3560" d="M196.822 215.424c-8.328-2.685-13.6-12.687-16.542-20.529l-.23-9.908-2.775-.123c-1.408 24.844-20.956 33.619-20.956 33.619 3.754 71.208 24.4 114.374 24.4 114.374l2.776.123-.117-5.06C200.518 292.064 196.822 215.424 196.822 215.424z" fill="#af3312"/><path id="Path_3561" data-name="Path 3561" d="M183.49 332.98l-.117-5.06a99.381 99.381.0 0 0 6.3-18.137l-12.93-58.136L159.1 218.6l-2.776-.122c3.754 71.208 24.4 114.374 24.4 114.374z" fill="#83260e"/><path id="Path_3562" data-name="Path 3562" d="M159.1 218.6s19.548-8.774 20.955-33.618c0 0 5.316 25.97 19.547 30.559.0.0 4.066 84.294-16.107 117.434C183.49 332.98 162.848 289.814 159.1 218.6z" fill="#ff4202"/><path id="Path_3563" data-name="Path 3563" d="M159.1 218.6s19.548-8.774 20.955-33.618c0 0 5.316 25.97 19.547 30.559.0.0 4.066 84.294-16.107 117.434C183.49 332.98 162.848 289.814 159.1 218.6z" fill="#ff4202"/><path id="Path_3564" data-name="Path 3564" d="M165.552 272.307l30.9-58.206c-5.843-3.46-9.911-10.558-12.531-16.887l-23.064 43.452C162.087 252.172 163.723 262.746 165.552 272.307z" fill="#ff6835"/><path id="Path_3565" data-name="Path 3565" d="M171.554 298.381l28.237-53.194c.144-6.125.162-11.646.124-16.217l-31.1 58.594Q170.169 293.306 171.554 298.381z" fill="#ff6835"/><path id="Path_3566" data-name="Path 3566" d="M179.768 323.978l15.944-30.037c1.711-10.531 2.758-21.533 3.38-31.854l-24.619 46.38C176.434 314.832 178.27 320.033 179.768 323.978z" fill="#ff6835"/><path id="Path_3567" data-name="Path 3567" d="M63.158 348.275s-11.688 12.438-2.1 14.082H79.215s8.694.0 3.146-7.041l-4.968-7.041z" fill="#ff9501"/><path id="Path_3568" data-name="Path 3568" d="M144.787 338.334l-5.367 15.256 35.239 1.762v-1.666l-21.18-15.352z" fill="#ff9501"/><path id="Path_3569" data-name="Path 3569" d="M79.04 251.158H77.393s-6.641 5.561-5.294 12.34c0 0 5.5 15.686 12.6 3.19.0.0 2.718-6.831.748-10.46C82.7 252.589 80.456 251.46 79.04 251.158z" fill="#ecbc96"/><path id="Path_3570" data-name="Path 3570" d="M74.351 257.908a9.549 9.549.0 0 1-.071-3.178A11.736 11.736.0 0 0 72.1 263.5s5.5 15.686 12.6 3.19a25.015 25.015.0 0 0 1.1-3.786C79.265 271.9 74.351 257.908 74.351 257.908z" fill="#e98478"/><path id="Path_3571" data-name="Path 3571" d="M112.412 250.795c-1.994-8.633-5.364-15.591-8.472-18.147l-.416-1.807-2.589.828c-3.669 1-4.48 11.187-1.811 22.748s7.809 20.124 11.479 19.124l2.589-.826-.363-1.578C114.457 267.289 114.406 259.428 112.412 250.795z" fill="#9198bf"/><path id="Path_3572" data-name="Path 3572" d="M115 249.966c2.669 11.564 1.859 21.749-1.81 22.749s-8.808-7.565-11.477-19.124-1.86-21.748 1.809-22.75S112.332 238.4 115 249.966z" fill="#c1cbff"/><path id="Path_3573" data-name="Path 3573" d="M184.175 216.663l-78.158 24.971c-2.406.657-3.308 5.73-2.014 11.331s4.292 9.613 6.7 8.956l78.158-24.973z" fill="#c1cbff"/><path id="Path_3574" data-name="Path 3574" d="M182.715 219.229 186.5 235.6l-76.327 24.389c-.691-.009-3.024-2.308-4.217-7.477-1.253-5.426-.052-8.776.591-8.951l.042-.011.041-.014 76.089-24.31m1.46-2.566-78.158 24.971c-2.406.657-3.308 5.73-2.014 11.331 1.2 5.2 3.869 9.027 6.169 9.027a1.977 1.977.0 0 0 .529-.071l78.158-24.973-4.684-20.285z" fill="#d9dfff"/><path id="Path_3575" data-name="Path 3575" d="M184.177 216.669l-52.446 16.756c-2.406.657-3.307 5.731-2.014 11.332 1.286 5.568 4.255 9.558 6.653 8.962l52.489-16.771z" fill="#9198bf"/><path id="Path_3576" data-name="Path 3576" d="M184.181 216.687l-47.561 15.2c-2.407.656-3.308 5.731-2.015 11.332 1.266 5.479 4.161 9.424 6.538 8.98l47.716-15.246z" fill="#5529ce"/><path id="Path_3577" data-name="Path 3577" d="M190.872 225.618c1.293 5.6.391 10.674-2.013 11.33s-5.4-3.353-6.7-8.954-.392-10.676 2.014-11.331S189.577 220.017 190.872 225.618z" fill="#9198bf"/><path id="Path_3578" data-name="Path 3578" d="M188.867 226.164c.7 3.025.211 5.763-1.086 6.117s-2.918-1.81-3.616-4.834-.211-5.762 1.086-6.115S188.168 223.141 188.867 226.164z" fill="#c1cbff"/><path id="Path_3579" data-name="Path 3579" d="M204.962 214.86l2.528 10.949-19.709 6.471-2.536-10.986z" fill="#c1cbff"/><path id="Path_3580" data-name="Path 3580" d="M208.576 219.693c.7 3.024.211 5.763-1.086 6.116s-2.917-1.81-3.615-4.834-.212-5.762 1.087-6.115S207.878 216.669 208.576 219.693z" fill="#9198bf"/><path id="Path_3581" data-name="Path 3581" d="M205.912 218.974c-.323.089-.444.769-.27 1.519s.575 1.289.9 1.2L245.7 207.4l7.337-5.627z" fill="#fff"/><path id="Path_3582" data-name="Path 3582" d="M79.215 358.855H61.054c-1.888-.324-2.941-1.07-3.431-2.054-.814 2.58-.348 4.908 3.431 5.556H79.215s6.946.0 4.446-5.043C82.364 358.852 79.215 358.855 79.215 358.855z" fill="#fff"/><path id="Path_3583" data-name="Path 3583" d="M140.63 350.148l-1.211 3.441 35.239 1.762v-1.666l-2.721-1.971z" fill="#fff"/><path id="Path_3584" data-name="Path 3584" d="M156.947 340.848l-3.468-2.514h-8.692l-1.5 4.256z" fill="#26264a"/><path id="Path_3585" data-name="Path 3585" d="M60.646 351.34l16.747-3.065H63.158A37.082 37.082.0 0 0 60.646 351.34z" fill="#26264a"/><path id="Path_3586" data-name="Path 3586" d="M117.932 221.485l-1.09 5.331c4.616-5.628 6.383-14.539 6.383-14.539z" fill="#26264a"/><g id="Group_1524" data-name="Group 1524" opacity=".3"><path id="Path_3587" data-name="Path 3587" d="M116.842 244.825a1.5 1.5.0 0 1-.456-2.93l56.152-17.941a1.5 1.5.0 0 1 .913 2.858L117.3 244.752A1.489 1.489.0 0 1 116.842 244.825z" fill="#fff"/></g><path id="Path_3588" data-name="Path 3588" d="M141.993 244.515a1.4 1.4.0 1 1-1.4-1.4A1.4 1.4.0 0 1 141.993 244.515z" fill="#7754d8"/><path id="Path_3589" data-name="Path 3589" d="M170.208 232.16a1.4 1.4.0 1 1-1.4-1.4A1.4 1.4.0 0 1 170.208 232.16z" fill="#401f9b"/><path id="Path_3590" data-name="Path 3590" d="M152.386 240.331a.719.719.0 1 1-.719-.72A.718.718.0 0 1 152.386 240.331z" fill="#401f9b"/><path id="Path_3591" data-name="Path 3591" d="M147.7 230.763a.719.719.0 1 1-.719-.72A.72.72.0 0 1 147.7 230.763z" fill="#401f9b"/><path id="Path_3592" data-name="Path 3592" d="M141.314 239.612a.719.719.0 1 1-.719-.72A.72.72.0 0 1 141.314 239.612z" fill="#401f9b"/><path id="Path_3593" data-name="Path 3593" d="M167.413 241.05a.719.719.0 1 1-.72-.719A.72.72.0 0 1 167.413 241.05z" fill="#401f9b"/><path id="Path_3594" data-name="Path 3594" d="M164.712 234.354a.72.72.0 1 1-.719-.72A.719.719.0 0 1 164.712 234.354z" fill="#401f9b"/><path id="Path_3595" data-name="Path 3595" d="M179.372 226.816a.719.719.0 1 1-.72-.72A.72.72.0 0 1 179.372 226.816z" fill="#401f9b"/><path id="Path_3596" data-name="Path 3596" d="M178.136 223.1a1.4 1.4.0 1 1-1.4-1.4A1.4 1.4.0 0 1 178.136 223.1z" fill="#7754d8"/><path id="Path_3597" data-name="Path 3597" d="M179.534 235.856a1.4 1.4.0 1 1-1.4-1.4A1.4 1.4.0 0 1 179.534 235.856z" fill="#7754d8"/><path id="Path_3598" data-name="Path 3598" d="M158.72 236.065a.841.841.0 1 1-.84-.841A.84.84.0 0 1 158.72 236.065z" fill="#7754d8"/><path id="Path_3599" data-name="Path 3599" d="M171.4 239.328a.841.841.0 1 1-.84-.841A.84.84.0 0 1 171.4 239.328z" fill="#7754d8"/><path id="Path_3600" data-name="Path 3600" d="M178.977 230.762a.841.841.0 1 1-.841-.841A.842.842.0 0 1 178.977 230.762z" fill="#7754d8"/><path id="Path_3601" data-name="Path 3601" d="M140.038 233.121a.841.841.0 1 1-.84-.841A.84.84.0 0 1 140.038 233.121z" fill="#7754d8"/><path id="Path_3602" data-name="Path 3602" d="M146.977 238.488a.841.841.0 1 1-.841-.841A.841.841.0 0 1 146.977 238.488z" fill="#7754d8"/><path id="Path_3603" data-name="Path 3603" d="M150.426 245.913a.841.841.0 1 1-.84-.84A.84.84.0 0 1 150.426 245.913z" fill="#7754d8"/><path id="Path_3604" data-name="Path 3604" d="M162.278 241.009a.841.841.0 1 1-.84-.841A.841.841.0 0 1 162.278 241.009z" fill="#7754d8"/><path id="Path_3605" data-name="Path 3605" d="M154.631 185.531l-8.608-12.489-1.393 4.883 3.128 13.163" fill="none" stroke="#fff" stroke-miterlimit="10" stroke-width=".5"/><path id="Path_3606" data-name="Path 3606" d="M149.926 194.183c11.994 9.648 15.119-2.414 15.932-9.494a15.157 15.157.0 0 1-13.732-2.6c.074 4.588-2.235 5.872-3.69 7.392a8.062 8.062.0 0 0-1.489 2.279A36.68 36.68.0 0 0 149.926 194.183z" fill="#fff"/><g id="Group_1525" data-name="Group 1525"><path id="Path_3607" data-name="Path 3607" d="M151.306 189.653s-.674-.479-1.684-1.314c-.415.4-.827.762-1.186 1.138a8.062 8.062.0 0 0-1.489 2.279 36.68 36.68.0 0 0 2.979 2.427c10.175 8.184 13.966.746 15.379-6.02C163.217 192.974 159.166 195.974 151.306 189.653z" fill="#b4bfff"/></g><ellipse id="Ellipse_133" data-name="Ellipse 133" cx="2.525" cy="5.18" rx="2.525" ry="5.18" transform="translate(142.105 170.868)" fill="#ecbc96"/></g></g></g></svg>