<svg xmlns="http://www.w3.org/2000/svg" width="1099.359" height="723" viewBox="0 0 1099.359 723">
  <g id="FightTogether" transform="translate(12.39 -22.34)">
    <ellipse id="shadow" cx="534" cy="34" rx="534" ry="34" transform="translate(-12.39 677.34)" fill="#a3f19a"/>
    <ellipse id="Ellipse_1" data-name="Ellipse 1" cx="298.859" cy="288.335" rx="298.859" ry="288.335" transform="translate(247.13 59.029)" fill="#f9d8ad"/>
    <g id="Group_1" data-name="Group 1" transform="translate(46.863 22.34)">
      <path id="Path_1" data-name="Path 1" d="M711.958,130.027a7.875,7.875,0,0,0,6.258,7.293,8.1,8.1,0,0,0,9.676-5.856,7.8,7.8,0,0,0-6.07-9.336,8.189,8.189,0,0,0-8.925,3.938l-4.339-.959a26.035,26.035,0,0,0-2.914-16.59l9.972-6.035a8.1,8.1,0,0,0,3.655,1.893,8.269,8.269,0,0,0,6.094-1,7.763,7.763,0,0,0,3.583-4.861,7.519,7.519,0,0,0-1.031-5.881,8.021,8.021,0,0,0-5.039-3.455,8.27,8.27,0,0,0-6.094,1,7.763,7.763,0,0,0-3.583,4.861,7.467,7.467,0,0,0,.176,4l-9.972,6.035a27.829,27.829,0,0,0-14.213-9.751l.994-4.186a8.017,8.017,0,0,0,7.557-6.038,7.8,7.8,0,0,0-6.07-9.336A8.1,8.1,0,0,0,682,81.618a7.706,7.706,0,0,0,4.08,8.609l-.994,4.187A28.715,28.715,0,0,0,668.3,97l-6.021-9.26a7.573,7.573,0,0,0,.932-9.4,8.257,8.257,0,0,0-11.134-2.46,7.641,7.641,0,0,0-2.55,10.74h0a8.056,8.056,0,0,0,5.039,3.449,8.37,8.37,0,0,0,4.143-.167l5.995,9.221a26.911,26.911,0,0,0-10.49,13.971l-4.339-.958a7.878,7.878,0,0,0-6.259-7.293,8.1,8.1,0,0,0-9.675,5.856,7.8,7.8,0,0,0,6.069,9.336,8.187,8.187,0,0,0,8.925-3.938l4.339.959a26.031,26.031,0,0,0,2.914,16.588l-9.181,5.557a8.293,8.293,0,0,0-9.749-.9,7.644,7.644,0,0,0-2.55,10.742,8.056,8.056,0,0,0,5.04,3.449,8.3,8.3,0,0,0,6.094-.989h0a7.653,7.653,0,0,0,3.4-8.859l9.181-5.557a27.829,27.829,0,0,0,14.213,9.751l-.994,4.187a8.018,8.018,0,0,0-7.559,6.039,7.8,7.8,0,0,0,6.07,9.336,8.1,8.1,0,0,0,9.676-5.856,7.707,7.707,0,0,0-4.081-8.61l.994-4.187a28.7,28.7,0,0,0,17.6-3.032l5.995,9.221a7.625,7.625,0,0,0-1.962,3.525,7.508,7.508,0,0,0,1.031,5.881,8.018,8.018,0,0,0,5.037,3.455,8.273,8.273,0,0,0,6.1-1,7.755,7.755,0,0,0,3.581-4.861,7.507,7.507,0,0,0-1.031-5.881,8.021,8.021,0,0,0-5.039-3.455,8.292,8.292,0,0,0-4.145.17L697.9,142.52a26.869,26.869,0,0,0,9.722-13.452Zm-36.986-23.445a5.156,5.156,0,0,1,6.169-3.733,4.966,4.966,0,0,1,3.871,5.952,5.158,5.158,0,0,1-6.171,3.735A4.968,4.968,0,0,1,674.973,106.581Zm5.127,16.934a3.451,3.451,0,0,1-2.689-4.136,3.584,3.584,0,0,1,4.287-2.594,3.451,3.451,0,0,1,2.689,4.136A3.583,3.583,0,0,1,680.1,123.515Zm11.544-2.142a3.912,3.912,0,0,1-3.048-4.69,4.064,4.064,0,0,1,4.861-2.942,3.915,3.915,0,0,1,3.05,4.691A4.064,4.064,0,0,1,691.644,121.374Z" transform="translate(248.137 0.049)" fill="#f9d8ad"/>
      <path id="Path_2" data-name="Path 2" d="M118.526,125.858a8.223,8.223,0,0,0,9.191,3.315,7.755,7.755,0,0,0,5.367-9.727A8.14,8.14,0,0,0,123,114.268a7.826,7.826,0,0,0-5.706,7.7l-4.257,1.253a27.079,27.079,0,0,0-11.091-12.985l5.531-10.027a8.286,8.286,0,0,0,4.146-.114,7.969,7.969,0,0,0,4.772-3.79,7.505,7.505,0,0,0,.595-5.938,7.813,7.813,0,0,0-3.93-4.6,8.281,8.281,0,0,0-6.151-.575,7.966,7.966,0,0,0-4.772,3.792,7.5,7.5,0,0,0-.595,5.936,7.681,7.681,0,0,0,2.217,3.382l-5.533,10.027A28.757,28.757,0,0,0,80.868,106.7l-1.3-4.109a7.668,7.668,0,0,0,3.436-8.867A8.142,8.142,0,0,0,72.922,88.55a7.756,7.756,0,0,0-5.366,9.728,8.067,8.067,0,0,0,7.982,5.505l1.3,4.107A27.648,27.648,0,0,0,63.621,118.2l-10-5.135a7.688,7.688,0,0,0-4.047-8.6,8.232,8.232,0,0,0-10.924,3.217,7.665,7.665,0,0,0,3.334,10.539h0a8.323,8.323,0,0,0,6.151.57,8.125,8.125,0,0,0,3.506-2.136l9.96,5.115a25.98,25.98,0,0,0-1.884,17.156l-4.257,1.254a8.226,8.226,0,0,0-9.192-3.315,7.756,7.756,0,0,0-5.367,9.727,8.14,8.14,0,0,0,10.083,5.178,7.824,7.824,0,0,0,5.706-7.7l4.257-1.254A27.07,27.07,0,0,0,72.037,155.8l-5.092,9.231a8.17,8.17,0,0,0-8.917,3.9,7.667,7.667,0,0,0,3.334,10.541,8.322,8.322,0,0,0,6.151.57,8,8,0,0,0,4.774-3.788h0a7.586,7.586,0,0,0-1.622-9.317l5.092-9.231a28.758,28.758,0,0,0,17.358,1.626l1.3,4.109a7.671,7.671,0,0,0-3.436,8.869,8.141,8.141,0,0,0,10.082,5.178,7.757,7.757,0,0,0,5.367-9.728,8.067,8.067,0,0,0-7.983-5.505l-1.3-4.109a27.614,27.614,0,0,0,13.7-11.089l9.957,5.114a7.46,7.46,0,0,0,.118,4,7.81,7.81,0,0,0,3.93,4.6,8.291,8.291,0,0,0,6.153.575,7.966,7.966,0,0,0,4.771-3.79,7.505,7.505,0,0,0,.6-5.938,7.813,7.813,0,0,0-3.93-4.6,8.291,8.291,0,0,0-6.153-.575,8.042,8.042,0,0,0-3.506,2.14l-10-5.135a25.957,25.957,0,0,0,1.486-16.337ZM74.35,123.3a4.942,4.942,0,0,1,3.423-6.2,5.187,5.187,0,0,1,6.43,3.3,4.941,4.941,0,0,1-3.423,6.2A5.185,5.185,0,0,1,74.35,123.3ZM87.539,135.52a3.6,3.6,0,0,1-4.467-2.294,3.433,3.433,0,0,1,2.378-4.309,3.6,3.6,0,0,1,4.467,2.294A3.432,3.432,0,0,1,87.539,135.52Zm8.905-7.4a4.087,4.087,0,0,1-5.067-2.6,3.894,3.894,0,0,1,2.7-4.888,4.086,4.086,0,0,1,5.065,2.6A3.894,3.894,0,0,1,96.444,128.116Z" transform="translate(-37.703 4.393)" fill="#f9d8ad"/>
      <path id="Path_3" data-name="Path 3" d="M102.267,439.978a5.547,5.547,0,0,0,5.42,3.9,5.372,5.372,0,1,0-.146-10.736,5.535,5.535,0,0,0-5.312,4.036l-3.066.039a18.172,18.172,0,0,0-4.749-10.649l5.66-5.606a5.657,5.657,0,0,0,6.68-.928,5.238,5.238,0,0,0-.1-7.592,5.707,5.707,0,0,0-7.869.1,5.242,5.242,0,0,0-1.577,3.816,5.186,5.186,0,0,0,.792,2.65l-5.66,5.606a19.567,19.567,0,0,0-11.159-4.3l-.04-2.96a5.4,5.4,0,0,0,4.041-5.228,5.568,5.568,0,0,0-11.128.141,5.414,5.414,0,0,0,4.183,5.124l.04,2.96a19.539,19.539,0,0,0-10.8,4.367l-5.592-5.255a5.22,5.22,0,0,0-.962-6.442,5.714,5.714,0,0,0-7.869.1,5.242,5.242,0,0,0,.1,7.591h0a5.661,5.661,0,0,0,3.955,1.521,5.726,5.726,0,0,0,2.746-.762l5.568,5.232a18.156,18.156,0,0,0-4.669,11l-3.066.04a5.547,5.547,0,0,0-5.42-3.9,5.373,5.373,0,1,0,.146,10.738,5.536,5.536,0,0,0,5.312-4.036l3.066-.04a18.179,18.179,0,0,0,4.747,10.649l-5.21,5.161a5.709,5.709,0,0,0-6.678.928,5.244,5.244,0,0,0,.1,7.592,5.719,5.719,0,0,0,7.869-.1h0a5.221,5.221,0,0,0,.784-6.466l5.21-5.161a19.57,19.57,0,0,0,11.159,4.3l.041,2.96a5.4,5.4,0,0,0-4.043,5.23,5.568,5.568,0,0,0,11.128-.141,5.414,5.414,0,0,0-4.183-5.125l-.04-2.96a19.509,19.509,0,0,0,11.276-4.791l5.568,5.232a5.172,5.172,0,0,0-.721,2.668,5.249,5.249,0,0,0,1.683,3.775,5.707,5.707,0,0,0,7.868-.1,5.234,5.234,0,0,0-.1-7.592,5.656,5.656,0,0,0-6.7-.76l-5.591-5.254A18.124,18.124,0,0,0,99.2,440.016Zm-28.715-9.9a3.551,3.551,0,1,1,3.6,3.379A3.484,3.484,0,0,1,73.552,430.083Zm6.288,10.533a2.38,2.38,0,1,1,2.433-2.41A2.425,2.425,0,0,1,79.839,440.616Zm7.369-3.245a2.7,2.7,0,1,1,2.758-2.733A2.752,2.752,0,0,1,87.209,437.371Z" transform="translate(-33.35 142.095)" fill="#f9d8ad"/>
      <path id="Path_4" data-name="Path 4" d="M606.928,73.274a6.816,6.816,0,0,0,6.66,4.793,6.6,6.6,0,1,0-.179-13.195,6.8,6.8,0,0,0-6.527,4.96l-3.77.049a22.33,22.33,0,0,0-5.833-13.087l6.955-6.89a6.954,6.954,0,0,0,8.208-1.139,6.435,6.435,0,0,0-.127-9.331,7.018,7.018,0,0,0-9.67.123,6.432,6.432,0,0,0-1.939,4.69,6.353,6.353,0,0,0,.972,3.257l-6.955,6.89a24.038,24.038,0,0,0-13.715-5.282l-.049-3.636a6.642,6.642,0,0,0,4.968-6.426,6.843,6.843,0,0,0-13.676.173,6.657,6.657,0,0,0,5.141,6.3l.049,3.635a24.03,24.03,0,0,0-13.274,5.368l-6.872-6.457a6.417,6.417,0,0,0-1.181-7.918,7.024,7.024,0,0,0-9.67.123,6.444,6.444,0,0,0,.127,9.33h0a6.957,6.957,0,0,0,4.861,1.867,7.032,7.032,0,0,0,3.374-.937l6.844,6.432a22.3,22.3,0,0,0-5.737,13.517l-3.769.049a6.818,6.818,0,0,0-6.661-4.793,6.6,6.6,0,1,0,.179,13.195,6.8,6.8,0,0,0,6.529-4.96l3.768-.049a22.345,22.345,0,0,0,5.835,13.087l-6.4,6.342a7.015,7.015,0,0,0-8.207,1.141,6.443,6.443,0,0,0,.127,9.33,7.025,7.025,0,0,0,9.67-.123h0a6.416,6.416,0,0,0,.965-7.945l6.4-6.343a24.033,24.033,0,0,0,13.713,5.282l.05,3.638a6.639,6.639,0,0,0-4.968,6.426,6.843,6.843,0,0,0,13.676-.174,6.658,6.658,0,0,0-5.142-6.3l-.049-3.638a23.972,23.972,0,0,0,13.857-5.889l6.843,6.432a6.345,6.345,0,0,0-.885,3.278,6.446,6.446,0,0,0,2.067,4.64,7.016,7.016,0,0,0,9.669-.123,6.433,6.433,0,0,0-.127-9.33,6.95,6.95,0,0,0-8.236-.932l-6.871-6.456a22.278,22.278,0,0,0,5.213-12.943ZM571.64,61.116a4.364,4.364,0,1,1,4.419,4.152A4.283,4.283,0,0,1,571.64,61.116Zm7.727,12.943a2.925,2.925,0,1,1,2.991-2.961A2.982,2.982,0,0,1,579.367,74.06Zm9.055-3.987a3.318,3.318,0,1,1,3.392-3.358A3.381,3.381,0,0,1,588.422,70.072Z" transform="translate(202.681 -17.979)" fill="#f9d8ad"/>
      <path id="Path_5" data-name="Path 5" d="M480.831,86.846a4.374,4.374,0,0,0,4.274,3.075,4.237,4.237,0,1,0-.115-8.468,4.363,4.363,0,0,0-4.188,3.184l-2.419.03a14.328,14.328,0,0,0-3.744-8.4l4.463-4.42a4.46,4.46,0,0,0,5.267-.732,4.128,4.128,0,0,0-.081-5.986,4.5,4.5,0,0,0-6.2.079,4.134,4.134,0,0,0-1.244,3.01,4.081,4.081,0,0,0,.624,2.089L473,74.729a15.431,15.431,0,0,0-8.8-3.391l-.031-2.333a4.261,4.261,0,0,0,3.187-4.123,4.391,4.391,0,0,0-8.775.111,4.272,4.272,0,0,0,3.3,4.042l.031,2.333a15.409,15.409,0,0,0-8.516,3.445l-4.41-4.145a4.12,4.12,0,0,0-.758-5.081,4.507,4.507,0,0,0-6.206.08,4.135,4.135,0,0,0,.083,5.986h0a4.466,4.466,0,0,0,5.283.6l4.392,4.127a14.309,14.309,0,0,0-3.682,8.673l-2.418.031a4.374,4.374,0,0,0-4.274-3.075,4.236,4.236,0,1,0,.115,8.466,4.363,4.363,0,0,0,4.188-3.182l2.418-.031a14.334,14.334,0,0,0,3.744,8.4l-4.108,4.07a4.5,4.5,0,0,0-5.266.731,4.135,4.135,0,0,0,.081,5.988,4.507,4.507,0,0,0,6.2-.08h0a4.116,4.116,0,0,0,.62-5.1l4.108-4.069a15.439,15.439,0,0,0,8.8,3.389l.031,2.334a4.261,4.261,0,0,0-3.187,4.123,4.391,4.391,0,0,0,8.775-.111,4.272,4.272,0,0,0-3.3-4.042l-.031-2.334a15.387,15.387,0,0,0,8.891-3.778l4.39,4.126a4.081,4.081,0,0,0-.567,2.1,4.136,4.136,0,0,0,1.326,2.977,4.5,4.5,0,0,0,6.2-.079,4.13,4.13,0,0,0-.081-5.988,4.462,4.462,0,0,0-5.286-.6l-4.408-4.143a14.283,14.283,0,0,0,3.344-8.3Zm-22.644-7.8a2.8,2.8,0,1,1,2.835,2.664A2.749,2.749,0,0,1,458.188,79.044Zm4.959,8.306a1.877,1.877,0,1,1,1.918-1.9A1.914,1.914,0,0,1,463.146,87.35Zm5.81-2.56a2.128,2.128,0,1,1,2.175-2.154A2.169,2.169,0,0,1,468.956,84.79Z" transform="translate(153.907 -5.933)" fill="#f8efea"/>
      <path id="Path_6" data-name="Path 6" d="M301.093,122.231a4.375,4.375,0,0,0,4.275,3.075,4.237,4.237,0,1,0-.115-8.468,4.364,4.364,0,0,0-4.189,3.184l-2.418.03a14.338,14.338,0,0,0-3.744-8.4l4.463-4.42a4.46,4.46,0,0,0,5.267-.732,4.128,4.128,0,0,0-.081-5.986,4.5,4.5,0,0,0-6.2.079,4.071,4.071,0,0,0-.62,5.1l-4.463,4.422a15.431,15.431,0,0,0-8.8-3.391l-.031-2.333a4.261,4.261,0,0,0,3.187-4.123,4.391,4.391,0,0,0-8.777.111,4.273,4.273,0,0,0,3.3,4.042l.031,2.333a15.414,15.414,0,0,0-8.518,3.445l-4.41-4.145a4.118,4.118,0,0,0-.758-5.081,4.506,4.506,0,0,0-6.2.08,4.135,4.135,0,0,0,.081,5.986h0a4.468,4.468,0,0,0,5.284.6l4.391,4.127a14.316,14.316,0,0,0-3.68,8.673l-2.418.031a4.375,4.375,0,0,0-4.275-3.075,4.236,4.236,0,1,0,.115,8.466,4.363,4.363,0,0,0,4.189-3.182l2.418-.031a14.334,14.334,0,0,0,3.744,8.4l-4.109,4.07a4.5,4.5,0,0,0-5.265.731,4.135,4.135,0,0,0,.081,5.988,4.507,4.507,0,0,0,6.2-.08h0a4.114,4.114,0,0,0,.619-5.1l4.109-4.069a15.429,15.429,0,0,0,8.8,3.389l.033,2.333a4.264,4.264,0,0,0-3.187,4.125,4.391,4.391,0,0,0,8.775-.111,4.272,4.272,0,0,0-3.3-4.042l-.033-2.334a15.39,15.39,0,0,0,8.892-3.778l4.39,4.126a4.081,4.081,0,0,0-.568,2.1,4.138,4.138,0,0,0,1.327,2.978,4.5,4.5,0,0,0,6.2-.079,4.128,4.128,0,0,0-.083-5.988,4.459,4.459,0,0,0-5.284-.6l-4.408-4.143a14.292,14.292,0,0,0,3.344-8.3Zm-22.642-7.8a2.8,2.8,0,1,1,2.834,2.664A2.748,2.748,0,0,1,278.451,114.429Zm4.959,8.306a1.877,1.877,0,1,1,1.918-1.9A1.913,1.913,0,0,1,283.41,122.735Zm5.81-2.56a2.128,2.128,0,1,1,2.175-2.154A2.167,2.167,0,0,1,289.219,120.175Z" transform="translate(67.672 9.201)" fill="#f8efea"/>
      <path id="Path_7" data-name="Path 7" d="M382.35,57.36a5.31,5.31,0,0,0,5.188,3.733,5.143,5.143,0,1,0-.139-10.279,5.3,5.3,0,0,0-5.086,3.865l-2.936.037a17.4,17.4,0,0,0-4.546-10.2l5.419-5.368a5.411,5.411,0,0,0,6.394-.888,5.011,5.011,0,0,0-.1-7.27,5.465,5.465,0,0,0-7.534.1,5.023,5.023,0,0,0-1.511,3.655,4.963,4.963,0,0,0,.759,2.536l-5.419,5.368a18.735,18.735,0,0,0-10.686-4.116l-.038-2.833a5.175,5.175,0,0,0,3.871-5.005,5.332,5.332,0,0,0-10.656.134,5.186,5.186,0,0,0,4.006,4.907l.038,2.832a18.708,18.708,0,0,0-10.342,4.183l-5.354-5.031a5,5,0,0,0-.92-6.169,5.47,5.47,0,0,0-7.534.1,5.019,5.019,0,0,0,.1,7.268h0a5.423,5.423,0,0,0,6.415.725l5.333,5.01a17.386,17.386,0,0,0-4.47,10.533l-2.936.037a5.313,5.313,0,0,0-5.19-3.735,5.144,5.144,0,1,0,.141,10.281A5.3,5.3,0,0,0,339.7,57.9l2.937-.037a17.4,17.4,0,0,0,4.544,10.2L342.2,73a5.464,5.464,0,0,0-6.394.888,5.019,5.019,0,0,0,.1,7.268,5.475,5.475,0,0,0,7.535-.1h0a5,5,0,0,0,.752-6.19l4.988-4.941a18.73,18.73,0,0,0,10.684,4.116l.038,2.834a5.172,5.172,0,0,0-3.87,5.005,5.331,5.331,0,0,0,10.654-.134,5.186,5.186,0,0,0-4.006-4.907l-.039-2.834a18.671,18.671,0,0,0,10.8-4.589l5.332,5.011a4.954,4.954,0,0,0-.69,2.554,5.025,5.025,0,0,0,1.612,3.615,5.464,5.464,0,0,0,7.532-.1,5.012,5.012,0,0,0-.1-7.27,5.415,5.415,0,0,0-6.418-.725l-5.352-5.031a17.352,17.352,0,0,0,4.06-10.084Zm-27.493-9.473a3.4,3.4,0,1,1,3.442,3.234A3.335,3.335,0,0,1,354.857,47.887Zm6.02,10.084a2.279,2.279,0,1,1,2.329-2.307A2.322,2.322,0,0,1,360.877,57.971Zm7.054-3.107a2.585,2.585,0,1,1,2.643-2.617A2.634,2.634,0,0,1,367.931,54.864Z" transform="translate(102.161 -20.937)" fill="#f8efea"/>
      <path id="Path_8" data-name="Path 8" d="M724.888,423.719a6.943,6.943,0,0,0,7.585,3.3,6.608,6.608,0,0,0,5.1-7.941,6.869,6.869,0,0,0-8.232-4.921,6.672,6.672,0,0,0-5.271,6.209l-3.674.832a22.809,22.809,0,0,0-8.635-11.58l5.258-8.185a7.036,7.036,0,0,0,3.515.126,6.8,6.8,0,0,0,4.254-2.951,6.368,6.368,0,0,0,.847-4.991,6.579,6.579,0,0,0-3.059-4.1,7.017,7.017,0,0,0-5.172-.817,6.794,6.794,0,0,0-4.254,2.952,6.365,6.365,0,0,0-.846,4.99,6.465,6.465,0,0,0,1.68,2.98l-5.258,8.186a24.345,24.345,0,0,0-14.591-2.307l-.863-3.545a6.528,6.528,0,0,0,3.418-7.317,6.867,6.867,0,0,0-8.23-4.921,6.606,6.606,0,0,0-5.1,7.941,6.8,6.8,0,0,0,6.436,5.085l.863,3.545a23.606,23.606,0,0,0-11.776,8.015l-8.164-4.881a6.491,6.491,0,0,0-2.928-7.5,7,7,0,0,0-9.426,2.136,6.48,6.48,0,0,0,2.212,9.094h0a7.04,7.04,0,0,0,5.172.812,6.915,6.915,0,0,0,3.088-1.619l8.131,4.863a22.055,22.055,0,0,0-2.582,14.412l-3.674.832a6.943,6.943,0,0,0-7.585-3.3,6.608,6.608,0,0,0-5.1,7.941,6.866,6.866,0,0,0,8.231,4.921,6.674,6.674,0,0,0,5.272-6.209l3.673-.832a22.8,22.8,0,0,0,8.635,11.578l-4.84,7.535a6.96,6.96,0,0,0-7.769,2.825,6.483,6.483,0,0,0,2.214,9.1,7.036,7.036,0,0,0,5.17.812,6.826,6.826,0,0,0,4.257-2.948h0a6.421,6.421,0,0,0-.836-7.969l4.84-7.535a24.344,24.344,0,0,0,14.591,2.307l.863,3.545a6.53,6.53,0,0,0-3.418,7.318,6.867,6.867,0,0,0,8.23,4.921,6.608,6.608,0,0,0,5.1-7.942,6.8,6.8,0,0,0-6.436-5.085l-.863-3.545a23.56,23.56,0,0,0,12.229-8.646L725.3,446.1a6.33,6.33,0,0,0-.13,3.389,6.584,6.584,0,0,0,3.06,4.106,7.009,7.009,0,0,0,5.172.815,6.793,6.793,0,0,0,4.254-2.95,6.374,6.374,0,0,0,.846-4.991,6.581,6.581,0,0,0-3.06-4.1,7.009,7.009,0,0,0-5.172-.817,6.879,6.879,0,0,0-3.09,1.622l-8.162-4.881a22.057,22.057,0,0,0,2.2-13.741Zm-37.224-4.533a4.211,4.211,0,0,1,3.253-5.064,4.375,4.375,0,0,1,5.249,3.138,4.207,4.207,0,0,1-3.253,5.064A4.374,4.374,0,0,1,687.665,419.186Zm10.453,11.044a3.039,3.039,0,0,1-3.646-2.18,2.924,2.924,0,0,1,2.26-3.518,3.041,3.041,0,0,1,3.648,2.18A2.924,2.924,0,0,1,698.118,430.231Zm7.96-5.785a3.446,3.446,0,0,1-4.135-2.473,3.316,3.316,0,0,1,2.563-3.99,3.445,3.445,0,0,1,4.135,2.473A3.317,3.317,0,0,1,706.078,424.446Z" transform="translate(259.585 134.264)" fill="#f9d8ad"/>
      <path id="Path_9" data-name="Path 9" d="M223.735,57.542a6.94,6.94,0,0,0,7.584,3.3,6.608,6.608,0,0,0,5.1-7.941,6.866,6.866,0,0,0-8.231-4.921,6.671,6.671,0,0,0-5.271,6.209l-3.674.832a22.808,22.808,0,0,0-8.634-11.58l5.258-8.185a7.036,7.036,0,0,0,3.514.126,6.8,6.8,0,0,0,4.254-2.951,6.374,6.374,0,0,0,.846-4.991,6.58,6.58,0,0,0-3.06-4.1,7.012,7.012,0,0,0-5.17-.817A6.8,6.8,0,0,0,212,25.469a6.371,6.371,0,0,0-.846,4.99,6.487,6.487,0,0,0,1.681,2.98l-5.258,8.186a24.346,24.346,0,0,0-14.591-2.307l-.863-3.545a6.532,6.532,0,0,0,3.418-7.317,6.867,6.867,0,0,0-8.232-4.921,6.608,6.608,0,0,0-5.1,7.941,6.8,6.8,0,0,0,6.437,5.085l.863,3.545a23.606,23.606,0,0,0-11.776,8.015l-8.165-4.881a6.49,6.49,0,0,0-2.927-7.5,7,7,0,0,0-9.428,2.136,6.481,6.481,0,0,0,2.214,9.094h0a7.036,7.036,0,0,0,5.17.812,6.913,6.913,0,0,0,3.09-1.619l8.13,4.863a22.074,22.074,0,0,0-2.582,14.412l-3.674.832a6.942,6.942,0,0,0-7.584-3.3,6.609,6.609,0,0,0-5.1,7.941,6.866,6.866,0,0,0,8.231,4.921,6.671,6.671,0,0,0,5.271-6.209l3.674-.832a22.8,22.8,0,0,0,8.635,11.578l-4.84,7.535a6.959,6.959,0,0,0-7.769,2.825,6.482,6.482,0,0,0,2.214,9.1,7.035,7.035,0,0,0,5.17.812,6.829,6.829,0,0,0,4.257-2.948h0a6.421,6.421,0,0,0-.835-7.969l4.84-7.535A24.34,24.34,0,0,0,200.308,84.5l.863,3.545a6.532,6.532,0,0,0-3.417,7.318,6.867,6.867,0,0,0,8.231,4.921,6.609,6.609,0,0,0,5.1-7.942,6.8,6.8,0,0,0-6.436-5.085l-.863-3.545a23.55,23.55,0,0,0,12.227-8.646l8.13,4.861a6.331,6.331,0,0,0-.13,3.389,6.579,6.579,0,0,0,3.06,4.106,7.016,7.016,0,0,0,5.172.817,6.8,6.8,0,0,0,4.254-2.951,6.374,6.374,0,0,0,.846-4.991,6.58,6.58,0,0,0-3.06-4.1,7.017,7.017,0,0,0-5.172-.817A6.865,6.865,0,0,0,226.025,77l-8.162-4.881a22.056,22.056,0,0,0,2.2-13.741Zm-37.224-4.533a4.211,4.211,0,0,1,3.253-5.064,4.375,4.375,0,0,1,5.249,3.138,4.207,4.207,0,0,1-3.253,5.064A4.374,4.374,0,0,1,186.512,53.009Zm10.453,11.044a3.039,3.039,0,0,1-3.646-2.18,2.924,2.924,0,0,1,2.26-3.518,3.039,3.039,0,0,1,3.646,2.18A2.924,2.924,0,0,1,196.965,64.054Zm7.96-5.785a3.448,3.448,0,0,1-4.136-2.473,3.317,3.317,0,0,1,2.563-3.99,3.446,3.446,0,0,1,4.136,2.473A3.317,3.317,0,0,1,204.925,58.269Z" transform="translate(19.142 -22.34)" fill="#f9d8ad"/>
    </g>
    <g id="Group_5" data-name="Group 5" transform="translate(557.737 166.065)">
      <g id="Group_2" data-name="Group 2" transform="translate(12.664 389.502)">
        <path id="Path_10" data-name="Path 10" d="M640.62,395.834,651.1,543.677H542.562V521.466l-6.516,22.211H391.5L420.42,395.834Z" transform="translate(-391.498 -395.834)" fill="#f73c4f"/>
        <path id="Path_11" data-name="Path 11" d="M407.151,425.27l5.759-29.436h220.2l1.188,4.46C617.617,402.55,465.835,426.5,407.151,425.27Z" transform="translate(-383.988 -395.834)" fill="#ba2f42"/>
        <path id="Path_12" data-name="Path 12" d="M493.584,496.572l6.529-36.455,32.564-6.076" transform="translate(-342.519 -370.94)" fill="none" stroke="#ba2f42" stroke-linecap="round" stroke-linejoin="round" stroke-width="1.5"/>
        <line id="Line_1" data-name="Line 1" x1="22.614" y2="126.312" transform="translate(19.198 21.532)" fill="none" stroke="#ba2f42" stroke-linecap="round" stroke-linejoin="round" stroke-width="1.5"/>
        <path id="Path_13" data-name="Path 13" d="M442.243,410.916s-5.952,50.564-28.828,52.39" transform="translate(-380.982 -389.384)" fill="none" stroke="#ba2f42" stroke-linecap="round" stroke-linejoin="round" stroke-width="1.5"/>
        <path id="Path_14" data-name="Path 14" d="M508.164,457.539h0V395.834h15.828v46.435C523.992,450.7,516.905,457.539,508.164,457.539Z" transform="translate(-335.524 -395.834)" fill="none" stroke="#ba2f42" stroke-linecap="round" stroke-linejoin="round" stroke-width="1.5"/>
        <line id="Line_2" data-name="Line 2" y2="24.664" transform="translate(172.64 61.705)" fill="none" stroke="#ba2f42" stroke-linecap="round" stroke-linejoin="round" stroke-width="1.5"/>
      </g>
      <g id="Group_4" data-name="Group 4">
        <path id="Path_15" data-name="Path 15" d="M760.155,233.313,693,241.519a9.707,9.707,0,0,1-10.888-8.143h0a9.5,9.5,0,0,1,8.441-10.5l67.157-8.2a9.706,9.706,0,0,1,10.888,8.142h0A9.5,9.5,0,0,1,760.155,233.313Z" transform="translate(-239.442 -83.844)" fill="#ffa297"/>
        <g id="Group_3" data-name="Group 3" transform="translate(414.698 100.452)">
          <path id="Path_16" data-name="Path 16" d="M691.077,231.121c-6.69,14.7-21.651,50-27.636,84.011-1.848,10.5,6.5,20.1,17.544,20.1h63.3a17.564,17.564,0,0,0,17.728-15.6A87.5,87.5,0,0,0,744.67,257.7a47.886,47.886,0,0,1-8.985-23.211A12.11,12.11,0,0,0,723.5,224.048H702.313A12.287,12.287,0,0,0,691.077,231.121Z" transform="translate(-663.183 -180.253)" fill="#ffd774"/>
          <path id="Path_17" data-name="Path 17" d="M678.829,315.132c5.986-34.014,20.946-69.316,27.636-84.011a12.287,12.287,0,0,1,11.236-7.073H702.313a12.287,12.287,0,0,0-11.236,7.073c-6.69,14.7-21.651,50-27.636,84.011-1.848,10.5,6.5,20.1,17.544,20.1h15.388C685.329,335.232,676.979,325.637,678.829,315.132Z" transform="translate(-663.183 -180.253)" fill="#e4911f"/>
          <rect id="Rectangle_1" data-name="Rectangle 1" width="26.929" height="11.877" transform="translate(36.605 31.919)" fill="#f8efea"/>
          <path id="Path_18" data-name="Path 18" d="M752.1,198.321l-72.323-4.949V209.95l14.875,6.681v8.66h21.286v-6.928l8.819-1.629,16.728,30.331,6.784-1.52-7.64-31.744,11.47-2.119Z" transform="translate(-655.223 -193.372)" fill="#f73c4f"/>
          <path id="Path_19" data-name="Path 19" d="M689.827,209.663l21.286,1.732v6.928H689.827Z" transform="translate(-650.4 -186.405)" fill="#ba2f42"/>
          <line id="Line_3" data-name="Line 3" y1="2.932" x2="15.873" transform="translate(69.531 20.429)" fill="none" stroke="#ba2f42" stroke-linecap="round" stroke-linejoin="round" stroke-width="1.5"/>
          <path id="Path_20" data-name="Path 20" d="M728.648,197.791l3.462,1.485v7.887l-3.462.835Z" transform="translate(-631.775 -191.482)" fill="#faab44"/>
        </g>
        <path id="Path_21" data-name="Path 21" d="M734.247,256.165a6.95,6.95,0,0,0,2.107-4.787c0-3.836-3.656-7.118-8.839-8.483a7.184,7.184,0,0,0,2.584-5.261c0-5.061-6.353-9.164-14.191-9.164s-14.19,4.1-14.19,9.164c0,3.836,3.655,7.118,8.837,8.483a7.184,7.184,0,0,0-2.584,5.261c0,3.945,3.867,7.3,9.28,8.587a6,6,0,0,0-1.344,3.673c0,4.576,5.745,8.285,12.831,8.285s12.83-3.709,12.83-8.285C741.568,260.339,738.572,257.5,734.247,256.165Z" transform="translate(-229.997 -77.909)" fill="#ffa297"/>
        <path id="Path_22" data-name="Path 22" d="M775.056,215.634c-5.585-.445-11.149,1.052-16.794.9-5.542-.153-10.725-.655-16.218-.458-14.086.5-18.739,9.741-26.423,17.989-4.846,5.2-10.237,11.077-13.877,16.824-1.86,2.935-70.865,99.8-70.865,99.8l-8.071-12.294-93.621,55.634,39.349,60.216c21.031,24.218,58.106,22.179,58.106,22.179,88.3-3.76,116.907-172.329,118.225-180.4a45.115,45.115,0,0,0,5.219-10.593,56.978,56.978,0,0,0,2.763-15.25c.222-4.326-1.262-8.572.123-12.655,2.7-7.966,7.622-16.216,7.178-24.806,6.088-.725,16.9-1.969,21.583-5.508C788.124,222.377,782.388,216.221,775.056,215.634Z" transform="translate(-312.774 -83.434)" fill="#ffa297"/>
        <path id="Path_23" data-name="Path 23" d="M457.747,191.1c-.792-11.466-4.4-22.584-2.553-34.337,1.255-7.991,3.667-19.249,13.7-19.055.181-8.465,14.5-10.179,20.745-10.422,6.495-.253,13,.47,19.424-.02,4.969-.378,7.785-2.438,12.29-3.753,6.927-2.023,7.223,2.448,9.965,6.266,3.648,5.08,15.847-.523,21.583,1.122,8.574,2.46,13.086,9.617,11.883,18.023-.855,5.975-4.928,9.534-6.937,14.654,5.207.134,7.249,4.733,5.746,9.213-1.878,5.6-8.368,9.757-13.644,12.092-3.747,1.658-7.732,2.324-11.664,3.465-5.653,1.639-10.964,4.3-16.778,5.388-12.581,2.357-24.847,2.9-37.545,2.928a79.313,79.313,0,0,1-21.485-2.944,17.794,17.794,0,0,1-3.239-1.273C457.973,191.806,458.064,191.252,457.747,191.1Z" transform="translate(-348.523 -123.011)" fill="#641216"/>
        <path id="Path_24" data-name="Path 24" d="M622.807,301.594l-93.621,55.634L563.5,409.742C576,355.667,622.807,301.594,622.807,301.594Z" transform="translate(-312.774 -46.636)" fill="#f55c2b"/>
        <path id="Path_25" data-name="Path 25" d="M535.526,215.177a98.942,98.942,0,0,0-28.221.146c-27.79,4.143-99.622,17.52-108.829,57.475-10.341,44.878-15.536,215.462-15.536,215.462H652.946l-7.462-114.615,50.4-36.818-50.4-67.977S619.719,226.894,535.526,215.177Z" transform="translate(-382.94 -83.996)" fill="#69a4c2"/>
        <path id="Path_26" data-name="Path 26" d="M516.066,261.939c37.341-1.966,42.393-22.186,42.3-33.318a231.364,231.364,0,0,0-52.988-13.444,98.942,98.942,0,0,0-28.221.146c-7.788,1.161-19.034,3.048-31.392,6.04h0S449.227,265.458,516.066,261.939Z" transform="translate(-352.796 -83.996)" fill="#fff"/>
        <path id="Path_27" data-name="Path 27" d="M510.22,249.321c21.594,0,28.273-4.994,31.623-24.914a243.409,243.409,0,0,0-41.176-9.23,98.942,98.942,0,0,0-28.221.146c-4.831.72-10.6,1.727-16.849,3.1C456.025,241.2,486.51,249.321,510.22,249.321Z" transform="translate(-348.081 -83.996)" fill="#ffa297"/>
        <rect id="Rectangle_2" data-name="Rectangle 2" width="47.452" height="64.191" transform="translate(123.649 81.812)" fill="#ffa297"/>
        <path id="Path_28" data-name="Path 28" d="M466.5,180.316v18.241s24.529,28.468,47.452,30.185V180.316Z" transform="translate(-342.85 -98.503)" fill="#f55c2b"/>
        <path id="Path_29" data-name="Path 29" d="M604.043,310.2s-14.176,11.269-18.925,22.4" transform="translate(-285.939 -42.953)" fill="none" stroke="#f55c2b" stroke-linecap="round" stroke-linejoin="round" stroke-width="1.5"/>
        <path id="Path_30" data-name="Path 30" d="M639.062,290.569v-.437" transform="translate(-260.058 -51.538)" fill="none"/>
        <path id="Path_31" data-name="Path 31" d="M481.988,571.285H382.94l4.7-238.977h94.343Z" transform="translate(-382.94 -33.5)" fill="#ffa297"/>
        <path id="Path_32" data-name="Path 32" d="M386.4,332.308H480.74l-95.2,15.337Z" transform="translate(-381.692 -33.5)" fill="#f55c2b"/>
        <line id="Line_4" data-name="Line 4" y1="59.144" x2="2.714" transform="translate(99.048 239.664)" fill="none" stroke="#376f92" stroke-linecap="round" stroke-linejoin="round" stroke-width="1.5"/>
        <line id="Line_5" data-name="Line 5" x1="5.767" y1="51.053" transform="translate(256.778 238.595)" fill="none" stroke="#376f92" stroke-linecap="round" stroke-linejoin="round" stroke-width="1.5"/>
        <path id="Path_33" data-name="Path 33" d="M498.195,153.284c-2.893,17.672-29.332,22.582-29.332,22.582L464.6,163.4a10.1,10.1,0,0,0-8.115-.807c-5.673,2-8.164,9.187-5.562,16.048,2.4,6.34,8.318,10.175,13.681,9.137,3.748,22.493,22.521,39.6,45.13,39.6,25.309,0,45.824-21.427,45.824-47.857a49.5,49.5,0,0,0-3.738-18.945C533.232,165.81,498.195,153.284,498.195,153.284Z" transform="translate(-350.819 -110.064)" fill="#ffa297"/>
        <path id="Path_34" data-name="Path 34" d="M462.814,168.8s-18.065,51.535,49.075,59.424c0,0,28.061,4.511,35.108-10.788,6.755-14.669,1.65-29.12,1.65-29.12s-27.938,4.411-60.841-5.078c0,0-9.838-9.164-10.176-19.636Z" transform="translate(-345.679 -105.653)" fill="#641216"/>
        <line id="Line_6" data-name="Line 6" x1="13.194" y2="2.259" transform="translate(434.182 149.284)" fill="none" stroke="#f55c2b" stroke-linecap="round" stroke-linejoin="round" stroke-width="1.5"/>
        <path id="Path_35" data-name="Path 35" d="M684.606,246.121s-3.71,8.836-14.9,13.09" transform="translate(-245.358 -70.36)" fill="none" stroke="#f55c2b" stroke-linecap="round" stroke-linejoin="round" stroke-width="1.5"/>
        <path id="Path_36" data-name="Path 36" d="M707.69,241.852s9.4-4.343,16.96-3.222" transform="translate(-227.132 -73.643)" fill="none" stroke="#f55c2b" stroke-linecap="round" stroke-linejoin="round" stroke-width="1.5"/>
        <path id="Path_37" data-name="Path 37" d="M712.215,251.679s8.2-4.25,17-3.8" transform="translate(-224.961 -69.623)" fill="none" stroke="#f55c2b" stroke-linecap="round" stroke-linejoin="round" stroke-width="1.5"/>
        <path id="Path_38" data-name="Path 38" d="M555.107,162.682l-82.757-.562V146.654l82.757.562Z" transform="translate(-340.043 -112.9)" fill="#f73c4f"/>
        <path id="Path_39" data-name="Path 39" d="M476.98,143.79l.192,40.39a12.955,12.955,0,0,0,7.337,10.642l4.445,2.169a12.951,12.951,0,0,1,7.344,10.756l1.061,16.365A11.019,11.019,0,0,0,508.3,234.233l44.365.857.465-91.3Z" transform="translate(-337.821 -114.124)" fill="none" stroke="#fff" stroke-miterlimit="10" stroke-width="1.5"/>
        <rect id="Rectangle_3" data-name="Rectangle 3" width="27.606" height="6.545" transform="translate(104.701 37.875)" fill="#fff"/>
        <rect id="Rectangle_4" data-name="Rectangle 4" width="12.655" height="90.653" transform="translate(168.698 29.665)" fill="#fff" opacity="0.5"/>
        <rect id="Rectangle_5" data-name="Rectangle 5" width="6.328" height="90.653" transform="translate(186.336 29.665)" fill="#fff" opacity="0.5"/>
      </g>
    </g>
    <g id="Group_11" data-name="Group 11" transform="translate(18.61 156.816)">
      <g id="Group_6" data-name="Group 6" transform="translate(117.454 388.28)">
        <path id="Path_40" data-name="Path 40" d="M137.411,388.5,97.983,547.762h130.6l6.885-23.927,6.516,23.927h128.1L350.827,388.5Z" transform="translate(-97.983 -388.499)" fill="#2a878e"/>
        <path id="Path_41" data-name="Path 41" d="M341.619,414.875l-3.19-26.376H125.012l-1.188,4.8C140.506,395.734,282.936,416.2,341.619,414.875Z" transform="translate(-85.585 -388.499)" fill="#20707b"/>
        <path id="Path_42" data-name="Path 42" d="M203.567,497.019l-6.529-39.271L164.475,451.2" transform="translate(-66.082 -361.683)" fill="none" stroke="#89c4c0" stroke-linecap="round" stroke-linejoin="round" stroke-width="1.5"/>
        <line id="Line_7" data-name="Line 7" x2="25.657" y2="154.38" transform="translate(227.414 4.883)" fill="none" stroke="#89c4c0" stroke-linecap="round" stroke-linejoin="round" stroke-width="1.5"/>
        <path id="Path_43" data-name="Path 43" d="M239.027,391.92s8.245,72.781,31.121,74.747" transform="translate(-30.313 -387.036)" fill="none" stroke="#89c4c0" stroke-linecap="round" stroke-linejoin="round" stroke-width="1.5"/>
      </g>
      <path id="Path_44" data-name="Path 44" d="M80.774,295.022s-53.821,98.21,4.071,138.339c0,0,22.574,8.712,43.85-2.2s45.7-65.325,45.7-65.325l-39.8-38.963-8.714,9.849,2.815-41.7Z" transform="translate(0.296 -40.197)" fill="#ffa297"/>
      <path id="Path_45" data-name="Path 45" d="M58.272,367.524c21.5-19.529,69.245-56.877,69.245-56.877h0l1.055-15.624H80.651S61.217,330.5,58.272,367.524Z" transform="translate(0.419 -40.197)" fill="#f55c2b"/>
      <path id="Path_46" data-name="Path 46" d="M112.591,317.334l-8.714,9.849s25.8,45,26.407,69.3C142.739,377.8,152.392,356.3,152.392,356.3Z" transform="translate(22.299 -30.655)" fill="#f55c2b"/>
      <g id="Group_7" data-name="Group 7" transform="translate(9.83 228.567)">
        <path id="Path_47" data-name="Path 47" d="M99.436,288.643S85.049,269.358,63.1,279.657c-16.951,7.954-31.225.821-33.668,7.729s15.94,12.212,28.643,11.4c0,0-27.12,23-32.034,39.936S40.8,340.853,40.8,340.853s-11.946,12.4-8.485,16.484c4.253,5.014,12.742,1.767,17.022-2.456,0,0-1.246,8.266,6.6,7.016,4.877-.778,14.969-8.739,14.969-8.739s-7.642,9.458-1.893,10.729,14.824-2.7,29-17.419S145.519,302.578,99.436,288.643Z" transform="translate(-25.253 -276.63)" fill="#ffa297"/>
        <path id="Path_48" data-name="Path 48" d="M47.434,292.148s16.8,8.173,26.614,3.845" transform="translate(-14.611 -269.993)" fill="none" stroke="#f55c2b" stroke-linecap="round" stroke-linejoin="round" stroke-width="1.5"/>
        <line id="Line_8" data-name="Line 8" y1="22.04" x2="21.483" transform="translate(15.548 42.183)" fill="none" stroke="#f55c2b" stroke-linecap="round" stroke-linejoin="round" stroke-width="1.5"/>
        <path id="Path_49" data-name="Path 49" d="M41.529,340.112c.169-.871,28.762-28.949,28.762-28.949" transform="translate(-17.444 -261.861)" fill="none" stroke="#f55c2b" stroke-linecap="round" stroke-linejoin="round" stroke-width="1.5"/>
        <line id="Line_9" data-name="Line 9" y1="20.389" x2="19.398" transform="translate(45.651 56.138)" fill="none" stroke="#f55c2b" stroke-linecap="round" stroke-linejoin="round" stroke-width="1.5"/>
        <line id="Line_10" data-name="Line 10" x2="38.491" y2="20.134" transform="translate(33.981 39.739)" fill="none" stroke="#f55c2b" stroke-linecap="round" stroke-linejoin="round" stroke-width="1.5"/>
      </g>
      <path id="Path_50" data-name="Path 50" d="M370.408,265.118c-8.574-47.193-68.767-39.045-72.158-48.257s8.819-24.061,0-53.259c-6.622-21.922-32.361-23.941-44.781-23.585a65,65,0,0,0-1.125-6.879c-.272-2.137-1.654-14.41-6.166-12.16-3.976,1.983-.685,9.623-.607,12.721-.956-3.622-8.426-20.264-14.042-15.225-1.934,1.737-1.594,4.55-.509,7.355-13.459-9.173-32.027-14.852-48.327-.934-17.318,14.791-13.538,35.613-9.758,46.691a12.629,12.629,0,0,1-2.36,12.374c-7.005,8.149-12.078,21.968-12.078,21.968-40.7-1.132-65.128,43.231-50.2,85.785s67.84,47.494,67.84,47.494c36.635,35.044,102.441,11.647,102.441,11.647C358.627,361.556,378.98,312.31,370.408,265.118Z" transform="translate(22.299 -116.532)" fill="#641216"/>
      <path id="Path_51" data-name="Path 51" d="M236.563,217.366s-77.339,4.429-99.952,28.125S77.379,351.563,77.379,351.563l37.976,27.287s9.5,16.581,24.875,27.49l-1.357,59.912H368.516l-7.43-80.4a147.791,147.791,0,0,1,.346-19.545c2.428-28.622,36.818-117.239-71.39-135.6Z" transform="translate(9.586 -73.408)" fill="#ffd774"/>
      <path id="Path_52" data-name="Path 52" d="M119.852,352.644s75.822-21.878,145.325,0" transform="translate(29.964 -19.712)" fill="none" stroke="#e4911f" stroke-linecap="round" stroke-linejoin="round" stroke-width="1.5"/>
      <path id="Path_53" data-name="Path 53" d="M203.8,277.037c30.947,0,57.486-22.246,58.435-45.107-1.992-.46-4.01-.882-6.086-1.225l-53.479-13.339a366.909,366.909,0,0,0-54.155,7.791,32.2,32.2,0,0,0-.481,5.438C148.03,254.074,172.248,277.037,203.8,277.037Z" transform="translate(43.483 -73.408)" fill="#fff"/>
      <path id="Path_54" data-name="Path 54" d="M250.8,241.607l-19.829-4.945,2.735-46.274h-46.5l-9.09,40.653c-6.8.864-14.669,2.04-22.812,3.621a27.479,27.479,0,0,0-1.452,8.78c0,19.937,21.716,36.1,48.506,36.1s48.506-16.164,48.506-36.1Q250.865,242.519,250.8,241.607Z" transform="translate(46.277 -84.946)" fill="#ffa297"/>
      <path id="Path_55" data-name="Path 55" d="M171.1,225.449c36.836-1.685,54.155-31.928,54.155-31.928h0l.185-3.132h-46.5Z" transform="translate(54.549 -84.946)" fill="#f55c2b"/>
      <path id="Path_56" data-name="Path 56" d="M243.805,178.592a10.013,10.013,0,0,0-7.815.844c-.013.026-3.941,8.034-3.858,13.262,0,0-3.76-9.6-8.284-10.473-3.606-.7-12.911-.069-22.46-3.523a26.114,26.114,0,0,1-7.2-3.479l-.033-.019a6.338,6.338,0,0,1-.592-.427c-10.65-7.661-15.771-21.568-15.771-21.568l-13.109,10.428a19.608,19.608,0,0,0-7.477,14.509c-.058,1.383-.067,2.9-.067,4.688,0,25.52,18.426,46.208,41.157,46.208,16.057,0,29.958-10.326,36.737-25.385h0c5.724,1.865,12.328-2.236,14.749-9.157S249.529,180.457,243.805,178.592Z" transform="translate(47.853 -100.847)" fill="#ffa297"/>
      <path id="Path_57" data-name="Path 57" d="M219.653,182.224c-3.606-.7-12.911-.069-22.46-3.523a26.114,26.114,0,0,1-7.2-3.479l-.033-.019a6.338,6.338,0,0,1-.592-.427c-10.65-7.661-15.771-21.568-15.771-21.568l-7.713,6.135c4.741,7.121,15.508,21.144,26.973,21.464,10.4.29,21.3,1.085,27.283,1.57A4.07,4.07,0,0,0,219.653,182.224Z" transform="translate(52.049 -100.847)" fill="#f55c2b"/>
      <path id="Path_58" data-name="Path 58" d="M232.37,284.192c-19.335,25.634-37.074,49.122-37.074,49.122l81.818,60.155" transform="translate(66.16 -44.829)" fill="none" stroke="#063d51" stroke-linecap="round" stroke-linejoin="round" stroke-width="1.5"/>
      <g id="Group_8" data-name="Group 8" transform="translate(0 207.192)">
        <path id="Path_59" data-name="Path 59" d="M88.294,288.263v-.013a8.528,8.528,0,0,0-8.677-8.372,8.694,8.694,0,0,0-7.84,4.8,12.615,12.615,0,0,0-2.788-.441l0-.029a7.861,7.861,0,0,0-15.712,0c0,.106.028.2.033.307a8.458,8.458,0,0,0-2.242-.307,7.922,7.922,0,1,0,0,15.833,8.541,8.541,0,0,0,1.276-.106,8.789,8.789,0,0,0-1.276,4.553,9.263,9.263,0,0,0,9.423,9.091,9.406,9.406,0,0,0,8.852-6c.138-.01.277-.017.414-.031a11.09,11.09,0,0,0,9.667,5.521,10.913,10.913,0,0,0,10.866-8.886,8.169,8.169,0,0,0,6.153-7.814A8.254,8.254,0,0,0,88.294,288.263Z" transform="translate(-6.973 -255.255)" fill="#fff"/>
        <path id="Path_60" data-name="Path 60" d="M64.538,271.547a4.948,4.948,0,1,0-5.126-4.945A5.038,5.038,0,0,0,64.538,271.547Z" transform="translate(0.966 -261.658)" fill="#fff"/>
        <path id="Path_61" data-name="Path 61" d="M50.487,272.413a2.947,2.947,0,1,0-3.053-2.945A3,3,0,0,0,50.487,272.413Z" transform="translate(-4.781 -259.578)" fill="#fff"/>
        <path id="Path_62" data-name="Path 62" d="M46.61,308.235a5.4,5.4,0,0,0,.17-1.292A5.8,5.8,0,0,0,35.338,305.8c-.041,0-.081-.013-.123-.013a6.737,6.737,0,1,0,0,13.464,7.066,7.066,0,0,0,4.6-1.706,7.2,7.2,0,0,0,6.786,4.641,6.981,6.981,0,1,0,.007-13.954Z" transform="translate(-13.991 -244.677)" fill="#fff"/>
        <ellipse id="Ellipse_2" data-name="Ellipse 2" cx="4.014" cy="3.873" rx="4.014" ry="3.873" transform="translate(33.914 47.633)" fill="#fff"/>
        <path id="Path_63" data-name="Path 63" d="M79.753,274.774a2.292,2.292,0,1,0,2.375,2.291A2.334,2.334,0,0,0,79.753,274.774Z" transform="translate(9.586 -256.049)" fill="#fff"/>
        <path id="Path_64" data-name="Path 64" d="M54.028,315.347a3.619,3.619,0,1,0,3.748,3.616A3.685,3.685,0,0,0,54.028,315.347Z" transform="translate(-3.416 -238.697)" fill="#fff"/>
        <path id="Path_65" data-name="Path 65" d="M22.811,312.89a4.055,4.055,0,1,0,4.2,4.052A4.128,4.128,0,0,0,22.811,312.89Z" transform="translate(-18.61 -239.747)" fill="#fff"/>
        <path id="Path_66" data-name="Path 66" d="M35.844,320.414a2.791,2.791,0,1,0,2.891,2.79A2.841,2.841,0,0,0,35.844,320.414Z" transform="translate(-11.729 -236.53)" fill="#fff"/>
      </g>
      <g id="Group_9" data-name="Group 9" transform="translate(45.969 209.025)">
        <path id="Path_67" data-name="Path 67" d="M264.055,359.359l-93.8-52.8S155.33,279.834,142.1,276.235s-32.563-9.164-36.972-13.09c0,0-8.819-2.291-8.481,8.508s18.656,12.763,20.013,18.327c0,0-59.36,1.964-60.039,8.182s3.256,10.733,23.067,12.989c0,0-28.154-1.208-29.85,5.01s10.176,11.127,20.692,10.8c0,0-10.515,0-10.176,5.564S81.723,339.4,81.723,339.4s2.375,7.855,18.657,8.836,43.078,2.947,47.149,4.91c0,0,63.092,83.452,104.814,93.268,0,0,35.278,3.6,52.915-5.891s41.722-37.962,41.722-37.962l-72.589-53.671Z" transform="translate(-49.675 -262.942)" fill="#ffa297"/>
        <path id="Path_68" data-name="Path 68" d="M248.016,403.418a282.276,282.276,0,0,0,26.106-26.606l-72.589-53.671S253.091,372.884,248.016,403.418Z" transform="translate(23.183 -237.196)" fill="#f55c2b"/>
        <line id="Line_11" data-name="Line 11" x2="24.592" y2="1.574" transform="translate(30.013 48.208)" fill="none" stroke="#f55c2b" stroke-linecap="round" stroke-linejoin="round" stroke-width="1.5"/>
        <line id="Line_12" data-name="Line 12" x2="34.037" transform="translate(19.211 64.023)" fill="none" stroke="#f55c2b" stroke-linecap="round" stroke-linejoin="round" stroke-width="1.5"/>
        <line id="Line_13" data-name="Line 13" x2="22.557" y2="1.2" transform="translate(32.048 76.454)" fill="none" stroke="#f55c2b" stroke-linecap="round" stroke-linejoin="round" stroke-width="1.5"/>
        <path id="Path_69" data-name="Path 69" d="M94.942,282.762s9.329.818,8.99-2.945" transform="translate(-27.957 -255.724)" fill="none" stroke="#f55c2b" stroke-linecap="round" stroke-linejoin="round" stroke-width="1.5"/>
        <path id="Path_70" data-name="Path 70" d="M115.8,326.66s10.685.491,13.059-1.8" transform="translate(-17.949 -236.461)" fill="none" stroke="#f55c2b" stroke-linecap="round" stroke-linejoin="round" stroke-width="1.5"/>
      </g>
      <path id="Path_71" data-name="Path 71" d="M102.058,287.781a5.756,5.756,0,0,0-.892.087,6.362,6.362,0,0,0,.185-1.472,6.822,6.822,0,0,0-13.636,0c0,.166.037.32.05.483a8.253,8.253,0,0,0-5.739,7.727,8.373,8.373,0,0,0,8.478,8.181,8.5,8.5,0,0,0,8.032-5.6,5.6,5.6,0,0,0,3.522,1.256,5.335,5.335,0,1,0,0-10.663Z" transform="translate(11.816 -46.7)" fill="#fff"/>
      <g id="Group_10" data-name="Group 10" transform="translate(12.921 155.747)">
        <path id="Path_72" data-name="Path 72" d="M47.121,258.806a9.893,9.893,0,1,1-19.779,0c0-5.614,9.889-16.8,9.889-16.8S47.121,253.192,47.121,258.806Z" transform="translate(-27.342 -218.618)" fill="#69a4c2"/>
        <path id="Path_73" data-name="Path 73" d="M65.876,268.795a7.306,7.306,0,1,1-14.607,0c0-4.146,7.3-12.408,7.3-12.408S65.876,264.649,65.876,268.795Z" transform="translate(-15.862 -212.467)" fill="#69a4c2"/>
        <path id="Path_74" data-name="Path 74" d="M61.881,238.032a7.306,7.306,0,1,1-14.607,0c0-4.146,7.3-12.408,7.3-12.408S61.881,233.886,61.881,238.032Z" transform="translate(-17.779 -225.624)" fill="#69a4c2"/>
      </g>
      <path id="Path_75" data-name="Path 75" d="M175.189,160.038s-3.127-20.182-12.625-22.8" transform="translate(50.456 -107.677)" fill="none" stroke="#440a10" stroke-linecap="round" stroke-linejoin="round" stroke-width="1.5"/>
      <line id="Line_14" data-name="Line 14" y1="17.516" x2="2.822" transform="translate(154.06 217.082)" fill="none" stroke="#e4911f" stroke-linecap="round" stroke-linejoin="round" stroke-width="1.5"/>
    </g>
    <g id="Group_15" data-name="Group 15" transform="translate(276.829 166.066)">
      <path id="Path_76" data-name="Path 76" d="M532.408,521.049H267.621l9.028-70.088h249.74Z" transform="translate(-157.359 17.244)" fill="#376f92"/>
      <path id="Path_77" data-name="Path 77" d="M525.117,450.961H275.377l-5.1,39.618h0c9.737-8.582,254.844-17.358,254.844-17.358l1.792-1.382Z" transform="translate(-156.086 17.244)" fill="#063d51"/>
      <rect id="Rectangle_6" data-name="Rectangle 6" width="20.069" height="46.88" transform="translate(230.725 490.465)" fill="none" stroke="#063d51" stroke-linecap="round" stroke-linejoin="round" stroke-width="1.5"/>
      <path id="Path_78" data-name="Path 78" d="M612.729,335.125a192.625,192.625,0,0,1-13.666-19.369c-17.6-28.336-55.27-49.136-88-54.837-36.113-6.29-72.227-15.081-72.227-15.081h-19.06s-36.114,8.79-72.228,15.081c-32.724,5.7-70.39,26.5-87.995,54.837a192.159,192.159,0,0,1-13.666,19.369c-17,21.061-50.434,69.509-26.241,99.52,0,0,31.1,30.487,78.246,10.162v116.14H560.726V444.807c47.149,20.324,78.246-10.162,78.246-10.162C663.165,404.634,629.731,356.186,612.729,335.125Z" transform="translate(-184.45 -70.481)" fill="#f73c4f"/>
      <ellipse id="Ellipse_3" data-name="Ellipse 3" cx="56.428" cy="54.441" rx="56.428" ry="54.441" transform="translate(0.594 260.363)" fill="#f73c4f"/>
      <path id="Path_79" data-name="Path 79" d="M449.967,258.883c-32-5.992-60.982-13.045-60.982-13.045h-19.06s-25.377,6.175-54.854,11.878c8.543,28.257,35.572,48.909,67.618,48.909C414.3,306.625,441.043,286.542,449.967,258.883Z" transform="translate(-134.593 -70.481)" fill="#fff"/>
      <path id="Path_80" data-name="Path 80" d="M429.233,255.847c-25.252-5.1-45.408-10.009-45.408-10.009h-19.06s-16.8,4.087-38.937,8.683c6.481,21.768,27.258,37.7,51.9,37.7C401.877,292.222,422.317,276.936,429.233,255.847Z" transform="translate(-129.432 -70.481)" fill="#ffa297"/>
      <path id="Path_81" data-name="Path 81" d="M403.184,282.131H339.327l3.01-79.2h57.838Z" transform="translate(-122.956 -88.832)" fill="#ffa297"/>
      <path id="Path_82" data-name="Path 82" d="M341.563,202.931l-.624,16.454h0s17.078,23.145,59.968,23.145l-1.5-39.6Z" transform="translate(-122.182 -88.832)" fill="#f55c2b"/>
      <ellipse id="Ellipse_4" data-name="Ellipse 4" cx="12.132" cy="14.669" rx="12.132" ry="14.669" transform="translate(188.592 73.329)" fill="#ffa297"/>
      <ellipse id="Ellipse_5" data-name="Ellipse 5" cx="12.132" cy="14.669" rx="12.132" ry="14.669" transform="translate(278.124 73.329)" fill="#ffa297"/>
      <path id="Path_83" data-name="Path 83" d="M430.842,159.025a35.108,35.108,0,0,0-4.759-10.181c-1.86-2.481-5.033-4.3-6.739-6.419,2.16-1.934,2.459-4.637,1.591-7.23-2.424-7.23-9.53-7.417-16.474-7.759a47.308,47.308,0,0,0-8.077.317c-.3-1.786-1.727-3.012-5.018-3.048-6.372-.069-11.378,2.578-16.1,6.026,1.366-5-.041-10.626-6.328-6-6.779,4.991-10.459,12.676-11.468,20.6-3.717-1.857-8.423-2.4-12.586-2.227-5.154.21-10.628,4.681-13.855,8.465-5.878,6.89-6.08,15.894-6.515,24.393-.472,9.247.468,18,4.5,26.469,2.174,4.563,5.2,9.057,7.591,13.26l77.65,2.087c6.132-3.351,7.48-5.445,10.252-9.708,3.011-4.636,2.889-11.341,3.148-16.781.158-3.356-.519-4.624,1.136-7.314C433.115,176.966,433.3,166.689,430.842,159.025Z" transform="translate(-130.116 -123.011)" fill="#641216"/>
      <path id="Path_84" data-name="Path 84" d="M381.418,173.13c-23.477,3.926-29.131-14.517-29.131-14.517-18.519,11.13-21.528,22.5-23.462,30.775-.044,1.026-.073,2.059-.073,3.1,0,31.937,20.659,57.828,46.145,57.828s46.144-25.891,46.144-57.828a71.184,71.184,0,0,0-1.332-13.74,10.553,10.553,0,0,0-9.841-8.359C403.205,170.027,393.8,171.059,381.418,173.13Z" transform="translate(-128.029 -107.785)" fill="#ffa297"/>
      <path id="Path_85" data-name="Path 85" d="M412.689,181.867c-.158-1.049-.334-2.092-.536-3.119a10.553,10.553,0,0,0-9.841-8.359c-6.665-.361-16.072.671-28.452,2.741-23.477,3.926-29.131-14.517-29.131-14.517-.077.046-.149.091-.225.138a27.9,27.9,0,0,0,5.016,11.009,30.668,30.668,0,0,0,18.891,11.654c9.83,1.745,19.722-1.062,29.618-1.031A71.273,71.273,0,0,1,412.689,181.867Z" transform="translate(-120.471 -107.785)" fill="#f55c2b"/>
      <g id="Group_12" data-name="Group 12" transform="translate(0 67.318)">
        <path id="Path_86" data-name="Path 86" d="M374.542,205.541c4.593-4.473-.366-8.92-.366-8.92-6.489-4.356-4.8-22.5-17.587-26.132-7.821-2.219-19.292,7.365-27.031,15.15l-3.189-1.479a13.9,13.9,0,0,0-14.545,0c-13.795-7.742-22.823-.968-22.823-.968h-6.27c-16.05,1.452-11.035,15-19.06,25.647s-8.778,17.179-12.79,46.215S179.156,366.838,195.709,415.23s58.183,42.1,58.183,42.1c57.43-10.646,55.174-74.282,58.182-105.494s12.791-81.3,12.791-81.3c20.313,2.9,34.859-19.356,37.367-31.212s11.035-19.6,14.545-22.987C379.825,213.4,380.218,208.646,374.542,205.541ZM353.705,214.4c-1.755,5.324-12.036,7.017-12.036,7.017l2.847-19.147c-.067.313-.09.081.059-1.9l5.508-5.652,4.25,6.249a14.025,14.025,0,0,0,4.7,6A17.364,17.364,0,0,0,353.705,214.4Z" transform="translate(-193.108 -170.163)" fill="#ffa297"/>
        <path id="Path_87" data-name="Path 87" d="M262.273,179.289s13.417,3.267,13.041,13.429.889,42.066-16.005,38.106c-13.149-3.082-10.515-15.967-9.764-23.952" transform="translate(-166.379 -166.26)" fill="none" stroke="#f55c2b" stroke-linecap="round" stroke-linejoin="round" stroke-width="1.5"/>
        <path id="Path_88" data-name="Path 88" d="M264.8,220.73s3.408,7.265,14.13,6.721,12.6-13.066,12.226-20.506-.377-21.656-13.731-26.979" transform="translate(-158.711 -165.97)" fill="none" stroke="#f55c2b" stroke-linecap="round" stroke-linejoin="round" stroke-width="1.5"/>
        <path id="Path_89" data-name="Path 89" d="M281.276,208.681s1.413,5.248,8.561,5.612,9.531-8.228,9.531-8.228" transform="translate(-150.807 -154.809)" fill="none" stroke="#f55c2b" stroke-linecap="round" stroke-linejoin="round" stroke-width="1.5"/>
        <path id="Path_90" data-name="Path 90" d="M285.318,181s15.227,5.614,15.017,14.739" transform="translate(-148.868 -165.527)" fill="none" stroke="#f55c2b" stroke-linecap="round" stroke-linejoin="round" stroke-width="1.5"/>
        <path id="Path_91" data-name="Path 91" d="M294.181,242.282s-8.716-3.145-10.973-6.049c0,0-18.809,5.081-26.145,1.815" transform="translate(-162.424 -141.907)" fill="none" stroke="#f55c2b" stroke-linecap="round" stroke-linejoin="round" stroke-width="1.5"/>
        <path id="Path_92" data-name="Path 92" d="M277.586,212.337s3.847,9.254,0,17.785" transform="translate(-152.578 -152.127)" fill="none" stroke="#f55c2b" stroke-linecap="round" stroke-linejoin="round" stroke-width="1.5"/>
        <path id="Path_93" data-name="Path 93" d="M305.238,196.763s7.5-5.033,15.507-1.431" transform="translate(-139.311 -159.955)" fill="none" stroke="#f55c2b" stroke-linecap="round" stroke-linejoin="round" stroke-width="1.5"/>
        <path id="Path_94" data-name="Path 94" d="M299.884,189.845s-1.956-5.182-2.146-8.268" transform="translate(-142.909 -165.282)" fill="none" stroke="#f55c2b" stroke-linecap="round" stroke-linejoin="round" stroke-width="1.5"/>
      </g>
      <path id="Path_95" data-name="Path 95" d="M269.775,392.788a132.906,132.906,0,0,0,14.671-25.316" transform="translate(-156.325 -18.462)" fill="none" stroke="#ba2f42" stroke-linecap="round" stroke-linejoin="round" stroke-width="1.5"/>
      <path id="Path_96" data-name="Path 96" d="M218.059,396.269s67,13.973,84.3-57.163" transform="translate(-181.138 -30.593)" fill="none" stroke="#ba2f42" stroke-linecap="round" stroke-linejoin="round" stroke-width="1.5"/>
      <ellipse id="Ellipse_6" data-name="Ellipse 6" cx="56.427" cy="54.441" rx="56.427" ry="54.441" transform="translate(376.366 260.363)" fill="#f73c4f"/>
      <g id="Group_13" data-name="Group 13" transform="translate(303.956 67.318)">
        <path id="Path_97" data-name="Path 97" d="M400.7,216.34c3.512,3.388,12.038,11.13,14.546,22.987s17.053,34.116,37.367,31.212c0,0,9.781,50.086,12.79,81.3s.753,94.848,58.183,105.494c0,0,41.631,6.29,58.183-42.1S530.612,284.088,526.6,255.054s-4.765-35.568-12.791-46.215-3.008-24.195-19.06-25.647h-6.27s-9.028-6.774-22.821.968a13.907,13.907,0,0,0-14.546,0l-3.189,1.479c-7.738-7.785-19.209-17.369-27.031-15.15-12.79,3.631-11.1,21.776-17.586,26.132,0,0-4.96,4.447-.367,8.92C397.265,208.646,397.658,213.4,400.7,216.34Zm17.743-9.368a14,14,0,0,0,4.7-6l4.25-6.249,5.509,5.652c.148,1.977.126,2.209.059,1.9l2.847,19.147s-10.283-1.693-12.038-7.017A17.351,17.351,0,0,0,418.446,206.971Z" transform="translate(-398.515 -170.163)" fill="#ffa297"/>
        <path id="Path_98" data-name="Path 98" d="M463.542,179.289s-13.417,3.267-13.041,13.429-.889,42.066,16.005,38.106c13.149-3.082,10.517-15.967,9.764-23.952" transform="translate(-373.577 -166.26)" fill="none" stroke="#f55c2b" stroke-linecap="round" stroke-linejoin="round" stroke-width="1.5"/>
        <path id="Path_99" data-name="Path 99" d="M460.98,220.73s-3.409,7.265-14.13,6.721-12.6-13.066-12.226-20.506.376-21.656,13.731-26.979" transform="translate(-381.211 -165.97)" fill="none" stroke="#f55c2b" stroke-linecap="round" stroke-linejoin="round" stroke-width="1.5"/>
        <path id="Path_100" data-name="Path 100" d="M441.811,208.681s-1.413,5.248-8.561,5.612-9.53-8.228-9.53-8.228" transform="translate(-386.421 -154.809)" fill="none" stroke="#f55c2b" stroke-linecap="round" stroke-linejoin="round" stroke-width="1.5"/>
        <path id="Path_101" data-name="Path 101" d="M436.773,181s-15.227,5.614-15.015,14.739" transform="translate(-387.364 -165.527)" fill="none" stroke="#f55c2b" stroke-linecap="round" stroke-linejoin="round" stroke-width="1.5"/>
        <path id="Path_102" data-name="Path 102" d="M435.076,242.282s8.714-3.145,10.973-6.049c0,0,18.808,5.081,26.145,1.815" transform="translate(-380.973 -141.907)" fill="none" stroke="#f55c2b" stroke-linecap="round" stroke-linejoin="round" stroke-width="1.5"/>
        <path id="Path_103" data-name="Path 103" d="M440.191,212.337s-3.847,9.254,0,17.785" transform="translate(-379.339 -152.127)" fill="none" stroke="#f55c2b" stroke-linecap="round" stroke-linejoin="round" stroke-width="1.5"/>
        <path id="Path_104" data-name="Path 104" d="M417.012,196.763s-7.5-5.033-15.507-1.431" transform="translate(-397.08 -159.955)" fill="none" stroke="#f55c2b" stroke-linecap="round" stroke-linejoin="round" stroke-width="1.5"/>
        <path id="Path_105" data-name="Path 105" d="M418.034,189.845s1.958-5.182,2.146-8.268" transform="translate(-389.15 -165.282)" fill="none" stroke="#f55c2b" stroke-linecap="round" stroke-linejoin="round" stroke-width="1.5"/>
      </g>
      <path id="Path_106" data-name="Path 106" d="M452.205,392.788a132.95,132.95,0,0,1-14.672-25.316" transform="translate(-75.839 -18.462)" fill="none" stroke="#ba2f42" stroke-linecap="round" stroke-linejoin="round" stroke-width="1.5"/>
      <path id="Path_107" data-name="Path 107" d="M526.5,396.269s-67,13.973-84.3-57.163" transform="translate(-73.602 -30.593)" fill="none" stroke="#ba2f42" stroke-linecap="round" stroke-linejoin="round" stroke-width="1.5"/>
      <line id="Line_15" data-name="Line 15" x1="0.864" y2="6.781" transform="translate(215.507 179.736)" fill="none" stroke="#f55c2b" stroke-linecap="round" stroke-linejoin="round" stroke-width="1.5"/>
      <line id="Line_16" data-name="Line 16" x2="0.474" y2="11.162" transform="translate(279.547 175.356)" fill="none" stroke="#f55c2b" stroke-linecap="round" stroke-linejoin="round" stroke-width="1.5"/>
      <rect id="Rectangle_7" data-name="Rectangle 7" width="262.827" height="56.955" transform="translate(113.449 379.964)" fill="#fff"/>
      <g id="Group_14" data-name="Group 14" transform="translate(181.434 94.773)">
        <path id="Path_108" data-name="Path 108" d="M337.828,192.635l-22.111,3.294,31.422,21.082" transform="translate(-315.717 -188.008)" fill="none" stroke="#2a878e" stroke-linecap="round" stroke-linejoin="round" stroke-width="1.5"/>
        <path id="Path_109" data-name="Path 109" d="M390.368,192.635l22.111,3.294-31.422,21.082" transform="translate(-284.368 -188.008)" fill="none" stroke="#2a878e" stroke-linecap="round" stroke-linejoin="round" stroke-width="1.5"/>
        <path id="Path_110" data-name="Path 110" d="M328.753,192.813c6.761,23.758,17.577,44.338,46.145,44.338,29.091,0,39.383-20.58,46.144-44.338L374.9,189.394Z" transform="translate(-309.463 -189.394)" fill="#89c4c0"/>
        <path id="Path_111" data-name="Path 111" d="M398.392,191.314c-6.394,22.473-15.847,42.766-41.48,44.826,1.444.117,2.929.19,4.476.19,29.091,0,39.383-20.58,46.144-44.338Z" transform="translate(-295.953 -188.573)" fill="#2a878e"/>
        <line id="Line_17" data-name="Line 17" x2="65.608" transform="translate(34.938 16.786)" fill="none" stroke="#2a878e" stroke-linecap="round" stroke-linejoin="round" stroke-width="1.5"/>
        <line id="Line_18" data-name="Line 18" x2="53.522" transform="translate(42.599 31.061)" fill="none" stroke="#2a878e" stroke-linecap="round" stroke-linejoin="round" stroke-width="1.5"/>
      </g>
    </g>
  </g>
</svg>
