<svg xmlns="http://www.w3.org/2000/svg" xmlns:xlink="http://www.w3.org/1999/xlink" width="1895.17" height="982.849" viewBox="0 0 1895.17 982.849"><defs><filter id="HOSPITALS" x="304.206" y="13.17" width="1440" height="274" filterUnits="userSpaceOnUse"><feOffset dx="5" dy="5" input="SourceAlpha"/><feGaussianBlur stdDeviation="5" result="blur"/><feFlood flood-opacity=".161"/><feComposite operator="in" in2="blur"/><feComposite in="SourceGraphic"/></filter></defs><g id="insideHospital" transform="translate(-214.695 -305.653)"><path id="Path_2608" data-name="Path 2608" d="M2024.554 1285.919l-1746.726-2.577C272.413 1268.781 90.6 640.806 369.9 439.586l1.617-1.159q5.5-3.9 10.977-7.68C562.66 306.459 717.34 289.563 845.835 316.887h.009q6.333 1.34 12.586 2.835c189.365 45.054 320.245 184.152 390.345 206.811 300.668 97.187 415.786-127.672 650.553-53.352C2164.427 557.1 2146.336 1075.654 2024.554 1285.919z" transform="translate(0 0)" fill="#ebf3fa"/><g id="Group_1017" data-name="Group 1017" transform="translate(350.756 305.653)"><path id="Path_2609" data-name="Path 2609" d="M904.22 316.887c-128.495-27.324-283.175-10.428-463.343 113.859q-5.476 3.762-10.977 7.68l-1.617 1.159V714.078H904.229V316.887z" transform="translate(-409.141 -305.653)" fill="#f5f9fd"/><g id="Group_1016" data-name="Group 1016" transform="translate(0 60.099)"><path id="Path_2610" data-name="Path 2610" d="M853.438 485.846V406.914c-.561-.313-1.122-.627-1.683-.948h-10.84v-.038H777.846v.038H777.8V417.8h.051v8.132H777.8v11.831h.051v8.17H777.8v11.831h.051v.038l-6.681-.038v-61.9H700.4v7.841h-.036v11.831h.036v10.394h-.036v11.831h.036v8.17h-.036v11.831h.036v7.558h-.036v11.831h.036v7.551h-.036v11.838h.036v7.115h-.036v7.513h.036v.818H620.623V579.7h-29.8v17.058H558.691V567.384h-57.8v-79.8h-9.041v-7.956h-1.29v7.956h-7.5v-.015h-37.5v-7.941h-1.289v7.941h-9.77V527.7h-.751l-12.625-.061V731.569H401.94v18.143H897.019V485.846z" transform="translate(-401.94 -387.02)" fill="#dfebfa"/><g id="Group_1011" data-name="Group 1011" transform="translate(298.471 8.852)"><path id="Rectangle_276" data-name="Rectangle 276" d="M0 0h45.291v15.763H0z" fill="#eef6ff"/><path id="Rectangle_277" data-name="Rectangle 277" d="M0 0h45.291v15.764H0z" transform="translate(0 24.263)" fill="#eef6ff"/><path id="Rectangle_278" data-name="Rectangle 278" d="M0 0h45.291v15.763H0z" transform="translate(0 49.032)" fill="#eef6ff"/><path id="Rectangle_279" data-name="Rectangle 279" d="M0 0h45.291v15.763H0z" transform="translate(0 74.196)" fill="#eef6ff"/><path id="Rectangle_280" data-name="Rectangle 280" d="M0 0h45.291v15.764H0z" transform="translate(0 98.476)" fill="#eef6ff"/></g><g id="Group_1012" data-name="Group 1012" transform="translate(298.471 134.05)"><path id="Rectangle_281" data-name="Rectangle 281" d="M0 0h45.291v15.763H0z" fill="#eef6ff"/><path id="Rectangle_282" data-name="Rectangle 282" d="M0 0h45.291v15.764H0z" transform="translate(0 24.262)" fill="#eef6ff"/><path id="Rectangle_283" data-name="Rectangle 283" d="M0 0h45.291v15.763H0z" transform="translate(0 49.032)" fill="#eef6ff"/><path id="Rectangle_284" data-name="Rectangle 284" d="M0 0h45.291v15.764H0z" transform="translate(0 74.196)" fill="#eef6ff"/><path id="Rectangle_285" data-name="Rectangle 285" d="M0 0h45.291v15.764H0z" transform="translate(0 98.476)" fill="#eef6ff"/></g><g id="Group_1013" data-name="Group 1013" transform="translate(375.996 19.189)"><path id="Rectangle_286" data-name="Rectangle 286" d="M0 0h45.291v15.764H0z" fill="#eef6ff"/><path id="Rectangle_287" data-name="Rectangle 287" d="M0 0h45.291v15.764H0z" transform="translate(0 24.263)" fill="#eef6ff"/><path id="Rectangle_288" data-name="Rectangle 288" d="M0 0h45.291v15.763H0z" transform="translate(0 49.032)" fill="#eef6ff"/><path id="Rectangle_289" data-name="Rectangle 289" d="M0 0h45.291v15.764H0z" transform="translate(0 74.196)" fill="#eef6ff"/><path id="Rectangle_290" data-name="Rectangle 290" d="M0 0h45.291v15.764H0z" transform="translate(0 98.476)" fill="#eef6ff"/></g><g id="Group_1014" data-name="Group 1014" transform="translate(375.996 142.979)"><path id="Rectangle_291" data-name="Rectangle 291" d="M0 0h45.291v15.764H0z" fill="#eef6ff"/><path id="Rectangle_292" data-name="Rectangle 292" d="M0 0h45.291v15.763H0z" transform="translate(0 24.263)" fill="#eef6ff"/><path id="Rectangle_293" data-name="Rectangle 293" d="M0 0h45.291v15.764H0z" transform="translate(0 49.032)" fill="#eef6ff"/><path id="Rectangle_294" data-name="Rectangle 294" d="M0 0h45.291v15.763H0z" transform="translate(0 74.196)" fill="#eef6ff"/><path id="Rectangle_295" data-name="Rectangle 295" d="M0 0h45.291v15.763H0z" transform="translate(0 98.476)" fill="#eef6ff"/></g><g id="Group_1015" data-name="Group 1015" transform="translate(375.996 269.301)"><path id="Rectangle_296" data-name="Rectangle 296" d="M0 0h45.291v15.764H0z" fill="#eef6ff"/><path id="Rectangle_297" data-name="Rectangle 297" d="M0 0h45.291v15.764H0z" transform="translate(0 24.263)" fill="#eef6ff"/><path id="Rectangle_298" data-name="Rectangle 298" d="M0 0h45.291v15.763H0z" transform="translate(0 49.032)" fill="#eef6ff"/><path id="Rectangle_299" data-name="Rectangle 299" d="M0 0h45.291v15.763H0z" transform="translate(0 74.196)" fill="#eef6ff"/></g><path id="Rectangle_300" data-name="Rectangle 300" d="M0 0h2.247v32.162H0z" transform="translate(233.54 93.385)" fill="#dfebfa"/><path id="Rectangle_301" data-name="Rectangle 301" d="M0 0h3.495v62.285H0z" transform="translate(271.403 65.765)" fill="#dfebfa"/><path id="Rectangle_302" data-name="Rectangle 302" d="M0 0h1.124v8.852H0z" transform="translate(305.481)" fill="#dfebfa"/><path id="Rectangle_303" data-name="Rectangle 303" d="M0 0h1.124v8.852H0z" transform="translate(358.611)" fill="#dfebfa"/></g><path id="Rectangle_304" data-name="Rectangle 304" d="M0 0h512.445v18.143H0z" transform="translate(0 404.648)" fill="#cbdcf7"/><path id="Path_2611" data-name="Path 2611" d="M440.873 469.33V748.894H428.28V478.172c.538-.39 1.083-.772 1.62-1.162Q435.394 473.113 440.873 469.33z" transform="translate(-409.14 -344.239)" fill="#cbdcf7"/><path id="Path_2612" data-name="Path 2612" d="M1083.27 320.353q6.333 1.34 12.586 2.835V713.772h-12.594V320.353z" transform="translate(-588.182 -309.118)" fill="#cbdcf7"/></g><rect id="Rectangle_305" data-name="Rectangle 305" width="1871.149" height="5.159" rx="2.58" transform="translate(220.597 1283.342)" fill="#2e3552"/><g id="Group_1022" data-name="Group 1022" transform="translate(1807.808 1050.168)"><path id="Path_2613" data-name="Path 2613" d="M2407.116 1283.527v5.82c0 2.038.627 3.7 1.393 3.7h201.945c.765.0 1.393-1.664 1.393-3.7v-5.82c0-2.034-.628-3.7-1.393-3.7H2408.509C2407.743 1279.825 2407.116 1281.493 2407.116 1283.527z" transform="translate(-2407.116 -1279.825)" fill="#8fadef"/><path id="Path_2614" data-name="Path 2614" d="M2407.116 1283.527v5.82c0 2.038.575 3.7 1.278 3.7h160.323c.7.0 1.279-1.664 1.279-3.7v-5.82c0-2.034-.576-3.7-1.279-3.7H2408.394C2407.691 1279.825 2407.116 1281.493 2407.116 1283.527z" transform="translate(-2407.116 -1279.825)" fill="#bbd0ff"/><path id="Rectangle_306" data-name="Rectangle 306" d="M0 0h143.368v219.782H0z" transform="translate(194.481 233.007) rotate(180)" fill="#aec3ff"/><path id="Rectangle_307" data-name="Rectangle 307" d="M0 0h143.369v219.782H0z" transform="translate(154.304 233.007) rotate(180)" fill="#d2e0ff"/><g id="Group_1021" data-name="Group 1021" transform="translate(18.638 19.434)"><g id="Group_1018" data-name="Group 1018"><path id="Path_2615" data-name="Path 2615" d="M2432.765 1305.254h127.96v201.439h-127.96zm126.579 1.453h-125.2v198.532h125.2z" transform="translate(-2432.765 -1305.254)" fill="#aec3ff"/></g><g id="Group_1019" data-name="Group 1019" transform="translate(0.69 66.637)"><path id="Rectangle_308" data-name="Rectangle 308" d="M0 0h126.58v1.453H0z" fill="#aec3ff"/></g><g id="Group_1020" data-name="Group 1020" transform="translate(0.69 134.574)"><path id="Rectangle_309" data-name="Rectangle 309" d="M0 0h126.58v1.453H0z" fill="#aec3ff"/></g><path id="Path_2616" data-name="Path 2616" d="M2502.184 1320.907h23.488a2.134 2.134.0 0 0 2.072-2.179h0a2.135 2.135.0 0 0-2.072-2.18h-23.488a2.134 2.134.0 0 0-2.073 2.18h0A2.134 2.134.0 0 0 2502.184 1320.907z" transform="translate(-2451.174 -1307.917)" fill="#aec3ff"/><path id="Path_2617" data-name="Path 2617" d="M2502.184 1407.835h23.488a2.135 2.135.0 0 0 2.072-2.18h0a2.135 2.135.0 0 0-2.072-2.18h-23.488a2.135 2.135.0 0 0-2.073 2.18h0A2.135 2.135.0 0 0 2502.184 1407.835z" transform="translate(-2451.174 -1328.409)" fill="#aec3ff"/><path id="Path_2618" data-name="Path 2618" d="M2502.184 1498.45h23.488a2.135 2.135.0 0 0 2.072-2.181h0a2.134 2.134.0 0 0-2.072-2.179h-23.488a2.134 2.134.0 0 0-2.073 2.179h0A2.135 2.135.0 0 0 2502.184 1498.45z" transform="translate(-2451.174 -1349.772)" fill="#aec3ff"/></g></g><g id="Group_1029" data-name="Group 1029" transform="translate(1827 542.894)"><path id="Rectangle_310" data-name="Rectangle 310" d="M8.7.0h71a8.7 8.7.0 0 1 8.7 8.7V81.5a8.7 8.7.0 0 1-8.7 8.7H8.7A8.7 8.7.0 0 1 0 81.5V8.7A8.7 8.7.0 0 1 8.7.0z" transform="translate(0 0)" fill="#c0d8fb"/><path id="Rectangle_311" data-name="Rectangle 311" d="M7.948.0H72.792A7.948 7.948.0 0 1 80.74 7.948v66.49a7.947 7.947.0 0 1-7.947 7.947H7.947A7.947 7.947.0 0 1 0 74.437V7.948A7.948 7.948.0 0 1 7.948.0z" transform="translate(3.83 3.908)" fill="#dfebfd"/><g id="Group_1025" data-name="Group 1025" transform="translate(10.436 10.214)"><g id="Group_1023" data-name="Group 1023" transform="translate(31.932)"><path id="Path_2619" data-name="Path 2619" d="M2491.834 631.365a1.834 1.834.0 1 1 1.831 1.926A1.881 1.881.0 0 1 2491.834 631.365z" transform="translate(-2491.834 -629.439)" fill="#b7d3f3"/><path id="Path_2620" data-name="Path 2620" d="M2512.081 635.215a1.786 1.786.0 0 1 2.491-.748 1.979 1.979.0 0 1 .711 2.619 1.786 1.786.0 0 1-2.49.748A1.98 1.98.0 0 1 2512.081 635.215z" transform="translate(-2497.306 -630.567)" fill="#b7d3f3"/><path id="Path_2621" data-name="Path 2621" d="M2529.274 649.266a1.777 1.777.0 0 1 2.531.575 1.985 1.985.0 0 1-.546 2.662 1.776 1.776.0 0 1-2.531-.574A1.987 1.987.0 0 1 2529.274 649.266z" transform="translate(-2501.839 -634.041)" fill="#b7d3f3"/><path id="Path_2622" data-name="Path 2622" d="M2537.53 670.783a1.928 1.928.0 1 1-1.832 1.926A1.88 1.88.0 0 1 2537.53 670.783z" transform="translate(-2503.824 -639.186)" fill="#b7d3f3"/><path id="Path_2623" data-name="Path 2623" d="M2532.637 695.47a2 2 0 0 1 0 2.723 1.768 1.768.0 0 1-2.59.0 2 2 0 0 1 0-2.723A1.767 1.767.0 0 1 2532.637 695.47z" transform="translate(-2502.133 -644.872)" fill="#b7d3f3"/><path id="Path_2624" data-name="Path 2624" d="M2516.812 711.335a2 2 0 0 1 0 2.724 1.769 1.769.0 0 1-2.59.0 2 2 0 0 1 0-2.724A1.769 1.769.0 0 1 2516.812 711.335z" transform="translate(-2497.807 -648.613)" fill="#b7d3f3"/><path id="Path_2625" data-name="Path 2625" d="M2491.834 719.093a1.834 1.834.0 1 1 1.831 1.926A1.88 1.88.0 0 1 2491.834 719.093z" transform="translate(-2491.834 -650.121)" fill="#b7d3f3"/></g><g id="Group_1024" data-name="Group 1024" transform="translate(0 3.657)"><path id="Path_2626" data-name="Path 2626" d="M2475.169 635.215a1.785 1.785.0 0 0-2.49-.748 1.979 1.979.0 0 0-.711 2.619 1.785 1.785.0 0 0 2.49.748A1.98 1.98.0 0 0 2475.169 635.215z" transform="translate(-2454.409 -634.224)" fill="#b7d3f3"/><path id="Path_2627" data-name="Path 2627" d="M2457.977 649.266a1.777 1.777.0 0 0-2.531.575 1.986 1.986.0 0 0 .546 2.662 1.777 1.777.0 0 0 2.532-.574A1.987 1.987.0 0 0 2457.977 649.266z" transform="translate(-2449.875 -637.698)" fill="#b7d3f3"/><path id="Path_2628" data-name="Path 2628" d="M2449.721 670.783a1.928 1.928.0 1 0 1.831 1.926A1.88 1.88.0 0 0 2449.721 670.783z" transform="translate(-2447.89 -642.843)" fill="#b7d3f3"/><path id="Path_2629" data-name="Path 2629" d="M2454.614 695.47a2 2 0 0 0 0 2.723 1.769 1.769.0 0 0 2.59.0 2 2 0 0 0 0-2.723A1.767 1.767.0 0 0 2454.614 695.47z" transform="translate(-2449.582 -648.53)" fill="#b7d3f3"/><path id="Path_2630" data-name="Path 2630" d="M2470.439 711.335a2 2 0 0 0 0 2.724 1.767 1.767.0 0 0 2.589.0 2 2 0 0 0 0-2.724A1.767 1.767.0 0 0 2470.439 711.335z" transform="translate(-2453.907 -652.27)" fill="#b7d3f3"/></g></g><g id="Group_1028" data-name="Group 1028" transform="translate(43.706 19.677)"><path id="Path_2631" data-name="Path 2631" d="M2493.675 672.709a1.834 1.834.0 1 1 1.831 1.926A1.88 1.88.0 0 1 2493.675 672.709z" transform="translate(-2493.675 -648.649)" fill="#b7d3f3"/><g id="Group_1026" data-name="Group 1026" transform="translate(1.582)"><path id="Rectangle_312" data-name="Rectangle 312" d="M0 0h.5v24.06H0z" fill="#b7d3f3"/></g><g id="Group_1027" data-name="Group 1027" transform="translate(1.137 13.393)"><path id="Path_2719" data-name="Path 2719" d="M0 0 15.722-.388l-.038 1.548L-.038 1.548z" transform="matrix(0.787, -0.617, 0.617, 0.787, 0, 10.011)" fill="#b7d3f3"/></g></g></g><g id="Group_1035" data-name="Group 1035" transform="translate(562.473 753.407)"><path id="Path_2632" data-name="Path 2632" d="M1263.483 1196.7h-379l-166.02-172.822c-10.661-11.1-9.422-29.576 2.615-38.99L729.5 978.3l335.885 5.247z" transform="translate(-698.193 -911.98)" fill="#d2e0ff"/><path id="Path_2633" data-name="Path 2633" d="M885.832 1201.215l-31.31 24.488L711.266 1023.085c-7.927-11.211-5.711-27.058 4.948-35.394l12.011-9.393z" transform="translate(-696.914 -911.98)" fill="#aec3ff"/><path id="Path_2634" data-name="Path 2634" d="M713.992 1288.6h931.592c11.427.0 20.691-9.743 20.691-21.761h0c0-12.019-9.263-21.761-20.691-21.761H713.992c-11.427.0-20.689 9.742-20.689 21.761h0C693.3 1278.853 702.566 1288.6 713.992 1288.6z" transform="translate(-693.303 -974.872)" fill="#aec3ff"/><path id="Rectangle_314" data-name="Rectangle 314" d="M0 0h14.888v198.288H0z" transform="translate(157.608 313.723)" fill="#aec3ff"/><path id="Rectangle_315" data-name="Rectangle 315" d="M0 0h14.888v198.288H0z" transform="translate(1146.461 313.723)" fill="#aec3ff"/><path id="Rectangle_316" data-name="Rectangle 316" d="M0 0h14.888v198.288H0z" transform="translate(920.58 313.723)" fill="#aec3ff"/><path id="Rectangle_317" data-name="Rectangle 317" d="M0 0h14.888v198.288H0z" transform="translate(420.115 313.723)" fill="#aec3ff"/><path id="Rectangle_318" data-name="Rectangle 318" d="M0 0h688.59v16.573H0z" transform="translate(157.608 440.253)" fill="#aec3ff"/><path id="Rectangle_319" data-name="Rectangle 319" d="M0 0h330.038v16.573H0z" transform="translate(831.31 440.253)" fill="#aec3ff"/><g id="Group_1030" data-name="Group 1030" transform="translate(142.939 488.754)"><path id="Path_2720" data-name="Path 2720" d="M17.015-.313C26.412-.485 33.89 7.266 33.717 17S25.787 34.765 16.39 34.938-.485 27.36-.313 17.625 7.618-.14 17.015-.313z" transform="translate(0 13.785) rotate(-22.84)" fill="#2b478b"/><path id="Path_2722" data-name="Path 2722" d="M9.9-.013a9.636 9.636.0 0 1 9.888 9.4 9.7 9.7.0 0 1-9.913 9.427 9.636 9.636.0 0 1-9.888-9.4A9.7 9.7.0 0 1 9.9-.013z" transform="translate(12.455 32.895) rotate(-88.495)" fill="#aec3ff"/></g><g id="Group_1031" data-name="Group 1031" transform="translate(410.675 494.254)"><path id="Path_2635" data-name="Path 2635" d="M1258.469 1556c0-9.807 7.559-17.757 16.883-17.757s16.884 7.951 16.884 17.757-7.559 17.757-16.884 17.757S1258.469 1565.8 1258.469 1556z" transform="translate(-1258.469 -1538.238)" fill="#2b478b"/><path id="Path_2723" data-name="Path 2723" d="M9.9-.013a9.636 9.636.0 0 1 9.888 9.4 9.7 9.7.0 0 1-9.913 9.427 9.636 9.636.0 0 1-9.888-9.4A9.7 9.7.0 0 1 9.9-.013z" transform="translate(7.225 27.394) rotate(-88.494)" fill="#aec3ff"/></g><g id="Group_1032" data-name="Group 1032" transform="translate(905.965 488.811)"><path id="Path_2721" data-name="Path 2721" d="M17.011-.309c9.395-.171 16.873 7.584 16.7 17.32s-7.925 17.767-17.32 17.938S-.48 27.365-.309 17.629 7.616-.138 17.011-.309z" transform="translate(0 13.591) rotate(-22.5)" fill="#2b478b"/><path id="Path_2636" data-name="Path 2636" d="M1957.482 1558.419a9.426 9.426.0 1 1 9.414 9.9A9.666 9.666.0 0 1 1957.482 1558.419z" transform="translate(-1944.837 -1535.218)" fill="#aec3ff"/></g><path id="Path_2637" data-name="Path 2637" d="M740.171 1022.791v179.4h20.9V1047.355z" transform="translate(-706.115 -922.469)" fill="#aec3ff"/><path id="Path_2638" data-name="Path 2638" d="M1172.274 1036.374l79.354 31.566-42.678 7.169-29.39-20.83z" transform="translate(-824.232 -925.671)" fill="#ffb27d"/><path id="Path_2639" data-name="Path 2639" d="M1263.347 1195.627c3.083 1.24 50.033-69.95 44.195-89.827-.285-.968-101.157-21.49-117.89-26.469-36.931-11-78.627-50.263-99.484-53.959-43.211-7.657-114.828 37.649-103.43 76.734 17.177 58.907 49.682 93.538 104.2 93C1092.878 1195.091 1259.95 1194.334 1263.347 1195.627z" transform="translate(-773.184 -922.876)" fill="#f99746"/><g id="Group_1034" data-name="Group 1034" transform="translate(181.935)"><path id="Path_2640" data-name="Path 2640" d="M1054.773 1055c6.108-3.122 12.265-7.919 14.837-14.6a10.148 10.148.0 0 0-7.268-13.88c-2.584-.518-7.96-6.379-10.5-9.022a189.549 189.549.0 0 0-14.972-14.26l-40.735.891c5.015 1.332 16.658 28.194 19.012 43.429C1017.2 1060.869 1043.1 1060.965 1054.773 1055z" transform="translate(-958.018 -917.859)" fill="#ffb27d"/><path id="Path_2641" data-name="Path 2641" d="M1055.047 1016.657c-6.128-10.687-10.057-16.973-10.057-16.973l-37.127 12.706C1018.116 1020.2 1031.87 1025.365 1055.047 1016.657z" transform="translate(-961.224 -917.022)" fill="#e8945b"/><g id="Group_1033" data-name="Group 1033"><path id="Path_2642" data-name="Path 2642" d="M1047.429 985.563s-44.592 23.994-58.371-5.444-28.814-46.165-.926-62.728 38.719-8.216 45.59.433S1058.673 978.564 1047.429 985.563z" transform="translate(-951.539 -895.38)" fill="#ffb27d"/><path id="Path_2643" data-name="Path 2643" d="M987.409 965.408s-8.263-4.55-5.93-9.94 6.347.289 9.128-.862 5.243-11.63 3.209-19.728 28.991-5.09 38.833-12.555 14.8-26.141-4.9-28.715c-11.576-1.514-69.666-9.818-81.078 22.166-14.547 40.771 28.4 64.006 34.322 67.727s7.954 1.357 7.954 1.357S993.32 971.34 987.409 965.408z" transform="translate(-943.68 -891.523)" fill="#2c3a64"/></g></g><path id="Path_2644" data-name="Path 2644" d="M1114.59 1024.4s21.94-3.689 59.927 11.121a31.2 31.2.0 0 1-14.408 18.332C1148.319 1060.664 1114.59 1024.4 1114.59 1024.4z" transform="translate(-808.464 -922.752)" fill="#f99746"/><path id="Path_2645" data-name="Path 2645" d="M1639.41 1127.926s-195.115 2.431-285.632-26.472-164.1-27.016-164.1-27.016-59.309 64.762-73.72 124.065a48.669 48.669.0 0 0-1.37 11.5v69.2s109.77-28.335 241.129.0c101 21.786 276.435.0 276.435.0z" transform="translate(-808.464 -934.639)" fill="#2b478b"/><path id="Path_2646" data-name="Path 2646" d="M1015.9 1157.345s112.7 42.909 135.594 38.534 83.212-72.619 83.212-72.619l-11.5-8.664-77.938 44.775s-71.514-39.892-102.224-60.229C1026.515 1088.189 1006.824 1153.391 1015.9 1157.345z" transform="translate(-780.86 -940.177)" fill="#ffb27d"/><path id="Path_2647" data-name="Path 2647" d="M1084.925 1126.132c-5.893 22.034-16.752 41.45-42.715 57.068-4.245 2.554-7.643 6.371-11.077 2.922-12.288-12.344-37.655-39.3-43.966-69.274-.592-2.815 2.443-8.391 4.409-10.418 7.446-7.671 27.134-22.91 43.363-18.631 14.433 3.806 37.147 17.807 49.251 25.709C1088.21 1116.134 1086.309 1120.954 1084.925 1126.132z" transform="translate(-773.611 -937.62)" fill="#f99746"/><path id="Path_2648" data-name="Path 2648" d="M1302.065 1111.113s4.707-12.614 5.935-15.842 10.561-11.434 10.929-9.14-3.193 7.369-1.842 7.544 7-10.674 10.807-10.546 1.719 14.051.368 20.38-14.7 16.269-14.7 16.269z" transform="translate(-859.711 -936.693)" fill="#ffb27d"/><rect id="Rectangle_320" data-name="Rectangle 320" width="370.677" height="173.95" rx="10.864" transform="translate(799.795 139.773)" fill="#aec3ff"/></g><g id="Group_1042" data-name="Group 1042" transform="translate(311.098 965.131)"><g id="Group_1039" data-name="Group 1039" transform="translate(0 63.827)"><path id="Rectangle_321" data-name="Rectangle 321" d="M0 0h8.848v149.653H0z" transform="translate(10.782 79.641)" fill="#aec3ff"/><path id="Rectangle_322" data-name="Rectangle 322" d="M0 0h9.306v196.24H0z" transform="translate(207.023 186.108) rotate(90)" fill="#aec3ff"/><path id="Rectangle_323" data-name="Rectangle 323" d="M0 0h8.848v149.653H0z" transform="translate(198.174 79.641)" fill="#aec3ff"/><path id="Rectangle_324" data-name="Rectangle 324" d="M0 0h8.848v149.653H0z" transform="translate(132.698 79.641)" fill="#aec3ff"/><g id="Group_1036" data-name="Group 1036" transform="translate(0 222.398)"><path id="Path_2649" data-name="Path 2649" d="M347.363 1559.066c0-8.833 6.808-15.994 15.207-15.994s15.206 7.16 15.206 15.994-6.808 15.993-15.206 15.993S347.363 1567.9 347.363 1559.066z" transform="translate(-347.363 -1543.072)" fill="#2b478b"/><path id="Path_2650" data-name="Path 2650" d="M356.622 1561.248a8.489 8.489.0 1 1 8.479 8.917A8.706 8.706.0 0 1 356.622 1561.248z" transform="translate(-349.894 -1545.255)" fill="#aec3ff"/></g><g id="Group_1037" data-name="Group 1037" transform="translate(121.917 222.398)"><path id="Path_2651" data-name="Path 2651" d="M515.143 1559.066c0-8.833 6.808-15.994 15.206-15.994s15.206 7.16 15.206 15.994-6.808 15.993-15.206 15.993S515.143 1567.9 515.143 1559.066z" transform="translate(-515.143 -1543.072)" fill="#2b478b"/><path id="Path_2652" data-name="Path 2652" d="M524.4 1561.248a8.489 8.489.0 1 1 8.479 8.917A8.706 8.706.0 0 1 524.4 1561.248z" transform="translate(-517.674 -1545.255)" fill="#aec3ff"/></g><g id="Group_1038" data-name="Group 1038" transform="translate(187.392 222.398)"><path id="Path_2653" data-name="Path 2653" d="M605.25 1559.066c0-8.833 6.808-15.994 15.206-15.994s15.206 7.16 15.206 15.994-6.808 15.993-15.206 15.993S605.25 1567.9 605.25 1559.066z" transform="translate(-605.25 -1543.072)" fill="#2b478b"/><path id="Path_2654" data-name="Path 2654" d="M614.509 1561.248a8.489 8.489.0 1 1 8.478 8.917A8.706 8.706.0 0 1 614.509 1561.248z" transform="translate(-607.781 -1545.255)" fill="#aec3ff"/></g><path id="Rectangle_325" data-name="Rectangle 325" d="M0 0h130.764v101.417H0z" transform="translate(76.164)" fill="#94b0ed"/><path id="Rectangle_326" data-name="Rectangle 326" d="M0 0h130.764v101.417H0z" transform="translate(10.782)" fill="#aec3ff"/></g><g id="Group_1040" data-name="Group 1040" transform="translate(32.944)"><path id="Path_2655" data-name="Path 2655" d="M429.65 1194.427v38.543H392.7V1194.3a10.59 10.59.0 0 1 .054-1.109 11.814 11.814.0 0 1 6.821-9.807 7.825 7.825.0 0 0 4.674-6.775l.271-5.567h13.565l.085 5.552a7.573 7.573.0 0 0 4.526 6.8 11.931 11.931.0 0 1 6.892 9.8C429.627 1193.6 429.65 1194.01 429.65 1194.427z" transform="translate(-392.7 -1169.143)" fill="#c8dbf4"/><path id="Path_2656" data-name="Path 2656" d="M423.015 1172.9H407.189l.42-4.347H422.6z" transform="translate(-396.661 -1168.557)" fill="#b7d3f3"/><path id="Path_2657" data-name="Path 2657" d="M429.65 1201.259v24.856H392.7v-24.979a10.588 10.588.0 0 1 .054-1.109h36.834C429.627 1200.434 429.65 1200.843 429.65 1201.259z" transform="translate(-392.7 -1175.976)" fill="#fff"/></g><g id="Group_1041" data-name="Group 1041" transform="translate(79.58 28.124)"><path id="Path_2658" data-name="Path 2658" d="M477.549 1219.827v21.56H456.88v-21.628a5.848 5.848.0 0 1 .031-.621 6.611 6.611.0 0 1 3.816-5.486 4.377 4.377.0 0 0 2.614-3.789l.151-3.115h7.588l.048 3.105a4.238 4.238.0 0 0 2.532 3.8 6.673 6.673.0 0 1 3.854 5.481C477.536 1219.367 477.549 1219.594 477.549 1219.827z" transform="translate(-456.88 -1205.685)" fill="#c8dbf4"/><path id="Path_2659" data-name="Path 2659" d="M473.837 1207.788h-8.852l.235-2.432H473.6z" transform="translate(-459.096 -1205.356)" fill="#b7d3f3"/><path id="Path_2660" data-name="Path 2660" d="M477.549 1223.649v13.9H456.88v-13.972a5.847 5.847.0 0 1 .031-.621h20.6C477.536 1223.188 477.549 1223.416 477.549 1223.649z" transform="translate(-456.88 -1209.506)" fill="#fff"/></g></g><g id="Group_1049" data-name="Group 1049" transform="translate(1796.56 847.101)"><g id="Group_1044" data-name="Group 1044" transform="translate(102.619 80.609)"><path id="Path_2661" data-name="Path 2661" d="M2561.758 1153.763s-13.431-16.48-.829-26.946c0 0 9.2-5.862 16.71-5.386.0.0-10.635 18.757-7.194 20.623s10.418-21.8 10.418-21.8 20.947-2.137 27.685 1.27c0 0-17.906 15.413-14.135 16.331s23.114-14.21 23.114-14.21 19.5 3.489 18.456 16-7.757 16.372-10.709 16.039-20.224-7.267-20.6-4.723 10.021 10.86 17.3 11.248c0 0-13.745 15.944-22.881 11.342s-9.914-11.895-15.609-14.63-10.555-2.729-8.2.061 12.657 5.5 15.913 11.56 6.179 10.144-3.272 8.648-24.814-8.769-25.489-17.1z" transform="translate(-2539.058 -1119.593)" fill="#aec3ff"/><g id="Group_1043" data-name="Group 1043" transform="translate(0 20.291)"><path id="Path_2662" data-name="Path 2662" d="M2624.313 1146.24s-52.954-2.146-64.647 13.782a40.5 40.5.0 0 1-10.544 15.564l-1.24 3.555s9.175-10.175 12.458-10.791C2560.339 1168.351 2555.2 1148.618 2624.313 1146.24z" transform="translate(-2536.965 -1146.144)" fill="#aec3ff"/><path id="Path_2663" data-name="Path 2663" d="M2545.015 1184.236a35.36 35.36.0 0 0-12.156 24.637l2.063.195s3.63-16.334 10.191-22.721S2545.015 1184.236 2545.015 1184.236z" transform="translate(-2532.859 -1154.793)" fill="#aec3ff"/></g></g><g id="Group_1046" data-name="Group 1046" transform="translate(0 35.868)"><path id="Path_2664" data-name="Path 2664" d="M2470 1119.237s21.363-12.582 11.393-29.659c0 0-7.976-10.486-16.521-13.182.0.0 4.557 25.465.0 26.064s-3.134-28.76-3.134-28.76-22.5-11.384-31.333-10.486c0 0 13.957 24.866 9.4 24.267s-20.225-25.764-20.225-25.764-23.073-4.494-26.776 9.885 2.28 21.571 5.7 22.471 25.352.6 24.783 3.594-15.382 7.789-23.643 5.093c0 0 9.116 23.668 21.079 22.47s15.667-8.988 23.073-9.588 12.818 1.5 9.115 3.6-16.237.688-22.219 6.037-10.824 8.645.285 11.04 31.049.9 35.037-8.089z" transform="translate(-2391.636 -1061.051)" fill="#d4e4f8"/><g id="Group_1045" data-name="Group 1045" transform="translate(11.708 15.045)"><path id="Path_2665" data-name="Path 2665" d="M2407.749 1080.737s59.818 20.373 66.655 43.141a49.811 49.811.0 0 0 5.7 21.871v4.494s-6.267-15.28-9.685-17.377C2470.416 1132.866 2483.8 1113.093 2407.749 1080.737z" transform="translate(-2407.749 -1080.737)" fill="#d4e4f8"/><path id="Path_2666" data-name="Path 2666" d="M2506.243 1164.94s9.225 14.733 3.965 32.668l-2.373-.67s2.3-19.754-2.523-29.69S2506.243 1164.94 2506.243 1164.94z" transform="translate(-2433.892 -1099.928)" fill="#d4e4f8"/></g></g><g id="Group_1048" data-name="Group 1048" transform="translate(93.837)"><path id="Path_2667" data-name="Path 2667" d="M2539.287 1090.82s-28.161-16.587-15.02-39.1c0 0 10.514-13.822 21.778-17.376.0.0-6.008 33.568.0 34.358s4.13-37.912 4.13-37.912 29.664-15.007 41.3-13.822c0 0-18.4 32.777-12.391 31.988s26.66-33.963 26.66-33.963 30.414-5.924 35.3 13.032-3 28.434-7.51 29.619-33.417.79-32.667 4.739 20.275 10.268 31.165 6.714c0 0-12.015 31.2-27.786 29.619s-20.651-11.847-30.414-12.638-16.9 1.975-12.016 4.739 21.4.906 29.288 7.957 14.268 11.394-.376 14.554-40.928 1.184-46.185-10.664z" transform="translate(-2520.773 -1014.119)" fill="#d2e0ff"/><g id="Group_1047" data-name="Group 1047" transform="translate(3.64 19.832)"><path id="Path_2668" data-name="Path 2668" d="M2631.29 1040.069s-78.852 26.854-87.863 56.868c0 0 .376 13.428-7.51 28.829v5.924s8.26-20.141 12.766-22.906C2548.683 1108.785 2531.035 1082.72 2631.29 1040.069z" transform="translate(-2528.553 -1040.069)" fill="#d4e4f8"/><path id="Path_2669" data-name="Path 2669" d="M2533.147 1151.064s-12.16 19.421-5.228 43.063l3.128-.883s-3.036-26.041 3.325-39.136S2533.147 1151.064 2533.147 1151.064z" transform="translate(-2525.783 -1065.367)" fill="#d4e4f8"/></g></g><path id="Path_2670" data-name="Path 2670" d="M2524.194 1257.733c30.466.0 55.163-25.975 55.163-58.018H2469.031C2469.031 1231.758 2493.729 1257.733 2524.194 1257.733z" transform="translate(-2412.792 -1057.873)" fill="#aec3ff"/><path id="Path_2671" data-name="Path 2671" d="M2579.833 1277.285H2467.982a6.989 6.989.0 0 1 6.807-7.158h98.239a6.988 6.988.0 0 1 6.806 7.158z" transform="translate(-2412.506 -1074.472)" fill="#aec3ff"/><path id="Rectangle_327" data-name="Rectangle 327" d="M0 0h113.396v1.779H0z" transform="translate(54.424 141.842)" fill="#bbd0ff"/></g><g id="Group_1051" data-name="Group 1051" transform="translate(1544.35 554.537)"><path id="Path_2672" data-name="Path 2672" d="M2184.161 776.547s-30.635 5.658-37.561 24.675-46.055 326.223-46.055 326.223 19.376 16.147 60.967 10.35S2184.161 776.547 2184.161 776.547z" transform="translate(-2059.856 -665.548)" fill="#abddda"/><path id="Path_2673" data-name="Path 2673" d="M2123.253 1559.231c-.1 5.5-.762 10.707-2.66 12.761h-76.044c.967-2.894 3.7-7.246 11.511-8.58 8.871-1.509 22.7-6 30.772-14.978a24.459 24.459.0 0 0 5.958-11.348c3.577-16.753 29.581 5.133 29.581 5.133A142.3 142.3.0 0 1 2123.253 1559.231z" transform="translate(-2044.549 -843.354)" fill="#233862"/><path id="Path_2674" data-name="Path 2674" d="M2284.6 1559.231c-.1 5.5-.764 10.707-2.661 12.761H2205.9c.966-2.894 3.7-7.246 11.51-8.58 8.871-1.509 22.7-6 30.772-14.978a24.456 24.456.0 0 0 5.958-11.348c3.578-16.753 29.582 5.133 29.582 5.133A142.3 142.3.0 0 1 2284.6 1559.231z" transform="translate(-2088.654 -843.354)" fill="#233862"/><path id="Path_2675" data-name="Path 2675" d="M2105.811 1441.074c8.5 2.85 24.741 11.555 35.059 7.46 6.668-2.643 43.94-116.04 46.358-165.639a133.043 133.043.0 0 1 1.908-14.774c2.208-12.8 6.069-30.39 10.515-49.8 11.929-52.008 28.062-117.071 27.711-137.866-.54-32.276-91.454-6.764-91.454-6.764s-6.253 26.475-7.5 64.807c-2.469 76.088-9.256 204.614-27.718 293.87A7.7 7.7.0 0 0 2105.811 1441.074z" transform="translate(-2059.854 -733.342)" fill="#93312c"/><path id="Path_2676" data-name="Path 2676" d="M2194.631 1082.046l43.87 359.025s28.219 3.969 44.635-.313c0 0 11.148-186.13 9.975-233.235s10.1-126.046-2.572-134.753S2194.631 1082.046 2194.631 1082.046z" transform="translate(-2085.574 -734.821)" fill="#b5453c"/><path id="Path_2677" data-name="Path 2677" d="M2281.377 791.786S2230.87 757.438 2194.642 775c-5.772 2.8-12.358 10.611-17.072 16.075-13.094 15.175-38.681 256.251-38.681 256.251s72.634 25.872 142.488-8.781z" transform="translate(-2070.337 -664.005)" fill="#fff"/><path id="Path_2678" data-name="Path 2678" d="M2178.748 775.407s-51.131 22.04-58.057 38.974-29.434 120.926-29.434 133.12 39.191 2.726 45.5-16.942c5.239-16.331 22.91-66.5 32.229-98.237z" transform="translate(-2057.317 -665.279)" fill="#abddda"/><g id="Group_1050" data-name="Group 1050" transform="translate(110.953 0)"><path id="Path_2679" data-name="Path 2679" d="M2223.165 782.56c11.163 2.3 27.559-.151 39.564-8.474-5.419-13.615-7.641-24.366-8.433-31.322-.046-.371-.081-.729-.115-1.075a33.608 33.608.0 0 1-.138-7.175h-28.858s-7.89 3.795-7.89 6.417q0 2.1-.035 4.025c-.057 3.49-.19 6.537-.363 9.153a87.157 87.157.0 0 1-1.477 12.529S2211.894 780.235 2223.165 782.56z" transform="translate(-2202.067 -655.639)" fill="#ffb27d"/><path id="Path_2680" data-name="Path 2680" d="M2217.649 755.835c21.863 4.443 34.555-8.122 37.4-11.345.4-.462.613-.735.613-.735-.231-.121-.474-.231-.728-.34-8.138-3.466-26.606-.71-36.921 3.266C2217.955 750.171 2217.823 753.219 2217.649 755.835z" transform="translate(-2202.82 -657.365)" fill="#e2915a"/><path id="Path_2681" data-name="Path 2681" d="M2258.035 710.806c-3.906 22.115-31.038 21.389-42.762 20-3.3-.386-5.376-.828-5.376-.828-3.72-1.045-5.8-7.208-6.76-15.282-1.914-15.978.5-39.43 3.069-45.43 3.863-9.026 11.137-18.788 38.46-11.744S2263.049 682.472 2258.035 710.806z" transform="translate(-2198.664 -636.92)" fill="#ffb27d"/><path id="Path_2682" data-name="Path 2682" d="M2203.765 651.317c3.734-5.438 11.652-12.081 18.844-16.173 15.449-8.79 35.222.277 35.3.315 22.317 10.32 28.145 28.277 16.313 56.251-12.511 29.581-24.425 26.251-24.425 26.251s2.529-1.655 2.3-10.874c-.012-.524-.033-.961-.056-1.338a6.374 6.374.0 0 1 1.862-5.044c2.771-2.6 4.123-10.472 1.8-12.663-2.8-2.644-6.735.567-7.992 3.037a3.333 3.333.0 0 1-4.9 1.136c-6.947-4.618-2.434-13.856-9.072-19.507s-20.1-.906-30.062-5.41C2190.653 662.193 2200.952 655.415 2203.765 651.317z" transform="translate(-2197.241 -631.309)" fill="#233862"/></g><path id="Path_2683" data-name="Path 2683" d="M2201.757 1149.774q6.6 1.785 13.08 2.92c3.826.686 7.635 1.2 11.45 1.535 21.615 1.979 43.328-1.22 68.705-8.874q8.57-2.585 17.748-5.846c.652-.231-1.668-70.81-4.346-143.611-.272-7.515-.554-15.06-.831-22.551q-.181-4.762-.358-9.481c-2.43-64.388-4.837-122.535-5.344-125.667-1.16-7.085-2.245-13.125-3.428-18.357-3.457-15.255-7.751-23.62-17.113-30.813-.912-.728-8.4-4.7-15-8.152-5.471-2.859-10.331-5.354-10.331-5.354h-.005c-2.176 1.123-4.79 6.368-7.526 13.731-5.027 13.573-10.452 34.358-14.227 49.88a.414.414.0 0 0-.017.079v.006c-2.43 10.022-4.173 17.828-4.669 20.068-.843 3.782-1.958 11.1-3.267 21.028-1.778 13.507-3.9 31.839-6.146 52.642q-.348 3.205-.692 6.489-.4 3.742-.8 7.57c-.085.819-.172 1.639-.253 2.458-.865 8.237-1.737 16.742-2.6 25.386-.721 7.144-11.023 12.31-11.733 19.576-.41 4.267-1.266 43.637-2.369 56.2C2200.884 1059.61 2201.446 1145.555 2201.757 1149.774z" transform="translate(-2087.39 -665.307)" fill="#abddda"/><path id="Path_2684" data-name="Path 2684" d="M2278.06 891.495c.033.148 1.751 65.11-44.71 73s-15.591 9.977-15.591 9.977 87.417-3.908 88.86-6.336S2278.06 891.495 2278.06 891.495z" transform="translate(-2089.149 -692.647)" fill="#91cecf"/><path id="Path_2685" data-name="Path 2685" d="M2250.5 1019.446s.871.649 2.545 1.784a.72.72.0 0 1 .086.054c7.088 4.759 28.125 17.731 58.754 26.43q4.822 1.374 9.961 2.585c-.271-7.515-.554-15.06-.831-22.551a85.463 85.463.0 0 0 11.514-1.675c-.121-.99-.248-1.979-.369-2.968-3.9-1.681-7.769-3.3-11.5-4.838-3.042-1.251-5.985-2.44-8.773-3.545-12.582-5.026-21.909-8.432-21.909-8.432l-37.244 12.408z" transform="translate(-2100.847 -719.709)" fill="#91cecf"/><path id="Path_2686" data-name="Path 2686" d="M2236.937 963.957s4.785 1.256 12.4 2.871a.207.207.0 0 1 .08.018c14.048 2.968 37.665 7.133 58.76 6.908 3.112-.037 6.17-.164 9.13-.407a85.457 85.457.0 0 0 11.514-1.675c7.711-1.711 14.17-4.608 18.394-9.136 31.38-33.617-17.124-154.27-27.323-166.01-11.906-13.706-33.636-18.514-45.635-20.165-.5-.067-.982-.134-1.449-.194-4.22-.528-6.926-.637-7.077-.643h-.005s.94 3.181 2.516 8.577c.613 2.088 1.323 4.51 2.1 7.212 7.37 25.385 21.592 75.277 27.86 103.414 2.3 10.294 3.526 17.676 2.967 19.88-2.448 9.61-27.8 14.551-43.864 16.736-6.7.911-11.785 1.342-12.924 1.433a1.552 1.552.0 0 0-.236.018l-.929 4.006L2241 946.407l-2.187 9.439z" transform="translate(-2097.139 -665.307)" fill="#abddda"/><path id="Path_2687" data-name="Path 2687" d="M2108.266 1052.708l107.771-4.775-21.865-141.26L2086.4 911.448z" transform="translate(-2055.99 -696.225)" fill="#233862"/><path id="Path_2688" data-name="Path 2688" d="M2238.5 981.239s-20.979-1.538-22.031 3.6c-2.453 11.99 18.036 21.834 24.673 21.161S2243.329 980.438 2238.5 981.239z" transform="translate(-2091.489 -713.753)" fill="#ffb27d"/><path id="Path_2689" data-name="Path 2689" d="M2093.382 949.354s20.072-6.6 22.227-1.853c5.023 11.067-12.745 25.629-19.35 26.589S2088.508 949.749 2093.382 949.354z" transform="translate(-2057.078 -705.445)" fill="#ffb27d"/><path id="Path_2690" data-name="Path 2690" d="M2266.2 766.241s9.957 1.817 14.381 8.494c0 0-34.12 62.852-33.973 62.287S2257.756 773.958 2266.2 766.241z" transform="translate(-2099.781 -663.119)" fill="#91cecf"/><path id="Path_2691" data-name="Path 2691" d="M2211.884 767.353c-2.906 1.153-8.479 7.157-9.735 10.476l-3.922 52.594s8.373-38.6 12.635-56.044A30.992 30.992.0 0 0 2211.884 767.353z" transform="translate(-2086.558 -663.381)" fill="#91cecf"/><path id="Path_2692" data-name="Path 2692" d="M2169.344 907.664s-.852-3.92-5.757-3.464-32.466 1.881-32.466 1.881-5.315-.092-4.821 3.49z" transform="translate(-2066.887 -695.633)" fill="#c65447"/></g><path id="Path_2693" data-name="Path 2693" d="M1421.889 810.875l1.634 12.8h3.78l1.256-12.8z" transform="translate(-329.992 -119.104)" fill="#fff"/><g id="Group_1052" data-name="Group 1052" transform="translate(965.349 704.387)"><path id="Path_2694" data-name="Path 2694" d="M1324.727 1105.067c-10.175.0-21.706-2.114-34.416-6.359a217.17 217.17.0 0 1-42.576-20.07l1.274-2.2c.752.482 75.615 47.728 108.9 13.776 25-25.491 28.806-95.407 27.6-149.57a1107.607 1107.607.0 0 0-8.767-112.886l2.424-.375a1110.635 1110.635.0 0 1 8.792 113.2c1.769 79.528-7.767 130.494-28.344 151.481C1351.135 1100.714 1339.327 1105.066 1324.727 1105.067z" transform="translate(-1247.735 -827.383)" fill="#fff"/></g><path id="Path_2695" data-name="Path 2695" d="M1239.91 1158.7h0a3.842 3.842.0 0 1 1.3-5.085l6.258-3.8a3.456 3.456.0 0 1 4.835 1.362h0a3.841 3.841.0 0 1-1.3 5.085l-6.259 3.8A3.456 3.456.0 0 1 1239.91 1158.7z" transform="translate(-280.118 -198.892)" fill="#fff"/><g id="Group_1056" data-name="Group 1056" transform="translate(1061.838 576.282)"><path id="Path_2696" data-name="Path 2696" d="M1698.156 680.573c.058-1.687 1.3-19.862 27.621-20.811.0.0-12.944 1.623-15.18 7.607.0.0 8.813-7.395 15.991-5.017s11.392 15.6 11.435 19.955-3.945 18.373-8.5 19.565a13.236 13.236.0 0 1-5.517.007 66.369 66.369.0 0 1 3.536 6.638c10.5 22.677-.329 44.838-9.22 42.389-5.7-1.57-7.316 8.664-7.316 8.664L1655.6 712.4S1675.95 668.109 1698.156 680.573z" transform="translate(-1455.716 -659.762)" fill="#2c3a64"/><path id="Path_2697" data-name="Path 2697" d="M1504.453 1050.654c4.631 4.309 16.921-10.49 18.613-12.457a1.185 1.185.0 0 1 .179-.282l-3.741-10.959s-16.119-.656-18.791 2.154S1499.377 1046.064 1504.453 1050.654z" transform="translate(-1413.008 -746.311)" fill="#ffb27d"/><path id="Path_2698" data-name="Path 2698" d="M1527.082 987.438l1.6 11.335s.715.0 1.956-.1c3.919-.281 13.447-.843 24.223-2.057 10.282-1.065 21.789-2.668 30.775-4.957 5.184-1.321 9.535-2.883 12.332-4.692 11.664-7.493 30.814-30.443 43.279-53.392a14.588 14.588.0 0 0 .9-1.686 114.609 114.609.0 0 0 9.544-22.842 48.713 48.713.0 0 0 1.853-11.062 50.7 50.7.0 0 0-1.516-15.366 39.85 39.85.0 0 0-6.59-13.862 6.691 6.691.0 0 0-1.241-1.587 31.13 31.13.0 0 0-8.467-7.591c-1.7-.744-3.519-.183-5.4 1.454-.212.174-.416.371-.628.57-.008.008-.016.024-.031.033-.268.264-.535.545-.8.851v.091a28.046 28.046.0 0 0-2.12 2.685.043.043.0 0 0-.015.025 52.323 52.323.0 0 0-4.006 6.848c-.087.091-.181.182-.181.281-.44.842-.888 1.775-1.422 2.809a2.136 2.136.0 0 0-.353.653q-1.473 3.234-2.945 6.741c-10.949 25.106-22.614 63.133-32.323 74.467-2.262 2.635-8.9 6.634-16.927 10.88v.008c-.15.074-.307.157-.464.239l-.048.024c-6.692 3.529-14.3 7.2-21.129 10.393C1535.989 983.688 1527.082 987.438 1527.082 987.438z" transform="translate(-1420.584 -706.792)" fill="#ffb27d"/><path id="Path_2699" data-name="Path 2699" d="M1583.648 968.9A85.424 85.424.0 0 0 1590.285 982c3.063 4.849 7.093 9.756 11.86 12.285 3.661-1.859 10.259-4.593 13.055-6.4 10.116-6.5 24.546-24.933 36.329-44.694 1.8-3.015 3.534-6.055 5.183-9.1a14.57 14.57.0 0 0 .9-1.686 114.609 114.609.0 0 0 9.544-22.842l-21.357-48.014-.055-.115c-.079.083-.275.322-.573.685-.008.008-.016.024-.031.033-.6.735-1.611 1.991-2.923 3.626a.044.044.0 0 0-.015.025 52.323 52.323.0 0 0-4.006 6.848c-.086.091-.181.182-.181.281-.44.842-.888 1.775-1.422 2.809a2.135 2.135.0 0 0-.353.653q-1.473 3.234-2.945 6.741c-10.949 25.106-22.614 63.133-32.323 74.467-2.262 2.635-8.9 6.634-16.927 10.88v.008C1583.868 968.761 1583.734 968.9 1583.648 968.9z" transform="translate(-1436.047 -707.304)" fill="#abddda"/><path id="Path_2700" data-name="Path 2700" d="M1592.782 1006.967c3.063 4.849 7.093 9.756 11.86 12.285 3.661-1.859 10.259-4.593 13.055-6.4 10.116-6.5 24.546-24.933 36.329-44.694-.44-6.213-31.357 25.693-35.284 31.475C1615.781 1003.993 1600.479 1006.157 1592.782 1006.967z" transform="translate(-1438.544 -732.276)" fill="#91cecf"/><path id="Path_2701" data-name="Path 2701" d="M1687.618 1442.474l11.769 4.609s51.114-74.563 57.407-140.165c1.124-11.711.75-23.06-1.681-33.539.0.0.5-3 1.374-8.306.4-2.475.9-5.456 1.469-8.872 1.663-10.014 3.949-23.716 6.562-39.319 6.014-35.9 13.806-81.8 19.859-115.542l-3.17-1.071-34.31-11.641-7.091-23.687-25.547-7.073s-5.706 11.741-10.809 67.208c-.942 7.276-1.8 15.3-2.44 24a499.346 499.346.0 0 0 2.431 97.16q1.758 14.461 4.486 29.82c1.346 7.5 1.547 17.715.98 29.447C1706.334 1359.131 1687.618 1442.474 1687.618 1442.474z" transform="translate(-1464.468 -753.614)" fill="#b5453c"/><path id="Path_2702" data-name="Path 2702" d="M1706.05 1149.077l55.476 116c.4-2.475.9-5.456 1.469-8.872 1.663-10.014 3.949-23.716 6.562-39.319 6.014-35.9 13.806-81.8 19.859-115.542l-3.17-1.071-34.31-11.641-7.091-23.687-25.547-7.073s-5.706 11.741-10.809 67.208C1707.548 1132.353 1706.693 1140.376 1706.05 1149.077z" transform="translate(-1469.506 -753.614)" fill="#93312c"/><path id="Path_2703" data-name="Path 2703" d="M1739.636 1068.593l1.283-11.583c21.516 6.011 79-16.795 79-16.795s20.844 19.27 18.107 65.461c-1.336 22.546-3.775 118.35-6.323 146.7-.921 10.275-1.728 17.587-2.058 20.508a.057.057.0 0 0-.006.028 4.218 4.218.0 0 0 .625 2.511 136.368 136.368.0 0 1 9.407 20.8c25.011 70.1-3.853 156.431-3.853 156.431l-7.49-3.176s-16.425-96.074-29.771-138.518c-2.266-7.2-4.438-12.856-6.428-16.237-5.8-9.85-11.188-25.945-16.076-45.088-9.239-36.191-16.674-83.273-21.624-119.613C1753.748 1130.058 1739.636 1068.593 1739.636 1068.593z" transform="translate(-1478.687 -749.452)" fill="#b5453c"/><path id="Path_2704" data-name="Path 2704" d="M1710.01 873.641c36.989 2.131 28.862-55.861 26.6-55.568-4.525-2.486-12.653-14.561-17.352-34.761l-1.595.778-26.69 13.2s2.834 9.135 4.929 17.876c1.633 6.842 2.8 13.45 1.825 15.3-2.1.9-3.362 1.466-3.362 1.466a.076.076.0 0 1-.01.03C1694.09 832.674 1700.142 873.074 1710.01 873.641z" transform="translate(-1465.386 -688.888)" fill="#ffb27d"/><path id="Path_2705" data-name="Path 2705" d="M1690.976 797.534s2.838 9.126 4.928 17.875c15.6-4.578 20.339-21.826 21.765-31.072z" transform="translate(-1465.385 -689.13)" fill="#ed985f"/><path id="Path_2706" data-name="Path 2706" d="M1677.526 792.225s37.325-9.086 31.588-33.446-4.783-41.938-28.857-37.168-26.5 15.268-26.462 23.889S1667.669 793.961 1677.526 792.225z" transform="translate(-1455.222 -674.158)" fill="#ffb27d"/><path id="Path_2707" data-name="Path 2707" d="M1650.281 730.3c4.013-8.829 8.736-8.359 11.689-6.794 17.538-17.067 34.741-3.123 34.741-3.123a46.77 46.77.0 0 0 20.97 23.7s-5.733 6.176-22.353 6.04c-5.076-.041-10.18-2.494-14.824-5.871a89.633 89.633.0 0 0 19.462 15.267c-20.8-4.187-34.755-29.519-36.184-32.209-1.762 2.737-5.133 8.563-5.417 13.484-.385 6.687 1.8 19.671-1.839 20.163C1656.526 760.954 1644.264 743.542 1650.281 730.3z" transform="translate(-1453.807 -672.788)" fill="#2c3a64"/><path id="Path_2708" data-name="Path 2708" d="M1812.074 1577.462h59.272s1.421-9.5-1.676-16.709c-2.966-6.917-7.613-10.062-6.5-18.429-3.767 4.078-9.9 8.646-18.474 7.434-1.051 1.79-6.777 11.371-10.285 14.021C1830.538 1566.707 1813.266 1565.663 1812.074 1577.462z" transform="translate(-1498.488 -867.822)" fill="#233862"/><path id="Path_2709" data-name="Path 2709" d="M1636.935 1578.324h59.272s2.215-9.943-1.676-16.709c-3.445-5.987-2.125-9.4.427-14.35a22.046 22.046.0 0 1-9.983 1.977 20.209 20.209.0 0 1-8.815-3.261c-2.551 3.058-13.474 16.08-16.887 18.659C1655.4 1567.569 1638.127 1566.525 1636.935 1578.324z" transform="translate(-1450.613 -868.685)" fill="#233862"/><path id="Path_2710" data-name="Path 2710" d="M1669.1 853.443l9.716 137.277 5.946 84.058a264.408 264.408.0 0 0 26.1 7.121 107.134 107.134.0 0 1 2.71-15.474c-.094 4.42 4.823 12.88 7.737 17.481 75.9 12.789 111.482-22.033 111.482-22.033-2.953-30.822-15.741-93.17-31.05-145.438-3.189-10.872-6.48-21.306-9.818-30.931-7.588-21.884-12.411-33.309-16.5-42.165-7.785-16.836-42.581-15.778-42.581-15.778-6.7 25.4-25.12 41.239-25.12 41.239-9.818-6.064-17.131-27.386-17.131-27.386z" transform="translate(-1459.405 -699.317)" fill="#abddda"/><path id="Path_2711" data-name="Path 2711" d="M1739.7 821.422s6.315.447 7.67 4.694c0 0-8.241 34.885-25.114 41.237z" transform="translate(-1473.935 -697.872)" fill="#6bb7bf"/><path id="Path_2712" data-name="Path 2712" d="M1714.05 871.747s-15.746-27.549-15.683-31.684c0 0-6.5 2.66-6.1 6.9C1692.265 846.967 1705.845 869.841 1714.05 871.747z" transform="translate(-1465.733 -702.267)" fill="#6bb7bf"/><path id="Path_2713" data-name="Path 2713" d="M1759.7 865.279c-.456 1.652-57.279 97.07-58.519 116.07s23.9 8.262 24.288 5.783S1759.7 865.279 1759.7 865.279z" transform="translate(-1468.164 -708.211)" fill="#91cecf"/><path id="Path_2714" data-name="Path 2714" d="M1682.469 1003.736l5.946 84.058c81.288-24.627 85.758-205.036 85.758-205.036l-50.239 95.393-41.026 24.941S1682.751 1003.315 1682.469 1003.736z" transform="translate(-1463.06 -712.332)" fill="#91cecf"/><path id="Path_2715" data-name="Path 2715" d="M1632.724 999.937l3.118 11.988s3.919-.753 10.156-1.967c1.87-.38 2.938-.66 2.938-.66 4.988-1.025 10.95-2.43 17.453-3.933h.094c11.13-2.809 23.595-6.179 34.105-9.93q1.414-.52 2.773-1.041a83.532 83.532.0 0 0 15.395-7.484 11.139 11.139.0 0 0 1.249-.934c10.416-7.964 22.794-31.376 32.416-56.482 1.336-3.461 2.584-6.931 3.826-10.3a265.851 265.851.0 0 0 10.156-35.6 105.824 105.824.0 0 0 2.4-16.952 42.84 42.84.0 0 0 .086-4.775c-.173-27.163-18.435-29.972-20.839-26.882-3.024 3.841-6.229 10.112-9.528 17.7-5.073 12.078-10.416 27.725-15.4 43.272-2.766 8.526-5.436 17.051-8.106 24.916-1.516 4.775-3.031 9.269-4.454 13.391-2.765 7.873-5.255 14.243-7.477 18.266-1.43 2.627-5.523 6.278-10.958 10.4-1.437 1.1-2.985 2.23-4.6 3.395-9.01 6.436-20.477 13.606-30.665 19.645-4.988 3-9.709 5.717-13.628 7.964C1636.91 997.592 1632.724 999.937 1632.724 999.937z" transform="translate(-1449.462 -700.834)" fill="#ffb27d"/><path id="Path_2716" data-name="Path 2716" d="M1708.141 966.331s-.655 22.649 19.505 33.665c23.3-8.845 35.768-45.4 45.39-70.5 1.336-3.461 2.584-6.931 3.826-10.3a265.87 265.87.0 0 0 10.156-35.6 105.836 105.836.0 0 0 2.4-16.952 42.84 42.84.0 0 0 .086-4.775c-.173-27.163-18.435-29.972-20.839-26.882-3.024 3.841-6.229 10.112-9.528 17.7-5.073 12.078-10.416 27.725-15.4 43.272-2.766 8.526-5.436 17.051-8.106 24.916-1.516 4.775-3.031 9.269-4.454 13.391-2.765 7.873-5.255 14.243-7.477 18.266-1.43 2.627-5.522 6.278-10.958 10.4C1711.306 964.034 1709.759 965.166 1708.141 966.331z" transform="translate(-1470.077 -700.834)" fill="#abddda"/><path id="Path_2717" data-name="Path 2717" d="M1583.477 1001.816c.025.1.063.149.118.149-.032-.074-.055-.132-.07-.173C1583.454 1001.643 1583.439 1001.643 1583.477 1001.816z" transform="translate(-1435.995 -740.368)" fill="#abddda"/><g id="Group_1055" data-name="Group 1055" transform="translate(0 0)"><g id="Group_1054" data-name="Group 1054"><path id="Rectangle_328" data-name="Rectangle 328" d="M0 0h15.523v703.204H0z" transform="translate(111.197 703.204) rotate(180)" fill="#fff"/><g id="Group_1053" data-name="Group 1053" transform="translate(10.62 24.996)"><path id="Rectangle_329" data-name="Rectangle 329" d="M24.854.0h0A24.854 24.854.0 0 1 49.707 24.854V92.361a0 0 0 0 1 0 0H0a0 0 0 0 1 0 0V24.854A24.854 24.854.0 0 1 24.854.0z" transform="translate(49.707 92.361) rotate(180)" fill="#fff"/><path id="Rectangle_330" data-name="Rectangle 330" d="M20.872.0h0A20.872 20.872.0 0 1 41.744 20.872V36.289a0 0 0 0 1 0 0H0a0 0 0 0 1 0 0V20.872A20.872 20.872.0 0 1 20.872.0z" transform="translate(45.189 87.765) rotate(-180)" fill="#aec3ff"/></g><path id="Rectangle_331" data-name="Rectangle 331" d="M0 0h111.197v12.607H0z" transform="translate(111.197 12.607) rotate(180)" fill="#fff"/><path id="Rectangle_332" data-name="Rectangle 332" d="M0 0h8.568v15.231H0z" transform="translate(39.221 27.838) rotate(180)" fill="#fff"/></g><path id="Rectangle_333" data-name="Rectangle 333" d="M0 0h87.389v17.757H0z" transform="translate(61.503 689.136)" fill="#fff"/></g><path id="Rectangle_334" data-name="Rectangle 334" d="M0 0h71.458v32.714H0z" transform="translate(95.675 284.185)" fill="#fff"/><path id="Rectangle_335" data-name="Rectangle 335" d="M0 0h57.98v16.648H0z" transform="translate(103.436 290.315)" fill="#aec3ff"/><path id="Path_2718" data-name="Path 2718" d="M1582.6 1047.223c4.906-.024 12.643-.377 17.118-2.182.0.0-14.293-.214-11.254-4.964.553-.865 7.657-.21 15.59-.21 3.253.0 11.292 4.687 10.878 4.9 5.747-.8 10.972-1.969 12.662-2.353a2.705 2.705.0 0 0 .623-.187l5.076 15.549s-1.068.28-2.939.655a191.791 191.791.0 0 0-23.6 7.588c-12.825 5.338-22.259-1.3-26.54-6-2.713-2.976-4.851-6.927-4.7-9.793C1575.673 1047.094 1579.61 1047.238 1582.6 1047.223z" transform="translate(-1433.821 -749.314)" fill="#ffb27d"/></g><g transform="matrix(1, 0, 0, 1, 214.7, 305.65)" filter="url(#HOSPITALS)"><text id="HOSPITALS-2" data-name="HOSPITALS" transform="translate(314.21 23.17)" fill="#0f0f0f" font-size="200" font-family="Montserrat-Bold, Montserrat" font-weight="700"><tspan x="0" y="194">HOSPITALS</tspan></text></g></g></svg>