<svg xmlns="http://www.w3.org/2000/svg" width="662.598" height="501.952" viewBox="0 0 662.598 501.952">
  <g id="logo" transform="translate(-229.701 -310.024)">
    <path id="Path_2724" data-name="Path 2724" d="M558.328,402.935l-.133.566A12.269,12.269,0,0,0,561,413.2a12.284,12.284,0,0,0,1.15-14.332l-1.15-1.2-1.138,1.2A12.872,12.872,0,0,0,558.328,402.935Z" fill="none"/>
    <path id="Path_2725" data-name="Path 2725" d="M296.443,577.867l.291-.2-.291.182Z" fill="none"/>
    <path id="Path_2726" data-name="Path 2726" d="M547.676,691.549l-15.9,9.847,15.9,9.847Z" fill="none"/>
    <path id="Path_2727" data-name="Path 2727" d="M296.443,577.849l.291-.182-.315.166a30.188,30.188,0,0,0-4.134,2.588l4.158-2.554Z" fill="#82bfab"/>
    <path id="Path_2728" data-name="Path 2728" d="M502.1,654.147A188.621,188.621,0,0,1,479.239,632.1L396.4,683.393,425.643,701.5l8.013-4.959a26.8,26.8,0,0,1,5.846-3.629Z" fill="#fcb3b3"/>
    <path id="Path_2729" data-name="Path 2729" d="M449.028,585.217a189.016,189.016,0,0,1-10.64-29.631L326.123,625.1l-3.39,2.079-.943.6,1-.548a155.633,155.633,0,0,0,21.884,22.578l4.442-2.754L357.3,642Z" fill="#fcb3b3"/>
    <path id="Path_2730" data-name="Path 2730" d="M432.554,493.586l87.2-53.979.037.073,37.559-23.231,1.4-.877L561,413.2a12.269,12.269,0,0,1-2.808-9.7l.133-.566a12.872,12.872,0,0,1,1.537-4.064l1.138-1.2a12.365,12.365,0,0,1,15.881-2.939l.387.24,107.278,67,21.54,13.457a27.113,27.113,0,1,0,29.5-45.46l-.763-.473-134.4-83.938-.073.072-.326-.221a192.016,192.016,0,0,0-139.875-24.142,186.358,186.358,0,0,0-22.769,6.361,190.533,190.533,0,0,0-19.656,8.155,55.681,55.681,0,0,1-40.525-7.186l-29.969-18.565L229.7,499.877l27.229,16.846,16.939,10.485a55.717,55.717,0,0,1,17.055,29.144l.49,2.608c.744,3.989,1.768,7.91,2.838,11.832.654,2.369,1.416,4.706,2.167,7.041l.315-.166Z" fill="#fcb3b3"/>
    <path id="Path_2731" data-name="Path 2731" d="M774.78,310.024,744.8,328.589a55.686,55.686,0,0,1-40.525,7.186A189.528,189.528,0,0,0,561,327.167,189.063,189.063,0,0,1,600.027,345.4l.326.221.073-.072,134.4,83.938.763.473a27.113,27.113,0,1,1-29.5,45.46l-21.54-13.457-107.278-67-.387-.24A12.365,12.365,0,0,0,561,397.667l1.15,1.2A12.284,12.284,0,0,1,561,413.2l-2.258,2.369-1.4.877L519.789,439.68l-.037-.073-87.2,53.979-135.82,84.081-.291.2-4.158,2.554a28,28,0,0,0,29.505,47.357l.943-.6,3.39-2.079,112.265-69.511a189.016,189.016,0,0,0,10.64,29.631L357.3,642l-8.183,5.054a28.022,28.022,0,1,0,37.608,41.538l.4.548,9.271-5.747,82.84-51.293A188.621,188.621,0,0,0,502.1,654.147l-62.6,38.769a26.8,26.8,0,0,0-5.846,3.629,27.814,27.814,0,1,0,37.631,40.718l.842,1.077,6.651-4.121L531.772,701.4l15.9-9.846V677.4l-.133-2.684.133-2.678a27.965,27.965,0,0,1,55.8,2.406v.562l-.024,34.579-.012,49.252,30.781-19.055v-3.719l-.036-.276.036-.272V705.735l.036-42.71v-21.99l.013-7.477-.085-1.331.085-1.35a27.874,27.874,0,0,1,55.715,1.368l-.055,1.349.127-.018v27.791l-.012,44.059,30.769-19.058V654.474l.024-39.645v-.09l-.036-1.005.181-2.6V607.7h.545a27.958,27.958,0,0,1,15.335-19.146,27.67,27.67,0,0,1,39.1,19.146h.533v4.342l.121,1.129.072.6-.072,1.278v35.377a157.849,157.849,0,0,0,45.959-63.716,160.211,160.211,0,0,0,8.043-27.752l.466-2.608a55.787,55.787,0,0,1,17.073-29.144l16.928-10.485L892.3,499.877Z" fill="#dc0303"/>
    <path id="Path_2732" data-name="Path 2732" d="M690.057,633.576l-.127.018.055-1.349a27.874,27.874,0,0,0-55.715-1.368l-.085,1.35.085,1.331-.013,7.477v21.99l-.036,42.71v29.779l-.036.272.036.276v3.719l.339-.221a27.728,27.728,0,0,0,55.019-.291h.236v-2.263l.127-1.22-.127-1.22V705.55l.23-.124.012-44.059Z" fill="#fcb3b3"/>
    <path id="Path_2733" data-name="Path 2733" d="M603.476,675.005v-.562a27.965,27.965,0,0,0-55.8-2.406l-.133,2.678.133,2.684v33.843l-15.9-9.847L478.78,734.219,508.011,752.3l8.007-4.957.606-.365,31.028-19.219v32.748l-.012,32.808v.072l1.453-.9a27.708,27.708,0,0,0,53.966-4.905h.236v-2.26l.127-1.223-.127-1.22V758.944l.145-.108.012-49.252Z" fill="#fcb3b3"/>
    <path id="Path_2734" data-name="Path 2734" d="M776.686,613.773l-.072-.6-.121-1.129V607.7h-.533a27.888,27.888,0,0,0-54.432,0h-.545v3.428l-.181,2.6.036,1.005v.09l-.024,39.645v31.894l.169-.109v4.5l-.121,1.168.121,1.186v2.3h.242a27.712,27.712,0,0,0,55.026,0h.242v-2.264l.121-1.219-.121-1.205V650.519l.121-.091V615.051Z" fill="#fcb3b3"/>
    <path id="Path_2735" data-name="Path 2735" d="M547.652,747.422V727.764l-31.028,19.219-.606.365A27.9,27.9,0,1,0,547.64,793.32l.012-32.808Z" fill="#616e7d"/>
  </g>
</svg>
