<svg xmlns="http://www.w3.org/2000/svg" width="618.962" height="618.962" viewBox="0 0 618.962 618.962">
  <g id="menucross" transform="translate(716.279 -1188.065) rotate(90)">
    <path id="Path_2603" data-name="Path 2603" d="M53-18.979,361.073-64.735,647-18.979c29.271,0,53,16.772,53,37.462s-23.729,37.462-53,37.462L337.571,110.609,53,55.945c-29.271,0-53-16.772-53-37.462S23.729-18.979,53-18.979Z" transform="translate(1266.277 143.092) rotate(45)" fill="#4a4a4a"/>
    <path id="Path_2604" data-name="Path 2604" d="M53-18.98,361.073-64.735,647-18.98c29.271,0,53,16.772,53,37.461s-23.729,37.461-53,37.461L337.571,110.6,53,55.943c-29.271,0-53-16.772-53-37.461S23.729-18.98,53-18.98Z" transform="translate(1233.843 638.067) rotate(-45)" fill="#4a4a4a"/>
  </g>
</svg>
