<svg xmlns="http://www.w3.org/2000/svg" width="694.455" height="881.874" viewBox="0 0 694.455 881.874"><g id="oxygen" transform="translate(-177.999 -51)"><g id="shadow" transform="translate(271.499 847.643)"><path id="Path_453" data-name="Path 453" d="M889.952 1001.978c1.3 16.744-145.987 57.16-307.014 69.744s-292.62 9.211-293.922-7.533 128.183-40.519 289.211-53.1S888.651 985.234 889.952 1001.978z" transform="translate(-289.006 -994.1)" fill="#516784" opacity=".1" style="mix-blend-mode:multiply;isolation:isolate"/></g><g id="object" transform="translate(177.999 51)"><g id="Group_171" data-name="Group 171" transform="translate(186.31 37.919)"><path id="Path_454" data-name="Path 454" d="M436.933 292.8h0a25.917 25.917.0 0 0 18.72-31.47l-6.67-26.473-3.234.82a19.242 19.242.0 0 1-23.277-12.99 19.013 19.013.0 0 1 13.55-23.752l124.5-31.551a19.241 19.241.0 0 1 23.277 12.99 19.012 19.012.0 0 1-13.55 23.751l-3.675.932 6.671 26.473A25.832 25.832.0 0 0 604.625 250.3h0a49.958 49.958.0 0 1 60.688 36.307L731.832 550.6a50.123 50.123.0 0 1-36.2 60.862l-167.693 42.5a49.957 49.957.0 0 1-60.687-36.308L400.729 353.66A50.122 50.122.0 0 1 436.933 292.8z" transform="translate(-399.194 -106.899)" fill="#b7d4de"/><g id="Group_170" data-name="Group 170" transform="translate(34.576 274.452)" opacity=".96"><g id="Group_169" data-name="Group 169"><path id="Path_455" data-name="Path 455" d="M604.172 531.561s30.316 21.532 58.41 94.625l-18.9 8.041s-20.5-65.569-48.351-95.766z" transform="translate(-464.703 -437.999)" fill="#755c57"/><g id="Group_167" data-name="Group 167" transform="translate(0 20.096)"><path id="Path_456" data-name="Path 456" d="M440.244 450.355s68.907-15.361 105.458 4.058 34.5 70.3 34.5 70.3S539.378 555 502.827 535.576 440.244 450.355 440.244 450.355z" transform="translate(-440.244 -444.588)" fill="#65a397"/><path id="Path_457" data-name="Path 457" d="M589.938 530.853s-2.358 1.741-6.415 4.113L501.948 484.1l87.779 39.116C590.049 527.918 589.938 530.853 589.938 530.853z" transform="translate(-449.976 -450.725)" fill="#6b847a"/></g><g id="Group_168" data-name="Group 168" transform="translate(146.125)"><path id="Path_458" data-name="Path 458" d="M695.654 420.8s13.436 61.724-3.969 94.371-62.678 30.643-62.678 30.643-26.807-36.643-9.4-69.291S695.654 420.8 695.654 420.8z" transform="translate(-613.73 -420.798)" fill="#65a397"/><path id="Path_459" data-name="Path 459" d="M631.187 554.346s-1.541-2.116-3.639-5.755l45.537-72.837-35.107 78.43C633.8 554.457 631.187 554.346 631.187 554.346z" transform="translate(-615.909 -429.332)" fill="#6b847a"/></g><path id="Path_460" data-name="Path 460" d="M584.489 533.855S509.868 550.838 467.4 503.438C467.4 503.438 510.348 587.56 584.489 533.855z" transform="translate(-444.527 -433.631)" fill="#54988b"/></g><path id="Path_461" data-name="Path 461" d="M675.342 612.4c-17.5-2.358-36.594-.328-51.711 9.008-7.453 4.6-13.841 10.885-22.076 14.068-20.28 7.839-41.854-5.82-63.5-4.656-9.054.487-19.186 4.767-21.791 12.843-1.223 3.793-.585 7.838-1.665 11.661-2.833 10.027-16.185 15.351-19.677 25.228-2.392 6.764.679 14.211 6.119 18.9s12.863 7.007 20.295 8.3c24.639 4.271 50.42-1.583 75.035-8.073q33.881-8.933 67.274-19.571c20.56-6.551 53.275-16.309 64.693-35.558C741.374 622.562 693.324 614.824 675.342 612.4z" transform="translate(-448.737 -450.413)" fill="#c79d6e" opacity=".44"/></g><path id="Path_462" data-name="Path 462" d="M669.841 621.5c9.274-2.087 18.829-4.158 26.679-9.844 6.949-5.034 12.628-12.226 17.4-19.295 4.865-7.2 8.669-15.028 9.8-23.736 1.2-9.243.342-18.778-.66-28-2.158-19.867-6.144-39.591-10.023-59.178q-5.913-29.86-13.018-59.465-8.174-34.059-17.911-67.712c-2.414-8.36 10.655-11.66 13.066-3.31q18.16 62.892 30.928 127.176c4.17 21.057 8.3 42.224 10.518 63.592 1.014 9.756 1.7 19.616.275 29.365a67.1 67.1.0 0 1-10.614 27c-5.605 8.575-12.312 17.025-20.439 23.316-9.625 7.45-21.029 10.563-32.708 13.192C664.694 636.5 661.359 623.408 669.841 621.5z" transform="translate(-441.1 -134.748)" fill="#fff" opacity=".5"/><path id="Path_463" data-name="Path 463" d="M632.666 679.191c3.511-3.407 8.555-2.117 11.98.579a13.282 13.282.0 0 1 4.805 7.7c.822 4.079-2.044 8.576-6.525 8.413a8.58 8.58.0 0 1-7.512-.883C630.277 691.757 627.931 683.784 632.666 679.191z" transform="translate(-435.611 -186.154)" fill="#fff" opacity=".5"/><path id="Path_464" data-name="Path 464" d="M553.143 101.93c-12.293-5.585-26.2-6.3-39.692-5.973-14.324.348-28.769 1.8-42.332 6.436s-26.273 12.652-34.71 24.266L459 176.979c3.45 7.683 4.267 13.451 13.037 15.249 6.852 1.4 13.974.293 20.783-.808 11.413-1.845 22.9-3.709 33.788-7.608 8.482-3.038 20.191-8.078 25.617-15.733 4.657-6.571 1.876-16.894 1.723-24.705z" transform="translate(-405.063 -95.89)" fill="#c69c6d"/><path id="Path_465" data-name="Path 465" d="M567.411 265.76a12.963 12.963.0 0 1 .04 5.917 9.784 9.784.0 0 1-2.329 3.556c-9.071 9.833-21.478 14-33.736 17.18-9.407 2.438-26.033 5.713-33.8-3.854-4.533-5.585-7.1-17.107-9.515-24q-4.514-12.867-7.935-26.1c.622 2.411 19.641.571 21.825.306a112.2 112.2.0 0 0 21.168-4.888c12.9-4.2 25.113-10.7 38.151-14.282 2.21 6.008 1.182 12.928 2.155 19.232C564.818 247.8 565.964 256.8 567.411 265.76z" transform="translate(-411.96 -115.101)" fill="#c79d6e" opacity=".31"/></g><path id="Path_466" data-name="Path 466" d="M526.343 1004.53l4.313 10.614 9.922 6.633s6.177 12.664 2.977 16.222-62.185 29.909-62.185 29.909l-9.232-7.478 1.835-12 27.774-24.923 7.287-15.842z" transform="translate(-224.388 -199.077)" fill="#998675"/><path id="Path_467" data-name="Path 467" d="M375.165 1024.651l2.11 11.263 8.294 8.508s3.515 13.65-.262 16.481-65.793 16.64-65.793 16.64l-7.465-9.195 4.09-11.371 31.62-18.75 10.093-14.024z" transform="translate(-199.14 -202.132)" fill="#998675"/><path id="Path_468" data-name="Path 468" d="M453.023 722.242c-1.824 12.731-3.445 24.27.12 38.827 3.507 14.318 10.46 27.5 16.759 40.819 21.8 46.1 36.276 95.267 50.664 144.2q-24.8 8.92-49.985 16.7c-2.854.882-6.121 1.711-8.681.166s-3.362-4.841-3.927-7.79C451.109 919.357 440 884.419 428.722 849.8c-5.557-17.05-10.678-31.513-19.293-46.953-8.56-15.341-13.205-32.547-17.232-49.54-9.863-41.619-14.008-84.189-24.35-125.641-1.876-7.518-3.636-15.679-.615-22.812 3.632-8.575 13.032-13.02 21.906-15.777 24.4-7.579 53.116-12.288 63.524 17 3.469 9.763 3.886 20.317 4.067 30.679.416 23.741.348 47.866-1.932 71.522C454.323 713.2 453.661 717.792 453.023 722.242z" transform="translate(-207.586 -133.67)" fill="#667482"/><path id="Path_469" data-name="Path 469" d="M356.972 739.764c-4.044 12.341-7.674 23.53-6.368 38.463 1.285 14.687 6.375 28.75 10.757 42.856C376.523 869.9 383.487 920.691 390.4 971.24q-27.51 5.224-55.236 9.266c-3.143.458-6.709.8-9.136-1.1s-2.717-5.282-2.817-8.284c-1.509-45.369-2.652-90.917-10.313-135.653-2.931-17.121-6.811-34.08-9.5-51.239-5.241-33.417-5.9-67.331-5.151-101.122.463-20.812-7.493-64.47 12.007-79 8.828-6.576 20.619-8.6 31.765-8.018 5.685.3 11.425 1.247 16.453 3.718 9.688 4.762 15.548 14.7 17.555 24.875s.68 20.683-.863 30.97c-3.535 23.567-7.642 47.445-13.99 70.537C359.849 731 358.385 735.451 356.972 739.764z" transform="translate(-196.77 -135.634)" fill="#667482"/><g id="Group_178" data-name="Group 178" transform="translate(39.605 59.396)"><path id="Path_470" data-name="Path 470" d="M364.117 303.056c14.932 4.624 27.645 14.11 35.283 30.888 34.494 75.779 44.568 160.074 54.22 242.81.659 5.645 1.114 12.013-2.552 16.348-4.151 4.905-11.553 4.915-17.959 4.589a904.161 904.161.0 0 0-151.134 4.986q-16.815-89.77-25.177-180.86c-1.5-16.392-2.795-32.968-.454-49.261 5.226-36.374 21.925-65.423 60.147-71.37C332.705 298.662 349.478 298.523 364.117 303.056z" transform="translate(-229.757 -148.976)" fill="#9299a2"/><g id="Group_172" data-name="Group 172" transform="translate(16.854)"><path id="Path_471" data-name="Path 471" d="M264.42 224.522c1.786 10.278 3.881 21.194 11.032 28.772 6.093 6.455 14.9 9.439 22.3 14.342 4.5 2.987 8.681 7.279 10.62 12.416 1.914 5.072.179 10.207 1.464 15.435a3.149 3.149.0 0 0 .6 1.371 2.775 2.775.0 0 0 1.4.746c2.665.716 5.484.087 8.171-.543 3.174-.744 6.737-1.153 9.786-2.3 3.987-1.493 2.953-2.124 2.336-6.415a83.44 83.44.0 0 1-1-19.35c1.2-13.337 7.528-26.007 6.94-39.539-.649-14.973-8.152-28-15.93-40.51-3.48-5.6-7.186-11.266-12.513-15.138-11.7-8.51-33.956-6.77-41.579 6.637C258.986 196.386 261.388 207.081 264.42 224.522z" transform="translate(-247.657 -128.66)" fill="#fee4d6"/><path id="Path_472" data-name="Path 472" d="M263.372 217.307a32.652 32.652.0 0 0 4.994 32.753c-9-3.542-14.935-12.283-18.716-21.211a57.468 57.468.0 0 1-4.339-15.347c-2.046-16.72 7.218-34.856 22.892-40.914 10.367-4.006 13.6 9.7 11.023 17.361C275.833 200.033 267.422 207.556 263.372 217.307z" transform="translate(-245.03 -129.166)" fill="#8c6239"/><path id="Path_473" data-name="Path 473" d="M284.987 152.939c5.311-4.324 12.2-6.159 18.966-7.186 9.267-1.407 28.18-3.115 40.592 1.073 2.961-14.512 18.161-28.6 32.595-24.917 8.453 2.157 13.762 9.99 11.914 17.577a14.137 14.137.0 0 1-2.625 5.416 38.973 38.973.0 0 0-3.356 4.114c-3.265 5.63 2.326 11.16 6.776 15.57a56.283 56.283.0 0 1 11.8 16.9c1.567 3.494 2.756 7.29 1.908 11.132a11.56 11.56.0 0 1-8.769 8.592c-8.235 1.609-11.544-4.958-13.481-11.185-2.23-7.171-4.984-13.27-9.9-19.266-1.8-2.2-4.081-4.42-6.916-4.49a5.98 5.98.0 0 0-1.58.183 45.436 45.436.0 0 1 6.374 18.592c1.354 13.955-.475 28.32-6.123 41.145s-15.217 24.029-27.44 30.834c-2.916-8.086 4.318-16.483 3.943-25.073-.2-4.65-2.678-8.966-5.925-12.29s-7.243-5.8-11.2-8.241L302.1 198.792c-5.558-3.433-11.171-6.908-15.812-11.511C276.844 177.915 273.451 162.333 284.987 152.939z" transform="translate(-250.178 -121.316)" fill="#8c6239"/></g><g id="Group_177" data-name="Group 177" transform="translate(0 87.305)"><path id="Path_474" data-name="Path 474" d="M262.792 225.625c.667-1.879 3.384-.72 2.866 1.192-3.348 12.359-4.361 33.094 9.508 39.217a6.073 6.073.0 0 1 .935-.992c1.68-1.345 2.836-.1 4.645 1.15.225.155.47.353.477.627a.886.886.0 0 1-.159.453q-1.435 2.5-2.871 5.006a.326.326.0 0 1-.5.18l-2.863-1.081a2.144 2.144.0 0 1-1.284-2.642C256.749 254.921 258.6 237.448 262.792 225.625z" transform="translate(-230.524 -224.671)" fill="#1a1a1a"/><g id="Group_173" data-name="Group 173" transform="translate(33.077 10.587)"><path id="Path_475" data-name="Path 475" d="M335.837 260.394c-3.813-.714-7.656-.581-11.355-2.945a26.236 26.236.0 0 1-8.3-8.966 42.361 42.361.0 0 0-3.749-6.092c-4.279-5.084-11.923-6.159-18.321-4.4a17.2 17.2.0 0 0-8.793 5.223c-5.022 6.03-3.665 15.545-8.468 21.752-3.408 4.405-9.527 6.574-11.69 11.71-1.19 2.826-.922 6.032-.572 9.08.372 3.236.857 6.582 2.615 9.32 3.3 5.14 8.682 5.817 14.2 6.3a104.437 104.437.0 0 0 19.3-.039 124.989 124.989.0 0 0 39.629-10.572c7.849-3.567 9.351-11.962 7.709-19.658a12.669 12.669.0 0 0-4.057-7.141 19.636 19.636.0 0 0-8.153-3.573z" transform="translate(-264.291 -237.203)" fill="#333"/><path id="Path_476" data-name="Path 476" d="M267.728 287.923a93.27 93.27.0 0 0 19.451-20.687c3.376-4.869 6.563-8.756 12.99-8.894s11.815 3.809 16.468 7.775c8.8 7.5 17.08 12.639 29.149 11.417 1.981-.2 2.41 2.88.419 3.082a35.49 35.49.0 0 1-18.424-2.635c-6.486-2.918-10.965-8.337-16.687-12.34-6.038-4.224-13.535-6.231-19.122.089-2.32 2.625-4.015 5.952-6.175 8.717a92.207 92.207.0 0 1-16.156 15.925A1.555 1.555.0 0 1 267.728 287.923z" transform="translate(-264.74 -240.486)" fill="#fff" opacity=".22"/></g><path id="Path_477" data-name="Path 477" d="M340.721 263.761a4.956 4.956.0 0 1 2.628-1.194 3.425 3.425.0 0 1 1.523.2c7.455-8.279 9.268-18.965 8.082-29.8-.216-1.97 2.807-2.68 3.025-.693 1.327 12.138-.747 23.739-9.146 32.945-.012.014-.024.021-.036.033.008.042.022.084.03.127 1.2 6.112-3.817 3.833-6.34.893a1.938 1.938.0 0 1-.574-1.167A1.858 1.858.0 0 1 340.721 263.761z" transform="translate(-243.14 -225.668)" fill="#1a1a1a"/><g id="Group_176" data-name="Group 176" transform="translate(0 31.143)"><g id="Group_174" data-name="Group 174" transform="translate(0 18.551)"><path id="Path_478" data-name="Path 478" d="M273.5 302.325c-1.871 2.025-6.269 2.349-8.529 2.891-.6.144-7.508 2.13-7.754 1.622-1.736-3.973-2.043-8.031-3.027-12.256.047.2 9.63-2.72 10.587-2.968 2.935-.761 6.3-1.14 8.2 1.9a11.477 11.477.0 0 1 1.308 4.729 7 7 0 0 1-.032 2.768A3.22 3.22.0 0 1 273.5 302.325z" transform="translate(-229.62 -284.677)" fill="#1a1a1a"/><path id="Path_479" data-name="Path 479" d="M248.234 283.61l-20.414 5.239c-4 1.028-2.607 7.743-2.389 10.434a59.924 59.924.0 0 0 2.623 13.309c1.012 3.176 3.479 13.646 8.948 12.242l20.414-5.239c5.2-1.335 1.778-10.68 1.053-13.957a138.466 138.466.0 0 0-3.927-14.151C253.664 288.866 252.178 282.6 248.234 283.61z" transform="translate(-225.02 -283.5)" fill="#333"/></g><g id="Group_175" data-name="Group 175" transform="translate(107.556)"><path id="Path_480" data-name="Path 480" d="M354.834 286.323c2.344 1.447 6.668.576 8.991.49.618-.023 7.8.032 7.9-.523.61-4.294-.18-8.287-.363-12.622.008.206-10-.03-10.992-.011-3.031.057-6.377.6-7.389 4.038a11.464 11.464.0 0 0 .006 4.907 6.979 6.979.0 0 0 .772 2.658A3.205 3.205.0 0 0 354.834 286.323z" transform="translate(-352.715 -263.421)" fill="#1a1a1a"/><path id="Path_481" data-name="Path 481" d="M372.516 261.985l21.067-.445c4.131-.088 4.583 6.757 5.092 9.408a59.951 59.951.0 0 1 1.033 13.527c-.124 3.332.3 14.082-5.344 14.2l-21.067.446c-5.37.113-4.57-9.81-4.748-13.163a138.706 138.706.0 0 1 0-14.689C368.692 268.51 368.446 262.071 372.516 261.985z" transform="translate(-355.181 -261.539)" fill="#333"/></g><path id="Path_482" data-name="Path 482" d="M400.055 293.525c-1.534 1.139-2.44-.473-2.746-1.816-1.166-5.126-.859-10.473-.232-15.694a4.669 4.669.0 0 1 .494-1.856 1.622 1.622.0 0 1 1.6-.858c.9.171 1.274 1.236 1.455 2.136a45.189 45.189.0 0 1 .855 10.331c-.047 1.446-.007 2.852-.008 4.273A4.476 4.476.0 0 1 400.055 293.525z" transform="translate(-252.068 -263.362)" fill="#932c2a"/><path id="Path_483" data-name="Path 483" d="M229.182 300.551c1.272-1.427 2.485-.032 3.055 1.221 2.176 4.784 2.953 10.082 3.392 15.322a4.673 4.673.0 0 1-.109 1.917 1.626 1.626.0 0 1-1.391 1.165c-.916.015-1.5-.952-1.856-1.8a45.186 45.186.0 0 1-2.92-9.944c-.245-1.425-.569-2.793-.854-4.186A4.479 4.479.0 0 1 229.182 300.551z" transform="translate(-225.55 -267.504)" fill="#932c2a"/></g></g></g><path id="Path_484" data-name="Path 484" d="M474.931 87.675c-5.1-18.987-23.056-29.993-41.284-33.734-19.247-3.949-40-3.315-59.483-1.6-37.3 3.278-74.713 13.822-106.176 34.654a170.315 170.315.0 0 0-41.783 39.165c-13.256 17.474-23.811 37.215-32.858 57.164-8.906 19.641-15.877 40.751-15.317 62.582a99.8 99.8.0 0 0 20.785 58.449c14.047 17.993 35.005 27.519 57.724 22.446 22.025-4.918 38.845-22.241 47.976-42.311 2.234-4.909-5.023-9.207-7.273-4.263-7.457 16.39-20.041 31.127-37.532 36.933-18.746 6.222-37.328.7-50.605-13.659-13.03-14.091-20.836-33.386-22.375-52.455-1.632-20.229 3.843-40.124 11.732-58.573 15.027-35.143 35.326-70.088 66.508-93.1 27.539-20.324 60.555-31.834 94.178-36.833A267.694 267.694.0 0 1 417.8 60.319c19.49 1.428 43.25 8.166 49.011 29.6C468.219 95.163 476.346 92.938 474.931 87.675z" transform="translate(-177.999 -51)" fill="#667482"/><path id="Path_485" data-name="Path 485" d="M474.9 300.035c12.755 1.127 24.1 7.227 31.432 20.553 9.271 16.863 17.18 60.779 42.465 30.562 4.741-5.667 2.193-14.259-1.073-20.892a145.4 145.4.0 0 0-23.936-34.744c-4.285-4.606-9-9.024-14.79-11.478-5.181-2.2-10.908-2.688-16.53-2.869a168.278 168.278.0 0 0-53.163 6.846c-19.591 5.811-41.206 20.333-54.018 36.487a88.545 88.545.0 0 0-16.6 32.948c-.821 3.256-5.215 33.213-.211 33.729 24.291 2.506 20.409-35.584 29.768-50.3C412.121 319.054 446.9 297.562 474.9 300.035z" transform="translate(-207.667 -86.73)" fill="#667482"/><path id="Path_486" data-name="Path 486" d="M532.91 351.326c35.591-13.214 67.092-35.188 94.2-60.852 6.47-6.125 13.055-13.159 13.913-21.815 11.334-2.326 21.867 8.831 22.254 19.885s-6.328 21.157-13.734 29.666c-28 32.168-68.818 52.319-111.07 63.442S452.13 395.6 408.4 398.376c1.769-.112 5.964-28.905 10.641-32.864 7.895-6.683 19.026-2.672 28.4-1.878C476.441 366.092 505.837 361.377 532.91 351.326z" transform="translate(-214.335 -84.753)" fill="#667482"/><g id="Group_181" data-name="Group 181" transform="translate(13.073 254.75)"><g id="Group_179" data-name="Group 179" transform="translate(0 65.598)"><path id="Path_487" data-name="Path 487" d="M242.071 435.917l-14.483 2.127-10.357-7.8-2.757 1.316 1.538 3.449-10.438-4.059-8.58 2.793-3.475 11.4 4.5 11.568 11.833 2.356 13.514-4.538 19.963-2.059z" transform="translate(-193.519 -430.242)" fill="#fee4d6"/></g><g id="Group_180" data-name="Group 180" transform="translate(37.614)"><path id="Path_488" data-name="Path 488" d="M240.112 422.569q-.871-5.721-1.936-11.409c20.325-2.268 40.783-4.232 61.046-6.238 16.371-1.62 35.55-6.161 49.318-15.449 14.631-9.87 40.334-54.237 59.867-29.472 12.487 15.831 1.93 39.864-7.335 54.949-3.99 6.5-9.418 11.962-14.794 17.361-4.316 4.334-8.7 8.724-14.026 11.729-6.248 3.527-13.446 4.952-20.559 5.86-35.889 4.586-66.243 9.115-108.27 4.369Q242.515 438.352 240.112 422.569z" transform="translate(-238.176 -352.583)" fill="#9299a2"/></g></g><path id="Path_489" data-name="Path 489" d="M448.085 621.241c3.106 3.359 6.525 6.788 10.945 7.952 3.571.94 7.344.275 10.973-.407a1699.845 1699.845.0 0 0 212.434-54.275c11.461-3.73 23.271-7.81 32.044-16.093s13.646-21.988 8.229-32.781c-5.873-11.7-14.542-3.538-22.975.826q-13.822 7.152-27.877 13.842-28.1 13.376-57.051 24.864a935.464 935.464.0 0 1-115.884 37.466c-11.388 2.877-29.281 9.192-38.205-.15-6.545-6.851-11.384-15.141-16.139-23.279l-13.067-22.369c-9.894-16.937-19.785-33.985-27.363-52.123a175.9 175.9.0 0 1-9.275-28.2c-.514-2.226-2.385-22.515-3.462-22.8-4.223-1.129-9.929-2.165-14.272-1.184-6.268 1.417-4.363 3.743-3.325 9.9q2.538 15.065 6.138 29.92c5.93 24.346 13.723 47.292 25.552 69.208A292.876 292.876.0 0 0 448.085 621.241z" transform="translate(-208.707 -113.294)" fill="#667482"/></g></g></svg>