<svg xmlns="http://www.w3.org/2000/svg" width="1167.408" height="665.301" viewBox="0 0 1167.408 665.301"><g id="safeFamily" transform="translate(-114.463 -71.771)"><g id="Group_150" data-name="Group 150" transform="translate(114.463 71.771)"><path id="Path_226" data-name="Path 226" d="M750.968 810.579S559.929 631.706 667.515 389.931c51.617-116 189.078-143.217 230.747-119.48 54.942 31.3 127.816-53.255 285.326-111.31 118.386-43.634 386.359 45.334 299.09 318.987-52.937 166 150.838 122.33 119.233 334.477z" transform="translate(-453.097 -148.595)" fill="#fbecdb"/><g id="Group_138" data-name="Group 138" transform="translate(128.711 355.932)"><g id="Group_135" data-name="Group 135" transform="translate(74.644)"><path id="Rectangle_25" data-name="Rectangle 25" d="M0 0h151.652v214.442H0z" transform="translate(10.445 91.478)" fill="#f9ddbf"/><path id="Rectangle_26" data-name="Rectangle 26" d="M0 0h117.807v214.451H0z" transform="translate(162.096 91.478)" fill="#fff3e9"/><path id="Path_227" data-name="Path 227" d="M882.034 885.524 832.346 991.457H681.39l78.7-105.546z" transform="translate(-681.39 -885.523)" fill="#ed9f4a"/><path id="Path_228" data-name="Path 228" d="M894.806 885.524 845.118 991.457H694.162l78.7-105.546z" transform="translate(-688.205 -885.523)" fill="#f9ddbf"/><path id="Path_229" data-name="Path 229" d="M839.865 995.186h-3.171c-10.77.0-19.5 9.041-19.5 20.195V1066.7h41.541v-51.972C858.733 1003.934 850.286 995.186 839.865 995.186z" transform="translate(-753.85 -942.218)" fill="#efcdaf"/><g id="Group_134" data-name="Group 134" transform="translate(78.3)"><path id="Path_230" data-name="Path 230" d="M1067.276 997.332H930.25L849.262 885.521l45.593.01 89.07.016z" transform="translate(-849.262 -885.521)" fill="#ed9f4a"/><path id="Path_231" data-name="Path 231" d="M1119.432 997.343h-25.108l-147.313-111.8 89.07.016z" transform="translate(-901.418 -885.531)" fill="#e58638"/></g></g><g id="Group_137" data-name="Group 137" transform="translate(0 135.521)"><path id="Path_232" data-name="Path 232" d="M664.2 1166.105l-35.376 75.419H521.355l56.031-75.143z" transform="translate(-521.355 -1166.105)" fill="#ed9f4a"/><g id="Group_136" data-name="Group 136" transform="translate(3.22)"><path id="Path_233" data-name="Path 233" d="M671.108 1166.105l-35.375 75.419H528.26l56.031-75.143z" transform="translate(-528.26 -1166.105)" fill="#f9ddbf"/><path id="Path_234" data-name="Path 234" d="M635.5 1322.252v80.77H599.92c-1.191-.182-1.8-.305-1.8-.305a131.437 131.437.0 0 1-39.639-7.629 112.021 112.021.0 0 1-30.221-16.052v-56.782z" transform="translate(-528.262 -1246.834)" fill="#f9ddbf"/><path id="Path_235" data-name="Path 235" d="M848.981 1322.252v65.656q-9.731 2.936-18.8 5.244a376.435 376.435.0 0 1-54.209 9.87H758.174v-80.77z" transform="translate(-650.936 -1246.834)" fill="#fff3e9"/><path id="Path_236" data-name="Path 236" d="M796.7 1246.277H699.145l-57.664-79.6 29.058.005 66.818.015z" transform="translate(-588.672 -1166.398)" fill="#ed9f4a"/><path id="Path_237" data-name="Path 237" d="M638.235 1332.292v64.026h-3.744c-1.191-.182-1.8-.305-1.8-.305a131.435 131.435.0 0 1-39.639-7.629v-55.319a24.087 24.087.0 0 1 7.435-17.516 22.423 22.423.0 0 1 15.527-6.263 21.722 21.722.0 0 1 15.232 6.263A23.309 23.309.0 0 1 638.235 1332.292z" transform="translate(-562.833 -1240.13)" fill="#efcdaf"/><ellipse id="Ellipse_12" data-name="Ellipse 12" cx="5.07" cy="5.25" rx="5.07" ry="5.25" transform="translate(47.741 36.894)" fill="#efcdaf"/><path id="Path_238" data-name="Path 238" d="M829.938 1246.282H811.424l-107.643-79.6 66.818.015z" transform="translate(-621.913 -1166.404)" fill="#e58638"/></g></g></g><path id="Path_239" data-name="Path 239" d="M1123.1 1401.746c-77.836-23.9-172.191-45.86-249.7-26.638s-107.29 45.158-192.409-14.512a120.947 120.947.0 0 0-21.525-12.3c15.029-2.822 35.112-7.749 26.211-12.734-9.281-5.2-24.811 3.687-33.79 9.9-2.247-.712-4.443-1.289-6.6-1.746 20.507-15.205 56.876-43.967 39.959-44.932-16.69-.954-36.867 27.906-46.716 43.875q-2.532-.255-4.995-.3c-.872-8.3-4.079-22.992-15.857-23.908-12.039-.937 2.177 15.266 10.691 24.046-45.828 3.157-76.848 57.031-173.075 23.031-14.782-5.222-30.043-4.906-44.424-1.684-9.049-20.7-35.918-77-58.138-71.142-22.2 5.851 32.782 54.6 53.648 72.248q-3.727 1-7.35 2.225c-12.633-9.646-36.325-25.239-49.861-18.393-13.23 6.692 19.937 16.267 41.526 21.51-28.792 11.827-50.248 31.39-50.248 31.39z" transform="translate(-296.118 -739.886)" fill="#a8d29f"/><path id="Path_240" data-name="Path 240" d="M2525.031 1407.571H2434.5c-4.894-4.251 3.317-13.948 11.913-14.608 3.733-.288 8.438.509 13.817 1.691 1.249-17.143 8.368-94.147 35.17-91.059 30.144 3.475.0 33.919-8.52 51.949-6.312 13.348-12.979 32.508-16.012 41.552 2.448.549 4.976 1.1 7.568 1.587 3.985-12.708 18.855-55.448 37.768-52.96 22.2 2.912 13.275 20.048-2.453 30.222-11.553 7.477-25.736 18.115-32.471 23.248a93.162 93.162.0 0 0 17.72 1.463C2514.544 1400.276 2522.118 1405.031 2525.031 1407.571z" transform="translate(-1412.662 -745.688)" fill="#a8d29f"/><g id="Group_142" data-name="Group 142" transform="translate(558.206 55.881)"><g id="Group_139" data-name="Group 139" transform="translate(67.526 79.382)"><path id="Path_241" data-name="Path 241" d="M1597.152 428.644s21.546 10.555 26.441 9.224 23.494-4.731 26.1-3.533c0 0 2.962 4.892.727 8.11s-20.329 11.923-26.865 12.238-31.348-4.339-36.612-8.6z" transform="translate(-1586.947 -428.644)" fill="#e8945b"/><path id="Path_242" data-name="Path 242" d="M1718.9 439.055s8.308-3.571 11.028.418 4.262 8.031 3.925 10.076-5.947 2.944-8.191 1.355a53.671 53.671.0 0 0-7.8-3.809z" transform="translate(-1656.798 -433.267)" fill="#e8945b"/></g><path id="Path_243" data-name="Path 243" d="M1799.862 1470.371a37.224 37.224.0 0 0-4.686 16.6 3.515 3.515.0 0 0 3.458 3.6h28.592a4.37 4.37.0 0 0 4.129-5.475c-1.331-5.422-4.181-13.614-9.891-18.586C1812.353 1458.577 1799.862 1470.371 1799.862 1470.371z" transform="translate(-1630.526 -884.425)" fill="#163560"/><path id="Path_244" data-name="Path 244" d="M1633.349 1451.707s-1.644 27.451-6.772 27.845c-.682.053-26.014.053-26.014.053H1567.89s.55-8.261 10-9.967 25.272-8.584 31-21.521C1614.914 1434.507 1633.349 1451.707 1633.349 1451.707z" transform="translate(-1509.253 -873.625)" fill="#163560"/><g id="Group_140" data-name="Group 140" transform="translate(74.186 263.805)"><path id="Path_245" data-name="Path 245" d="M1664.824 955.171c-1.143 15.25-1.291 27.288.219 32.995 6.744 25.532-12.153 140.815-12.153 140.815-13.931 6.9-33.714-.073-33.714-.073 1.2-15.969-6.13-158.927-12.953-246.138-2.856-36.614-5-62.232-5-62.232l83.45-10.061S1668.776 902.207 1664.824 955.171z" transform="translate(-1601.225 -810.477)" fill="#2b478b"/><path id="Path_246" data-name="Path 246" d="M1684.675 810.477s-15.9 91.73-19.852 144.694l-58.6-72.4c-2.856-36.614-5-62.232-5-62.232z" transform="translate(-1601.225 -810.477)" fill="#233862"/></g><path id="Path_247" data-name="Path 247" d="M1692.374 838.48s42.242 254.708 49.51 304.029c0 0 15.816 4.573 31.975-2.513.0.0 2.089-118.358-3.44-154.013s2.946-145.875-5.967-156.128S1692.374 838.48 1692.374 838.48z" transform="translate(-1575.674 -555.112)" fill="#2b478b"/><path id="Path_248" data-name="Path 248" d="M1699.208 399.386s-3.241 22.636-1.822 29.4 23.137 10.436 32.221 4.85 6.352-7.661 6.352-7.661-1.387-25.914-2.662-27.762S1699.208 399.386 1699.208 399.386z" transform="translate(-1578.156 -333.218)" fill="#ffb27d"/><path id="Path_249" data-name="Path 249" d="M1647.921 564.744c2.874-28.437 2.137-49.837-.571-65.936-7.933-47.249-32.789-48.823-32.789-48.519.0 6.359-13.21 12.228-23.863 11.5-8.981-.609-14.807-7.678-14.807-11.5.0-.032-.167-.029-.469.0a152.242 152.242.0 0 0-23.049 2.03c-7.3 1.306-14.3 3.453-17.579 6.994-1.695 1.825-7.738 6.941-15.5 13.894-19.771 17.705-50.687 47.341-49.32 65 0 0 38.214 29.059 62.431 10.843-1.319 47.289-9.607 97.378-7.575 97.341.0.0 13.5 12.1 54.511 12.1 22.424.0 38.64-1.989 49.891-4.29 15.329-3.131 21.432-6.831 21.432-6.831C1654.078 647.327 1646.929 574.56 1647.921 564.744z" transform="translate(-1456.984 -360.439)" fill="#f99746"/><path id="Path_250" data-name="Path 250" d="M1758.6 687.43s-6.1 3.7-21.432 6.831c-21.19-9.719-63.25-34.838-64.893-77.016-2.18-56.108 63.968-89.516 63.968-89.516s8.875 5.106 19.043 11.13c2.708 16.1 3.445 37.5.571 65.936C1754.868 614.61 1762.017 687.377 1758.6 687.43z" transform="translate(-1564.923 -400.489)" fill="#ed7d2b"/><path id="Path_251" data-name="Path 251" d="M1700.966 406.565s8.423 12.3 17.33 12.406 18-12.213 18-12.213z" transform="translate(-1580.258 -337.847)" fill="#e8945b"/><path id="Path_252" data-name="Path 252" d="M1693.619 352.829c2.331 1.9 7.544 4.525 11.805 6.26a14.12 14.12.0 0 0 10.1.221c4.915-1.754 12.357-4.5 14.242-5.676 4.46-2.8 4.173-8.467 4.4-16.347.274-9.327 1.182-16.651.176-22.028-1.195-6.432-5.133-10.091-16.158-11.085-20.24-1.819-28.672 3.429-29.025 10.456-.091 1.887-.176 3.686-.235 5.39C1688.113 341.933 1689.785 349.7 1693.619 352.829z" transform="translate(-1573.726 -284.723)" fill="#ffb27d"/><path id="Path_253" data-name="Path 253" d="M1682.712 296.788a8.375 8.375.0 0 1 9.543-3.076c6.229 1.985 6.867 7.5 17.513 6.615s13.2-6.1 15.118-3.491 3.024 18.021 3.024 18.021 21.4-50.538-21.979-50.538c0 0-44.708-2.8-23.219 48.575z" transform="translate(-1567.401 -264.291)" fill="#2c3a64"/><path id="Path_254" data-name="Path 254" d="M1520.4 430.671l.057.034C1520.4 430.731 1520.4 430.671 1520.4 430.671z" transform="translate(-1483.91 -350.31)" fill="#ffb27d"/><path id="Path_255" data-name="Path 255" d="M1635.4 683.626a23.9 23.9.0 0 1-13.98 4.63s-8.469-9.666-15.607-19.015c-4.62-6.054-8.678-11.976-9.518-15.054-2.129-7.823-41.974-10.027-46.854-15.539s19.8-19.34 19.8-19.34 40.45 6.406 46.531 14.635c2.419 3.277 6.021 11.813 9.483 20.906C1630.487 668.6 1635.4 683.626 1635.4 683.626z" transform="translate(-1499.068 -447.836)" fill="#e8945b"/><path id="Path_256" data-name="Path 256" d="M1613.082 498.694s7.667-15.412 11.454-14.965-8.7 31.9-9.84 47.19S1613.082 498.694 1613.082 498.694z" transform="translate(-1533.366 -377.737)" fill="#ed7d2b"/><path id="Path_257" data-name="Path 257" d="M1568.2 671.078A235.738 235.738.0 0 1 1555.1 698.1c-.059.106-.093.163-.093.163h-.124c-1.29-.013-12.4-.265-13.482-4.881.0.0-.358-15.981.256-28.675.277-5.676.745-10.689 1.524-13.335.0.0-60.234-.419-59.174-18.061s32.547-26.978 50.649-17.828c0 0 24 9.031 36.639 20.962C1577.5 642.31 1573.689 657.32 1568.2 671.078z" transform="translate(-1464.49 -444.015)" fill="#ffb27d"/><path id="Path_258" data-name="Path 258" d="M1480.521 605s-8.019 12.206-6.139 23.594 24.762 17.473 40.774 18.2c0 0 45.8-10.868 38.695-29.773C1552.24 612.728 1480.521 605 1480.521 605z" transform="translate(-1459.207 -440.437)" fill="#2b478b"/><g id="Group_141" data-name="Group 141" transform="translate(0 5.52)"><path id="Path_259" data-name="Path 259" d="M1480.12 284.763s-7.274-15.417-24.843-5.99-.464 44.945-9.685 53.822 3.342 14.689 1.471 21.054 3.475 13.6 15.769 12.753 25.241-.165 30.8-11.3 4.292-35.646 2.146-39.091S1480.12 284.763 1480.12 284.763z" transform="translate(-1442.174 -275.721)" fill="#aa443e"/><path id="Path_260" data-name="Path 260" d="M1550.392 427.943l-29.874-18.668c.166-.068.77-1 3-7.693a38.474 38.474.0 0 0 1.7-7.291c.025-.2.05-.385.066-.574a20.676 20.676.0 0 0 .083-4.5l6.544 2.45 12.1 4.54a16.012 16.012.0 0 0 .943 6.948c1.58 3.727 4.525 3.752 4.608 3.752z" transform="translate(-1483.976 -334.4)" fill="#ffb27d"/><path id="Path_261" data-name="Path 261" d="M1549.981 405.781a22.185 22.185.0 0 1-19.74-8.867c-.215-.291-.323-.454-.323-.454l.389-.12c.951-.291 3.532-1.1 6.626-2.047l12.1 4.54A16.012 16.012.0 0 0 1549.981 405.781z" transform="translate(-1488.992 -337.023)" fill="#ed985f"/><path id="Path_262" data-name="Path 262" d="M1543.043 362.365s-25.989 2.956-26.521-15.241-4.374-26.525 13.608-28.146 22.229 5.085 23.289 11.242C1556.728 349.454 1550.364 361.549 1543.043 362.365z" transform="translate(-1481.468 -297.958)" fill="#ffb27d"/><path id="Path_263" data-name="Path 263" d="M1518.359 310.92c-9.2-2.411-5.68 14.461-8 13.306-2.6-1.293-7.068-1.273-6.363 1.977s1.723 4.414 2.253 6.443.0 6.048-2.142 5.239-22.026-24.327-7.984-42.644 55.916-7.033 42.73 12.128C1536.531 310.737 1524.907 312.636 1518.359 310.92z" transform="translate(-1468.3 -281.01)" fill="#aa443e"/><path id="Path_264" data-name="Path 264" d="M1546.625 517.383s-7.809 4.291-20.1 4.089c-7.832-.122-24.467-3.648-35.16-7.645-6.094-2.271-10.262-4.7-9.76-6.739.721-2.938 5.941-25.494 10.765-46.368 4.41-19.086 8.489-36.764 8.489-36.764s12.172 8.955 19.265 5.8 6.183-6.733 6.183-6.733 8.357-1.062 10.624-.785c3.619.441 16.4 5.266 16.4 5.266s1.68 4.89-2.775 12.519c-3.69 6.32-7.28 7.546-7.28 7.546S1553.718 481.666 1546.625 517.383z" transform="translate(-1463.189 -351.445)" fill="#739af0"/><path id="Path_265" data-name="Path 265" d="M1535.825 555.7s7.506-1.451 10.442.539 3.8 5.105 1.69 6.378c-6.625 3.987-13.341-.422-13.341-.422z" transform="translate(-1491.499 -420.206)" fill="#ffb27d"/><path id="Path_266" data-name="Path 266" d="M1491.361 550.446c-6.094-2.271-10.262-4.7-9.76-6.739.721-2.938 5.941-25.494 10.765-46.368 1.424-2.706 2.329-4.321 2.329-4.321S1503.846 536.342 1491.361 550.446z" transform="translate(-1463.189 -388.064)" fill="#4a82d3"/><path id="Path_267" data-name="Path 267" d="M1486.314 430.887s-23.119 5.068-32.236 42.285a11.577 11.577.0 0 0 2.46 10.319c4.193 4.812 13.435 11.847 34.927 14.437 2.347.283 2.662-5.882 2.662-5.882-.234.491-14.6-9.612-20.714-15.042-1.106-.982-1.06-3.043-.261-4.3 2.066-3.266 5.532-8.91 6.7-11.807C1481.55 456.666 1492.776 432.8 1486.314 430.887z" transform="translate(-1448.347 -355.942)" fill="#ffb27d"/><path id="Path_268" data-name="Path 268" d="M1494.7 425.847s-13.593 1-24.676 16.3c0 0 3.751 14.077 21.357 17.835C1491.384 459.985 1502.237 434.639 1494.7 425.847z" transform="translate(-1457.035 -353.337)" fill="#739af0"/></g><path id="Path_269" data-name="Path 269" d="M1633.749 727.589a235.772 235.772.0 0 1-13.091 27.026c-.072.053-.144.106-.217.163-1.29-.013-12.4-.265-13.482-4.881.0.0-.358-15.981.256-28.675C1608.983 722.977 1615.8 728.215 1633.749 727.589z" transform="translate(-1530.044 -500.526)" fill="#ebf2f9"/><path id="Path_270" data-name="Path 270" d="M1700.619 721.67a23.9 23.9.0 0 1-13.98 4.63s-8.469-9.666-15.607-19.015c8.031-3.594 16.513-11.518 19.439-14.392C1695.705 706.646 1700.619 721.67 1700.619 721.67z" transform="translate(-1564.286 -485.88)" fill="#ebf2f9"/><path id="Path_271" data-name="Path 271" d="M1631.7 801.373a2.56 2.56.0 0 1-3.034 2.1 114.452 114.452.0 0 1-11.841-2.974c-3.539-1.334-10.329-5.487-13.868-6.82-1.216-.459-4.141-1.681-6.032-2.478a2.207 2.207.0 0 1-1.233-2.636 47.257 47.257.0 0 1 3.571-9.224 3.284 3.284.0 0 1 1.477-1.357 13.471 13.471.0 0 0 8.6 3.22 18.282 18.282.0 0 0 7.761-1.692c.241.511 5.069 10.592 8.487 11.879C1628.672 792.548 1632.7 795.59 1631.7 801.373z" transform="translate(-1524.043 -529.871)" fill="#aa443e"/><path id="Path_272" data-name="Path 272" d="M1737.08 744.365a2.69 2.69.0 0 1-1.128 3.593 115.887 115.887.0 0 1-11.076 5.259c-3.576 1.223-11.391 2.317-14.967 3.539-1.229.42-4.256 1.336-6.218 1.924a2.092 2.092.0 0 1-2.545-1.279 47.568 47.568.0 0 1-2.713-9.533 3.466 3.466.0 0 1 .349-2.013 13.422 13.422.0 0 0 8.681-2.99 19.365 19.365.0 0 0 5.082-6.306c.494.246 10.314 5.065 13.768 3.884C1729.42 739.381 1734.4 739.186 1737.08 744.365z" transform="translate(-1578.889 -508.456)" fill="#aa443e"/><path id="Path_273" data-name="Path 273" d="M1558.262 656.344s-1.733 10.4-8.266 15.191c0 0-26.525-3.779-51.219-10.248-18.153-4.754-35.323-10.958-40.232-18.186-11.6-17.047 6.068-37.8 6.068-37.8s34.054 17.016 70.923 37.865C1543.086 647.436 1550.746 651.868 1558.262 656.344z" transform="translate(-1448.804 -440.595)" fill="#f99746"/><path id="Path_274" data-name="Path 274" d="M1572.7 742.427s-7.878.663-10.859 3.75-7.5 12.064-4.281 15.623 18.546-4.242 18.972-5.523S1572.7 742.427 1572.7 742.427z" transform="translate(-1503.149 -511.489)" fill="#ffb27d"/><path id="Path_275" data-name="Path 275" d="M1608.8 696.875s-1.733 10.4-8.266 15.191c0 0-26.525-3.779-51.219-10.248 11.608-10.451 26.777-15.654 36.758-18.119C1593.623 687.967 1601.284 692.4 1608.8 696.875z" transform="translate(-1499.341 -481.127)" fill="#ed7d2b"/><path id="Path_276" data-name="Path 276" d="M1718.739 464.2c-5.3-13.042-40.177-13.54-40.177-13.54-17.743 48.214-22.007 79.834-26.7 100.155a9.622 9.622.0 0 0-2.121.0s-24.924 10.071-61.972 37.931c0 0-3.875 11 3.082 20.007.0.0 63.836-14.59 81.665-25.412l.029.005c.179-.117.354-.236.532-.354q.406-.259.776-.516C1731.839 543.463 1726.324 482.859 1718.739 464.2z" transform="translate(-1519.286 -360.644)" fill="#f99746"/></g><g id="Group_144" data-name="Group 144" transform="translate(410.026 152.44)"><path id="Path_277" data-name="Path 277" d="M1536.9 957.647s17.9 6.4 15.381 27.751c0 0-1.653 8.664-6.806 4.822s-2.737-3.134-10.1-8.388-12.162-13.538-11.324-20.119z" transform="translate(-1337.635 -719.318)" fill="#ffb27d"/><path id="Path_278" data-name="Path 278" d="M1427.163 805.244l-10.6 13.32a2.087 2.087.0 0 1-2.037.76c-9.937-1.89-44.14-24.718-55.343-34.034a33.634 33.634.0 0 1-2.771-2.509c-4.177-4.406-18.582-26.152-28.805-45.519-5.886-11.154-10.386-21.518-10.743-27.325-1.274-20.732 9.257-49.723 9.257-49.723 31.154 11.227 34.43 36.984 34.43 36.984l17.271 66.56 48.918 37.861A2.582 2.582.0 0 1 1427.163 805.244z" transform="translate(-1227.074 -565.544)" fill="#739af0"/><path id="Path_279" data-name="Path 279" d="M1370.959 835.268a33.634 33.634.0 0 1-2.771-2.509c-4.177-4.406-18.582-26.152-28.805-45.519-1.323-11.7-.415-22.682 4.243-30.357C1343.626 756.884 1370.109 805.139 1370.959 835.268z" transform="translate(-1238.852 -615.523)" fill="#4a82d3"/><path id="Path_280" data-name="Path 280" d="M1320.924 1304.245l-5.3 22.868-3.277 14.155-10.911 47.117a35.387 35.387.0 0 1-19.046.0 177.667 177.667.0 0 1-3.7-35.038 121.575 121.575.0 0 1 3.716-32 75.157 75.157.0 0 1 4.548-12.514C1302.352 1276.273 1320.924 1304.245 1320.924 1304.245z" transform="translate(-1206.765 -892.732)" fill="#ffb27d"/><path id="Path_281" data-name="Path 281" d="M1329.8 1498.478h-51.275a46.681 46.681.0 0 1 1.448-15.72 27.763 27.763.0 0 1 1.218-3.375s11.448 2.687 21.318.0c0 0 9.282 8.185 14.892 10.693S1329.209 1491.223 1329.8 1498.478z" transform="translate(-1206.601 -989.058)" fill="#2b478b"/><path id="Path_282" data-name="Path 282" d="M1315.628 1353.911l-3.277 14.155a77.327 77.327.0 0 1-33.656 12.079 121.575 121.575.0 0 1 3.716-32c4.716-2.477 9.516-3.774 13.6-3.036C1306.191 1346.946 1312.241 1350.8 1315.628 1353.911z" transform="translate(-1206.765 -919.529)" fill="#e8945b"/><path id="Path_283" data-name="Path 283" d="M1303.17 1502.09h-24.643a46.682 46.682.0 0 1 1.448-15.72C1286.162 1488.365 1298.751 1493.368 1303.17 1502.09z" transform="translate(-1206.601 -992.67)" fill="#1f396d"/><path id="Path_284" data-name="Path 284" d="M1233.294 1304.245l-5.3 22.868-3.277 14.155-10.911 47.117a35.386 35.386.0 0 1-19.046.0 177.661 177.661.0 0 1-3.7-35.038 121.554 121.554.0 0 1 3.716-32 75.082 75.082.0 0 1 4.548-12.514C1214.721 1276.273 1233.294 1304.245 1233.294 1304.245z" transform="translate(-1160.008 -892.732)" fill="#ffb27d"/><path id="Path_285" data-name="Path 285" d="M1193.56 1479.379s11.447 2.69 21.319.0c0 0 9.282 8.188 14.891 10.7s11.809 1.146 12.4 8.4H1190.9S1189.826 1487.878 1193.56 1479.379z" transform="translate(-1159.843 -989.056)" fill="#2b478b"/><path id="Path_286" data-name="Path 286" d="M1228 1353.911l-3.277 14.155a77.322 77.322.0 0 1-33.655 12.079 121.554 121.554.0 0 1 3.716-32c4.716-2.477 9.516-3.774 13.6-3.036C1218.561 1346.946 1224.609 1350.8 1228 1353.911z" transform="translate(-1160.008 -919.529)" fill="#e8945b"/><path id="Path_287" data-name="Path 287" d="M1264.505 1146.782a10.513 10.513.0 0 1-10.088 7.993H1172.2a10.847 10.847.0 0 1-10.593-11.84c.863-11.6 3.945-30.536 5.292-43.325.558-5.315.815-9.566.492-11.785-8.3-56.861-15.265-123.838-14.419-136.641.119-1.8.2-2.733.2-2.733s5.988-.523 15.1-.89c26.477-1.082 79.329-.894 88.11 17.036 8.945 18.264 14.347 139.535 14.347 139.535C1272.037 1115.462 1267.419 1135.616 1264.505 1146.782z" transform="translate(-1139.647 -713.914)" fill="#c65447"/><path id="Path_288" data-name="Path 288" d="M1166.9 11e2c.558-5.315.815-9.566.492-11.785-8.3-56.861-15.265-123.838-14.419-136.641.119-1.8.2-2.733.2-2.733s5.988-.523 15.1-.89c13.7 8.354 22.611 22.589 22.611 22.589S1188.126 1076.95 1166.9 11e2z" transform="translate(-1139.647 -714.306)" fill="#b2443b"/><path id="Path_289" data-name="Path 289" d="M1280.488 464.527c-6.568-1.7-10.383 3.658-10.383 9.968a11.234 11.234.0 0 0 11.033 11.426c6.094.0 11.034-7.311 11.034-13.621S1286.4 466.057 1280.488 464.527z" transform="translate(-1202.182 -464.208)" fill="#b2443b"/><path id="Path_290" data-name="Path 290" d="M1266.548 539.073s-34.215-31.908-3.241-54.5c0 0 9.243-2.551 13.941-1.639.0.0 16.837-5.1 26.688 6.74s14.133 20.4 5.689 30.97S1266.548 539.073 1266.548 539.073z" transform="translate(-1191.633 -473.325)" fill="#c65447"/><path id="Path_291" data-name="Path 291" d="M1180.32 992.463s8.446 17.551-7.79 30.963c0 0-7.04 4.986-8.119-1.493s.166-4.222-1.533-13.309.475-18.483 5.523-22.574z" transform="translate(-1144.665 -734.003)" fill="#ffb27d"/><path id="Path_292" data-name="Path 292" d="M1300.155 591.144s-.421 4.778-1.2 11.234c-.382 3.155-.847 6.713-1.4 10.309-.39 2.582-.823 5.186-1.3 7.676l-10.593 37.047-24.874-41.683s5.846-5.008 13.768-32.15c.075-.289.129-.445.129-.445z" transform="translate(-1197.213 -525.693)" fill="#ffb27d"/><path id="Path_293" data-name="Path 293" d="M1250.831 808.8c.323 4.163-.7 4.92-.7 4.92s-15.3 5.741-53.76 3.756q-6.244-.323-11.744-.66c-24.79-1.514-38.048-3.1-38.048-3.1s-20.3-48.529 17.841-108.32a191.02 191.02.0 0 1 15.3-20.658c6.177-7.3 7.542-17.058 9.88-26.335.669-2.659-1.266-3.247-.3-5.755.0.0 6.957-2.036 7.674-2.036 3.951 3.6 9.162 10.611 22.1 12 8.746.945 12.169-4.159 13.413-7.217 3.334 1.247 6.788 3.4 9.618 4.81 23.439 11.653 25.591 34.25 25.591 34.25s-21.539 73.341-22.876 82.5C1244.22 781.028 1249.162 787.36 1250.831 808.8z" transform="translate(-1133.395 -560.583)" fill="#739af0"/><path id="Path_294" data-name="Path 294" d="M1314.08 602.379c-.381 3.155-1.67 11.79-2.219 15.385-26.34-10.634-22.891-31.357-22.172-34.185.075-.289.129-.445.129-.445S1303.753 593.378 1314.08 602.379z" transform="translate(-1212.342 -525.693)" fill="#e8945b"/><g id="Group_143" data-name="Group 143" transform="translate(76.064 27.354)"><path id="Path_295" data-name="Path 295" d="M1318.88 573.839s-30.422 1.011-30.737-18.617-4.456-32.716 14.954-34.191 23.305 5.949 24.95 12.474S1326.785 573.071 1318.88 573.839z" transform="translate(-1287.561 -520.842)" fill="#ffb27d"/></g><path id="Path_296" data-name="Path 296" d="M1315.794 511.435s-1.909 32.77-39 29.254C1276.8 540.689 1277.587 495.307 1315.794 511.435z" transform="translate(-1205.754 -486.833)" fill="#c65447"/><path id="Path_297" data-name="Path 297" d="M1345.185 521.892s10.392 13.32 15.106 17.568C1360.291 539.461 1371.853 522.283 1345.185 521.892z" transform="translate(-1242.243 -494.031)" fill="#c65447"/><path id="Path_298" data-name="Path 298" d="M1345.185 521.892s9.337 16.328 14.051 20.577c0 0 12.616-20.185-14.051-20.577z" transform="translate(-1242.243 -494.031)" fill="#c65447"/><path id="Path_299" data-name="Path 299" d="M1184.633 875.459c-24.79-1.514-38.048-3.1-38.048-3.1s-20.3-48.529 17.841-108.321C1172.149 782.684 1190.363 832.5 1184.633 875.459z" transform="translate(-1133.395 -619.224)" fill="#4a82d3"/><path id="Path_300" data-name="Path 300" d="M1188.061 650.618s-29.43 6.253-42.542 21.975c-10.046 12.047-21.037 70.948-21.037 80.68.0 9.3 10.324 58.747 16.768 68.227a2.1 2.1.0 0 0 1.968.938l16.574-1.819a2.508 2.508.0 0 0 2.151-2.894l-9.313-62.505 32.688-60.034S1204.592 671.528 1188.061 650.618z" transform="translate(-1124.482 -560.583)" fill="#739af0"/></g><g id="Group_145" data-name="Group 145" transform="translate(499.62 275.178)"><path id="Path_301" data-name="Path 301" d="M1510.493 1481.937a12.829 12.829.0 0 0 8.017 6.285 13.768 13.768.0 0 1 8.313 5.289 3.367 3.367.0 0 1-2.606 5.348h-28.039a4.122 4.122.0 0 1-4.013-4.594c.209-2.151.428-4.656.522-6.577.208-4.193 4.263-7.568 4.263-7.568z" transform="translate(-1410.252 -1112.176)" fill="#2c3a64"/><path id="Path_302" data-name="Path 302" d="M1480.23 1229.928c1.17 22.079-1.738 72.26-1.738 72.26s-1.954 5.6-14.3 6.932a35.784 35.784.0 0 1-12.567-1.063q-3.736-17.82-6.916-34.011c-15.24-77.428-21.185-125.254-21.185-125.254l60.162-14.482s-2.636 43.713-3.411 73.521C1480.035 1217.135 1479.975 1225.087 1480.23 1229.928z" transform="translate(-1373.638 -933.391)" fill="#35488b"/><path id="Path_303" data-name="Path 303" d="M1483.688 1134.31s-2.636 43.713-3.411 73.521l-35.566 66.215c-15.24-77.428-21.185-125.254-21.185-125.254z" transform="translate(-1373.638 -933.391)" fill="#2c3a64"/><path id="Path_304" data-name="Path 304" d="M1366.132 921.349s-23.279-10.973-40.892-1.373-6.845 88.829 18.34 96.508h0S1390.765 1032.106 1366.132 921.349z" transform="translate(-1316.568 -820.544)" fill="#35488b"/><path id="Path_305" data-name="Path 305" d="M1547.354 1032.438a2.79 2.79.0 0 0-.228-.307 41.077 41.077.0 0 1-2.181-4.748h0c4.682-23.739 1.531-37.466 1.531-37.466.556-6.912 4.542-55.194-4.635-77.562-4.427-10.793-11.843-10.811-11.843-10.811s1.738 17.243.591 26.512c-1.053 8.508 6.78 88.24 8.073 101.272-.021.0-.037.0-.044.006l.371 13.25 3.756-.92a2.622 2.622.0 0 0 .469-.172h0a2.705 2.705.0 0 0 1.145-1.037l3.033-4.976a2.887 2.887.0 0 0-.039-3.04zm-7.144-2.149.16-.1-.079.107C1540.28 1030.311 1540.251 1030.3 1540.21 1030.289z" transform="translate(-1430.449 -813.05)" fill="#e8945b"/><path id="Path_306" data-name="Path 306" d="M1405.844 1481.937a12.829 12.829.0 0 0 8.018 6.285 13.767 13.767.0 0 1 8.312 5.289 3.367 3.367.0 0 1-2.605 5.348H1391.53a4.122 4.122.0 0 1-4.013-4.594c.208-2.151.428-4.656.522-6.577.207-4.193 4.263-7.568 4.263-7.568z" transform="translate(-1354.414 -1112.176)" fill="#2c3a64"/><path id="Path_307" data-name="Path 307" d="M1429.979 718.326c-6 0-13.529 2.674-17.571 6.741-4.293 4.321-8.76 4.541-11.94 9.642-3.316 5.317-5.371 10.842-3.7 18.322 1.819 8.171 1.45 16.077 6.406 22.076 2.454 2.969 6.451 3.306 9.238 6.035 5.118 5.009 10.935 6.594 17.571 6.594 12.51.0 20.3-7.674 26.7-17.237 5.13-7.662 4.114-12.826 5.317-19.38C1465.783 730.491 1449.167 718.326 1429.979 718.326z" transform="translate(-1359.043 -718.326)" fill="#35488b"/><path id="Path_308" data-name="Path 308" d="M1473.576 853.72l-23.914 12.656-4.792-17.179a54.024 54.024.0 0 0 4.424-15.685 67.692 67.692.0 0 0 .5-14.141l19.484 10.332a39.454 39.454.0 0 0-.776 4.618 34.755 34.755.0 0 0 .337 10.8A15.074 15.074.0 0 0 1473.576 853.72z" transform="translate(-1385.027 -770.567)" fill="#ffb27d"/><path id="Path_309" data-name="Path 309" d="M1383.424 1146.511s-4.545 62.4-3.533 161.86a36.093 36.093.0 0 0 12.1 3.668c12.351 1.273 15.359-3.8 15.359-3.8s12.631-48.54 15.789-70.411c2.911-20.163 22.029-92.924 22.029-92.924z" transform="translate(-1350.277 -938.87)" fill="#35488b"/><path id="Path_310" data-name="Path 310" d="M1434.956 887.378a74.643 74.643.0 0 0-18.845-5.537c.105 3.56-.8 6.911-6.83 7.728-8.027 1.083-15.2-4.588-18.837-8.445h0v0a124.166 124.166.0 0 0-12.258 2.124 74.854 74.854.0 0 0-10.017 2.938c-3.856 1.469-7.186 3.3-8.963 5.555v0 0c-6.176 7.848-16.336 31.484-16.336 31.484s16.912 6.492 21.18 10.281l.1.845 2.648 22.763-7.884 45.339a7.081 7.081.0 0 0-.106 1.184 6.643 6.643.0 0 0 4.943 6.49s.677.117 1.926.3c8.358 1.216 42.286 5.406 68.887-2.072a13.354 13.354.0 0 0 9.427-14L1439.648 938c2.315-.411 4.986-.848 7.158-1.1a13.017 13.017.0 0 1 3.859-.085S1447.66 892.809 1434.956 887.378z" transform="translate(-1330.6 -802.493)" fill="#f99746"/><path id="Path_311" data-name="Path 311" d="M1402.989 1027.341c-.337 15.82-10.347 34.407-19.089 39.416-1.249-.179-1.926-.3-1.926-.3a6.643 6.643.0 0 1-4.943-6.49 7.081 7.081.0 0 1 .106-1.184l7.884-45.339-2.648-22.763c.128-.4.2-.608.2-.608S1403.583 999.394 1402.989 1027.341z" transform="translate(-1348.829 -858.822)" fill="#ed7d2b"/><path id="Path_312" data-name="Path 312" d="M1554.641 972.52c-2.226.257-7.17 1.1-7.17 1.1l-2.5-23.606S1553.332 966.654 1554.641 972.52z" transform="translate(-1438.435 -838.11)" fill="#ed7d2b"/><path id="Path_313" data-name="Path 313" d="M1380.276 996.634l2.048-11.775c34.677-51.952 37.3-61.272 21.707-84.6-4.466-6.68-12.59-10.855-15.9-11.8a74.854 74.854.0 0 1 10.017-2.938 37.378 37.378.0 0 1 8.665 5.279C1454.4 933.468 1380.276 996.634 1380.276 996.634z" transform="translate(-1350.561 -804.766)" fill="#35488b"/><path id="Path_314" data-name="Path 314" d="M1397.3 973.75c-13.577.972-15.456 15.378-15.456 15.378s-22.786 2.141-26.152 3.692c0 0 1.849-5.18 5.136-13.007-2.971-3.025-12.734-7.525-19.2-9.592-4.931 13.026-6.826 25.92-4.06 38.351a2.937 2.937.0 0 0 2.706 2.315c7.252.35 31.214.226 48.759-14.819l.309-.086c4.2-.258 8.143-4.578 9.657-10.258s1.636-3.943 2.8-7.94S1397.3 973.75 1397.3 973.75z" transform="translate(-1327.094 -848.556)" fill="#ffb27d"/><path id="Path_315" data-name="Path 315" d="M1473.9 860.254c-11.079-.307-19.541-11.6-19.541-11.6l19.2.809A34.755 34.755.0 0 0 1473.9 860.254z" transform="translate(-1390.088 -785.703)" fill="#e8945b"/><path id="Path_316" data-name="Path 316" d="M1469.888 811.159s-24.48 3.089-25-14.769 9.681-29.427 16.492-29.3c13.58.264 15.82 5.947 17.4 11.864S1481.158 809.9 1469.888 811.159z" transform="translate(-1385.025 -743.539)" fill="#ffb27d"/><path id="Path_317" data-name="Path 317" d="M1484.474 835.4s.533 2.227 5.894 1.816c0 0 4.5-.343 4.335-2.8C1494.7 834.423 1490.317 832.73 1484.474 835.4z" transform="translate(-1406.158 -778.075)" fill="#fff"/><path id="Path_318" data-name="Path 318" d="M1461.219 766.328s-20.92-.014-16.113 14.859c3.03 9.374-7.045 10.831-7.045 10.831l-4.848-15.025 3.037-11.7z" transform="translate(-1378.807 -742.606)" fill="#35488b"/></g><g id="Group_147" data-name="Group 147" transform="translate(704.102 120.066)"><path id="Path_319" data-name="Path 319" d="M1917.151 634.993c-5.212-8.964-8.448-48.982-12.21-59.7-2.377-6.775-8.744-14.872-8.072-15.375-6.774-4.136-25.1-6.125-25.1-6.125s0 .027.0.04c-.715-.155-1.427-.309-2.111-.45-2.2-.459-4.271-1.786-4.519-4.092-.008-.114-.021-.234-.034-.349a74.98 74.98.0 0 1-.307-8.246.447.447.0 0 1 0-.105c.06-4.105.362-7.152.362-7.152l-.073-.009-23.761-3.955c-.324 7.682-.754 13.4-1.209 17.665a6.619 6.619.0 0 1-6.073 6c-.472.026-.954.057-1.431.092v0s-15.318-.617-21.177 1.235a9.339 9.339.0 0 0-1.49.639c.355.386-56.409 59.3-54.945 66.124s26.372 45.568 35.4 52.707h9.039s-20.035-47.315-20.294-51.151c-.381-5.616 50.377-37.043 50.377-42.772.0-2.083 14.151-2.713 23.406-2.64 9.8.078 28.257-5.223 28.257-5.223s7.979 62.607 18.062 81.178c7.952 14.643 43.075 52.164 43.075 52.164l7.408-6.8S1929.775 656.7 1917.151 634.993z" transform="translate(-1754.967 -465.577)" fill="#ffb27d"/><path id="Path_320" data-name="Path 320" d="M1864.556 1044.342c4.288 43.73-.907 100.993-.907 100.993H1849.1c-21.973-59.842-22.633-97.385-23.885-111.483-.681-7.682-10.7-38.386-19.686-67.917-7.512-24.658-14.3-48.5-14.346-57.434-.1-20.473 19.6-53.312 19.6-53.312s28.305 11.306 45.773 22.476c5.83 3.73 10.292 7.377 11.817 10.468 4.049 8.224 7.051 66.924-3.727 102.783-6.486 21.589-3.164 32.662-3.164 32.662A188.928 188.928.0 0 1 1864.556 1044.342z" transform="translate(-1774.29 -633.972)" fill="#c65447"/><path id="Path_321" data-name="Path 321" d="M1864.646 990.915c-6.486 21.589-3.164 32.662-3.164 32.662a188.928 188.928.0 0 1 3.074 20.765l-59.028-78.407c-7.512-24.658-14.3-48.5-14.346-57.434-.1-20.473 19.6-53.312 19.6-53.312s28.305 11.306 45.773 22.476c5.83 3.73 10.292 7.377 11.817 10.468C1872.422 896.356 1875.424 955.057 1864.646 990.915z" transform="translate(-1774.29 -633.972)" fill="#b2443b"/><path id="Path_322" data-name="Path 322" d="M1871.69 1455.912s-.824 9.828-2.044 11.85-6.346 8.847-12.2 11.121-22.618 1.1-23.919 7.4h59.068s.813-9.452-1.465-15.672-4.882-14.7-4.882-14.7z" transform="translate(-1796.882 -944.549)" fill="#2b478b"/><path id="Path_323" data-name="Path 323" d="M2108.248 1448.718s6.6 9.348 8.232 13.054 12.364 19.4 11.065 19.534-29.94.0-29.94.0-2.929-7.4-2.6-12.458-3.905-14.651-3.092-20.131S2108.248 1448.718 2108.248 1448.718z" transform="translate(-1934.695 -939.57)" fill="#2b478b"/><path id="Path_324" data-name="Path 324" d="M2006.437 1140.144H1990.1s-63.709-95.372-65.9-119.621c-2.738-30.324-23.2-150.021-23.2-150.021l65.354-21.069s5.711 15.21 10.5 30.547c2.085 6.688 3.993 13.4 5.18 18.885 2.617 12.107-4.75 57.855-9.778 90.379-2.485 16.019-4.4 28.833-4.272 32.837C1968.361 1034.212 1989.84 1035.784 2006.437 1140.144z" transform="translate(-1832.884 -630.997)" fill="#c65447"/><path id="Path_325" data-name="Path 325" d="M1939.275 543.218c-.035.611-.071 1.207-.111 1.782C1939.2 544.425 1939.24 543.829 1939.275 543.218z" transform="translate(-1853.249 -472.683)" fill="#2b478b"/><path id="Path_326" data-name="Path 326" d="M1939.582 537.99q-.047.979-.1 1.913C1939.515 539.28 1939.546 538.643 1939.582 537.99z" transform="translate(-1853.418 -469.98)" fill="#2b478b"/><path id="Path_327" data-name="Path 327" d="M1940.044 529.474c-.02.48-.04.952-.064 1.416q.03-.695.06-1.416z" transform="translate(-1853.685 -465.577)" fill="#2b478b"/><path id="Path_328" data-name="Path 328" d="M1936.573 727.383c2.129 6.631-28.621 10.506-62.748 10.038a107.861 107.861.0 0 1-25.992-3.33c-15.621-4.183-24.217-11.8-17.358-19.867 1.951-2.3 23.582-34.351 23.582-34.351 1.276-2.869-.107-12.275-6.712-34.625-2.7-9.139.821-14.825 2.082-18.45a.012.012.0 0 1 0-.008c.432-1.261.6-2.271.135-3.1a75.685 75.685.0 0 0-11.081-14.451 110.92 110.92.0 0 0-9.269-8.745s12.667-14.295 19.748-17.969c7.295 7.92 23.117 22.108 42.988 22.269 17.143.135 33.8-9.866 43.94-17.452a7.106 7.106.0 0 1 1.8 1.474c6.335 7.7 8.143 21.587 8.143 21.587s-20.39 11.651-20.025 15.445c1.012 10.453 1.966 13.51 1.522 17.242v.037a26.147 26.147.0 0 1-1.054 4.545c-3.477 11.311-11.006 28.779-9.127 34.663C1917.638 683.865 1933.52 717.863 1936.573 727.383z" transform="translate(-1793.984 -493.007)" fill="#2b478b"/><path id="Path_329" data-name="Path 329" d="M1876.03 580.9c.329-.1.686-.2 1.07-.287-.384.091-.745.189-1.075.292z" transform="translate(-1819.561 -492.014)" fill="#ffb27d"/><path id="Path_330" data-name="Path 330" d="M1993.505 575.322a5.627 5.627.0 0 0 1.828 1.252A5.6 5.6.0 0 1 1993.505 575.322z" transform="translate(-1882.245 -489.281)" fill="#ffb27d"/><path id="Path_331" data-name="Path 331" d="M1997.424 577.915a8.016 8.016.0 0 0 .785.3A6.528 6.528.0 0 1 1997.424 577.915z" transform="translate(-1884.335 -490.621)" fill="#ffb27d"/><path id="Path_332" data-name="Path 332" d="M2163.723 879.81s12.489 3.348 14.2 5.154 6.6 15.83 4.882 15.96c-8.95.675-13.669-4.3-13.669-4.3-5.411-6.166-13.495-7.15-13.093-11.663S2163.723 879.81 2163.723 879.81z" transform="translate(-1968.961 -646.702)" fill="#ffb27d"/><path id="Path_333" data-name="Path 333" d="M1820.586 828.565s-9.043 11.828-9.043 13.977 1.831 11.12 4.028 11.246 2.929-7.329 4.637-8.719 7.811-4 8.665-6.424.752-10.079.752-10.079z" transform="translate(-1785.155 -620.208)" fill="#ffb27d"/><path id="Path_334" data-name="Path 334" d="M1937.694 546.137c11.225-1.495 24.89-12.951 24.89-12.951-7.976-4.48-14.9-4.913-20.27-3.373a19.788 19.788.0 0 0-3.581 1.407z" transform="translate(-1852.465 -465.336)" fill="#e8945b"/><g id="Group_146" data-name="Group 146" transform="translate(77.879 22.213)"><path id="Path_335" data-name="Path 335" d="M1925.219 490.492s27.763 9.594 33.268-8.4 12.794-28.877-4.7-35.764-23.055-1.155-26.3 4.388S1918.138 487.532 1925.219 490.492z" transform="translate(-1921.937 -443.17)" fill="#ffb27d"/><path id="Path_336" data-name="Path 336" d="M1938.85 521.062s-1.024 2.088-6.266.4c0 0-4.4-1.413-3.692-3.813C1928.893 517.653 1933.632 517.013 1938.85 521.062z" transform="translate(-1925.607 -481.659)" fill="#fff"/></g><path id="Path_337" data-name="Path 337" d="M2002.916 424.465c-3.11-4.137 7.1-12.668-13.641-22.924-15.731-7.779-20.606 4-22.044 10.151-9.354-5.528-24.621-21.452-34.358-11.078-11.658 12.42.987 23.353.987 23.353 4.422 3.335 6.57 2.413 13.033 3.883s2.335 9.216 2.84 11.828 4.917 7.894 10.894 5.226 5.291 7.53-.392 9.628c-1.62.6-3.3 9.974-.954 10.37 1.973.332 9.1.4 9.822-5.618.43-3.574 4.815-5.44 9.463-9.131 3.217 3.168 7.74 4.785 10.234 4.415 3.673-.545 3.712-3.6 11.581-9.034S2006.026 428.6 2002.916 424.465z" transform="translate(-1847.259 -397.181)" fill="#c65447"/><path id="Path_338" data-name="Path 338" d="M1847.832 838.29c-15.62-4.185-24.217-11.8-17.357-19.87 1.951-2.293 23.583-34.351 23.583-34.351S1859.853 820.269 1847.832 838.29z" transform="translate(-1793.983 -597.204)" fill="#233862"/></g><g id="Group_149" data-name="Group 149" transform="translate(816.342 131.845)"><g id="Group_148" data-name="Group 148" transform="translate(5.024 251.943)"><path id="Path_339" data-name="Path 339" d="M2044.229 1221.242l-2.337-259.368s-2.021-18.68-17.757-18.68c-16.793.0-17.756 18.68-17.756 18.68a1.938 1.938.0 0 0 1.964 1.615 2.059 2.059.0 0 0 2.1-1.615s.743-14.4 13.69-14.4c12.133.0 13.69 14.4 13.69 14.4v259.368z" transform="translate(-2006.378 -943.194)" fill="#233862"/><path id="Path_340" data-name="Path 340" d="M2069.17 1504.89h10.443l-.931-11.309s.09-1.571-2.021-1.66c-1.961-.083-5.833-.373-6.2.855C2070.138 1493.855 2069.17 1504.89 2069.17 1504.89z" transform="translate(-2039.882 -1226.842)" fill="#233862"/></g><path id="Path_341" data-name="Path 341" d="M2018.258 914.737l-.713 3.709s-17.709-.07-21.849 19.582c0 0-1.124 8.177 4.57 6.432s4.807-5.918 12.868-8.2 13.315-4.037 14.538-10.114l1.318-6.762z" transform="translate(-1995.606 -676.539)" fill="#ffb27d"/><path id="Path_342" data-name="Path 342" d="M2105.3 581.784s-4.684 19.085-8.725 36.534c-1.627 7.029-3.147 13.789-4.22 18.93-1.094 5.284-1.716 8.86-1.478 9.256 3.513 5.905-2.9 41.91-7.98 54.984-.447 1.16-1.065 2.518-1.805 4.026-7.1 14.41-26 42.693-26 42.693s-5.331.578-8.819-.785c-2.909-1.142-4.9-4.825-4.9-4.825 1.69-2.817 8.529-36.092 17.327-54.749 3.764-7.981 9.308-82.031 16.6-92C2081.384 587.53 2105.3 581.784 2105.3 581.784z" transform="translate(-2020.028 -504.4)" fill="#f99746"/><path id="Path_343" data-name="Path 343" d="M2133.816 698.561c3.513 5.905-2.9 41.91-7.98 54.984-.448 1.16-1.065 2.518-1.806 4.026-6.783-31.075 4.458-75.1 4.458-75.1C2131.3 683.626 2133.577 698.165 2133.816 698.561z" transform="translate(-2062.969 -556.459)" fill="#ed7d2b"/><path id="Path_344" data-name="Path 344" d="M2181.941 1450.839s1.8 28.124-3.324 28.517c-.682.053-26.013.053-26.013.053H2119.93s.55-8.261 10-9.967 25.272-8.584 31-21.52C2166.954 1434.311 2181.941 1450.839 2181.941 1450.839z" transform="translate(-2061.942 -949.418)" fill="#0f2949"/><path id="Path_345" data-name="Path 345" d="M2287.3 1450.839s1.8 28.124-3.324 28.517c-.682.053-26.013.053-26.013.053h-32.674s.55-8.261 10-9.967 25.272-8.584 31-21.52C2272.316 1434.311 2287.3 1450.839 2287.3 1450.839z" transform="translate(-2118.16 -949.418)" fill="#163560"/><path id="Path_346" data-name="Path 346" d="M2192.1 1093.645c.805 11.893 2.443 27.185 1.86 40.97-.817 19.275-1.407 35.529-1.407 35.529-12.273 4.321-34.789-.921-34.789-.921s-7.987-48.71-14.566-87.594c-2.952-17.422-5.4-32.494-6.315-39.611-2.96-23 3.151-145.318 3.151-145.318s33.207-22.039 46.927-10.675 22.161 22.463.055 146.922C2185.343 1042.388 2190.3 1067.007 2192.1 1093.645z" transform="translate(-2070.558 -660.011)" fill="#2b478b"/><path id="Path_347" data-name="Path 347" d="M2192.1 1093.645c.805 11.893 2.286 30.925 1.7 44.709-11.544-12.651-34.3-39.343-50.6-56.725-2.952-17.422-5.4-32.494-6.315-39.611-2.96-23 3.151-145.318 3.151-145.318s33.207-22.039 46.927-10.675 22.161 22.463.055 146.922C2185.343 1042.388 2190.3 1067.007 2192.1 1093.645z" transform="translate(-2070.558 -660.011)" fill="#233862"/><path id="Path_348" data-name="Path 348" d="M2208.906 898.7s2.983 122.439 7.642 145.141 28.98 126.622 28.98 126.622 22.8 2.15 34.711-3.135c0 0-.759-48.129-4.8-76.406-3.776-26.417-10.549-50.569-9.578-60.115 12.8-125.849 3.561-136.247-10.961-146.485S2208.906 898.7 2208.906 898.7z" transform="translate(-2109.417 -659.527)" fill="#2b478b"/><path id="Path_349" data-name="Path 349" d="M2303.175 932.535s-7.9 16.413 7.285 28.956c0 0 6.583 4.663 7.592-1.4s-.155-3.948 1.434-12.446-.444-17.285-5.164-21.11z" transform="translate(-2158.621 -682.64)" fill="#ffb27d"/><path id="Path_350" data-name="Path 350" d="M2162.777 512.161s9.117 14.349 7.3 27.741l13.491 33.659 24.34-38.532s-12.857-14.493-17.657-34.25z" transform="translate(-2084.804 -462.521)" fill="#ffb27d"/><path id="Path_351" data-name="Path 351" d="M2141.219 490.287s33.2 1.488 33.8-19.149 9.575-34.368-15.257-36.181c-20.42-1.491-27.208 7.327-29.029 14.164S2128.914 489.181 2141.219 490.287z" transform="translate(-2067.243 -428.404)" fill="#ffb27d"/><path id="Path_352" data-name="Path 352" d="M2207.947 744.237c-7.133.687-16.953 1.539-28.867 2.315q-3.569.231-7.384.453c-35.974 2.086-50.274-3.947-50.274-3.947s-.954-.8-.651-5.172c1.563-22.529 6.183-29.183 5.625-33.464-1.251-9.622-23.795-88.143-23.795-88.143s-.435-24.8 26.205-36.445a61.641 61.641.0 0 1 9.121-3.139c1.167 3.21 4.365 8.572 12.545 7.584 12.094-1.46 20.7-8.841 24.4-12.629.669.0.933.022.933.022a77.708 77.708.0 0 1 2.231 8.184c2.185 9.749 3.462 20.006 9.241 27.675a210.407 210.407.0 0 1 14.746 22.339A188.394 188.394.0 0 1 2211 647.724C2234.583 701.7 2216.34 743.421 2207.947 744.237z" transform="translate(-2052.695 -499.161)" fill="#f99746"/><path id="Path_353" data-name="Path 353" d="M2295.04 804.21c-7.133.687-16.953 1.539-28.867 2.315-3.475-60.636 20.385-118.874 20.385-118.874a21.312 21.312.0 0 1 2.555 2.192c4.156 4.18 7.052 10.385 8.981 17.854C2305.2 735.191 2299.252 779.861 2295.04 804.21z" transform="translate(-2139.789 -559.134)" fill="#ed7d2b"/><path id="Path_354" data-name="Path 354" d="M2129.1 507.313s-6.463 26.551 4.5 30.29 40.085.743 40.073-31.809c0 0-15.28 9.437-22.579 9.2s-12.01-4.6-18.755-1.193C2132.341 513.8 2129.873 513.63 2129.1 507.313z" transform="translate(-2065.824 -465.113)" fill="#c8d9e8"/><path id="Path_355" data-name="Path 355" d="M2251 571.69s23.207.54 35.468 17.061c9.4 12.659 19.327 80.583 19.327 90.81s-10.578 66.669-16.5 72.8a21.573 21.573.0 0 1-8.948.0 17.908 17.908.0 0 1-8.626-4.338s2.947-62.84 2.947-68.734c0-8.534-25.764-60.77-25.764-60.77S2235.54 593.662 2251 571.69z" transform="translate(-2127.896 -499.182)" fill="#f99746"/><path id="Path_356" data-name="Path 356" d="M2182.807 434.539c-.558-2.107-3.064-3.213-3.064-3.213-18.7-8.434-32.359.794-32.359.794 11.461-15.93 39.12-12.586 44.945 1.783 9.513 23.461-7.887 28.347-7.887 28.347s-17.375-7.56-7.314-17.038c3.334-3.14 4.947-5.933 5.48-8.362h0A8.588 8.588.0 0 0 2182.807 434.539z" transform="translate(-2076.59 -421.568)" fill="#c8d9e8"/><path id="Path_357" data-name="Path 357" d="M2147.9 533.2s-.611 2.256-6.068 1.665c0 0-4.583-.494-4.341-2.991C2137.488 531.874 2142.016 530.288 2147.9 533.2z" transform="translate(-2071.306 -478.374)" fill="#fff"/></g><path id="Rectangle_27" data-name="Rectangle 27" d="M1.72.0H1165.689a1.719 1.719.0 0 1 1.719 1.719v0a1.719 1.719.0 0 1-1.719 1.719H1.72A1.72 1.72.0 0 1 0 1.72v0A1.72 1.72.0 0 1 1.72.0z" transform="translate(0 661.861)" fill="#2e3552"/></g></g></svg>