<svg xmlns="http://www.w3.org/2000/svg" width="638.475" height="702.063" viewBox="0 0 638.475 702.063"><g id="vacine" transform="translate(556.587 63.374)"><g id="Group_130" data-name="Group 130" transform="translate(-556.587 -63.374)"><g id="Group_37" data-name="Group 37" transform="translate(194.06 197.439)"><g id="Group_35" data-name="Group 35" transform="translate(68.395 30.327)"><path id="Path_120" data-name="Path 120" d="M215.109 261.009l42.8 8.312c10.621 20.2 35.01 31.764 35.01 31.764l28.931-20.038-15.528-31.6a61.993 61.993.0 0 0-34.98-30.973l-45-15.981z" transform="translate(-215.109 -202.494)" fill="#bd6c67"/><path id="Path_121" data-name="Path 121" d="M233.846 205.16l-7.507-2.666-11.229 58.515 18.079 3.512a78.1 78.1.0 0 0 .657-59.362z" transform="translate(-215.109 -202.494)" fill="#422c4f"/><path id="Path_122" data-name="Path 122" d="M243.765 256.086a32.986 32.986.0 0 1 13.106-31.313c-8.383-.239-16.8 6.189-18.847 14.155C236.584 244.513 239.436 252.188 243.765 256.086z" transform="translate(-200.968 -189.258)" fill="#a64f5a"/></g><g id="Group_36" data-name="Group 36"><path id="Path_123" data-name="Path 123" d="M211.579 276.682l22.87 11.174C268.541 262.679 259.1 213.8 259.1 213.8l-80.965-30.327-5.052 34.952z" transform="translate(-173.083 -183.471)" fill="#5dabff"/><path id="Path_124" data-name="Path 124" d="M192.511 218.694a141.372 141.372.0 0 0-16.354-8.55l33.493 50.687 22.87 11.174a58.26 58.26.0 0 0 7.029-6.147A142.212 142.212.0 0 0 192.511 218.694z" transform="translate(-171.154 -167.621)" fill="#4987e5"/></g></g><g id="Group_81" data-name="Group 81" transform="translate(296.864 138.121)"><g id="Group_38" data-name="Group 38" transform="translate(72.375 483.278)"><path id="Path_125" data-name="Path 125" d="M303.8 449.4l-23.077 80.664H526.708c2.36-32.368-4.983-73.986-4.983-73.986z" transform="translate(-280.724 -449.403)" fill="#454f6b"/><path id="Path_126" data-name="Path 126" d="M520.709 469.658c-1.094-8.273-2.028-13.577-2.028-13.577L300.758 449.4l-15.184 53.071C360.9 518.639 451.543 501.809 520.709 469.658z" transform="translate(-277.681 -449.403)" fill="#422c4f"/></g><g id="Group_46" data-name="Group 46" transform="translate(88.633 169.354)"><path id="Path_127" data-name="Path 127" d="M453.568 252.492 501.305 265.3l4.58 126.942 14.554 188.046-3.691.821a512.377 512.377.0 0 1-226.034-.821h0l11-54.971a564.963 564.963.0 0 0 9.755-148.191L304.013 264.57l55.146-12.078z" transform="translate(-290.714 -252.492)" fill="#cc6164"/><path id="Path_128" data-name="Path 128" d="M473.534 292.8l-44.668 88.852-75-33.4-50.112 11.962.739 11.165c11.348 7.445 21.837 7.188 21.837 7.188L386 463.658c15.327 21.855 43.873 30.684 69.232 21.412h0A58.1 58.1.0 0 0 492.612 441.4l7.615-40.527L497.7 368.291 494.982 292.8z" transform="translate(-282.533 -228.541)" fill="#a34262"/><g id="Group_39" data-name="Group 39" transform="translate(56.891 1.516)"><path id="Path_129" data-name="Path 129" d="M358.633 296.857a60.255 60.255.0 0 0 23.969 4.827 65.435 65.435.0 0 0 35.942-10.7 68.648 68.648.0 0 0 26.745-35.4l-4.557-1.223a63.957 63.957.0 0 1-24.838 32.794c-16.314 10.838-38.04 12.984-55.349 5.47-16.115-7-27.946-22.629-30.24-39.188l-4.635 1.016C328.259 272.6 340.891 289.157 358.633 296.857z" transform="translate(-325.671 -253.443)" fill="#a34262"/></g><g id="Group_45" data-name="Group 45" transform="translate(16.203 38.444)"><g id="Group_40" data-name="Group 40" transform="translate(0 268.496)"><path id="Path_130" data-name="Path 130" d="M500.486 445.578c-13.783 2.353-29.667 4.76-46.678 6.434a531.866 531.866.0 0 1-53.257 2.615 531.824 531.824.0 0 1-53.24-2.911c-17-1.768-32.873-4.265-46.641-6.694A295.122 295.122.0 0 0 346.632 456.5a331.188 331.188.0 0 0 107.826.3A295.25 295.25.0 0 0 500.486 445.578z" transform="translate(-300.67 -445.022)" fill="#a34262"/></g><g id="Group_41" data-name="Group 41" transform="translate(15.296 181.769)"><path id="Path_131" data-name="Path 131" d="M475.123 460.828a106.85 106.85.0 0 1-20.7 2.763 117.6 117.6.0 0 1-22.856-1.491 152.728 152.728.0 0 1-46.473-15.944c-14.842-7.869-28.593-17.714-41.085-27.58s-23.837-19.722-33.939-27.953a407.052 407.052.0 0 0 30.92 31.392c11.967 10.753 25.78 21.3 41.168 29.462s32.391 13.537 48.805 15.121a101.566 101.566.0 0 0 23.7-.371A85.727 85.727.0 0 0 475.123 460.828z" transform="translate(-310.069 -390.622)" fill="#a34262"/></g><g id="Group_42" data-name="Group 42" transform="translate(115.947 217.447)"><path id="Path_132" data-name="Path 132" d="M437.522 413a140.992 140.992.0 0 1-14.012 8.974 110.975 110.975.0 0 1-34.966 12.416 143.766 143.766.0 0 1-16.629 1.905 57.8 57.8.0 0 0 17.039 1.594 68.385 68.385.0 0 0 19.248-3.826 67.649 67.649.0 0 0 17.282-9.143A56.108 56.108.0 0 0 437.522 413z" transform="translate(-371.915 -413.001)" fill="#a34262"/></g><g id="Group_43" data-name="Group 43" transform="translate(21.119)"><path id="Path_133" data-name="Path 133" d="M435.98 301.459a151.048 151.048.0 0 1-30.038 4.183 143.5 143.5.0 0 1-66.434-13.5 148.741 148.741.0 0 1-25.862-15.539 103.968 103.968.0 0 0 24.4 18.315 118.334 118.334.0 0 0 68.117 13.84A106.055 106.055.0 0 0 435.98 301.459z" transform="translate(-313.647 -276.606)" fill="#a34262"/></g><g id="Group_44" data-name="Group 44" transform="translate(80.861 13.894)"><path id="Path_134" data-name="Path 134" d="M446.761 285.321a167.621 167.621.0 0 1-20.136 13.757 151.569 151.569.0 0 1-51.819 18.53 171.032 171.032.0 0 1-24.449 2.186 106.741 106.741.0 0 0 24.8.314A116.879 116.879.0 0 0 428 301.209 104 104 0 0 0 446.761 285.321z" transform="translate(-350.356 -285.321)" fill="#a34262"/></g></g></g><g id="Group_47" data-name="Group 47" transform="translate(157.079 115.142)"><path id="Path_135" data-name="Path 135" d="M427.179 272.7l-25.852-6.937V218.487l-48.161 19.531v28.773l-20.4 5.908c3.564 13.172 13.6 25.765 26.173 31.6a49.631 49.631.0 0 0 40.426.313C412.032 298.972 423.4 285.813 427.179 272.7z" transform="translate(-332.771 -218.487)" fill="#f0bf9c"/><path id="Path_136" data-name="Path 136" d="M372.374 260.035c5.8-4.293 9.8-10.4 13.135-16.618a126.511 126.511.0 0 0 7.955-18.141v-6.788L345.3 238.018V265.13C354.511 267.376 364.845 265.6 372.374 260.035z" transform="translate(-324.908 -218.487)" fill="#422c4f"/></g><g id="Group_63" data-name="Group 63" transform="translate(115.18)"><path id="Path_137" data-name="Path 137" d="M321.17 245.477c-13.936-16.4-18.011-40.291-10.269-60.235s26.991-35.15 48.529-38.334a54.333 54.333.0 0 1 30.2 3.8c9.342 4.234 17.248 11.742 21.139 21.077 9.568.057 18.146 5.6 23.481 13.38s7.177 17.537 6.321 26.871a53.414 53.414.0 0 1-27.309 41.194c-13.586 7.416-29.955 8.7-45.344 6.493S331.124 257.185 321.17 245.477z" transform="translate(-307.026 -146.263)" fill="#8c404c"/><g id="Group_52" data-name="Group 52" transform="translate(7.497 3.421)"><g id="Group_48" data-name="Group 48" transform="translate(0 30.31)"><path id="Path_138" data-name="Path 138" d="M311.632 187.137a89.3 89.3.0 0 1 14.912-8.593 73.151 73.151.0 0 1 37.417-6.24 90.563 90.563.0 0 1 16.976 3.275 47.881 47.881.0 0 0-16.384-6.89 53.9 53.9.0 0 0-39.789 6.635A46.992 46.992.0 0 0 311.632 187.137z" transform="translate(-311.632 -167.422)" fill="#a64f5a"/></g><g id="Group_49" data-name="Group 49" transform="translate(17.124 18.295)"><path id="Path_139" data-name="Path 139" d="M322.154 167.818a56.226 56.226.0 0 1 13.379-3.691 46.924 46.924.0 0 1 29.7 5.314 55.3 55.3.0 0 1 11.185 8.084 32.892 32.892.0 0 0-9.551-10.568 37.475 37.475.0 0 0-31.971-5.719A33.586 33.586.0 0 0 322.154 167.818z" transform="translate(-322.154 -159.884)" fill="#a64f5a"/></g><g id="Group_50" data-name="Group 50" transform="translate(27.271 6.703)"><path id="Path_140" data-name="Path 140" d="M328.389 156.821a44.7 44.7.0 0 1 13.135-1.3 39.158 39.158.0 0 1 14.064 3.367 38.495 38.495.0 0 1 11.67 8.392 42.889 42.889.0 0 1 7.423 10.7 27.709 27.709.0 0 0-5.193-12.477 31.72 31.72.0 0 0-12.279-10.017 32.464 32.464.0 0 0-15.723-2.78A29.02 29.02.0 0 0 328.389 156.821z" transform="translate(-328.389 -152.614)" fill="#a64f5a"/></g><g id="Group_51" data-name="Group 51" transform="translate(55.379)"><path id="Path_141" data-name="Path 141" d="M345.66 148.415a36.87 36.87.0 0 1 8.559 3.708 31.44 31.44.0 0 1 7.813 6.579 30.817 30.817.0 0 1 5.126 8.756 35.12 35.12.0 0 1 2.106 8.933 21.3 21.3.0 0 0-.161-9.506 24.152 24.152.0 0 0-4.983-9.872 24.809 24.809.0 0 0-8.959-6.653A22.609 22.609.0 0 0 345.66 148.415z" transform="translate(-345.66 -148.409)" fill="#a64f5a"/></g></g><path id="Path_142" data-name="Path 142" d="M314.956 194.358a111.6 111.6.0 0 0 3.375 46.032c2.99 10.315 7.654 20.459 15.482 27.953 13.809 13.221 37.068 15.657 53.418 5.591s24.2-31.65 18.026-49.573a10.622 10.622.0 0 1-8.627-5.342c-1.92-3.112-2.749-6.734-3.548-10.283a21.663 21.663.0 0 1-13.213-12.566c-2.378-5.852-2.969-12.228-3.536-18.5C358.539 187.656 335.44 193.433 314.956 194.358z" transform="translate(-302.689 -127.601)" fill="#f0bf9c"/><g id="Group_59" data-name="Group 59" transform="translate(13.028 94.674)"><g id="Group_53" data-name="Group 53" transform="translate(77.219)"><path id="Path_143" data-name="Path 143" d="M379.925 205.648q-8.722 4.608-17.446 9.218c.654 1.157 1.191 2.438 1.844 3.6 5.1-2.814 10.181-5.487 15.283-8.3C379.533 208.942 380 206.868 379.925 205.648z" transform="translate(-362.479 -205.648)" fill="#fff"/><path id="Path_144" data-name="Path 144" d="M380.284 216.113q-7.155 3.613-14.308 7.228c.874 1.269 1.8 2.442 2.677 3.711a61.491 61.491.0 0 1 11.841-7.155C380.43 218.871 380.345 217.14 380.284 216.113z" transform="translate(-360.285 -199.429)" fill="#fff"/></g><g id="Group_54" data-name="Group 54" transform="translate(0 0.844)"><path id="Path_145" data-name="Path 145" d="M327.676 218.043c3.631-3.949 8.494-7.606 13.9-7.117 16.932 1.534 38.1 7.043 55.356 5.414a35.933 35.933.0 0 1-.7-4.531c-17.692 2.516-37.83-3.976-55.631-5.588-5.4-.489-10.264 3.168-13.9 7.117s-6.847 8.531-11.666 10.973a22.891 22.891.0 0 0 .78 5.7C320.047 226.829 324.664 221.316 327.676 218.043z" transform="translate(-315.031 -206.177)" fill="#fff"/><path id="Path_146" data-name="Path 146" d="M338.426 258.543c11.413 7.713 26.874 8.8 39.758 3.774s23.1-15.713 28.477-28.232a42.723 42.723.0 0 1-10.033-19.5c-17.253 1.629-38.424-3.88-55.356-5.414-5.4-.489-10.266 3.168-13.9 7.117-3.012 3.273-7.629 8.786-11.866 11.97 1.631 6.3 5.6 12.4 9.644 17.353C329.062 250.406 333.27 255.06 338.426 258.543z" transform="translate(-314.73 -204.424)" fill="#5dabff"/></g><g id="Group_58" data-name="Group 58" transform="translate(9.608 14.895)"><g id="Group_55" data-name="Group 55" transform="translate(2.179 11.916)"><path id="Path_147" data-name="Path 147" d="M370.661 227.187a88.862 88.862.0 0 0-28.137-4.719c-8.18.03-15.441 1.628-20.25 3.844 5.317-.108 12.642-.47 20.748-.34C351.968 226.076 362.01 226.78 370.661 227.187z" transform="translate(-322.274 -222.465)" fill="#4987e5"/></g><g id="Group_56" data-name="Group 56" transform="translate(2.869 21.432)"><path id="Path_148" data-name="Path 148" d="M372.329 232.606c-8.743.008-18.875.022-28.163-.867a207.876 207.876.0 0 1-21.468-3.3 54.7 54.7.0 0 0 21.94 7.126C354.422 236.719 364.793 235.433 372.329 232.606z" transform="translate(-322.698 -228.434)" fill="#4987e5"/></g><g id="Group_57" data-name="Group 57"><path id="Path_149" data-name="Path 149" d="M372.54 221.193c-9.54-3.3-20.849-6.415-30.946-6.19a32.2 32.2.0 0 0-12.513 2.664 20.871 20.871.0 0 0-8.145 6.439 30.2 30.2.0 0 1 8.91-3.984 47.394 47.394.0 0 1 12.1-1.471C351.521 218.629 362.777 220.585 372.54 221.193z" transform="translate(-320.935 -214.991)" fill="#4987e5"/></g></g></g><g id="Group_60" data-name="Group 60" transform="translate(101.009 80.835)"><path id="Path_150" data-name="Path 150" d="M373.686 204.535c3.865-5.722 11.651-9.283 18.149-6.725 5.483 2.16 8.734 8.177 8.658 13.966s-3 11.257-6.908 15.6a22.767 22.767.0 0 1-8.5 6.246 12.961 12.961.0 0 1-10.4-.2C365.683 228.831 369.217 211.146 373.686 204.535z" transform="translate(-369.092 -196.967)" fill="#f0bf9c"/><path id="Path_151" data-name="Path 151" d="M393.027 206.156a9.489 9.489.0 0 0-9.289-4.319 12.347 12.347.0 0 0-8.71 5.83 17.422 17.422.0 0 0-2.332 10.276 8.678 8.678.0 0 0 .775 3.4 4.042 4.042.0 0 0 2.641 2.2c1.761.375 3.51-.8 4.583-2.219a9.27 9.27.0 0 0 1.771-6.8 9.378 9.378.0 0 0-3.585-6.082 10.609 10.609.0 0 1 6.2-3.864C387.426 204.055 390.944 204.973 393.027 206.156z" transform="translate(-366.856 -194.117)" fill="#eba588"/></g></g><g id="Group_68" data-name="Group 68" transform="translate(0 176.25)"><g id="Group_67" data-name="Group 67" transform="translate(0 5.182)"><path id="Path_154" data-name="Path 154" d="M338.185 260.068h0a66.549 66.549.0 0 0-48.137 41.124L239.713 433.638a53.034 53.034.0 0 0 7 50.45l75.331 101.965 44.057-8.477-74-125.95 51.844-104.565z" transform="translate(-236.252 -260.068)" fill="#f0bf9c"/><g id="Group_65" data-name="Group 65" transform="translate(85.789 295.594)"><path id="Path_155" data-name="Path 155" d="M339 448.015a26.447 26.447.0 0 1 18.465 6.4 25.529 25.529.0 0 1 7.945 13.173 4.745 4.745.0 0 1-2.863 5.462l-.075.03a4.869 4.869.0 0 1-6.056-1.993A119.156 119.156.0 0 0 339 448.015z" transform="translate(-257.572 -443.994)" fill="#eba588"/><path id="Path_156" data-name="Path 156" d="M317.292 478.448A66.731 66.731.0 0 0 346.21 478 54.278 54.278.0 0 0 353.9 486.4a18.967 18.967.0 0 0 10.43 4.6c3.864.29 7.983-1.2 10.2-4.319a209.125 209.125.0 0 0-29.258-36.084C336.353 459.754 326.207 469.284 317.292 478.448z" transform="translate(-271.193 -442.446)" fill="#eba588"/><path id="Path_157" data-name="Path 157" d="M388.33 483.094l.072-.035a4.306 4.306.0 0 0 2.337-4.709 64.952 64.952.0 0 0-7.921-20.489 25.377 25.377.0 0 0-28.671-11.153c-22.83 6.5-45.4 17.047-65.181 29.017 12.063 21.03 46.787 15.158 53.549 7.388 3.567 4.341 8.007 8.529 11.88 12.818a4.871 4.871.0 0 0 5.764 1.079l.068-.034a4.667 4.667.0 0 0 2.008-6.555c-4.713-8.037-9.657-16.528-14.266-24.365 6.7 6.685 14.855 13.742 20.739 21.466a5.8 5.8.0 0 0 7.171 1.725l.133-.067a5.534 5.534.0 0 0 2.677-7.136 186.235 186.235.0 0 0-13.28-25.6 92.36 92.36.0 0 1 16.94 24.577A4.435 4.435.0 0 0 388.33 483.094z" transform="translate(-288.966 -445.334)" fill="#f0bf9c"/><g id="Group_64" data-name="Group 64" transform="translate(22.291)"><path id="Path_158" data-name="Path 158" d="M349.385 498.038a5.209 5.209.0 0 1-3.88-1.706c-1.52-1.685-3.157-3.385-4.742-5.027-2.339-2.426-4.752-4.931-6.86-7.455-2.84 2.906-9.291 5.4-16.662 6.414a.387.387.0 1 1-.111-.765c7.48-1.027 13.954-3.573 16.491-6.49a.4.4.0 0 1 .3-.135h.006a.4.4.0 0 1 .3.143c2.153 2.619 4.672 5.232 7.107 7.759 1.59 1.648 3.231 3.353 4.762 5.044a4.478 4.478.0 0 0 5.292.992 4.37 4.37.0 0 0 2.314-2.659 4.2 4.2.0 0 0-.4-3.394c-1.95-3.324-3.938-6.726-5.927-10.128-2.82-4.821-5.637-9.64-8.341-14.235a.382.382.0 0 1 .1-.5.4.4.0 0 1 .519.037c1.766 1.762 3.6 3.515 5.537 5.371 5.354 5.126 10.889 10.425 15.238 16.135a5.409 5.409.0 0 0 6.677 1.612l.132-.069a5.174 5.174.0 0 0 2.495-6.643 186.437 186.437.0 0 0-13.256-25.548.381.381.0 0 1 .1-.507.4.4.0 0 1 .526.043 93.211 93.211.0 0 1 17.01 24.682 3.978 3.978.0 0 0 2.331 2.087 4.02 4.02.0 0 0 3.113-.2 3.956 3.956.0 0 0 2.2-4.325 64.52 64.52.0 0 0-7.875-20.368 24.876 24.876.0 0 0-28.221-10.978 254.462 254.462.0 0 0-42.429 16.566.4.4.0 0 1-.529-.172.385.385.0 0 1 .176-.518 255.422 255.422.0 0 1 42.564-16.615 25.674 25.674.0 0 1 29.118 11.329 65.3 65.3.0 0 1 7.968 20.607 4.7 4.7.0 0 1-2.547 5.13 4.875 4.875.0 0 1-3.8.273 4.746 4.746.0 0 1-2.785-2.495 91.759 91.759.0 0 0-14.2-21.565 187.317 187.317.0 0 1 11.26 22.281 5.939 5.939.0 0 1-2.863 7.627l-.132.065A6.2 6.2.0 0 1 359.8 487.9c-4.313-5.66-9.825-10.938-15.158-16.041-1.18-1.13-2.319-2.224-3.431-3.3 2.239 3.815 4.542 7.754 6.845 11.694 1.989 3.4 3.977 6.8 5.927 10.127a4.954 4.954.0 0 1 .474 4 5.1 5.1.0 0 1-2.648 3.094A5.483 5.483.0 0 1 349.385 498.038z" transform="translate(-302.663 -445.482)" fill="#422c4f"/></g></g><path id="Path_159" data-name="Path 159" d="M284.242 316.519c2.4 16.7 14.8 27.96 14.8 27.96l14.8-29.844z" transform="translate(-206.141 -227.642)" fill="#eba588"/><g id="Group_66" data-name="Group 66" transform="translate(66.237)"><path id="Path_160" data-name="Path 160" d="M312.648 260.068a67.205 67.205.0 0 0-35.7 20.752l41.458 66.241z" transform="translate(-276.952 -260.068)" fill="#eba588"/></g></g><path id="Path_161" data-name="Path 161" d="M316.061 348.993l-5.722-86.408a6.293 6.293.0 0 0-8-5.537 98.533 98.533.0 0 0-18.281 7.391 6.1 6.1.0 0 0-2.812 7.962z" transform="translate(-208.367 -256.818)" fill="#e8916a"/></g><g id="Group_80" data-name="Group 80" transform="translate(77.014 182.162)"><g id="Group_74" data-name="Group 74" transform="translate(0 40.373)"><g id="Group_69" data-name="Group 69" transform="translate(0.39)"><path id="Path_162" data-name="Path 162" d="M342.509 377.044c-22.661-7.442-45.087-23.754-58-43.419a4.241 4.241.0 0 1 .867-5.613l.063-.051a4.47 4.47.0 0 1 6.092.391 100.114 100.114.0 0 0 18.559 15.289 86.37 86.37.0 0 1-25.045-27.815 5.88 5.88.0 0 1 .249-6.184l.072-.108a6.23 6.23.0 0 1 10.217-.1 117.883 117.883.0 0 0 17.454 19.856 134.171 134.171.0 0 1-17.433-31.886 6.3 6.3.0 0 1 2.248-7.346l.1-.07a6.529 6.529.0 0 1 9.708 2.482c5.017 10.782 10.608 19.858 17.565 30.3a141.355 141.355.0 0 1-12.172-28.247 6.716 6.716.0 0 1 3.761-7.984l.12-.054a7.077 7.077.0 0 1 9.3 3.37 203.9 203.9.0 0 0 23.993 38c-.177-5.027-.524-10.125-.848-15.215a12.86 12.86.0 0 1 11.293-13.463l.122-.018c4.715 16.791 6.147 35.823 5.584 53.227l82.214 52.149 10.1-26.2 51.531 25.433L494.89 445.04a43.7 43.7.0 0 1-24.877 25.3h0A44.833 44.833.0 0 1 421 459.726z" transform="translate(-283.814 -285.85)" fill="#f0bf9c"/></g><g id="Group_70" data-name="Group 70" transform="translate(0 11.17)"><path id="Path_163" data-name="Path 163" d="M453.63 469.721a45.233 45.233.0 0 1-32.762-13.9L342.44 373.215c-23.237-7.656-45.5-24.333-58.11-43.547a4.626 4.626.0 0 1 .944-6.114 4.88 4.88.0 0 1 6.7.373 89.4 89.4.0 0 0 8.274 7.751 85.428 85.428.0 0 1-15.394-19.832 6.247 6.247.0 0 1 .265-6.581l.075-.11a6.612 6.612.0 0 1 5.463-2.884h.029a6.509 6.509.0 0 1 5.377 2.788 115.284 115.284.0 0 0 14.517 17.071 133.911 133.911.0 0 1-15.191-28.754.384.384.0 0 1 .233-.5.392.392.0 0 1 .5.228 134.428 134.428.0 0 0 17.384 31.8.38.38.0 0 1-.06.513.4.4.0 0 1-.529-.006A118.073 118.073.0 0 1 295.41 305.49a5.645 5.645.0 0 0-4.723-2.449h-.028a5.828 5.828.0 0 0-4.812 2.54l-.073.11a5.483 5.483.0 0 0-.229 5.784 85.854 85.854.0 0 0 24.931 27.69.38.38.0 0 1 .091.531.4.4.0 0 1-.54.1 100.225 100.225.0 0 1-18.634-15.349 4.067 4.067.0 0 0-5.548-.355 3.888 3.888.0 0 0-.853 5.161c12.539 19.1 34.686 35.676 57.794 43.263a.364.364.0 0 1 .163.1L421.443 455.3a44.672 44.672.0 0 0 48.573 10.522 43.374 43.374.0 0 0 24.654-25.076L5e2 426.383a.4.4.0 0 1 .5-.231.385.385.0 0 1 .238.494l-5.333 14.362a44.156 44.156.0 0 1-25.1 25.529A45.027 45.027.0 0 1 453.63 469.721z" transform="translate(-283.575 -292.857)" fill="#422c4f"/></g><g id="Group_71" data-name="Group 71" transform="translate(165.164 114.221)"><path id="Path_164" data-name="Path 164" d="M416.049 381.612l-30.988-19.657 1.717-4.459h0a31.1 31.1.0 0 1 24.75 15.891z" transform="translate(-385.061 -357.496)" fill="#eba588"/></g><g id="Group_72" data-name="Group 72" transform="translate(141.901 103.789)"><path id="Path_165" data-name="Path 165" d="M425.016 385.886a.389.389.0 0 1-.213-.062l-53.855-34.163a.38.38.0 0 1-.117-.532.4.4.0 0 1 .544-.115l53.855 34.163a.378.378.0 0 1 .117.532A.391.391.0 0 1 425.016 385.886z" transform="translate(-370.767 -350.953)" fill="#422c4f"/></g><g id="Group_73" data-name="Group 73" transform="translate(173.763 92.478)"><path id="Path_166" data-name="Path 166" d="M391.841 343.857l51.531 25.432-4.877 13.139-48.149-34.689z" transform="translate(-390.345 -343.857)" fill="#422c4f"/></g></g><path id="Path_167" data-name="Path 167" d="M455.759 424.625l-66.377-32.76L439.4 260.526l6.744 2.045c25.372 7.7 40.351 33.3 34.3 58.635z" transform="translate(-217.186 -260.526)" fill="#cc6164"/><g id="Group_75" data-name="Group 75" transform="translate(171.804 51.061)"><path id="Path_168" data-name="Path 168" d="M426.151 391.29a.4.4.0 0 1-.176-.041l-36.618-18.071a.386.386.0 0 1-.192-.48l30.423-79.891a.4.4.0 0 1 .5-.228.384.384.0 0 1 .233.5l-30.3 79.569 36.3 17.916a.383.383.0 0 1 .174.518A.392.392.0 0 1 426.151 391.29z" transform="translate(-389.141 -292.555)" fill="#422c4f"/></g><g id="Group_79" data-name="Group 79" transform="translate(183.542 58.783)"><g id="Group_76" data-name="Group 76" transform="translate(0 65.825)"><path id="Path_169" data-name="Path 169" d="M450.623 362.867c-13.892-9.035-38.188-19.859-54.269-24.18C410.246 347.72 434.544 358.547 450.623 362.867z" transform="translate(-396.354 -338.687)" fill="#a34262"/></g><g id="Group_77" data-name="Group 77" transform="translate(0.739 29.183)"><path id="Path_170" data-name="Path 170" d="M451.711 315.7a98.816 98.816.0 0 0-29.75 10.216c-10.129 5.29-19.261 12.277-25.154 18.614 7.631-4.212 17.238-9.856 27.121-15.019C433.79 324.31 443.906 319.6 451.711 315.7z" transform="translate(-396.808 -315.703)" fill="#a34262"/></g><g id="Group_78" data-name="Group 78" transform="translate(3.287)"><path id="Path_171" data-name="Path 171" d="M457.948 297.4a80.63 80.63.0 0 0-17.983 7.134 95.467 95.467.0 0 0-18.053 12.636 94.024 94.024.0 0 0-14.567 16.4 77.561 77.561.0 0 0-8.971 16.854c3.556-4.4 7.618-9.369 12.193-14.4a193.881 193.881.0 0 1 31.587-28.111C447.7 303.928 453.134 300.443 457.948 297.4z" transform="translate(-398.374 -297.398)" fill="#a34262"/></g></g></g></g><g id="Group_124" data-name="Group 124"><g id="Group_82" data-name="Group 82" transform="translate(6.294 563.854)"><path id="Path_172" data-name="Path 172" d="M57.709 413.308 70.3 551.516h204.55l6.818-136.129z" transform="translate(-57.709 -413.308)" fill="#5dabff"/><path id="Path_173" data-name="Path 173" d="M130.543 538.35l13.112-91.7c27.8-4.945 45.368-11.188 45.368-11.188l-7.791 7.92a29.179 29.179.0 0 1-23.185 8.547l-6.788-.56 2.355 8.848a68.257 68.257.0 0 1-3.538 45.166L135.526 538.35z" transform="translate(-12.009 -400.142)" fill="#4987e5"/><path id="Path_174" data-name="Path 174" d="M57.709 413.308l223.956 2.079-.566 11.3c-49.129 34.278-193.879 21.21-221.225 10.4z" transform="translate(-57.709 -413.307)" fill="#422c4f"/></g><g id="Group_92" data-name="Group 92" transform="translate(0 180.749)"><path id="Path_175" data-name="Path 175" d="M151.66 173l63.6 8.041 37.692 8.649 33.719 93.981a43.911 43.911.0 0 1-2.97 36.213h0a44 44 0 0 0-4.812 29.388c14.162 76.835 10.8 213.512 10.8 213.512-101.313 31.341-235.845.0-235.845.0 10.228-87.344 64.554-113.1 55.092-175.364S1e2 188.852 151.66 173z" transform="translate(-53.841 -173.002)" fill="#5dabff"/><path id="Path_176" data-name="Path 176" d="M151.371 425.312l103.476-11.63a8.5 8.5.0 0 1 6.469 1.975h0a8.508 8.508.0 0 0 7.416 1.813l.072-.016c-1.063-22.724-2.711-45.976-5.239-67.041L177.6 326.452 146.062 217.525l-57.333 12.98c-6.375 45.21-4.165 97.936.778 130.46a89.3 89.3.0 0 1-.332 29.927A61 61 0 0 0 151.371 425.312z" transform="translate(-34.415 -146.545)" fill="#4987e5"/><g id="Group_90" data-name="Group 90" transform="translate(19.08 32.902)"><g id="Group_83" data-name="Group 83" transform="translate(126.573 107.271)"><path id="Path_177" data-name="Path 177" d="M220.221 271.014a56.669 56.669.0 0 0-17.388-7.684 75.458 75.458.0 0 0-42.688 1.444 56.428 56.428.0 0 0-16.807 8.839c11.5.37 24.975-.4 38.458-.818C195.279 272.305 208.772 272.159 220.221 271.014z" transform="translate(-143.339 -260.927)" fill="#4987e5"/></g><g id="Group_84" data-name="Group 84" transform="translate(106.48 14.485)"><path id="Path_178" data-name="Path 178" d="M187.69 244.205a166.834 166.834.0 0 1-15.337-6.991 127.992 127.992.0 0 1-15.949-9.9 126.741 126.741.0 0 1-14.214-12.17 163.291 163.291.0 0 1-11.2-12.421 58.968 58.968.0 0 0 8.453 14.747 71.074 71.074.0 0 0 14.063 13.644 72.205 72.205.0 0 0 17.347 9.336A61.62 61.62.0 0 0 187.69 244.205z" transform="translate(-130.993 -202.726)" fill="#4987e5"/></g><g id="Group_85" data-name="Group 85" transform="translate(140.779)"><path id="Path_179" data-name="Path 179" d="M152.068 230.121a32.558 32.558.0 0 0 8.124-6.079 37.846 37.846.0 0 0 6.736-9.417 37.293 37.293.0 0 0 3.52-10.97 31.266 31.266.0 0 0-.029-10.015 65.024 65.024.0 0 1-6.059 19.745A66.149 66.149.0 0 1 152.068 230.121z" transform="translate(-152.068 -193.64)" fill="#4987e5"/></g><g id="Group_86" data-name="Group 86" transform="translate(133.018 130.75)"><path id="Path_180" data-name="Path 180" d="M211.036 280.021a140.824 140.824.0 0 0-31.769-4.3 140.861 140.861.0 0 0-31.968 2.49c8.881.9 20.364 1.328 31.846 1.666C190.628 280.193 202.116 280.414 211.036 280.021z" transform="translate(-147.299 -275.654)" fill="#4987e5"/></g><g id="Group_87" data-name="Group 87" transform="translate(18.662 246.73)"><path id="Path_181" data-name="Path 181" d="M77.032 407.211a223.147 223.147.0 0 0 46.11.222 247.886 247.886.0 0 0 51.535-10.665 245.914 245.914.0 0 0 47.938-21.377A218.162 218.162.0 0 0 259.592 348.4 381.508 381.508.0 0 1 220.3 371.285a339.8 339.8.0 0 1-47.616 19.542 341.811 341.811.0 0 1-50.161 11.954A387.489 387.489.0 0 1 77.032 407.211z" transform="translate(-77.032 -348.403)" fill="#4987e5"/></g><g id="Group_88" data-name="Group 88" transform="translate(24.503 278.262)"><path id="Path_182" data-name="Path 182" d="M80.621 368.378c11.573 4.016 27.6 6.717 43.707 6.643 16.107.0 32.121-2.772 43.674-6.839-12.284.314-27.976 1.113-43.687 1.116C108.6 369.365 92.907 368.636 80.621 368.378z" transform="translate(-80.621 -368.182)" fill="#4987e5"/></g><g id="Group_89" data-name="Group 89" transform="translate(0 346.338)"><path id="Path_183" data-name="Path 183" d="M262.623 411.76c-13.659 1.279-29.372 2.677-46.143 3.641s-34.59 1.524-52.412 1.454c-17.822-.089-35.638-.794-52.4-1.921s-32.461-2.65-46.107-4.051a369.689 369.689.0 0 0 45.624 8.764 429.886 429.886.0 0 0 52.85 3.522 429.856 429.856.0 0 0 52.881-3.051A370.338 370.338.0 0 0 262.623 411.76z" transform="translate(-65.565 -410.883)" fill="#4987e5"/></g></g><g id="Group_91" data-name="Group 91" transform="translate(213.015 56.153)"><path id="Path_184" data-name="Path 184" d="M202.474 257.35a.393.393.0 0 1-.371-.257l-17.35-48.357a.383.383.0 0 1 .241-.491.4.4.0 0 1 .5.236l17.35 48.355a.385.385.0 0 1-.241.493A.411.411.0 0 1 202.474 257.35z" transform="translate(-184.73 -208.224)" fill="#422c4f"/></g></g><g id="Group_105" data-name="Group 105" transform="translate(20.747 180.749)"><g id="Group_94" data-name="Group 94" transform="translate(261.703 166.627)"><path id="Path_185" data-name="Path 185" d="M261.81 296.413l-1.17-1.146 16.558-16.22a5.39 5.39.0 0 1 3.9-1.526h0z" transform="translate(-206.536 -277.52)" fill="#e4e4e0"/><path id="Path_186" data-name="Path 186" d="M264.389 288.972c-1.541-1.508-3.309-2.224-3.948-1.6l-2.978 2.919 5.579 5.465 2.978-2.919C266.66 292.213 265.931 290.482 264.389 288.972z" transform="translate(-208.53 -271.799)" fill="#99a3b0"/><path id="Path_187" data-name="Path 187" d="M275.527 291.633c-3.994-3.914-8.577-5.768-10.235-4.143l-29.668 29.063 14.465 14.168 29.668-29.063C281.415 300.033 279.521 295.545 275.527 291.633z" transform="translate(-222.232 -271.945)" fill="#fff"/><path id="Path_188" data-name="Path 188" d="M238.359 315.4l27.115-26.56c.978.112 3.466 1.229 6.113 3.821s3.787 5.03 3.9 5.988l-27.115 26.56z" transform="translate(-220.516 -270.794)" fill="#5dabff"/><g id="Group_93" data-name="Group 93" transform="translate(0 37.928)"><path id="Path_189" data-name="Path 189" d="M258.31 326.789c2.809-2.752-.4-10.355-7.166-16.983s-14.527-9.77-17.336-7.018l-3.289 3.22 2.913 2.852a30.654 30.654.0 0 0 7.54 10.909 31.422 31.422.0 0 0 11.137 7.388l2.913 2.852z" transform="translate(-225.435 -301.025)" fill="#fff"/><path id="Path_358" data-name="Path 358" d="M7.119.073c3.932.041 7.2 7.751 7.3 17.222S11.4 34.411 7.473 34.37s-7.2-7.751-7.3-17.222S3.187.033 7.119.073z" transform="translate(0 9.964) rotate(-45)" fill="#e4e4e0"/></g><path id="Path_190" data-name="Path 190" d="M245.207 312.072c-1.693-1.658-3.634-2.444-4.337-1.757l-12.575 12.32 6.131 6.006L247 316.32C247.7 315.633 246.9 313.73 245.207 312.072z" transform="translate(-226.831 -258.18)" fill="#fff"/></g><g id="Group_104" data-name="Group 104"><path id="Path_191" data-name="Path 191" d="M222.009 334.426l1.683 2.764a7.9 7.9.0 0 0 10.906 2.533h0l.423.406a7.931 7.931.0 0 0 8.993 1.35l7.792-3.876 4.524-17.918-12.785.77z" transform="translate(30.928 -85.836)" fill="#f7dd8c"/><path id="Path_192" data-name="Path 192" d="M191.609 308.15h0a6.689 6.689.0 0 1 8.163-3.326l21.544 7.34 13.459-4.925a40 40 0 0 1 38.155 5.864l7.533 5.832a7.642 7.642.0 0 1 2.978 6.468l-.889 15.927a7.667 7.667.0 0 1-3.134 5.746l-8.184 6.012a3.569 3.569.0 0 1-5.087-.906h0a6.841 6.841.0 0 1 2.039-9.486l2.633-1.72.1-7.585c-15.736 17.148-46.062 12.684-46.062 12.684l-23.982 7.675a6.688 6.688.0 0 1-8.041-3.359l-.037-.077h4.721l2.36-40.074z" transform="translate(11.854 -94.883)" fill="#fbeed1"/><g id="Group_95" data-name="Group 95" transform="translate(225.263 223.667)"><path id="Path_193" data-name="Path 193" d="M260.711 348.91a4.1 4.1.0 0 1-.7-.059 3.946 3.946.0 0 1-2.6-1.714 7.261 7.261.0 0 1 2.153-10.013l2.461-1.607.083-6.383c-15.433 15.785-43.757 12.328-45.621 12.084l-10.967 3.509a.394.394.0 0 1-.5-.247.383.383.0 0 1 .252-.485l11.055-3.538a.339.339.0 0 1 .179-.014c.3.043 30.3 4.231 45.712-12.563a.394.394.0 0 1 .435-.1.383.383.0 0 1 .251.363l-.1 7.585a.383.383.0 0 1-.176.317L260 337.764a6.5 6.5.0 0 0-1.925 8.958 3.111 3.111.0 0 0 2.082 1.369 3.167 3.167.0 0 0 2.438-.564l8.184-6.012a7.272 7.272.0 0 0 2.978-5.459l.889-15.926a7.27 7.27.0 0 0-2.83-6.144.383.383.0 0 1-.065-.542.4.4.0 0 1 .553-.064 8.036 8.036.0 0 1 3.126 6.791l-.889 15.928a8.031 8.031.0 0 1-3.291 6.033l-8.184 6.012A4 4 0 0 1 260.711 348.91z" transform="translate(-205.004 -313.299)" fill="#422c4f"/></g><path id="Path_194" data-name="Path 194" d="M143.661 173l-28.327 4.821c-31.8 5.409-53.2 34.915-47.954 66.112L85.7 352.909l89.671-17.121z" transform="translate(-66.589 -173.002)" fill="#5dabff"/><path id="Path_195" data-name="Path 195" d="M155.934 275.636l5.843 26.106 101.488 25.626.41 1.1a47.2 47.2.0 0 1-2.77 38.97H166.273c-32.282.0-60.471-21.407-68.515-52.034l-7.171-27.3z" transform="translate(-51.532 -112.013)" fill="#bd6c67"/><path id="Path_196" data-name="Path 196" d="M155.933 275.636 90.587 288.112l3.459 13.169 62.874-21.237z" transform="translate(-51.532 -112.013)" fill="#422c4f"/><g id="Group_99" data-name="Group 99" transform="translate(20.362 54.644)"><g id="Group_96" data-name="Group 96" transform="translate(0 97.925)"><path id="Path_197" data-name="Path 197" d="M159.952 268.941c-22.7-1.236-58.9 2.454-80.852 8.239C101.8 278.415 138 274.726 159.952 268.941z" transform="translate(-79.101 -268.702)" fill="#4987e5"/></g><g id="Group_97" data-name="Group 97" transform="translate(4.563)"><path id="Path_198" data-name="Path 198" d="M81.9 290.663a84.522 84.522.0 0 0 19.482-13.8 98.542 98.542.0 0 0 17.049-21.21 97.024 97.024.0 0 0 10.473-24.972 81.165 81.165.0 0 0 2.689-23.4 224.921 224.921.0 0 1-7.5 21.878 173.4 173.4.0 0 1-11.485 23.169 174.742 174.742.0 0 1-14.95 21.187A229.827 229.827.0 0 1 81.9 290.663z" transform="translate(-81.905 -207.278)" fill="#4987e5"/></g><g id="Group_98" data-name="Group 98" transform="translate(13.983 11.287)"><path id="Path_199" data-name="Path 199" d="M87.693 261.777a57.661 57.661.0 0 0 11.6-22.364 56.944 56.944.0 0 0 1.273-25.055 177.377 177.377.0 0 1-4.537 24.2A178.116 178.116.0 0 1 87.693 261.777z" transform="translate(-87.693 -214.358)" fill="#4987e5"/></g></g><g id="Group_100" data-name="Group 100" transform="translate(220.13 219.712)"><path id="Path_200" data-name="Path 200" d="M201.85 343.6a22.136 22.136.0 0 0 4.8-6.795 25.862 25.862.0 0 0 1.116-18.691 22.013 22.013.0 0 0-3.961-7.3A37.517 37.517.0 0 1 201.85 343.6z" transform="translate(-201.85 -310.818)" fill="#f7dd8c"/></g><g id="Group_101" data-name="Group 101" transform="translate(227.743 224.968)"><path id="Path_201" data-name="Path 201" d="M206.528 337.74a19.344 19.344.0 0 0 1.074-23.625 30.858 30.858.0 0 1-1.074 23.625z" transform="translate(-206.528 -314.115)" fill="#f7dd8c"/></g><g id="Group_102" data-name="Group 102" transform="translate(106.569 174.686)"><path id="Path_202" data-name="Path 202" d="M194.735 312.9a.419.419.0 0 1-.1-.011l-58.99-14.9a.385.385.0 0 1-.285-.29l-3.283-14.659a.385.385.0 0 1 .3-.459.4.4.0 0 1 .469.293l3.229 14.428 58.756 14.836a.385.385.0 0 1 .283.469A.394.394.0 0 1 194.735 312.9z" transform="translate(-132.072 -282.575)" fill="#422c4f"/></g><g id="Group_103" data-name="Group 103" transform="translate(24.531 70.594)"><path id="Path_203" data-name="Path 203" d="M82.055 325.87a.393.393.0 0 1-.386-.311.385.385.0 0 1 .312-.451l83.473-15.938-17.811-91.43a.386.386.0 0 1 .312-.451.4.4.0 0 1 .461.306L166.3 309.4a.384.384.0 0 1-.311.45L82.132 325.864A.591.591.0 0 1 82.055 325.87z" transform="translate(-81.663 -217.283)" fill="#422c4f"/></g></g></g><g id="Group_123" data-name="Group 123" transform="translate(51.531)"><ellipse id="Ellipse_10" data-name="Ellipse 10" cx="41.241" cy="40.4" rx="41.241" ry="40.4" transform="translate(0 95.538)" fill="#422c4f"/><g id="Group_106" data-name="Group 106" transform="translate(46.288 133.301)"><path id="Path_204" data-name="Path 204" d="M127.155 143.24l-13.208 47.448c14.894 7.05 36.334 34.109 46.464 49.648a6 6 0 0 0 10.388-.741c11.833-25.189 6.749-40.865 6.749-40.865l7.976-28z" transform="translate(-113.947 -143.24)" fill="#bd6c67"/><path id="Path_205" data-name="Path 205" d="M153.239 199.333c6.679 1.862 13.571 1.515 20.389.08-.109-.443-.186-.684-.186-.684l7.976-28L123.05 143.24l-2.56 9.2c1.5 8 3.488 15.891 7 23.236C132.631 186.442 141.564 196.078 153.239 199.333z" transform="translate(-109.842 -143.24)" fill="#422c4f"/></g><path id="Path_206" data-name="Path 206" d="M140.536 163.9l1.8-11.812c13.918-5.972 25.219-18.49 27.468-33.21a97.029 97.029.0 0 1 71.346 15.18c-.037-13.621-8.567-63.282-59.807-59.636-105.847 7.533-55.766 97.69-54.186 106.406.4-.187.809-.36 1.208-.552A21.792 21.792.0 0 0 140.536 163.9z" transform="translate(-67.659 -50.945)" fill="#422c4f"/><path id="Path_207" data-name="Path 207" d="M164.71 102.8c-2.249 14.72-13.55 27.238-27.468 33.21l-1.8 11.812A21.792 21.792.0 0 1 123.271 164.2c-.4.191-.806.365-1.208.552a73.84 73.84.0 0 0 3.733 13.484c4.9 12.671 14 24.091 26.35 30.184s28.033 6.224 39.6-1.2c7.877-5.055 13.295-12.993 18.074-20.94a271.556 271.556.0 0 0 18.737-37.388c4.033-9.889 7.519-20.236 7.5-30.884v-.027A97.029 97.029.0 0 0 164.71 102.8z" transform="translate(-62.567 -34.867)" fill="#bd6c67"/><g id="Group_109" data-name="Group 109" transform="translate(53.055 104.572)"><g id="Group_107" data-name="Group 107" transform="translate(3.57 0)"><path id="Path_359" data-name="Path 359" d="M0 0 4.654.044l.261 27.687L.261 27.687z" transform="matrix(0.55, -0.835, 0.835, 0.55, 0, 3.861)" fill="#fff"/></g><g id="Group_108" data-name="Group 108" transform="translate(0 21.248)"><path id="Path_360" data-name="Path 360" d="M0 0 4.677.048 4.9 21.806.223 21.758z" transform="matrix(0.745, -0.667, 0.667, 0.745, 0, 3.085)" fill="#fff"/></g></g><g id="Group_110" data-name="Group 110" transform="translate(34.076 93.139)"><path id="Path_208" data-name="Path 208" d="M133.294 126.293c-2.571-4.308-6.959-7.9-12.043-8.221-7.359-.472-13.695 6.3-14.642 13.463s2.3 14.28 6.609 20.145c2.563 3.488 5.751 6.841 9.96 8.059C143.776 165.7 138.879 135.655 133.294 126.293z" transform="translate(-106.443 -118.048)" fill="#bd6c67"/><path id="Path_209" data-name="Path 209" d="M122.4 133.793a23.5 23.5.0 0 0-3.826 5.282 7.875 7.875.0 0 0-.441 6.3 5.029 5.029.0 0 0 5.237 3.123 5.417 5.417.0 0 0 3.909-3.805 14.388 14.388.0 0 0 .311-5.624 28.177 28.177.0 0 0-1.676-8.4 11.338 11.338.0 0 0-5.7-6.249c-2.676-1.156-6.127-.778-8.1 1.336-1.955 2.092-2.085 5.212-2.08 8.048a10.082 10.082.0 0 1 2.623-4.564 5.178 5.178.0 0 1 4.279-1.728 5.494 5.494.0 0 1 3.434 1.967A16.853 16.853.0 0 1 122.4 133.793z" transform="translate(-104.194 -114.644)" fill="#a64f5a"/></g><g id="Group_115" data-name="Group 115" transform="translate(61.56 111.798)"><path id="Path_210" data-name="Path 210" d="M170.643 139.252c6.357-.215 12.88-.894 18.952.957 8.367 2.552 16.042 10.822 21.707 18.063.607-1.33 1.222-2.631 1.862-3.85-5.779-7.707-12.186-15.864-21.507-18.707-6.072-1.851-12.595-1.172-18.95-.957-12.608.427-25.518-1.664-37.664-5.006-.488 1.744-1.03 3.472-1.61 5.188C145.09 137.612 159.879 139.617 170.643 139.252z" transform="translate(-116.993 -129.752)" fill="#fff"/><path id="Path_211" data-name="Path 211" d="M150.2 192.234c11.947 5.669 26.552 6.235 38.47.5 7.61-3.659 13.859-9.637 18.883-16.325 4.2-5.585 7.021-13.357 10.092-20.075-5.665-7.241-13.34-15.51-21.707-18.063-6.072-1.851-12.595-1.172-18.952-.957-10.764.365-25.553-1.64-37.21-4.312a106.552 106.552.0 0 1-16.44 30.812C128.514 175.789 138.248 186.563 150.2 192.234z" transform="translate(-123.331 -127.818)" fill="#454f6b"/><g id="Group_114" data-name="Group 114" transform="translate(30.726 14.525)"><g id="Group_111" data-name="Group 111" transform="translate(4.707 10.257)"><path id="Path_212" data-name="Path 212" d="M145.1 145.307a88.866 88.866.0 0 1 28.228 4.166c7.756 2.543 14.141 6.291 18 9.875-5.013-1.738-11.853-4.335-19.591-6.7C163.208 150 153.449 147.58 145.1 145.307z" transform="translate(-145.103 -145.296)" fill="#422c4f"/></g><g id="Group_112" data-name="Group 112" transform="translate(0 18.186)"><path id="Path_213" data-name="Path 213" d="M142.211 150.27c8.3 2.694 17.915 5.822 27.019 7.831a207.749 207.749.0 0 0 21.442 3.46 55.041 55.041.0 0 1-23.113.024C157.9 159.679 148.46 155.27 142.211 150.27z" transform="translate(-142.211 -150.27)" fill="#422c4f"/></g><g id="Group_113" data-name="Group 113" transform="translate(7.063)"><path id="Path_214" data-name="Path 214" d="M146.551 138.9c10.116-.2 21.852.316 31.366 3.632a31.824 31.824.0 0 1 11.029 6.375 20.481 20.481.0 0 1 5.672 8.617 29.68 29.68.0 0 0-7.185-6.52 46.921 46.921.0 0 0-11.019-5.116C167.329 142.927 156.016 141.326 146.551 138.9z" transform="translate(-146.551 -138.863)" fill="#422c4f"/></g></g></g><g id="Group_122" data-name="Group 122" transform="translate(30.703)"><path id="Path_218" data-name="Path 218" d="M120.457 145.919c46.439-15.8 91.313-18.5 126.7 3.85l3.494-2.187a16.825 16.825.0 0 0 7.794-16.818L256.5 118.149A44.5 44.5.0 0 0 239.861 89.9L217.973 72.774a62.4 62.4.0 0 0-68.79-5.2l-27.727 15.55a33.287 33.287.0 0 0-16.536 22.92v0a32.628 32.628.0 0 0 1.893 18.324l3.579 8.743a29.864 29.864.0 0 0 10.067 12.807z" transform="translate(-104.371 -59.626)" fill="#5dabff"/><g id="Group_121" data-name="Group 121" transform="translate(21.616 14.517)"><g id="Group_118" data-name="Group 118" transform="translate(7.864)"><path id="Path_219" data-name="Path 219" d="M122.485 122.023a66.034 66.034.0 0 0 10.593-.158 72.764 72.764.0 0 0 11.625-2.19 74.8 74.8.0 0 0 23.165-10.94 71.043 71.043.0 0 0 9.976-8.427 33.958 33.958.0 0 0 7.3-10.752 19.472 19.472.0 0 0 .985-12.186 13.858 13.858.0 0 0-6.118-8.638c4.363 4.936 4.443 12.837.876 18.9-3.52 6.221-10.084 11.383-16.663 16.127a110.553 110.553.0 0 1-21.072 11.582c-3.592 1.5-7.162 2.785-10.63 3.9C129.045 120.326 125.675 121.221 122.485 122.023z" transform="translate(-122.485 -68.732)" fill="#4987e5"/></g><g id="Group_119" data-name="Group 119" transform="translate(0 24.486)"><path id="Path_220" data-name="Path 220" d="M117.653 96.678a69.285 69.285.0 0 0 28.264-.882c10.084-2.316 19.5-6.924 25.631-11.7a234.419 234.419.0 0 1-26.5 8.15A235.428 235.428.0 0 1 117.653 96.678z" transform="translate(-117.653 -84.091)" fill="#4987e5"/></g><g id="Group_120" data-name="Group 120" transform="translate(99.373 23.249)"><path id="Path_221" data-name="Path 221" d="M203.477 118.211a32.725 32.725.0 0 0-1.562-10.353 39.218 39.218.0 0 0-5.38-10.8 39.911 39.911.0 0 0-8.458-8.7 34.294 34.294.0 0 0-9.363-5.041 69.77 69.77.0 0 1 15.365 15.416A68.411 68.411.0 0 1 203.477 118.211z" transform="translate(-178.714 -83.315)" fill="#4987e5"/></g></g></g></g></g><g id="Group_129" data-name="Group 129" transform="translate(330.57 292.447)"><path id="Path_222" data-name="Path 222" d="M317.989 270.172s21.043 5.108 28.415 22.877a4.061 4.061.0 0 1-2.653 5.43h0a4.174 4.174.0 0 1-4.79-1.84 58.258 58.258.0 0 0-10.287-12.728s5.387 4.462 8.373 14.755a5.119 5.119.0 0 1-3.836 6.417l-.2.046a5.259 5.259.0 0 1-5.984-3.032 53.423 53.423.0 0 0-9.232-14.524s3.619 5.4 6.917 18.669a5.65 5.65.0 0 1-3.715 6.689h0a5.822 5.822.0 0 1-7.008-2.713c-2.885-5.384-8.053-14.567-12.627-20.333A118.112 118.112.0 0 1 306.9 309.6a6 6 0 0 1-4.591 6.983h0a6.131 6.131.0 0 1-7.3-4.2l-6.044-20.881c-3.226 2.425-8.337 11.824-8.337 11.824-5.3-5.9-6.886-18.262-6.886-18.262L257.608 277.1c-5.507-35.964 25.7-38.791 39.335-29.543C299.3 264.517 317.989 270.172 317.989 270.172z" transform="translate(-256.963 -243.066)" fill="#fbeed1"/><g id="Group_128" data-name="Group 128" transform="translate(5.429 4.169)"><g id="Group_125" data-name="Group 125" transform="translate(10.369 8.728)"><path id="Path_223" data-name="Path 223" d="M290.841 252.178a13.575 13.575.0 0 0-9.135-.446 18.708 18.708.0 0 0-8.941 5.707 24.4 24.4.0 0 0-4.855 9.184 32.3 32.3.0 0 0-1.24 8.832c1.681-4.95 3.759-11.477 8.038-16.4a21.264 21.264.0 0 1 7.634-5.557A17.036 17.036.0 0 1 290.841 252.178z" transform="translate(-266.67 -251.156)" fill="#f7dd8c"/></g><g id="Group_126" data-name="Group 126"><path id="Path_224" data-name="Path 224" d="M261.479 272.739a26.184 26.184.0 0 1 1.334-9.762 23.745 23.745.0 0 1 5.667-9.186 24.416 24.416.0 0 1 9.333-5.621 27.786 27.786.0 0 1 9.953-1.382 19.668 19.668.0 0 0-10.523-.7 21.552 21.552.0 0 0-10.85 5.679 20.827 20.827.0 0 0-5.714 10.672A18.538 18.538.0 0 0 261.479 272.739z" transform="translate(-260.299 -245.681)" fill="#f7dd8c"/></g><g id="Group_127" data-name="Group 127" transform="translate(2.298 9.867)"><path id="Path_225" data-name="Path 225" d="M273.857 251.87a17.593 17.593.0 0 0-8.761 6.45 17.032 17.032.0 0 0-3.375 10.213 30.952 30.952.0 0 1 4.554-9.39A31.54 31.54.0 0 1 273.857 251.87z" transform="translate(-261.711 -251.87)" fill="#f7dd8c"/></g></g></g></g></g></svg>