<svg xmlns="http://www.w3.org/2000/svg" width="976.859" height="169.514" viewBox="0 0 976.859 169.514"><g id="Virus" transform="translate(0.098)"><g id="Group_424" data-name="Group 424" transform="translate(89.39 10.315)"><g id="Group_419" data-name="Group 419" transform="translate(12.87 13.288)"><g id="Group_415" data-name="Group 415" transform="translate(24.04 0.152)"><path id="Path_1068" data-name="Path 1068" d="M138.1 96.427c-4.79-3.26 15.281-39.738 13.1-44.612-1.585-3.538-4-10.316 4.09-7.273 14.091 5.3 8.543 7.533 2.865 10.625C153.916 57.474 142.89 99.685 138.1 96.427z" transform="translate(-110.535 -43.776)" fill="#8297ca"/><path id="Path_1069" data-name="Path 1069" d="M146.409 78.989c-5.608-1.251-16.8 39.078-21.7 40.878-3.558 1.308-9.939 4.267-2.169 8.106 13.527 6.683 11.191 1.028 9.356-5.323C130.524 117.912 152.016 80.24 146.409 78.989z" transform="translate(-118.85 -26.321)" fill="#8297ca"/></g><g id="Group_416" data-name="Group 416" transform="translate(0.141 24.817)"><path id="Path_1070" data-name="Path 1070" d="M137.176 79.538c3.158-4.946 38.493 15.773 43.214 13.519 3.427-1.637 9.992-4.132 7.045 4.223-5.133 14.547-7.3 8.82-10.292 2.956C174.908 95.865 134.018 84.483 137.176 79.538z" transform="translate(-86.796 -51.08)" fill="#8297ca"/><path id="Path_1071" data-name="Path 1071" d="M152.721 88.712c1.212-5.788-37.854-17.344-39.6-22.4-1.267-3.673-4.135-10.262-7.852-2.24-6.474 13.965-1 11.553 5.156 9.659C115.018 72.314 151.508 94.5 152.721 88.712z" transform="translate(-102.359 -60.262)" fill="#8297ca"/></g><g id="Group_417" data-name="Group 417" transform="translate(0 25.286)"><path id="Path_1072" data-name="Path 1072" d="M137.57 88.561c-1.155-5.8 38.023-16.945 39.817-21.985 1.3-3.659 4.235-10.217 7.874-2.157 6.335 14.033.881 11.563-5.252 9.6C175.434 72.561 138.725 94.361 137.57 88.561z" transform="translate(-86.412 -60.576)" fill="#8297ca"/><path id="Path_1073" data-name="Path 1073" d="M153.4 79.547c-3.109-4.979-38.648 15.366-43.346 13.062-3.411-1.673-9.952-4.238-7.087 4.147 4.988 14.6 7.21 8.9 10.263 3.066C115.511 95.473 156.509 84.525 153.4 79.547z" transform="translate(-102.262 -51.555)" fill="#8297ca"/></g><g id="Group_418" data-name="Group 418" transform="translate(24.452)"><path id="Path_1074" data-name="Path 1074" d="M137.1 78.984c5.62-1.192 16.414 39.253 21.3 41.105 3.545 1.344 9.9 4.372 2.09 8.127-13.594 6.539-11.2.911-9.3-5.422C152.6 118.071 131.485 80.174 137.1 78.984z" transform="translate(-111.49 -26.171)" fill="#8297ca"/><path id="Path_1075" data-name="Path 1075" d="M144.742 96.468c4.822-3.209-14.885-39.9-12.653-44.748 1.62-3.52 4.106-10.272-4.017-7.314-14.143 5.15-8.619 7.442-2.971 10.594C129.313 57.351 139.919 99.677 144.742 96.468z" transform="translate(-119.134 -43.675)" fill="#8297ca"/></g></g><g id="Group_420" data-name="Group 420" transform="translate(54.471)"><path id="Path_1076" data-name="Path 1076" d="M141.2 100.547c-6.766-1.308-.99-51.3-5.6-55.642-3.348-3.154-9.075-9.491 1.249-10.009 17.976-.9 12.844 4.234 7.955 10.381C141.155 49.862 147.968 101.854 141.2 100.547z" transform="translate(-130.967 -34.793)" fill="#5572b7"/><path id="Path_1077" data-name="Path 1077" d="M141.2 78.767c-6.766 1.308-.99 51.3-5.6 55.642-3.348 3.154-9.075 9.491 1.249 10.009 17.976.9 12.844-4.234 7.955-10.38C141.155 129.452 147.968 77.461 141.2 78.767z" transform="translate(-130.967 -12.99)" fill="#5572b7"/></g><g id="Group_421" data-name="Group 421" transform="translate(0 56.234)"><path id="Path_1078" data-name="Path 1078" d="M137.354 82.944c1.265-6.987 49.69-1.023 53.9-5.784 3.055-3.455 9.194-9.367 9.7 1.291.872 18.558-4.1 13.26-10.055 8.212C186.45 82.9 136.088 89.929 137.354 82.944z" transform="translate(-73.638 -72.38)" fill="#5572b7"/><path id="Path_1079" data-name="Path 1079" d="M157.073 82.944c-1.265-6.987-49.69-1.023-53.9-5.784-3.055-3.455-9.194-9.367-9.7 1.291-.872 18.558 4.1 13.26 10.055 8.212C107.978 82.9 158.34 89.929 157.073 82.944z" transform="translate(-93.381 -72.38)" fill="#5572b7"/></g><g id="Group_422" data-name="Group 422" transform="translate(13.708 14.152)"><path id="Path_1080" data-name="Path 1080" d="M137.918 96.587c-3.89-5.865 34.435-37 34.151-43.433-.207-4.674.084-13.335 7.739-6.165 13.329 12.485 6.182 12.37-1.485 13.148C172.6 60.715 141.808 102.452 137.918 96.587z" transform="translate(-87.207 -44.253)" fill="#5572b7"/><path id="Path_1081" data-name="Path 1081" d="M153.535 79.34c-5.681-4.017-35.836 35.549-42.074 35.254-4.526-.214-12.917.088-5.971 7.989 12.094 13.76 11.982 6.384 12.734-1.532C118.787 115.146 159.215 83.356 153.535 79.34z" transform="translate(-102.84 -26.988)" fill="#5572b7"/></g><g id="Group_423" data-name="Group 423" transform="translate(13.655 14.152)"><path id="Path_1082" data-name="Path 1082" d="M137.027 79.34c5.68-4.017 35.835 35.549 42.072 35.254 4.527-.214 12.917.088 5.971 7.989-12.094 13.76-11.982 6.384-12.734-1.532C171.775 115.146 131.346 83.356 137.027 79.34z" transform="translate(-87.675 -26.988)" fill="#5572b7"/><path id="Path_1083" data-name="Path 1083" d="M152.137 96.587c3.89-5.865-34.435-37-34.151-43.433.207-4.674-.084-13.335-7.739-6.165-13.327 12.485-6.182 12.37 1.485 13.148C117.453 60.715 148.248 102.452 152.137 96.587z" transform="translate(-102.803 -44.253)" fill="#5572b7"/></g><ellipse id="Ellipse_34" data-name="Ellipse 34" cx="39.367" cy="40.64" rx="39.367" ry="40.64" transform="translate(25.337 25.113)" fill="#5572b7"/><path id="Path_1084" data-name="Path 1084" d="M142.227 65.076a6.776 6.776.0 1 1-6.774-6.993A6.886 6.886.0 0 1 142.227 65.076z" transform="translate(-77.524 -23.239)" fill="#8297ca"/><path id="Path_1085" data-name="Path 1085" d="M139.171 82.06a10.024 10.024.0 1 1-10.018-10.343A10.184 10.184.0 0 1 139.171 82.06z" transform="translate(-81.812 -16.475)" fill="#8297ca"/><path id="Path_1086" data-name="Path 1086" d="M149.529 97.475a8.827 8.827.0 1 1-8.823-9.107A8.968 8.968.0 0 1 149.529 97.475z" transform="translate(-76.084 -8.214)" fill="#8297ca"/><path id="Path_1087" data-name="Path 1087" d="M159.916 69.981a8.109 8.109.0 1 1-8.106-8.368A8.239 8.239.0 0 1 159.916 69.981z" transform="translate(-70.774 -21.488)" fill="#8297ca"/><path id="Path_1088" data-name="Path 1088" d="M160.559 85.461a7.367 7.367.0 1 1-7.364-7.6A7.486 7.486.0 0 1 160.559 85.461z" transform="translate(-69.819 -13.428)" fill="#8297ca"/></g><g id="Group_434" data-name="Group 434" transform="translate(338.879 67.828)"><g id="Group_429" data-name="Group 429" transform="translate(4.699 4.85)"><g id="Group_425" data-name="Group 425" transform="translate(6.866 6.302)"><path id="Path_1089" data-name="Path 1089" d="M289.851 105.828c-1.9-2.733 15.926-17.856 15.728-20.9-.143-2.208-.09-6.309 3.6-3 6.426 5.766 3.045 5.785-.574 6.233C305.905 88.5 291.748 108.561 289.851 105.828z" transform="translate(-266.24 -80.689)" fill="#8297ca"/><path id="Path_1090" data-name="Path 1090" d="M297.119 97.54c-2.726-1.842-16.6 17.186-19.554 17.111-2.143-.054-6.11.177-2.748 3.842 5.855 6.381 5.73 2.893 6.008-.857C281.034 114.836 299.845 99.38 297.119 97.54z" transform="translate(-273.515 -72.391)" fill="#8297ca"/></g><g id="Group_426" data-name="Group 426" transform="translate(6.08 7.09)"><path id="Path_1091" data-name="Path 1091" d="M289.423 97.555c2.648-1.958 17.3 16.441 20.243 16.237 2.139-.148 6.111-.093 2.9 3.716-5.585 6.634-5.606 3.143-6.039-.592C306.206 114.129 286.775 99.514 289.423 97.555z" transform="translate(-265.693 -73.182)" fill="#8297ca"/><path id="Path_1092" data-name="Path 1092" d="M296.693 105.582c1.783-2.814-16.647-17.139-16.576-20.187.052-2.213-.17-6.306-3.72-2.835-6.181 6.043-2.8 5.914.83 6.2C279.938 88.976 294.91 108.4 296.693 105.582z" transform="translate(-272.972 -81.216)" fill="#8297ca"/></g><g id="Group_427" data-name="Group 427" transform="translate(0 25.969)"><path id="Path_1093" data-name="Path 1093" d="M289.583 99.461c.53-3.317 23.491-1 25.435-3.3 1.41-1.667 4.256-4.526 4.6.51.593 8.767-1.81 6.314-4.677 3.989C312.8 98.928 289.052 102.779 289.583 99.461z" transform="translate(-259.434 -93.834)" fill="#8297ca"/><path id="Path_1094" data-name="Path 1094" d="M298.914 99.043c-.667-3.29-23.512.034-25.548-2.174-1.478-1.6-4.44-4.336-4.572.711-.232 8.787 2.068 6.23 4.835 3.779C275.693 99.532 299.58 102.334 298.914 99.043z" transform="translate(-268.777 -93.417)" fill="#8297ca"/></g><g id="Group_428" data-name="Group 428" transform="translate(25.153)"><path id="Path_1095" data-name="Path 1095" d="M290.26 97.283c3.213.548.97 24.252 3.193 26.258 1.614 1.457 4.384 4.394-.494 4.747-8.492.612-6.116-1.869-3.864-4.828C290.776 121.254 287.046 96.735 290.26 97.283z" transform="translate(-285.753 -66.159)" fill="#8297ca"/><path id="Path_1096" data-name="Path 1096" d="M290.64 107.589c3.187-.688-.033-24.271 2.106-26.375 1.552-1.526 4.2-4.583-.688-4.72-8.511-.239-6.035 2.135-3.662 4.992C290.166 83.616 287.452 108.277 290.64 107.589z" transform="translate(-286.133 -76.477)" fill="#8297ca"/></g></g><g id="Group_430" data-name="Group 430" transform="translate(17.536 0)"><path id="Path_1097" data-name="Path 1097" d="M290.107 109.4c-3.329-2.113 9.578-27.4 7.99-30.669-1.154-2.374-2.94-6.936 2.633-5.043 9.706 3.3 5.975 4.94 2.172 7.172C300.066 82.521 293.437 111.51 290.107 109.4z" transform="translate(-272.28 -73.235)" fill="#5572b7"/><path id="Path_1098" data-name="Path 1098" d="M295.458 97.419c-3.845-.729-10.629 26.982-13.929 28.317-2.4.969-6.678 3.127-1.309 5.567 9.352 4.25 7.642.452 6.261-3.832C285.451 124.274 299.3 98.146 295.458 97.419z" transform="translate(-277.635 -61.245)" fill="#5572b7"/></g><g id="Group_431" data-name="Group 431" transform="translate(0 18.103)"><path id="Path_1099" data-name="Path 1099" d="M289.466 97.825c2.046-3.437 26.54 9.888 29.708 8.248 2.3-1.191 6.719-3.036 4.885 2.718-3.193 10.019-4.785 6.168-6.948 2.243C315.5 108.106 287.418 101.263 289.466 97.825z" transform="translate(-254.831 -79.421)" fill="#5572b7"/><path id="Path_1100" data-name="Path 1100" d="M300.156 103.734c.706-3.969-26.137-10.971-27.429-14.378-.939-2.473-3.029-6.9-5.393-1.352-4.117 9.654-.438 7.89 3.711 6.465C274.142 93.4 299.452 107.7 300.156 103.734z" transform="translate(-265.534 -85.335)" fill="#5572b7"/></g><g id="Group_432" data-name="Group 432" transform="translate(0.519 16.453)"><path id="Path_1101" data-name="Path 1101" d="M289.739 104.269c-.906-3.924 25.54-12.382 26.657-15.854.81-2.521 2.671-7.051 5.316-1.643 4.606 9.415.841 7.853-3.377 6.656C315.189 92.535 290.646 108.193 289.739 104.269z" transform="translate(-255.19 -84.233)" fill="#5572b7"/><path id="Path_1102" data-name="Path 1102" d="M300.43 97.792c-2.22-3.321-26 11.321-29.244 9.856-2.358-1.064-6.865-2.666-4.739 2.98 3.7 9.832 5.094 5.9 7.052 1.861C274.96 109.478 302.65 101.112 300.43 97.792z" transform="translate(-265.892 -77.75)" fill="#5572b7"/></g><g id="Group_433" data-name="Group 433" transform="translate(15.908 0.534)"><path id="Path_1103" data-name="Path 1103" d="M289.4 97.441c3.8-.937 11.994 26.364 15.357 27.518 2.442.836 6.83 2.757 1.591 5.488-9.12 4.755-7.607.868-6.448-3.486C300.769 123.714 285.6 98.376 289.4 97.441z" transform="translate(-270.995 -61.773)" fill="#5572b7"/><path id="Path_1104" data-name="Path 1104" d="M294.913 109.247c3.217-2.292-10.966-26.837-9.548-30.19 1.03-2.434 2.583-7.087-2.888-4.892-9.523 3.821-5.713 5.259-1.8 7.28C283.593 82.953 291.7 111.539 294.913 109.247z" transform="translate(-276.511 -73.592)" fill="#5572b7"/></g><path id="Path_1187" data-name="Path 1187" d="M23.064-.074C35.8-.115 46.1 9.862 46.055 22.209S35.655 44.6 22.917 44.64-.115 34.7-.074 22.357 10.326-.033 23.064-.074z" transform="matrix(0.103, -0.995, 0.995, 0.103, 10.837, 56.741)" fill="#5572b7"/><path id="Path_1105" data-name="Path 1105" d="M295.491 90.719A3.808 3.808.0 0 1 290.524 93a4.01 4.01.0 0 1-2.213-5.129 3.808 3.808.0 0 1 4.966-2.285A4.009 4.009.0 0 1 295.491 90.719z" transform="translate(-255.417 -67.236)" fill="#8297ca"/><path id="Path_1106" data-name="Path 1106" d="M290.681 98.96a5.633 5.633.0 0 1-7.346 3.378 5.931 5.931.0 0 1-3.274-7.584 5.635 5.635.0 0 1 7.348-3.38A5.931 5.931.0 0 1 290.681 98.96z" transform="translate(-259.178 -64.43)" fill="#8297ca"/><path id="Path_1107" data-name="Path 1107" d="M292.942 109.288a4.962 4.962.0 0 1-6.471 2.976 5.223 5.223.0 0 1-2.883-6.679 4.964 4.964.0 0 1 6.471-2.976A5.224 5.224.0 0 1 292.942 109.288z" transform="translate(-257.574 -58.833)" fill="#8297ca"/><path id="Path_1108" data-name="Path 1108" d="M303.978 96.857a4.558 4.558.0 0 1-5.943 2.733 4.8 4.8.0 0 1-2.649-6.136 4.559 4.559.0 0 1 5.945-2.733A4.8 4.8.0 0 1 303.978 96.857z" transform="translate(-252.262 -64.717)" fill="#8297ca"/><path id="Path_1109" data-name="Path 1109" d="M301.112 105.226a4.143 4.143.0 0 1-5.4 2.485 4.362 4.362.0 0 1-2.406-5.576 4.142 4.142.0 0 1 5.4-2.484A4.36 4.36.0 0 1 301.112 105.226z" transform="translate(-253.184 -60.273)" fill="#8297ca"/></g><g id="Group_444" data-name="Group 444" transform="translate(703.528)"><g id="Group_439" data-name="Group 439" transform="translate(4.699 4.849)"><g id="Group_435" data-name="Group 435" transform="translate(6.866 6.302)"><path id="Path_1110" data-name="Path 1110" d="M541.468 60.491c-1.9-2.733 15.926-17.856 15.728-20.9-.143-2.208-.09-6.308 3.6-3 6.426 5.767 3.045 5.787-.574 6.234C557.522 43.165 543.365 63.224 541.468 60.491z" transform="translate(-517.857 -35.352)" fill="#8297ca"/><path id="Path_1111" data-name="Path 1111" d="M548.736 52.2c-2.726-1.84-16.6 17.186-19.554 17.112-2.143-.054-6.11.175-2.748 3.84 5.855 6.382 5.73 2.895 6.008-.857C532.651 69.5 551.462 54.043 548.736 52.2z" transform="translate(-525.132 -27.055)" fill="#8297ca"/></g><g id="Group_436" data-name="Group 436" transform="translate(6.08 7.09)"><path id="Path_1112" data-name="Path 1112" d="M541.04 52.219c2.648-1.96 17.3 16.441 20.243 16.236 2.139-.148 6.111-.093 2.9 3.716-5.585 6.634-5.606 3.145-6.039-.592C557.823 68.792 538.392 54.178 541.04 52.219z" transform="translate(-517.311 -27.845)" fill="#8297ca"/><path id="Path_1113" data-name="Path 1113" d="M548.31 60.245c1.783-2.814-16.647-17.139-16.576-20.187.052-2.213-.17-6.306-3.72-2.835-6.181 6.044-2.8 5.914.83 6.2C531.555 43.639 546.527 63.059 548.31 60.245z" transform="translate(-524.589 -35.879)" fill="#8297ca"/></g><g id="Group_437" data-name="Group 437" transform="translate(0 25.969)"><path id="Path_1114" data-name="Path 1114" d="M541.2 54.123c.53-3.317 23.49-1 25.435-3.3 1.41-1.665 4.256-4.526 4.6.51.593 8.769-1.81 6.314-4.677 3.989C564.419 53.591 540.669 57.442 541.2 54.123z" transform="translate(-511.051 -48.498)" fill="#8297ca"/><path id="Path_1115" data-name="Path 1115" d="M550.531 53.707c-.667-3.291-23.512.033-25.548-2.175-1.478-1.6-4.44-4.334-4.572.712-.232 8.785 2.068 6.228 4.836 3.779C527.31 54.2 551.2 57 550.531 53.707z" transform="translate(-520.394 -48.08)" fill="#8297ca"/></g><g id="Group_438" data-name="Group 438" transform="translate(25.153)"><path id="Path_1116" data-name="Path 1116" d="M541.877 51.946c3.213.548.97 24.252 3.193 26.258 1.614 1.457 4.384 4.4-.494 4.747-8.492.613-6.116-1.869-3.864-4.826C542.393 75.918 538.663 51.4 541.877 51.946z" transform="translate(-537.37 -20.822)" fill="#8297ca"/><path id="Path_1117" data-name="Path 1117" d="M542.257 62.252c3.187-.688-.033-24.271 2.106-26.375 1.552-1.526 4.2-4.583-.688-4.72-8.511-.239-6.035 2.136-3.662 4.993C541.783 38.279 539.069 62.941 542.257 62.252z" transform="translate(-537.75 -31.14)" fill="#8297ca"/></g></g><g id="Group_440" data-name="Group 440" transform="translate(17.536)"><path id="Path_1118" data-name="Path 1118" d="M541.724 64.058c-3.329-2.113 9.578-27.4 7.99-30.669-1.154-2.374-2.94-6.936 2.633-5.042 9.706 3.294 5.975 4.939 2.172 7.171C551.683 37.184 545.054 66.172 541.724 64.058z" transform="translate(-523.897 -27.899)" fill="#5572b7"/><path id="Path_1119" data-name="Path 1119" d="M547.075 52.082c-3.845-.727-10.629 26.982-13.928 28.317-2.4.969-6.678 3.127-1.309 5.568 9.352 4.25 7.642.452 6.261-3.833C537.068 78.938 550.919 52.809 547.075 52.082z" transform="translate(-529.252 -15.909)" fill="#5572b7"/></g><g id="Group_441" data-name="Group 441" transform="translate(0 18.102)"><path id="Path_1120" data-name="Path 1120" d="M541.083 52.489c2.046-3.438 26.54 9.886 29.708 8.247 2.3-1.191 6.719-3.036 4.885 2.72-3.193 10.019-4.785 6.167-6.948 2.241C567.116 62.769 539.035 55.925 541.083 52.489z" transform="translate(-506.449 -34.084)" fill="#5572b7"/><path id="Path_1121" data-name="Path 1121" d="M551.773 58.4c.706-3.968-26.137-10.971-27.43-14.378-.939-2.473-3.029-6.9-5.393-1.351-4.117 9.653-.438 7.889 3.711 6.463C525.759 48.068 551.068 62.366 551.773 58.4z" transform="translate(-517.151 -39.998)" fill="#5572b7"/></g><g id="Group_442" data-name="Group 442" transform="translate(0.519 16.452)"><path id="Path_1122" data-name="Path 1122" d="M541.356 58.932c-.906-3.924 25.54-12.382 26.657-15.854.81-2.521 2.671-7.051 5.316-1.643 4.606 9.415.841 7.855-3.377 6.656C566.806 47.2 542.263 62.858 541.356 58.932z" transform="translate(-506.807 -38.896)" fill="#5572b7"/><path id="Path_1123" data-name="Path 1123" d="M552.047 52.455c-2.22-3.321-26 11.321-29.244 9.856-2.358-1.064-6.865-2.665-4.739 2.982 3.7 9.831 5.094 5.9 7.052 1.86C526.577 64.141 554.267 55.776 552.047 52.455z" transform="translate(-517.509 -32.413)" fill="#5572b7"/></g><g id="Group_443" data-name="Group 443" transform="translate(15.908 0.534)"><path id="Path_1124" data-name="Path 1124" d="M541.02 52.1c3.8-.937 11.994 26.364 15.357 27.518 2.442.836 6.83 2.757 1.591 5.489-9.12 4.755-7.607.868-6.448-3.486C552.386 78.377 537.219 53.04 541.02 52.1z" transform="translate(-522.612 -16.436)" fill="#5572b7"/><path id="Path_1125" data-name="Path 1125" d="M546.53 63.91c3.217-2.291-10.966-26.837-9.547-30.19 1.03-2.433 2.583-7.086-2.888-4.892-9.523 3.821-5.713 5.259-1.8 7.282C535.21 37.616 543.314 66.2 546.53 63.91z" transform="translate(-528.128 -28.256)" fill="#5572b7"/></g><path id="Path_1188" data-name="Path 1188" d="M23.064-.074C35.8-.115 46.1 9.862 46.055 22.209S35.655 44.6 22.917 44.64-.115 34.7-.074 22.357 10.326-.033 23.064-.074z" transform="translate(10.837 56.74) rotate(-84.105)" fill="#5572b7"/><path id="Path_1126" data-name="Path 1126" d="M547.108 45.383a3.808 3.808.0 0 1-4.966 2.285 4.009 4.009.0 0 1-2.213-5.129 3.808 3.808.0 0 1 4.966-2.285A4.011 4.011.0 0 1 547.108 45.383z" transform="translate(-507.034 -21.9)" fill="#8297ca"/><path id="Path_1127" data-name="Path 1127" d="M542.3 53.623A5.634 5.634.0 0 1 534.952 57a5.932 5.932.0 0 1-3.274-7.585 5.635 5.635.0 0 1 7.348-3.38A5.932 5.932.0 0 1 542.3 53.623z" transform="translate(-510.796 -19.094)" fill="#8297ca"/><path id="Path_1128" data-name="Path 1128" d="M544.559 63.952a4.964 4.964.0 0 1-6.471 2.976 5.225 5.225.0 0 1-2.882-6.68 4.964 4.964.0 0 1 6.471-2.976A5.225 5.225.0 0 1 544.559 63.952z" transform="translate(-509.191 -13.497)" fill="#8297ca"/><path id="Path_1129" data-name="Path 1129" d="M555.6 51.52a4.557 4.557.0 0 1-5.943 2.735A4.8 4.8.0 0 1 547 48.118a4.559 4.559.0 0 1 5.945-2.733A4.8 4.8.0 0 1 555.6 51.52z" transform="translate(-503.879 -19.381)" fill="#8297ca"/><path id="Path_1130" data-name="Path 1130" d="M552.729 59.89a4.144 4.144.0 0 1-5.4 2.484 4.361 4.361.0 0 1-2.406-5.574 4.141 4.141.0 0 1 5.4-2.484A4.36 4.36.0 0 1 552.729 59.89z" transform="translate(-504.801 -14.936)" fill="#8297ca"/></g><g id="Group_454" data-name="Group 454" transform="translate(525.95 12.115)"><g id="Group_449" data-name="Group 449" transform="translate(2.654 2.74)"><g id="Group_445" data-name="Group 445" transform="translate(3.88 3.559)"><path id="Path_1131" data-name="Path 1131" d="M408.354 54.407c-1.071-1.544 9-10.085 8.884-11.8-.08-1.248-.051-3.564 2.035-1.692 3.629 3.257 1.719 3.267-.325 3.52C417.423 44.619 409.426 55.951 408.354 54.407z" transform="translate(-395.018 -40.207)" fill="#8297ca"/><path id="Path_1132" data-name="Path 1132" d="M412.458 49.725c-1.539-1.04-9.378 9.708-11.044 9.666-1.212-.03-3.451.1-1.552 2.169 3.307 3.6 3.236 1.635 3.394-.485C403.373 59.5 414 50.764 412.458 49.725z" transform="translate(-399.127 -35.52)" fill="#8297ca"/></g><g id="Group_446" data-name="Group 446" transform="translate(3.435 4.005)"><path id="Path_1133" data-name="Path 1133" d="M408.112 49.734c1.5-1.107 9.769 9.286 11.434 9.171 1.209-.084 3.451-.052 1.639 2.1-3.155 3.746-3.165 1.776-3.41-.335C417.593 59.1 406.617 50.84 408.112 49.734z" transform="translate(-394.708 -35.966)" fill="#8297ca"/><path id="Path_1134" data-name="Path 1134" d="M412.22 54.268c1.006-1.59-9.4-9.681-9.363-11.4.029-1.249-.1-3.562-2.1-1.6-3.493 3.413-1.584 3.341.47 3.5C402.755 44.887 411.212 55.857 412.22 54.268z" transform="translate(-398.82 -40.504)" fill="#8297ca"/></g><g id="Group_447" data-name="Group 447" transform="translate(0 14.668)"><path id="Path_1135" data-name="Path 1135" d="M408.2 50.81c.3-1.873 13.269-.566 14.368-1.861.8-.941 2.4-2.557 2.6.287.335 4.954-1.023 3.567-2.642 2.253C421.318 50.509 407.9 52.684 408.2 50.81z" transform="translate(-391.172 -47.632)" fill="#8297ca"/><path id="Path_1136" data-name="Path 1136" d="M413.474 50.574c-.377-1.858-13.281.019-14.431-1.228-.836-.905-2.509-2.448-2.584.4-.13 4.963 1.17 3.519 2.732 2.135C400.357 50.85 413.849 52.433 413.474 50.574z" transform="translate(-396.45 -47.396)" fill="#8297ca"/></g><g id="Group_448" data-name="Group 448" transform="translate(14.208)"><path id="Path_1137" data-name="Path 1137" d="M408.586 49.58c1.814.31.546 13.7 1.8 14.832.912.823 2.477 2.482-.278 2.681-4.8.347-3.455-1.055-2.182-2.726C408.877 63.121 406.77 49.27 408.586 49.58z" transform="translate(-406.039 -32)" fill="#8297ca"/><path id="Path_1138" data-name="Path 1138" d="M408.8 55.4c1.8-.389-.017-13.71 1.19-14.9.877-.862 2.372-2.588-.388-2.666-4.807-.136-3.409 1.206-2.068 2.82C408.532 41.86 407 55.79 408.8 55.4z" transform="translate(-406.254 -37.828)" fill="#8297ca"/></g></g><g id="Group_450" data-name="Group 450" transform="translate(9.906)"><path id="Path_1139" data-name="Path 1139" d="M408.5 56.422c-1.881-1.194 5.41-15.476 4.513-17.323-.651-1.341-1.661-3.918 1.488-2.849 5.481 1.861 3.374 2.79 1.226 4.051C414.124 41.241 410.38 57.616 408.5 56.422z" transform="translate(-398.429 -35.997)" fill="#5572b7"/><path id="Path_1140" data-name="Path 1140" d="M411.52 49.657c-2.171-.411-6 15.241-7.866 15.995-1.354.548-3.772 1.765-.739 3.145 5.281 2.4 4.316.256 3.536-2.165C405.868 64.826 413.693 50.067 411.52 49.657z" transform="translate(-401.454 -29.224)" fill="#5572b7"/></g><g id="Group_451" data-name="Group 451" transform="translate(0 10.225)"><path id="Path_1141" data-name="Path 1141" d="M408.137 49.887c1.156-1.942 14.991 5.585 16.781 4.657 1.3-.672 3.794-1.715 2.759 1.536-1.8 5.66-2.7 3.483-3.924 1.266C422.842 55.693 406.98 51.827 408.137 49.887z" transform="translate(-388.573 -39.491)" fill="#5572b7"/><path id="Path_1142" data-name="Path 1142" d="M414.175 53.224c.4-2.243-14.763-6.2-15.494-8.122-.53-1.4-1.71-3.894-3.046-.763-2.326 5.453-.248 4.457 2.1 3.65C399.481 47.389 413.777 55.465 414.175 53.224z" transform="translate(-394.618 -42.831)" fill="#5572b7"/></g><g id="Group_452" data-name="Group 452" transform="translate(0.294 9.293)"><path id="Path_1143" data-name="Path 1143" d="M408.291 53.526c-.512-2.217 14.426-6.994 15.057-8.956.458-1.423 1.509-3.983 3-.928 2.6 5.319.474 4.436-1.907 3.76C422.666 46.9 408.8 55.743 408.291 53.526z" transform="translate(-388.776 -42.208)" fill="#5572b7"/><path id="Path_1144" data-name="Path 1144" d="M414.329 49.867c-1.254-1.876-14.684 6.4-16.518 5.568-1.332-.6-3.877-1.507-2.677 1.683 2.09 5.554 2.878 3.332 3.984 1.05C399.943 56.468 415.584 51.743 414.329 49.867z" transform="translate(-394.821 -38.547)" fill="#5572b7"/></g><g id="Group_453" data-name="Group 453" transform="translate(8.986 0.302)"><path id="Path_1145" data-name="Path 1145" d="M408.1 49.668c2.148-.528 6.775 14.892 8.674 15.545 1.38.473 3.859 1.557.9 3.1-5.152 2.686-4.3.491-3.642-1.969C414.521 64.51 405.954 50.2 408.1 49.668z" transform="translate(-397.704 -29.522)" fill="#5572b7"/><path id="Path_1146" data-name="Path 1146" d="M411.214 56.338c1.816-1.3-6.2-15.16-5.394-17.054.583-1.373 1.459-4-1.63-2.763-5.379 2.159-3.227 2.971-1.019 4.113C404.82 41.485 409.4 57.633 411.214 56.338z" transform="translate(-400.819 -36.198)" fill="#5572b7"/></g><path id="Path_1147" data-name="Path 1147" d="M424.1 58.639a12.506 12.506.0 0 1-16.307 7.5A13.166 13.166.0 0 1 400.53 49.3a12.507 12.507.0 0 1 16.308-7.5A13.165 13.165.0 0 1 424.1 58.639z" transform="translate(-392.341 -33.546)" fill="#5572b7"/><path id="Path_1191" data-name="Path 1191" d="M2.172-.005A2.2 2.2.0 0 1 4.34 2.232 2.22 2.22.0 0 1 2.162 4.479 2.2 2.2.0 0 1-.005 2.242 2.22 2.22.0 0 1 2.172-.005z" transform="translate(18.286 10.386) rotate(-4.106)" fill="#8297ca"/><path id="Path_1148" data-name="Path 1148" d="M408.824 50.527a3.184 3.184.0 0 1-4.151 1.909 3.352 3.352.0 0 1-1.849-4.285 3.184 3.184.0 0 1 4.151-1.909A3.352 3.352.0 0 1 408.824 50.527z" transform="translate(-391.028 -31.023)" fill="#8297ca"/><path id="Path_1149" data-name="Path 1149" d="M410.1 56.362a2.8 2.8.0 0 1-3.655 1.68 2.948 2.948.0 0 1-1.628-3.772 2.8 2.8.0 0 1 3.654-1.682A2.951 2.951.0 0 1 410.1 56.362z" transform="translate(-390.122 -27.862)" fill="#8297ca"/><path id="Path_1150" data-name="Path 1150" d="M416.334 49.339a2.574 2.574.0 0 1-3.358 1.544 2.709 2.709.0 0 1-1.5-3.465 2.575 2.575.0 0 1 3.358-1.544A2.709 2.709.0 0 1 416.334 49.339z" transform="translate(-387.121 -31.185)" fill="#8297ca"/><path id="Path_1151" data-name="Path 1151" d="M414.714 54.067a2.34 2.34.0 0 1-3.051 1.4 2.462 2.462.0 0 1-1.358-3.149 2.339 2.339.0 0 1 3.049-1.4A2.462 2.462.0 0 1 414.714 54.067z" transform="translate(-387.642 -28.674)" fill="#8297ca"/></g><g id="Group_464" data-name="Group 464" transform="translate(805.576 68.116)"><g id="Group_459" data-name="Group 459" transform="translate(9.216 9.514)"><g id="Group_455" data-name="Group 455" transform="translate(1.708 17.369)"><path id="Path_1152" data-name="Path 1152" d="M621.673 115.8c-1.245-4.384 28.184-15.512 29.254-19.5.777-2.9 2.629-8.128 5.92-2.172 5.73 10.372 1.387 8.83-3.448 7.726C649.792 101.028 622.916 120.185 621.673 115.8z" transform="translate(-583.187 -91.397)" fill="#8297ca"/><path id="Path_1153" data-name="Path 1153" d="M633.576 107.874c-2.694-3.624-28.761 14.34-32.515 12.875-2.725-1.062-7.908-2.606-5.191 3.652 4.73 10.9 6.087 6.366 8.077 1.685C605.429 122.595 636.272 111.5 633.576 107.874z" transform="translate(-595.105 -83.462)" fill="#8297ca"/></g><g id="Group_456" data-name="Group 456" transform="translate(16.789 1.763)"><path id="Path_1154" data-name="Path 1154" d="M621.258 107.534c4.246-1.284 15.027 29.1 18.893 30.2 2.807.8 7.875 2.712 2.1 6.112-10.046 5.916-8.553 1.432-7.484-3.559C635.571 136.565 617.012 108.819 621.258 107.534z" transform="translate(-598.721 -67.804)" fill="#8297ca"/><path id="Path_1155" data-name="Path 1155" d="M628.042 120.682c3.509-2.781-13.891-29.692-12.473-33.567 1.029-2.813 2.525-8.164-3.538-5.361-10.555 4.885-6.166 6.285-1.632 8.338C613.782 91.625 624.532 123.465 628.042 120.682z" transform="translate(-605.511 -80.965)" fill="#8297ca"/></g><g id="Group_457" data-name="Group 457" transform="translate(0 22.816)"><path id="Path_1156" data-name="Path 1156" d="M621.354 107.985c2.123-4.008 30.554 9.606 34.045 7.564 2.535-1.483 7.427-3.83 5.674 2.784-3.052 11.517-5.066 7.258-7.729 2.947C651.358 118.066 619.231 111.993 621.354 107.985z" transform="translate(-581.65 -88.982)" fill="#8297ca"/><path id="Path_1157" data-name="Path 1157" d="M633.616 114.036c.575-4.529-30.16-10.856-31.812-14.63-1.2-2.741-3.807-7.617-6.172-1.207-4.119 11.158-.057 8.945 4.556 7.087C603.63 103.9 633.039 118.564 633.616 114.036z" transform="translate(-593.926 -95.037)" fill="#8297ca"/></g><g id="Group_458" data-name="Group 458" transform="translate(22.072)"><path id="Path_1158" data-name="Path 1158" d="M626.367 107.219c3.883 2.192-9.305 31.542-7.327 35.146 1.436 2.615 3.71 7.668-2.7 5.857-11.156-3.151-7.029-5.23-2.854-7.98C616.6 138.192 622.486 105.025 626.367 107.219z" transform="translate(-609.157 -66.23)" fill="#8297ca"/><path id="Path_1159" data-name="Path 1159" d="M621.3 120.761c4.388.594 10.516-31.135 14.172-32.841 2.655-1.237 7.378-3.93 1.171-6.372-10.808-4.252-8.665-.058-6.865 4.7C631.117 89.8 616.91 120.165 621.3 120.761z" transform="translate(-604.082 -79.787)" fill="#8297ca"/></g></g><g id="Group_460" data-name="Group 460" transform="translate(13.075 8.546)"><path id="Path_1160" data-name="Path 1160" d="M621.953 121.8c-3.351-4.252 24.2-30.688 23.582-35.618-.445-3.579-.754-10.256 5.571-5.245 11.011 8.724 5.511 9.1-.335 10.2C646.41 91.96 625.3 126.055 621.953 121.8z" transform="translate(-585.322 -79.14)" fill="#5572b7"/><path id="Path_1161" data-name="Path 1161" d="M633.208 107.719c-4.613-2.715-25.363 29.669-30.174 29.85-3.493.133-9.923.913-4.1 6.532 10.14 9.785 9.6 4.122 9.694-2.011C608.7 137.514 637.821 110.434 633.208 107.719z" transform="translate(-596.589 -65.042)" fill="#5572b7"/></g><g id="Group_461" data-name="Group 461" transform="translate(8.241 13.498)"><path id="Path_1162" data-name="Path 1162" d="M621.226 107.823c4.12-3.459 29.728 24.979 34.5 24.345 3.467-.459 9.934-.778 5.081 5.751-8.452 11.367-8.819 5.69-9.884-.346C650.133 133.071 617.106 111.282 621.226 107.823z" transform="translate(-580.848 -70.008)" fill="#5572b7"/><path id="Path_1163" data-name="Path 1163" d="M633.619 120.253c2.629-4.762-28.74-26.183-28.916-31.15-.128-3.606-.884-10.244-6.327-4.231-9.478 10.468-3.993 9.912 1.949 10.007C604.757 94.95 630.989 125.016 633.619 120.253z" transform="translate(-593.254 -82.45)" fill="#5572b7"/></g><g id="Group_462" data-name="Group 462" transform="translate(0 39.404)"><path id="Path_1164" data-name="Path 1164" d="M621.507 111.855c.545-5.453 38.131-4.038 41.073-7.973 2.136-2.855 6.491-7.8 7.532.358 1.81 14.207-2.338 10.461-7.224 6.97C659.242 108.607 620.963 117.306 621.507 111.855z" transform="translate(-572.323 -99.766)" fill="#5572b7"/><path id="Path_1165" data-name="Path 1165" d="M636.733 109.228c-1.4-5.287-38.257 2.466-41.783-.919-2.561-2.457-7.642-6.6-7.374 1.626.47 14.321 3.966 9.924 8.233 5.654C598.993 112.4 638.135 114.515 636.733 109.228z" transform="translate(-587.567 -97.138)" fill="#5572b7"/></g><g id="Group_463" data-name="Group 463" transform="translate(38.158)"><path id="Path_1166" data-name="Path 1166" d="M621.7 107.368c5.281.563 3.91 39.364 7.722 42.4 2.766 2.205 7.558 6.7-.346 7.775-13.762 1.869-10.133-2.413-6.752-7.458C624.842 146.322 616.414 106.807 621.7 107.368z" transform="translate(-611.509 -56.593)" fill="#5572b7"/><path id="Path_1167" data-name="Path 1167" d="M624.082 124.185c5.12-1.448-2.388-39.494.888-43.134 2.38-2.644 6.392-7.889-1.574-7.612-13.873.485-9.613 4.095-5.478 8.5C621 85.223 618.961 125.632 624.082 124.185z" transform="translate(-613.897 -73.428)" fill="#5572b7"/></g><path id="Path_1189" data-name="Path 1189" d="M30.368-.08C47.14-.125 60.7 13.869 60.655 31.176S46.979 62.549 30.207 62.593-.125 48.644-.08 31.337 13.6-.036 30.368-.08z" transform="matrix(0.997, -0.082, 0.082, 0.997, 16.952, 22.546)" fill="#5572b7"/><path id="Path_1168" data-name="Path 1168" d="M632.692 101.2a5.111 5.111.0 0 1-7.362.625 5.512 5.512.0 0 1-.607-7.6 5.111 5.111.0 0 1 7.362-.627A5.515 5.515.0 0 1 632.692 101.2z" transform="translate(-571.433 -64.058)" fill="#8297ca"/><path id="Path_1169" data-name="Path 1169" d="M623.161 109.416a7.56 7.56.0 0 1-10.89.928 8.157 8.157.0 0 1-.9-11.242 7.562 7.562.0 0 1 10.891-.928A8.155 8.155.0 0 1 623.161 109.416z" transform="translate(-577.696 -62.09)" fill="#8297ca"/><path id="Path_1170" data-name="Path 1170" d="M621.3 123.742a6.657 6.657.0 0 1-9.59.815 7.182 7.182.0 0 1-.79-9.9 6.658 6.658.0 0 1 9.59-.815A7.181 7.181.0 0 1 621.3 123.742z" transform="translate(-577.803 -54.205)" fill="#8297ca"/><path id="Path_1171" data-name="Path 1171" d="M640.954 112.8a6.117 6.117.0 0 1-8.81.75 6.6 6.6.0 0 1-.726-9.095 6.117 6.117.0 0 1 8.81-.75A6.6 6.6.0 0 1 640.954 112.8z" transform="translate(-568.534 -59.166)" fill="#8297ca"/><path id="Path_1172" data-name="Path 1172" d="M633.445 122.285a5.556 5.556.0 0 1-8 .681 6 6 0 0 1-.661-8.263 5.557 5.557.0 0 1 8-.681A6 6 0 0 1 633.445 122.285z" transform="translate(-571.455 -53.979)" fill="#8297ca"/></g><path id="Path_1173" data-name="Path 1173" d="M244.549 46.963a8.854 8.854.0 1 1-8.85-9.135A9 9 0 0 1 244.549 46.963z" transform="translate(55.966 -22.973)" fill="#5572b7"/><ellipse id="Ellipse_39" data-name="Ellipse 39" cx="8.018" cy="8.277" rx="8.018" ry="8.277" transform="translate(259.382 93.86)" fill="#5572b7"/><ellipse id="Ellipse_40" data-name="Ellipse 40" cx="3.817" cy="3.94" rx="3.817" ry="3.94" transform="translate(351.887 12.115)" fill="#5572b7"/><path id="Path_1190" data-name="Path 1190" d="M11.519-.081A11.167 11.167.0 0 1 22.957 11.034a11.558 11.558.0 0 1-11.6 11.276A11.167 11.167.0 0 1-.081 11.2 11.558 11.558.0 0 1 11.519-.081z" transform="translate(0 30.431) rotate(-76.718)" fill="#5572b7"/><ellipse id="Ellipse_42" data-name="Ellipse 42" cx="11.144" cy="11.504" rx="11.144" ry="11.504" transform="translate(509.752 91.677)" fill="#5572b7"/><path id="Path_1174" data-name="Path 1174" d="M480.119 46.063a5.885 5.885.0 1 1-5.882-6.073A5.979 5.979.0 0 1 480.119 46.063z" transform="translate(164.456 -21.9)" fill="#5572b7"/><path id="Path_1175" data-name="Path 1175" d="M497.6 107.149a5.966 5.966.0 1 1-5.962-6.155A6.06 6.06.0 0 1 497.6 107.149z" transform="translate(172.235 8.364)" fill="#5572b7"/><path id="Path_1176" data-name="Path 1176" d="M620.429 39.368A3.267 3.267.0 1 1 617.164 36 3.32 3.32.0 0 1 620.429 39.368z" transform="translate(229.837 -23.881)" fill="#5572b7"/><ellipse id="Ellipse_43" data-name="Ellipse 43" cx="9.549" cy="9.858" rx="9.549" ry="9.858" transform="translate(957.664 93.86)" fill="#5572b7"/><ellipse id="Ellipse_44" data-name="Ellipse 44" cx="5.001" cy="5.162" rx="5.001" ry="5.162" transform="translate(692.241 101.766)" fill="#5572b7"/><path id="Path_1177" data-name="Path 1177" d="M672.113 34.984a6.52 6.52.0 1 1-6.517-6.728A6.626 6.626.0 0 1 672.113 34.984z" transform="translate(250.134 -27.722)" fill="#5572b7"/><path id="Path_1178" data-name="Path 1178" d="M653.353 57.394a5.263 5.263.0 1 1-5.261-5.431A5.347 5.347.0 0 1 653.353 57.394z" transform="translate(242.836 -15.96)" fill="#5572b7"/></g></svg>