<svg xmlns="http://www.w3.org/2000/svg" width="734.827" height="611.901" viewBox="0 0 734.827 611.901">
  <g id="washHands" transform="translate(17.112 -45.925)">
    <ellipse id="Ellipse_134" data-name="Ellipse 134" cx="282.223" cy="272.164" rx="282.223" ry="272.164" transform="translate(64.674 68.933)" fill="#e7faf9"/>
    <g id="Group_1572" data-name="Group 1572" transform="translate(-17.112 45.925)">
      <g id="Virus" transform="translate(0 29.44)">
        <g id="Group_424" data-name="Group 424" transform="translate(86.347 10.315)">
          <g id="Group_419" data-name="Group 419" transform="translate(12.402 13.288)">
            <g id="Group_415" data-name="Group 415" transform="translate(23.165 0.152)">
              <path id="Path_1068" data-name="Path 1068" d="M138.074,96.427c-4.615-3.26,14.725-39.738,12.62-44.612-1.528-3.538-3.857-10.316,3.941-7.273,13.578,5.3,8.232,7.533,2.761,10.625C153.314,57.474,142.689,99.685,138.074,96.427Z" transform="translate(-111.511 -43.776)" fill="#8297ca"/>
              <path id="Path_1069" data-name="Path 1069" d="M145.406,78.989c-5.4-1.251-16.191,39.078-20.914,40.878-3.428,1.308-9.577,4.267-2.091,8.106,13.035,6.683,10.784,1.028,9.016-5.323C130.1,117.912,150.809,80.24,145.406,78.989Z" transform="translate(-118.85 -26.321)" fill="#8297ca"/>
            </g>
            <g id="Group_416" data-name="Group 416" transform="translate(0.136 24.817)">
              <path id="Path_1070" data-name="Path 1070" d="M137.17,79.538c3.043-4.946,37.093,15.773,41.643,13.519,3.3-1.637,9.629-4.132,6.788,4.223-4.946,14.547-7.031,8.82-9.918,2.956C173.529,95.865,134.127,84.483,137.17,79.538Z" transform="translate(-88.622 -51.08)" fill="#8297ca"/>
              <path id="Path_1071" data-name="Path 1071" d="M150.889,88.712c1.167-5.788-36.477-17.344-38.157-22.4-1.221-3.673-3.984-10.262-7.566-2.24-6.238,13.965-.961,11.553,4.969,9.659C114.558,72.314,149.72,94.5,150.889,88.712Z" transform="translate(-102.359 -60.262)" fill="#8297ca"/>
            </g>
            <g id="Group_417" data-name="Group 417" transform="translate(0 25.286)">
              <path id="Path_1072" data-name="Path 1072" d="M137.569,88.561c-1.113-5.8,36.64-16.945,38.369-21.985,1.255-3.659,4.081-10.217,7.587-2.157,6.1,14.033.849,11.563-5.061,9.6C174.056,72.561,138.682,94.361,137.569,88.561Z" transform="translate(-88.272 -60.576)" fill="#8297ca"/>
              <path id="Path_1073" data-name="Path 1073" d="M151.542,79.547c-3-4.979-37.242,15.366-41.77,13.062-3.287-1.673-9.59-4.238-6.829,4.147,4.807,14.6,6.948,8.9,9.89,3.066C115.029,95.473,154.536,84.525,151.542,79.547Z" transform="translate(-102.262 -51.555)" fill="#8297ca"/>
            </g>
            <g id="Group_418" data-name="Group 418" transform="translate(23.562)">
              <path id="Path_1074" data-name="Path 1074" d="M137.07,78.984c5.416-1.192,15.817,39.253,20.522,41.105,3.416,1.344,9.537,4.372,2.014,8.127-13.1,6.539-10.794.911-8.966-5.422C152,118.071,131.654,80.174,137.07,78.984Z" transform="translate(-112.387 -26.171)" fill="#8297ca"/>
              <path id="Path_1075" data-name="Path 1075" d="M143.81,96.468c4.646-3.209-14.344-39.9-12.193-44.748,1.561-3.52,3.956-10.272-3.871-7.314-13.629,5.15-8.305,7.442-2.863,10.594C128.943,57.351,139.163,99.677,143.81,96.468Z" transform="translate(-119.134 -43.675)" fill="#8297ca"/>
            </g>
          </g>
          <g id="Group_420" data-name="Group 420" transform="translate(52.49)">
            <path id="Path_1076" data-name="Path 1076" d="M140.828,100.547c-6.52-1.308-.954-51.3-5.4-55.642-3.226-3.154-8.745-9.491,1.2-10.009,17.322-.9,12.377,4.234,7.665,10.381C140.784,49.862,147.349,101.854,140.828,100.547Z" transform="translate(-130.967 -34.793)" fill="#5572b7"/>
            <path id="Path_1077" data-name="Path 1077" d="M140.828,78.767c-6.52,1.308-.954,51.3-5.4,55.642-3.226,3.154-8.745,9.491,1.2,10.009,17.322.9,12.377-4.234,7.665-10.38C140.784,129.452,147.349,77.461,140.828,78.767Z" transform="translate(-130.967 -12.99)" fill="#5572b7"/>
          </g>
          <g id="Group_421" data-name="Group 421" transform="translate(0 56.234)">
            <path id="Path_1078" data-name="Path 1078" d="M137.353,82.944c1.219-6.987,47.882-1.023,51.936-5.784,2.944-3.455,8.859-9.367,9.343,1.291.841,18.558-3.951,13.26-9.689,8.212C184.663,82.9,136.133,89.929,137.353,82.944Z" transform="translate(-75.954 -72.38)" fill="#5572b7"/>
            <path id="Path_1079" data-name="Path 1079" d="M154.756,82.944c-1.219-6.987-47.882-1.023-51.936-5.784-2.944-3.455-8.859-9.367-9.343,1.291-.841,18.558,3.951,13.26,9.689,8.212C107.447,82.9,155.977,89.929,154.756,82.944Z" transform="translate(-93.381 -72.38)" fill="#5572b7"/>
          </g>
          <g id="Group_422" data-name="Group 422" transform="translate(13.21 14.152)">
            <path id="Path_1080" data-name="Path 1080" d="M137.908,96.587c-3.748-5.865,33.183-37,32.909-43.433-.2-4.674.081-13.335,7.457-6.165,12.844,12.485,5.958,12.37-1.431,13.148C171.331,60.715,141.656,102.452,137.908,96.587Z" transform="translate(-89.041 -44.253)" fill="#5572b7"/>
            <path id="Path_1081" data-name="Path 1081" d="M151.691,79.34c-5.474-4.017-34.533,35.549-40.544,35.254-4.361-.214-12.447.088-5.754,7.989,11.654,13.76,11.546,6.384,12.271-1.532C118.207,115.146,157.164,83.356,151.691,79.34Z" transform="translate(-102.84 -26.988)" fill="#5572b7"/>
          </g>
          <g id="Group_423" data-name="Group 423" transform="translate(13.158 14.152)">
            <path id="Path_1082" data-name="Path 1082" d="M137.007,79.34c5.473-4.017,34.532,35.549,40.542,35.254,4.363-.214,12.447.088,5.754,7.989-11.654,13.76-11.546,6.384-12.271-1.532C170.491,115.146,131.532,83.356,137.007,79.34Z" transform="translate(-89.45 -26.988)" fill="#5572b7"/>
            <path id="Path_1083" data-name="Path 1083" d="M150.343,96.587c3.748-5.865-33.183-37-32.909-43.433.2-4.674-.081-13.335-7.457-6.165-12.842,12.485-5.958,12.37,1.431,13.148C116.92,60.715,146.595,102.452,150.343,96.587Z" transform="translate(-102.803 -44.253)" fill="#5572b7"/>
          </g>
          <ellipse id="Ellipse_34" data-name="Ellipse 34" cx="37.935" cy="40.64" rx="37.935" ry="40.64" transform="translate(24.415 25.113)" fill="#5572b7"/>
          <path id="Path_1084" data-name="Path 1084" d="M141.734,65.076a6.542,6.542,0,1,1-6.527-6.993A6.772,6.772,0,0,1,141.734,65.076Z" transform="translate(-79.384 -23.239)" fill="#8297ca"/>
          <path id="Path_1085" data-name="Path 1085" d="M138.442,82.06c0,5.712-4.322,10.343-9.654,10.343s-9.654-4.63-9.654-10.343,4.322-10.343,9.654-10.343S138.442,76.347,138.442,82.06Z" transform="translate(-83.17 -16.475)" fill="#8297ca"/>
          <path id="Path_1086" data-name="Path 1086" d="M148.888,97.475c0,5.03-3.807,9.107-8.5,9.107s-8.5-4.077-8.5-9.107,3.807-9.107,8.5-9.107S148.888,92.445,148.888,97.475Z" transform="translate(-78.114 -8.214)" fill="#8297ca"/>
          <path id="Path_1087" data-name="Path 1087" d="M159.326,69.981a7.829,7.829,0,1,1-7.811-8.368A8.1,8.1,0,0,1,159.326,69.981Z" transform="translate(-73.427 -21.488)" fill="#8297ca"/>
          <path id="Path_1088" data-name="Path 1088" d="M160.023,85.461a7.113,7.113,0,1,1-7.1-7.6A7.362,7.362,0,0,1,160.023,85.461Z" transform="translate(-72.584 -13.428)" fill="#8297ca"/>
        </g>
        <g id="Group_434" data-name="Group 434" transform="translate(249.542 67.828)">
          <g id="Group_429" data-name="Group 429" transform="translate(4.528 4.85)">
            <g id="Group_425" data-name="Group 425" transform="translate(6.617 6.302)">
              <path id="Path_1089" data-name="Path 1089" d="M289.846,105.828c-1.828-2.733,15.346-17.856,15.156-20.9-.138-2.208-.087-6.309,3.469-3,6.192,5.766,2.934,5.785-.553,6.233C305.316,88.5,291.674,108.561,289.846,105.828Z" transform="translate(-267.094 -80.689)" fill="#8297ca"/>
              <path id="Path_1090" data-name="Path 1090" d="M296.26,97.54c-2.627-1.842-16,17.186-18.843,17.111-2.065-.054-5.888.177-2.648,3.842,5.642,6.381,5.522,2.893,5.79-.857C280.76,114.836,298.887,99.38,296.26,97.54Z" transform="translate(-273.515 -72.391)" fill="#8297ca"/>
            </g>
            <g id="Group_426" data-name="Group 426" transform="translate(5.859 7.09)">
              <path id="Path_1091" data-name="Path 1091" d="M289.414,97.555C291.965,95.6,306.081,114,308.92,113.793c2.061-.148,5.889-.093,2.8,3.716-5.382,6.634-5.4,3.143-5.819-.592C305.587,114.129,286.862,99.514,289.414,97.555Z" transform="translate(-266.547 -73.182)" fill="#8297ca"/>
              <path id="Path_1092" data-name="Path 1092" d="M295.83,105.582c1.718-2.814-16.042-17.139-15.973-20.187.05-2.213-.163-6.306-3.585-2.835-5.956,6.043-2.7,5.914.8,6.2C279.685,88.976,294.112,108.4,295.83,105.582Z" transform="translate(-272.972 -81.216)" fill="#8297ca"/>
            </g>
            <g id="Group_427" data-name="Group 427" transform="translate(0 25.969)">
              <path id="Path_1093" data-name="Path 1093" d="M289.582,99.461c.511-3.317,22.636-1,24.51-3.3,1.359-1.667,4.1-4.526,4.431.51.571,8.767-1.744,6.314-4.507,3.989C311.957,98.928,289.071,102.779,289.582,99.461Z" transform="translate(-260.531 -93.834)" fill="#8297ca"/>
              <path id="Path_1094" data-name="Path 1094" d="M297.818,99.043c-.642-3.29-22.657.034-24.619-2.174-1.424-1.6-4.279-4.336-4.406.711-.223,8.787,1.993,6.23,4.659,3.779C275.441,99.532,298.46,102.334,297.818,99.043Z" transform="translate(-268.777 -93.417)" fill="#8297ca"/>
            </g>
            <g id="Group_428" data-name="Group 428" transform="translate(24.238)">
              <path id="Path_1095" data-name="Path 1095" d="M290.141,97.283c3.1.548.934,24.252,3.077,26.258,1.556,1.457,4.224,4.394-.476,4.747-8.184.612-5.893-1.869-3.723-4.828C290.638,121.254,287.044,96.735,290.141,97.283Z" transform="translate(-285.798 -66.159)" fill="#8297ca"/>
              <path id="Path_1096" data-name="Path 1096" d="M290.476,107.589c3.071-.688-.032-24.271,2.029-26.375,1.5-1.526,4.046-4.583-.663-4.72-8.2-.239-5.815,2.135-3.529,4.992C290.02,83.616,287.4,108.277,290.476,107.589Z" transform="translate(-286.133 -76.477)" fill="#8297ca"/>
            </g>
          </g>
          <g id="Group_430" data-name="Group 430" transform="translate(16.899)">
            <path id="Path_1097" data-name="Path 1097" d="M290.087,109.4c-3.208-2.113,9.23-27.4,7.7-30.669-1.112-2.374-2.833-6.936,2.537-5.043,9.352,3.3,5.758,4.94,2.093,7.172C299.684,82.521,293.3,111.51,290.087,109.4Z" transform="translate(-272.908 -73.235)" fill="#5572b7"/>
            <path id="Path_1098" data-name="Path 1098" d="M294.809,97.419c-3.705-.729-10.242,26.982-13.422,28.317-2.308.969-6.435,3.127-1.261,5.567,9.012,4.25,7.364.452,6.033-3.832C285.166,124.274,298.514,98.146,294.809,97.419Z" transform="translate(-277.635 -61.245)" fill="#5572b7"/>
          </g>
          <g id="Group_431" data-name="Group 431" transform="translate(0 18.103)">
            <path id="Path_1099" data-name="Path 1099" d="M289.462,97.825c1.972-3.437,25.574,9.888,28.627,8.248,2.216-1.191,6.474-3.036,4.708,2.718-3.077,10.019-4.611,6.168-6.695,2.243C314.548,108.106,287.489,101.263,289.462,97.825Z" transform="translate(-256.087 -79.421)" fill="#5572b7"/>
            <path id="Path_1100" data-name="Path 1100" d="M298.9,103.734c.68-3.969-25.186-10.971-26.432-14.378-.9-2.473-2.919-6.9-5.2-1.352-3.967,9.654-.422,7.89,3.576,6.465C273.829,93.4,298.218,107.7,298.9,103.734Z" transform="translate(-265.534 -85.335)" fill="#5572b7"/>
          </g>
          <g id="Group_432" data-name="Group 432" transform="translate(0.5 16.453)">
            <path id="Path_1101" data-name="Path 1101" d="M289.738,104.269c-.873-3.924,24.611-12.382,25.688-15.854.781-2.521,2.574-7.051,5.122-1.643,4.438,9.415.81,7.853-3.254,6.656C314.262,92.535,290.612,108.193,289.738,104.269Z" transform="translate(-256.446 -84.233)" fill="#5572b7"/>
            <path id="Path_1102" data-name="Path 1102" d="M299.174,97.792c-2.139-3.321-25.051,11.321-28.18,9.856-2.272-1.064-6.615-2.666-4.567,2.98,3.565,9.832,4.909,5.9,6.8,1.861C274.63,109.478,301.313,101.112,299.174,97.792Z" transform="translate(-265.892 -77.75)" fill="#5572b7"/>
          </g>
          <g id="Group_433" data-name="Group 433" transform="translate(15.33 0.534)">
            <path id="Path_1103" data-name="Path 1103" d="M289.381,97.441c3.663-.937,11.558,26.364,14.8,27.518,2.353.836,6.582,2.757,1.533,5.488-8.788,4.755-7.33.868-6.213-3.486C300.333,123.714,285.717,98.376,289.381,97.441Z" transform="translate(-271.642 -61.773)" fill="#5572b7"/>
            <path id="Path_1104" data-name="Path 1104" d="M294.244,109.247c3.1-2.292-10.567-26.837-9.2-30.19.993-2.434,2.489-7.087-2.783-4.892-9.176,3.821-5.505,5.259-1.736,7.28C283.336,82.953,291.145,111.539,294.244,109.247Z" transform="translate(-276.511 -73.592)" fill="#5572b7"/>
          </g>
          <path id="Path_1187" data-name="Path 1187" d="M23.213,0C35.947-.086,46.2,9.493,46.112,21.4S35.633,43.019,22.9,43.105-.086,33.613,0,21.71,10.48.087,23.213,0Z" transform="matrix(0.103, -0.995, 0.995, 0.103, 10.27, 56.881)" fill="#5572b7"/>
          <path id="Path_1105" data-name="Path 1105" d="M295.22,90.719A3.633,3.633,0,0,1,290.435,93a4.062,4.062,0,0,1-2.133-5.129,3.633,3.633,0,0,1,4.786-2.285A4.061,4.061,0,0,1,295.22,90.719Z" transform="translate(-256.604 -67.236)" fill="#8297ca"/>
          <path id="Path_1106" data-name="Path 1106" d="M290.281,98.96a5.374,5.374,0,0,1-7.079,3.378,6.007,6.007,0,0,1-3.155-7.584,5.376,5.376,0,0,1,7.08-3.38A6.008,6.008,0,0,1,290.281,98.96Z" transform="translate(-259.924 -64.43)" fill="#8297ca"/>
          <path id="Path_1107" data-name="Path 1107" d="M292.589,109.288a4.735,4.735,0,0,1-6.235,2.976,5.291,5.291,0,0,1-2.778-6.679,4.736,4.736,0,0,1,6.236-2.976A5.291,5.291,0,0,1,292.589,109.288Z" transform="translate(-258.508 -58.833)" fill="#8297ca"/>
          <path id="Path_1108" data-name="Path 1108" d="M303.655,96.857a4.348,4.348,0,0,1-5.727,2.733,4.859,4.859,0,0,1-2.553-6.136,4.349,4.349,0,0,1,5.728-2.733A4.86,4.86,0,0,1,303.655,96.857Z" transform="translate(-253.819 -64.717)" fill="#8297ca"/>
          <path id="Path_1109" data-name="Path 1109" d="M300.818,105.226a3.953,3.953,0,0,1-5.2,2.485,4.418,4.418,0,0,1-2.318-5.576,3.952,3.952,0,0,1,5.2-2.484A4.416,4.416,0,0,1,300.818,105.226Z" transform="translate(-254.633 -60.273)" fill="#8297ca"/>
        </g>
        <g id="Group_444" data-name="Group 444" transform="translate(517.89)">
          <g id="Group_439" data-name="Group 439" transform="translate(4.528 4.849)">
            <g id="Group_435" data-name="Group 435" transform="translate(6.617 6.302)">
              <path id="Path_1110" data-name="Path 1110" d="M541.463,60.491c-1.828-2.733,15.346-17.856,15.156-20.9-.138-2.208-.086-6.308,3.469-3,6.192,5.767,2.934,5.787-.553,6.234C556.933,43.165,543.291,63.224,541.463,60.491Z" transform="translate(-518.711 -35.352)" fill="#8297ca"/>
              <path id="Path_1111" data-name="Path 1111" d="M547.877,52.2c-2.627-1.84-16,17.186-18.843,17.112-2.065-.054-5.888.175-2.648,3.84,5.642,6.382,5.522,2.895,5.79-.857C532.377,69.5,550.5,54.043,547.877,52.2Z" transform="translate(-525.132 -27.055)" fill="#8297ca"/>
            </g>
            <g id="Group_436" data-name="Group 436" transform="translate(5.859 7.09)">
              <path id="Path_1112" data-name="Path 1112" d="M541.031,52.219c2.551-1.96,16.667,16.441,19.506,16.236,2.061-.148,5.889-.093,2.8,3.716-5.382,6.634-5.4,3.145-5.819-.592C557.2,68.792,538.479,54.178,541.031,52.219Z" transform="translate(-518.165 -27.845)" fill="#8297ca"/>
              <path id="Path_1113" data-name="Path 1113" d="M547.447,60.245c1.718-2.814-16.042-17.139-15.973-20.187.05-2.213-.163-6.306-3.585-2.835-5.956,6.044-2.7,5.914.8,6.2C531.3,43.639,545.729,63.059,547.447,60.245Z" transform="translate(-524.589 -35.879)" fill="#8297ca"/>
            </g>
            <g id="Group_437" data-name="Group 437" transform="translate(0 25.969)">
              <path id="Path_1114" data-name="Path 1114" d="M541.2,54.123c.511-3.317,22.636-1,24.51-3.3,1.359-1.665,4.1-4.526,4.431.51.571,8.769-1.744,6.314-4.507,3.989C563.574,53.591,540.688,57.442,541.2,54.123Z" transform="translate(-512.148 -48.498)" fill="#8297ca"/>
              <path id="Path_1115" data-name="Path 1115" d="M549.435,53.707c-.642-3.291-22.657.033-24.619-2.175-1.424-1.6-4.279-4.334-4.406.712-.223,8.785,1.993,6.228,4.66,3.779C527.058,54.2,550.077,57,549.435,53.707Z" transform="translate(-520.394 -48.08)" fill="#8297ca"/>
            </g>
            <g id="Group_438" data-name="Group 438" transform="translate(24.238)">
              <path id="Path_1116" data-name="Path 1116" d="M541.758,51.946c3.1.548.934,24.252,3.077,26.258,1.556,1.457,4.224,4.4-.476,4.747-8.184.613-5.893-1.869-3.723-4.826C542.255,75.918,538.661,51.4,541.758,51.946Z" transform="translate(-537.415 -20.822)" fill="#8297ca"/>
              <path id="Path_1117" data-name="Path 1117" d="M542.093,62.252c3.071-.688-.032-24.271,2.029-26.375,1.5-1.526,4.046-4.583-.663-4.72-8.2-.239-5.815,2.136-3.529,4.993C541.637,38.279,539.021,62.941,542.093,62.252Z" transform="translate(-537.75 -31.14)" fill="#8297ca"/>
            </g>
          </g>
          <g id="Group_440" data-name="Group 440" transform="translate(16.899)">
            <path id="Path_1118" data-name="Path 1118" d="M541.7,64.058c-3.208-2.113,9.23-27.4,7.7-30.669-1.112-2.374-2.834-6.936,2.537-5.042,9.352,3.294,5.758,4.939,2.093,7.171C551.3,37.184,544.913,66.172,541.7,64.058Z" transform="translate(-524.525 -27.899)" fill="#5572b7"/>
            <path id="Path_1119" data-name="Path 1119" d="M546.426,52.082C542.721,51.355,536.184,79.064,533,80.4c-2.308.969-6.435,3.127-1.261,5.568,9.012,4.25,7.364.452,6.033-3.833C536.784,78.938,550.131,52.809,546.426,52.082Z" transform="translate(-529.252 -15.909)" fill="#5572b7"/>
          </g>
          <g id="Group_441" data-name="Group 441" transform="translate(0 18.102)">
            <path id="Path_1120" data-name="Path 1120" d="M541.079,52.489c1.972-3.438,25.574,9.886,28.627,8.247,2.216-1.191,6.474-3.036,4.708,2.72-3.076,10.019-4.611,6.167-6.695,2.241C566.165,62.769,539.106,55.925,541.079,52.489Z" transform="translate(-507.704 -34.084)" fill="#5572b7"/>
            <path id="Path_1121" data-name="Path 1121" d="M550.514,58.4c.68-3.968-25.186-10.971-26.432-14.378-.9-2.473-2.919-6.9-5.2-1.351-3.967,9.653-.422,7.889,3.576,6.463C525.446,48.068,549.835,62.366,550.514,58.4Z" transform="translate(-517.151 -39.998)" fill="#5572b7"/>
          </g>
          <g id="Group_442" data-name="Group 442" transform="translate(0.5 16.452)">
            <path id="Path_1122" data-name="Path 1122" d="M541.355,58.932c-.873-3.924,24.611-12.382,25.688-15.854.781-2.521,2.574-7.051,5.122-1.643,4.438,9.415.81,7.855-3.254,6.656C565.879,47.2,542.229,62.858,541.355,58.932Z" transform="translate(-508.063 -38.896)" fill="#5572b7"/>
            <path id="Path_1123" data-name="Path 1123" d="M550.791,52.455c-2.139-3.321-25.051,11.321-28.18,9.856-2.272-1.064-6.615-2.665-4.567,2.982,3.565,9.831,4.909,5.9,6.8,1.86C526.247,64.141,552.93,55.776,550.791,52.455Z" transform="translate(-517.509 -32.413)" fill="#5572b7"/>
          </g>
          <g id="Group_443" data-name="Group 443" transform="translate(15.33 0.534)">
            <path id="Path_1124" data-name="Path 1124" d="M541,52.1c3.663-.937,11.558,26.364,14.8,27.518,2.353.836,6.582,2.757,1.533,5.489-8.788,4.755-7.33.868-6.213-3.486C551.95,78.377,537.335,53.04,541,52.1Z" transform="translate(-523.259 -16.436)" fill="#5572b7"/>
            <path id="Path_1125" data-name="Path 1125" d="M545.861,63.91c3.1-2.291-10.567-26.837-9.2-30.19.993-2.433,2.489-7.086-2.783-4.892-9.177,3.821-5.505,5.259-1.736,7.282C534.953,37.616,542.762,66.2,545.861,63.91Z" transform="translate(-528.128 -28.256)" fill="#5572b7"/>
          </g>
          <path id="Path_1188" data-name="Path 1188" d="M23.213,0C35.947-.086,46.2,9.493,46.112,21.4S35.633,43.019,22.9,43.105-.086,33.613,0,21.71,10.48.087,23.213,0Z" transform="translate(10.27 56.881) rotate(-84.105)" fill="#5572b7"/>
          <path id="Path_1126" data-name="Path 1126" d="M546.837,45.383a3.633,3.633,0,0,1-4.786,2.285,4.061,4.061,0,0,1-2.132-5.129,3.633,3.633,0,0,1,4.786-2.285A4.063,4.063,0,0,1,546.837,45.383Z" transform="translate(-508.221 -21.9)" fill="#8297ca"/>
          <path id="Path_1127" data-name="Path 1127" d="M541.9,53.623A5.375,5.375,0,0,1,534.819,57a6.009,6.009,0,0,1-3.155-7.585,5.376,5.376,0,0,1,7.08-3.38A6.008,6.008,0,0,1,541.9,53.623Z" transform="translate(-511.541 -19.094)" fill="#8297ca"/>
          <path id="Path_1128" data-name="Path 1128" d="M544.206,63.952a4.736,4.736,0,0,1-6.235,2.976,5.293,5.293,0,0,1-2.778-6.68,4.736,4.736,0,0,1,6.236-2.976A5.293,5.293,0,0,1,544.206,63.952Z" transform="translate(-510.125 -13.497)" fill="#8297ca"/>
          <path id="Path_1129" data-name="Path 1129" d="M555.272,51.52a4.348,4.348,0,0,1-5.727,2.735,4.861,4.861,0,0,1-2.553-6.137,4.349,4.349,0,0,1,5.728-2.733A4.86,4.86,0,0,1,555.272,51.52Z" transform="translate(-505.436 -19.381)" fill="#8297ca"/>
          <path id="Path_1130" data-name="Path 1130" d="M552.435,59.89a3.953,3.953,0,0,1-5.2,2.484,4.417,4.417,0,0,1-2.318-5.574,3.951,3.951,0,0,1,5.2-2.484A4.416,4.416,0,0,1,552.435,59.89Z" transform="translate(-506.25 -14.936)" fill="#8297ca"/>
        </g>
        <g id="Group_454" data-name="Group 454" transform="translate(391.083 12.115)">
          <g id="Group_449" data-name="Group 449" transform="translate(2.557 2.74)">
            <g id="Group_445" data-name="Group 445" transform="translate(3.739 3.559)">
              <path id="Path_1131" data-name="Path 1131" d="M408.351,54.407c-1.032-1.544,8.67-10.085,8.561-11.8-.077-1.248-.049-3.564,1.961-1.692,3.5,3.257,1.656,3.267-.313,3.52C417.09,44.619,409.384,55.951,408.351,54.407Z" transform="translate(-395.5 -40.207)" fill="#8297ca"/>
              <path id="Path_1132" data-name="Path 1132" d="M411.974,49.725c-1.483-1.04-9.037,9.708-10.643,9.666-1.167-.03-3.325.1-1.5,2.169,3.187,3.6,3.118,1.635,3.271-.485C403.219,59.5,413.458,50.764,411.974,49.725Z" transform="translate(-399.127 -35.52)" fill="#8297ca"/>
            </g>
            <g id="Group_446" data-name="Group 446" transform="translate(3.31 4.005)">
              <path id="Path_1133" data-name="Path 1133" d="M408.107,49.734c1.441-1.107,9.414,9.286,11.019,9.171,1.165-.084,3.325-.052,1.579,2.1-3.04,3.746-3.05,1.776-3.286-.335C417.243,59.1,406.666,50.84,408.107,49.734Z" transform="translate(-395.191 -35.966)" fill="#8297ca"/>
              <path id="Path_1134" data-name="Path 1134" d="M411.732,54.268c.969-1.59-9.062-9.681-9.023-11.4.028-1.249-.092-3.562-2.025-1.6-3.366,3.413-1.526,3.341.452,3.5C402.612,44.887,410.762,55.857,411.732,54.268Z" transform="translate(-398.82 -40.504)" fill="#8297ca"/>
            </g>
            <g id="Group_447" data-name="Group 447" transform="translate(0 14.668)">
              <path id="Path_1135" data-name="Path 1135" d="M408.2,50.81c.289-1.873,12.786-.566,13.845-1.861.768-.941,2.317-2.557,2.5.287.323,4.954-.986,3.567-2.546,2.253C420.841,50.509,407.913,52.684,408.2,50.81Z" transform="translate(-391.792 -47.632)" fill="#8297ca"/>
              <path id="Path_1136" data-name="Path 1136" d="M412.855,50.574c-.363-1.858-12.8.019-13.906-1.228-.806-.905-2.417-2.448-2.49.4-.126,4.963,1.127,3.519,2.632,2.135C400.215,50.85,413.217,52.433,412.855,50.574Z" transform="translate(-396.45 -47.396)" fill="#8297ca"/>
            </g>
            <g id="Group_448" data-name="Group 448" transform="translate(13.692)">
              <path id="Path_1137" data-name="Path 1137" d="M408.518,49.58c1.748.31.527,13.7,1.737,14.832.878.823,2.387,2.482-.268,2.681-4.624.347-3.329-1.055-2.1-2.726C408.8,63.121,406.769,49.27,408.518,49.58Z" transform="translate(-406.065 -32)" fill="#8297ca"/>
              <path id="Path_1138" data-name="Path 1138" d="M408.706,55.4c1.736-.389-.017-13.71,1.146-14.9.845-.862,2.286-2.588-.374-2.666-4.632-.136-3.285,1.206-1.993,2.82C408.449,41.86,406.972,55.79,408.706,55.4Z" transform="translate(-406.254 -37.828)" fill="#8297ca"/>
            </g>
          </g>
          <g id="Group_450" data-name="Group 450" transform="translate(9.546)">
            <path id="Path_1139" data-name="Path 1139" d="M408.487,56.422c-1.813-1.194,5.213-15.476,4.349-17.323-.627-1.341-1.6-3.918,1.434-2.849,5.282,1.861,3.251,2.79,1.181,4.051C413.909,41.241,410.3,57.616,408.487,56.422Z" transform="translate(-398.784 -35.997)" fill="#5572b7"/>
            <path id="Path_1140" data-name="Path 1140" d="M411.154,49.657c-2.092-.411-5.784,15.241-7.58,15.995-1.3.548-3.635,1.765-.712,3.145,5.089,2.4,4.159.256,3.408-2.165C405.708,64.826,413.248,50.067,411.154,49.657Z" transform="translate(-401.454 -29.224)" fill="#5572b7"/>
          </g>
          <g id="Group_451" data-name="Group 451" transform="translate(0 10.225)">
            <path id="Path_1141" data-name="Path 1141" d="M408.135,49.887c1.114-1.942,14.446,5.585,16.17,4.657,1.251-.672,3.656-1.715,2.659,1.536-1.737,5.66-2.6,3.483-3.782,1.266C422.305,55.693,407.02,51.827,408.135,49.887Z" transform="translate(-389.282 -39.491)" fill="#5572b7"/>
            <path id="Path_1142" data-name="Path 1142" d="M413.464,53.224c.384-2.243-14.226-6.2-14.93-8.122-.511-1.4-1.648-3.894-2.935-.763-2.241,5.453-.239,4.457,2.021,3.65C399.3,47.389,413.08,55.465,413.464,53.224Z" transform="translate(-394.618 -42.831)" fill="#5572b7"/>
          </g>
          <g id="Group_452" data-name="Group 452" transform="translate(0.283 9.293)">
            <path id="Path_1143" data-name="Path 1143" d="M408.29,53.526c-.493-2.217,13.9-6.994,14.51-8.956.441-1.423,1.454-3.983,2.894-.928,2.507,5.319.457,4.436-1.838,3.76C422.142,46.9,408.785,55.743,408.29,53.526Z" transform="translate(-389.485 -42.208)" fill="#5572b7"/>
            <path id="Path_1144" data-name="Path 1144" d="M413.619,49.867c-1.208-1.876-14.149,6.4-15.917,5.568-1.283-.6-3.736-1.507-2.579,1.683,2.014,5.554,2.773,3.332,3.839,1.05C399.756,56.468,414.829,51.743,413.619,49.867Z" transform="translate(-394.821 -38.547)" fill="#5572b7"/>
          </g>
          <g id="Group_453" data-name="Group 453" transform="translate(8.66 0.302)">
            <path id="Path_1145" data-name="Path 1145" d="M408.089,49.668c2.07-.528,6.529,14.892,8.358,15.545,1.329.473,3.719,1.557.867,3.1-4.965,2.686-4.141.491-3.509-1.969C414.275,64.51,406.019,50.2,408.089,49.668Z" transform="translate(-398.069 -29.522)" fill="#5572b7"/>
            <path id="Path_1146" data-name="Path 1146" d="M410.836,56.338c1.75-1.3-5.97-15.16-5.2-17.054.561-1.373,1.406-4-1.571-2.763-5.184,2.159-3.11,2.971-.982,4.113C404.675,41.485,409.085,57.633,410.836,56.338Z" transform="translate(-400.819 -36.198)" fill="#5572b7"/>
          </g>
          <path id="Path_1147" data-name="Path 1147" d="M423.215,58.639c-2.406,6.719-9.442,10.078-15.714,7.5s-9.408-10.115-7-16.836,9.442-10.078,15.715-7.5S425.621,51.919,423.215,58.639Z" transform="translate(-392.608 -33.546)" fill="#5572b7"/>
          <path id="Path_1191" data-name="Path 1191" d="M2.1,0A2.146,2.146,0,0,1,4.188,2.231a2.2,2.2,0,0,1-2.1,2.252A2.146,2.146,0,0,1,0,2.252,2.2,2.2,0,0,1,2.1,0Z" transform="translate(17.61 10.376) rotate(-4.106)" fill="#8297ca"/>
          <path id="Path_1148" data-name="Path 1148" d="M408.6,50.527a3.038,3.038,0,0,1-4,1.909,3.4,3.4,0,0,1-1.782-4.285,3.038,3.038,0,0,1,4-1.909A3.4,3.4,0,0,1,408.6,50.527Z" transform="translate(-391.449 -31.023)" fill="#8297ca"/>
          <path id="Path_1149" data-name="Path 1149" d="M409.9,56.362a2.674,2.674,0,0,1-3.522,1.68,2.986,2.986,0,0,1-1.568-3.772,2.673,2.673,0,0,1,3.521-1.682A2.989,2.989,0,0,1,409.9,56.362Z" transform="translate(-390.649 -27.862)" fill="#8297ca"/>
          <path id="Path_1150" data-name="Path 1150" d="M416.151,49.339a2.456,2.456,0,0,1-3.236,1.544,2.744,2.744,0,0,1-1.441-3.465,2.456,2.456,0,0,1,3.236-1.544A2.744,2.744,0,0,1,416.151,49.339Z" transform="translate(-388.001 -31.185)" fill="#8297ca"/>
          <path id="Path_1151" data-name="Path 1151" d="M414.548,54.067a2.232,2.232,0,0,1-2.94,1.4,2.494,2.494,0,0,1-1.309-3.149,2.231,2.231,0,0,1,2.938-1.4A2.494,2.494,0,0,1,414.548,54.067Z" transform="translate(-388.461 -28.674)" fill="#8297ca"/>
        </g>
        <g id="Group_464" data-name="Group 464" transform="translate(569.868 68.116)">
          <g id="Group_459" data-name="Group 459" transform="translate(8.881 9.514)">
            <g id="Group_455" data-name="Group 455" transform="translate(1.646 17.369)">
              <path id="Path_1152" data-name="Path 1152" d="M621.672,115.8c-1.2-4.384,27.159-15.512,28.19-19.5.749-2.9,2.533-8.128,5.7-2.172,5.522,10.372,1.336,8.83-3.322,7.726C648.768,101.028,622.87,120.185,621.672,115.8Z" transform="translate(-584.586 -91.397)" fill="#8297ca"/>
              <path id="Path_1153" data-name="Path 1153" d="M632.177,107.874c-2.6-3.624-27.715,14.34-31.332,12.875-2.625-1.062-7.621-2.606-5,3.652,4.558,10.9,5.865,6.366,7.783,1.685C605.054,122.595,634.774,111.5,632.177,107.874Z" transform="translate(-595.105 -83.462)" fill="#8297ca"/>
            </g>
            <g id="Group_456" data-name="Group 456" transform="translate(16.178 1.763)">
              <path id="Path_1154" data-name="Path 1154" d="M621.235,107.534c4.092-1.284,14.48,29.1,18.206,30.2,2.705.8,7.589,2.712,2.028,6.112-9.681,5.916-8.242,1.432-7.212-3.559C635.027,136.565,617.143,108.819,621.235,107.534Z" transform="translate(-599.518 -67.804)" fill="#8297ca"/>
              <path id="Path_1155" data-name="Path 1155" d="M627.223,120.682C630.6,117.9,613.837,90.99,615.2,87.115c.991-2.813,2.433-8.164-3.409-5.361-10.171,4.885-5.942,6.285-1.572,8.338C613.481,91.625,623.84,123.465,627.223,120.682Z" transform="translate(-605.511 -80.965)" fill="#8297ca"/>
            </g>
            <g id="Group_457" data-name="Group 457" transform="translate(0 22.816)">
              <path id="Path_1156" data-name="Path 1156" d="M621.351,107.985c2.046-4.008,29.443,9.606,32.807,7.564,2.443-1.483,7.157-3.83,5.467,2.784-2.941,11.517-4.882,7.258-7.448,2.947C650.263,118.066,619.3,111.993,621.351,107.985Z" transform="translate(-583.091 -88.982)" fill="#8297ca"/>
              <path id="Path_1157" data-name="Path 1157" d="M632.172,114.036c.554-4.529-29.063-10.856-30.655-14.63-1.155-2.741-3.669-7.617-5.948-1.207-3.969,11.158-.055,8.945,4.391,7.087C603.277,103.9,631.616,118.564,632.172,114.036Z" transform="translate(-593.926 -95.037)" fill="#8297ca"/>
            </g>
            <g id="Group_458" data-name="Group 458" transform="translate(21.269)">
              <path id="Path_1158" data-name="Path 1158" d="M625.741,107.219c3.741,2.192-8.967,31.542-7.061,35.146,1.384,2.615,3.575,7.668-2.6,5.857-10.75-3.151-6.773-5.23-2.75-7.98C616.332,138.192,622,105.025,625.741,107.219Z" transform="translate(-609.157 -66.23)" fill="#8297ca"/>
              <path id="Path_1159" data-name="Path 1159" d="M621.266,120.761c4.229.594,10.133-31.135,13.657-32.841,2.558-1.237,7.11-3.93,1.128-6.372-10.415-4.252-8.35-.058-6.615,4.7C630.729,89.8,617.039,120.165,621.266,120.761Z" transform="translate(-604.678 -79.787)" fill="#8297ca"/>
            </g>
          </g>
          <g id="Group_460" data-name="Group 460" transform="translate(12.6 8.546)">
            <path id="Path_1160" data-name="Path 1160" d="M621.942,121.8c-3.229-4.252,23.316-30.688,22.724-35.618-.429-3.579-.726-10.256,5.368-5.245,10.611,8.724,5.311,9.1-.323,10.2C645.51,91.96,625.171,126.055,621.942,121.8Z" transform="translate(-586.644 -79.14)" fill="#5572b7"/>
            <path id="Path_1161" data-name="Path 1161" d="M631.876,107.719c-4.445-2.715-24.44,29.669-29.077,29.85-3.366.133-9.562.913-3.949,6.532,9.771,9.785,9.252,4.122,9.341-2.011C608.258,137.514,636.321,110.434,631.876,107.719Z" transform="translate(-596.589 -65.042)" fill="#5572b7"/>
          </g>
          <g id="Group_461" data-name="Group 461" transform="translate(7.942 13.498)">
            <path id="Path_1162" data-name="Path 1162" d="M621.213,107.823c3.97-3.459,28.647,24.979,33.248,24.345,3.341-.459,9.573-.778,4.9,5.751-8.144,11.367-8.5,5.69-9.524-.346C649.068,133.071,617.243,111.282,621.213,107.823Z" transform="translate(-582.303 -70.008)" fill="#5572b7"/>
            <path id="Path_1163" data-name="Path 1163" d="M632.151,120.253c2.533-4.762-27.694-26.183-27.865-31.15-.123-3.606-.852-10.244-6.1-4.231-9.133,10.468-3.847,9.912,1.878,10.007C604.338,94.95,629.617,125.016,632.151,120.253Z" transform="translate(-593.254 -82.45)" fill="#5572b7"/>
          </g>
          <g id="Group_462" data-name="Group 462" transform="translate(0 39.404)">
            <path id="Path_1164" data-name="Path 1164" d="M621.507,111.855c.525-5.453,36.744-4.038,39.579-7.973,2.058-2.855,6.255-7.8,7.258.358,1.744,14.207-2.253,10.461-6.962,6.97C657.869,108.607,620.983,117.306,621.507,111.855Z" transform="translate(-574.112 -99.766)" fill="#5572b7"/>
            <path id="Path_1165" data-name="Path 1165" d="M634.945,109.228c-1.352-5.287-36.865,2.466-40.263-.919-2.468-2.457-7.364-6.6-7.105,1.626.452,14.321,3.822,9.924,7.934,5.654C598.577,112.4,636.3,114.515,634.945,109.228Z" transform="translate(-587.567 -97.138)" fill="#5572b7"/>
          </g>
          <g id="Group_463" data-name="Group 463" transform="translate(36.77)">
            <path id="Path_1166" data-name="Path 1166" d="M621.606,107.368c5.089.563,3.768,39.364,7.441,42.4,2.666,2.205,7.283,6.7-.334,7.775-13.261,1.869-9.764-2.413-6.506-7.458C624.638,146.322,616.516,106.807,621.606,107.368Z" transform="translate(-611.79 -56.593)" fill="#5572b7"/>
            <path id="Path_1167" data-name="Path 1167" d="M623.712,124.185c4.934-1.448-2.3-39.494.856-43.134,2.293-2.644,6.16-7.889-1.517-7.612-13.369.485-9.263,4.095-5.279,8.5C620.746,85.223,618.777,125.632,623.712,124.185Z" transform="translate(-613.897 -73.428)" fill="#5572b7"/>
          </g>
          <path id="Path_1189" data-name="Path 1189" d="M29.443,0c16.166-.094,29.195,13.856,29.1,31.158S45.267,62.565,29.1,62.659-.094,48.8,0,31.5,13.277.095,29.443,0Z" transform="matrix(0.997, -0.082, 0.082, 0.997, 16.15, 22.39)" fill="#5572b7"/>
          <path id="Path_1168" data-name="Path 1168" d="M632.357,101.2a4.8,4.8,0,0,1-7.094.625,5.66,5.66,0,0,1-.585-7.6,4.805,4.805,0,0,1,7.094-.627A5.663,5.663,0,0,1,632.357,101.2Z" transform="translate(-573.326 -64.058)" fill="#8297ca"/>
          <path id="Path_1169" data-name="Path 1169" d="M622.665,109.416a7.108,7.108,0,0,1-10.493.928,8.376,8.376,0,0,1-.866-11.242,7.11,7.11,0,0,1,10.495-.928A8.374,8.374,0,0,1,622.665,109.416Z" transform="translate(-578.854 -62.09)" fill="#8297ca"/>
          <path id="Path_1170" data-name="Path 1170" d="M620.859,123.742a6.259,6.259,0,0,1-9.241.815,7.376,7.376,0,0,1-.761-9.9,6.26,6.26,0,0,1,9.241-.815A7.374,7.374,0,0,1,620.859,123.742Z" transform="translate(-578.949 -54.205)" fill="#8297ca"/>
          <path id="Path_1171" data-name="Path 1171" d="M640.554,112.8a5.751,5.751,0,0,1-8.489.75,6.776,6.776,0,0,1-.7-9.095,5.751,5.751,0,0,1,8.49-.75A6.776,6.776,0,0,1,640.554,112.8Z" transform="translate(-570.767 -59.166)" fill="#8297ca"/>
          <path id="Path_1172" data-name="Path 1172" d="M633.081,122.285a5.224,5.224,0,0,1-7.713.681,6.156,6.156,0,0,1-.637-8.263,5.225,5.225,0,0,1,7.713-.681A6.156,6.156,0,0,1,633.081,122.285Z" transform="translate(-573.345 -53.979)" fill="#8297ca"/>
        </g>
        <path id="Path_1173" data-name="Path 1173" d="M243.906,46.963c0,5.046-3.818,9.137-8.529,9.137s-8.527-4.09-8.527-9.137,3.818-9.135,8.527-9.135S243.906,41.918,243.906,46.963Z" transform="translate(-15.073 -22.973)" fill="#5572b7"/>
        <ellipse id="Ellipse_39" data-name="Ellipse 39" cx="7.726" cy="8.277" rx="7.726" ry="8.277" transform="translate(194.339 93.86)" fill="#5572b7"/>
        <ellipse id="Ellipse_40" data-name="Ellipse 40" cx="3.678" cy="3.94" rx="3.678" ry="3.94" transform="translate(264.246 12.115)" fill="#5572b7"/>
        <path id="Path_1190" data-name="Path 1190" d="M11.67,0C18.02-.093,23.091,4.67,23,10.64S17.677,21.527,11.327,21.622-.094,16.954,0,10.984,5.321.1,11.67,0Z" transform="translate(0 30.56) rotate(-76.718)" fill="#5572b7"/>
        <ellipse id="Ellipse_42" data-name="Ellipse 42" cx="10.738" cy="11.504" rx="10.738" ry="11.504" transform="translate(381.052 91.677)" fill="#5572b7"/>
        <path id="Path_1174" data-name="Path 1174" d="M479.691,46.063a5.682,5.682,0,1,1-5.668-6.073A5.88,5.88,0,0,1,479.691,46.063Z" transform="translate(6.14 -21.9)" fill="#5572b7"/>
        <path id="Path_1175" data-name="Path 1175" d="M497.162,107.149a5.76,5.76,0,1,1-5.745-6.155A5.96,5.96,0,0,1,497.162,107.149Z" transform="translate(7.611 8.364)" fill="#5572b7"/>
        <path id="Path_1176" data-name="Path 1176" d="M620.191,39.368A3.155,3.155,0,1,1,617.045,36,3.265,3.265,0,0,1,620.191,39.368Z" transform="translate(-7.258 -23.881)" fill="#5572b7"/>
        <ellipse id="Ellipse_43" data-name="Ellipse 43" cx="9.201" cy="9.858" rx="9.201" ry="9.858" transform="translate(716.424 93.86)" fill="#5572b7"/>
        <ellipse id="Ellipse_44" data-name="Ellipse 44" cx="4.819" cy="5.162" rx="4.819" ry="5.162" transform="translate(519.312 101.766)" fill="#5572b7"/>
        <path id="Path_1177" data-name="Path 1177" d="M671.639,34.984a6.3,6.3,0,1,1-12.56,0,6.3,6.3,0,1,1,12.56,0Z" transform="translate(10.657 -27.722)" fill="#5572b7"/>
        <path id="Path_1178" data-name="Path 1178" d="M652.971,57.394a5.081,5.081,0,1,1-5.069-5.431A5.259,5.259,0,0,1,652.971,57.394Z" transform="translate(4.215 -15.96)" fill="#5572b7"/>
      </g>
      <g id="Group_1529" data-name="Group 1529" transform="translate(458.498 143.827)">
        <path id="Path_3611" data-name="Path 3611" d="M315.842,145.8h27.035a23.6,23.6,0,0,1,12.909,3.823l25.966,16.988a22.007,22.007,0,0,1,10.058,17.272l1.534,30.32a59.1,59.1,0,0,0,6.022,23.132l5.064,10.285a59.036,59.036,0,0,1,6.1,26.095v22.551c0,15.958-13.415,28.9-29.963,28.9H313.278Z" transform="translate(-313.278 -145.803)" fill="#a64f5a"/>
        <path id="Path_3612" data-name="Path 3612" d="M377.444,212.693,376.192,186.7a23.278,23.278,0,0,0-10.238-18.062L332.563,145.8h-6.145l35.239,24.1a23.283,23.283,0,0,1,10.238,18.064l1.251,25.994Z" transform="translate(-306.797 -145.803)" fill="#8c404c"/>
      </g>
      <g id="Group_1540" data-name="Group 1540" transform="translate(328.326 296.836)">
        <g id="Group_1530" data-name="Group 1530" transform="translate(44.326 80.542)">
          <path id="Path_3613" data-name="Path 3613" d="M260.72,307.989l-4.932,65.936,5.141,66.431,40.527,2,3.578-36.106a100.241,100.241,0,0,0-.751-25.617l-1.021-6.434,13.3-63.456Z" transform="translate(-255.788 -307.989)" fill="#f2c9ad"/>
          <path id="Path_3614" data-name="Path 3614" d="M299.376,330.78c2.719,2.055,7.269,4.015,10.641,5.311l5.311-25.35-55.837-2.752L258.279,324.2A74.729,74.729,0,0,0,299.376,330.78Z" transform="translate(-254.559 -307.989)" fill="#eba58e"/>
        </g>
        <g id="Group_1531" data-name="Group 1531" transform="translate(100.413 84.182)">
          <path id="Path_3615" data-name="Path 3615" d="M293.349,310.517l4.508,66.091,2.706,66.091h40.579l1.663-36.234A100.436,100.436,0,0,0,340.7,380.92l-1.36-6.376,9.92-64.026Z" transform="translate(-293.349 -310.517)" fill="#f2c9ad"/>
          <path id="Path_3616" data-name="Path 3616" d="M345.63,333.93l3.629-23.413h-55.91L295.156,337A73.728,73.728,0,0,0,345.63,333.93Z" transform="translate(-293.349 -310.517)" fill="#eba58e"/>
        </g>
        <g id="Group_1532" data-name="Group 1532" transform="translate(45.752 28.213)">
          <path id="Path_3617" data-name="Path 3617" d="M263.183,271.65l-6.44,61.649c8.284,3.423,27.655,6.312,36.558,6.579a142.455,142.455,0,0,0,27.434-1.933V273.158Z" transform="translate(-256.743 -271.65)" fill="#495375"/>
          <path id="Path_3618" data-name="Path 3618" d="M268.678,275.355l19,17.424-1.95,6.567a31.5,31.5,0,0,0-.281,16.943L291.2,338.3c3.657,0,7.109-.154,10.188-.376l-8.41-51.178Z" transform="translate(-250.856 -270.02)" fill="#272525" opacity="0.3"/>
          <path id="Path_3619" data-name="Path 3619" d="M259.535,309.889a118.056,118.056,0,0,0,35.747,4.339" transform="translate(-255.366 -254.824)" fill="none" stroke="#422c4f" stroke-linecap="round" stroke-linejoin="round" stroke-width="0.226"/>
        </g>
        <g id="Group_1533" data-name="Group 1533" transform="translate(52.192)">
          <path id="Path_3620" data-name="Path 3620" d="M264.272,253.082l-3.217,27.189L296.737,297v50c28.406,19.567,78.963,4.782,78.963,4.782l9.733-49.129a148.459,148.459,0,0,0,2.834-28.857v-21.74Z" transform="translate(-261.056 -252.058)" fill="#495375"/>
          <path id="Path_3621" data-name="Path 3621" d="M387.2,269.736V252.058L263.21,253.082c19.926,12.659,44.935,22.011,68.736,23.638A145.555,145.555,0,0,0,387.2,269.736Z" transform="translate(-259.994 -252.058)" fill="#272525" opacity="0.3"/>
          <path id="Path_3622" data-name="Path 3622" d="M288.423,313.421a101.05,101.05,0,0,0,68.228,5.295" transform="translate(-247.557 -225.057)" fill="none" stroke="#422c4f" stroke-linecap="round" stroke-linejoin="round" stroke-width="0.226"/>
        </g>
        <g id="Group_1537" data-name="Group 1537" transform="translate(0 212.909)">
          <path id="Path_3623" data-name="Path 3623" d="M301.014,404.346l-.775-2.439-40.527-2h0a13.731,13.731,0,0,0-1.411,7.282l1.747,21.056H300.1l1.516-18.643A13.676,13.676,0,0,0,301.014,404.346Z" transform="translate(-210.246 -399.909)" fill="#fff"/>
          <g id="Group_1535" data-name="Group 1535" transform="translate(0 28.338)">
            <path id="Path_3624" data-name="Path 3624" d="M314.823,419.588H274.377a2.7,2.7,0,0,0-2.316,1.277l-4.132,6.78a33.128,33.128,0,0,1-18.7,14.361h0a32.936,32.936,0,0,0-20.478,17.718L228,461.38h95.284l-5.8-39.565A2.656,2.656,0,0,0,314.823,419.588Z" transform="translate(-225.17 -419.588)" fill="#495375"/>
            <g id="Group_1534" data-name="Group 1534" transform="translate(0 41.792)">
              <path id="Path_3625" data-name="Path 3625" d="M256.133,448.61H227.95a1.814,1.814,0,0,0-1.846,1.78v7.343a1.813,1.813,0,0,0,1.846,1.78h41.484l-.648-1.971A13.232,13.232,0,0,0,256.133,448.61Z" transform="translate(-226.104 -448.61)" fill="#fff"/>
              <path id="Path_3626" data-name="Path 3626" d="M316.6,450.39a1.815,1.815,0,0,0-1.846-1.78H246.214a13.23,13.23,0,0,1,12.652,8.931l.648,1.971h55.238a1.814,1.814,0,0,0,1.846-1.78Z" transform="translate(-216.185 -448.61)" fill="#c7d2d7"/>
              <path id="Path_3627" data-name="Path 3627" d="M252.909,451.656a12.778,12.778,0,0,1,1.556,2.13H313.3v-2.13Z" transform="translate(-212.883 -447.27)" fill="#495375"/>
            </g>
          </g>
          <path id="Path_3628" data-name="Path 3628" d="M273.455,425.15h-17.7a1.468,1.468,0,0,1-1.493-1.44h0a1.468,1.468,0,0,1,1.493-1.441h17.7a1.468,1.468,0,0,1,1.493,1.441h0A1.468,1.468,0,0,1,273.455,425.15Z" transform="translate(-212.217 -390.07)" fill="#fff"/>
          <path id="Path_3629" data-name="Path 3629" d="M271.68,428.749h-17.7a1.468,1.468,0,0,1-1.493-1.441h0a1.468,1.468,0,0,1,1.493-1.44h17.7a1.468,1.468,0,0,1,1.495,1.44h0A1.469,1.469,0,0,1,271.68,428.749Z" transform="translate(-213.092 -388.486)" fill="#fff"/>
          <path id="Path_3630" data-name="Path 3630" d="M268.841,432.348h-17.7a1.468,1.468,0,0,1-1.493-1.441h0a1.468,1.468,0,0,1,1.493-1.44h17.7a1.467,1.467,0,0,1,1.493,1.44h0A1.467,1.467,0,0,1,268.841,432.348Z" transform="translate(-214.493 -386.903)" fill="#fff"/>
          <path id="Path_3631" data-name="Path 3631" d="M263.873,435.946h-17.7a1.466,1.466,0,0,1-1.493-1.44h0a1.467,1.467,0,0,1,1.493-1.44h17.7a1.468,1.468,0,0,1,1.493,1.44h0A1.467,1.467,0,0,1,263.873,435.946Z" transform="translate(-216.943 -385.319)" fill="#fff"/>
          <path id="Path_3632" data-name="Path 3632" d="M301.625,406.794l-43.343-2.137c.007.148-.006.3.006.445l.551,6.633,42.25,2.082.512-6.3C301.62,407.275,301.617,407.034,301.625,406.794Z" transform="translate(-210.232 -397.82)" fill="#a10f3e"/>
          <g id="Group_1536" data-name="Group 1536" transform="translate(65.764 34.703)">
            <path id="Path_3633" data-name="Path 3633" d="M304.794,468.558v-7.343a1.815,1.815,0,0,0-1.846-1.78h-.457L297.3,424.008l-2.656,9.822a16.287,16.287,0,0,1-8.043,10.041l-5.934,3.2a16.162,16.162,0,0,0-8.464,12.36h-.687a1.259,1.259,0,0,0-1.287,1.213c-.039,2.1-.07,6.34-.084,8.446a1.26,1.26,0,0,0,1.287,1.244h31.516A1.814,1.814,0,0,0,304.794,468.558Z" transform="translate(-270.145 -424.008)" fill="#272525" opacity="0.5"/>
          </g>
        </g>
        <g id="Group_1539" data-name="Group 1539" transform="translate(74.729 216.365)">
          <path id="Path_3634" data-name="Path 3634" d="M298.655,402.309h40.579l.576,1.894a16.013,16.013,0,0,1,.675,5.4l-.956,20.54H298.086l-.847-18.9A22.621,22.621,0,0,1,298.655,402.309Z" transform="translate(-265.757 -402.309)" fill="#fff"/>
          <path id="Path_3635" data-name="Path 3635" d="M340.488,406.51H297.317a22.459,22.459,0,0,0-.079,2.889l.187,4.143h42.79l.269-5.787C340.5,407.339,340.5,406.925,340.488,406.51Z" transform="translate(-265.756 -400.46)" fill="#a10f3e"/>
          <path id="Path_3636" data-name="Path 3636" d="M353.225,425.385a3.922,3.922,0,0,0-3.984-3.747H306.627a3.961,3.961,0,0,0-3.856,2.873l-2.8,10.362a16.287,16.287,0,0,1-8.043,10.041l-5.934,3.2a16.164,16.164,0,0,0-8.462,12.36h76.611Z" transform="translate(-275.469 -393.804)" fill="#495375"/>
          <path id="Path_3637" data-name="Path 3637" d="M324.907,427.043H297.394A1.468,1.468,0,0,1,295.9,425.6h0a1.468,1.468,0,0,1,1.495-1.44h27.513a1.468,1.468,0,0,1,1.495,1.44h0A1.468,1.468,0,0,1,324.907,427.043Z" transform="translate(-266.407 -392.693)" fill="#fff"/>
          <path id="Path_3638" data-name="Path 3638" d="M323.543,430.749H296.03a1.467,1.467,0,0,1-1.495-1.44h0a1.468,1.468,0,0,1,1.495-1.44h27.513a1.468,1.468,0,0,1,1.493,1.44h0A1.467,1.467,0,0,1,323.543,430.749Z" transform="translate(-267.08 -391.062)" fill="#fff"/>
          <path id="Path_3639" data-name="Path 3639" d="M322.179,434.456H294.664a1.468,1.468,0,0,1-1.493-1.44h0a1.468,1.468,0,0,1,1.493-1.441h27.515a1.468,1.468,0,0,1,1.493,1.441h0A1.468,1.468,0,0,1,322.179,434.456Z" transform="translate(-267.753 -389.431)" fill="#fff"/>
          <path id="Path_3640" data-name="Path 3640" d="M320.813,438.163H293.3a1.468,1.468,0,0,1-1.493-1.441h0a1.468,1.468,0,0,1,1.493-1.44h27.513a1.468,1.468,0,0,1,1.495,1.44h0A1.469,1.469,0,0,1,320.813,438.163Z" transform="translate(-268.426 -387.8)" fill="#fff"/>
          <g id="Group_1538" data-name="Group 1538" transform="translate(0 66.674)">
            <path id="Path_3641" data-name="Path 3641" d="M338.5,448.61H277.52a1.26,1.26,0,0,0-1.287,1.213c-.039,2.1-.07,6.34-.084,8.446a1.261,1.261,0,0,0,1.287,1.244H349.29l-.614-2.892A10.3,10.3,0,0,0,338.5,448.61Z" transform="translate(-276.149 -448.61)" fill="#fff"/>
            <path id="Path_3642" data-name="Path 3642" d="M336.186,449.82a1.268,1.268,0,0,0-1.287-1.21h-17a10.3,10.3,0,0,1,10.178,8.011l.614,2.892h6.434a1.263,1.263,0,0,0,1.287-1.273Z" transform="translate(-255.554 -448.61)" fill="#c7d2d7"/>
            <path id="Path_3643" data-name="Path 3643" d="M323.65,451.656a9.861,9.861,0,0,1,1.145,2.13h8.7l-.058-2.13Z" transform="translate(-252.719 -447.27)" fill="#495375"/>
          </g>
        </g>
        <path id="Path_3644" data-name="Path 3644" d="M294.351,325.752l3.012,44.152,2.133,52.119" transform="translate(-192.441 -219.631)" fill="none" stroke="#422c4f" stroke-linecap="round" stroke-linejoin="round" stroke-width="0.226"/>
        <line id="Line_19" data-name="Line 19" y1="25.258" x2="3.913" transform="translate(146.403 122.95)" fill="none" stroke="#422c4f" stroke-linecap="round" stroke-linejoin="round" stroke-width="0.226"/>
        <path id="Path_3645" data-name="Path 3645" d="M333.585,385.2l-1.13,24.634H310.963" transform="translate(-184.248 -193.471)" fill="none" stroke="#422c4f" stroke-linecap="round" stroke-linejoin="round" stroke-width="0.226"/>
        <line id="Line_20" data-name="Line 20" x1="7.537" transform="translate(114.232 216.365)" fill="none" stroke="#422c4f" stroke-linecap="round" stroke-linejoin="round" stroke-width="0.226"/>
        <line id="Line_21" data-name="Line 21" x2="16.197" y2="0.998" transform="translate(53.524 212.909)" fill="none" stroke="#422c4f" stroke-linecap="round" stroke-linejoin="round" stroke-width="0.226"/>
        <line id="Line_22" data-name="Line 22" x2="6.3" y2="0.31" transform="translate(76.788 214.255)" fill="none" stroke="#422c4f" stroke-linecap="round" stroke-linejoin="round" stroke-width="0.226"/>
        <line id="Line_23" data-name="Line 23" y1="22.085" x2="2.189" transform="translate(91.069 181.963)" fill="none" stroke="#422c4f" stroke-linecap="round" stroke-linejoin="round" stroke-width="0.226"/>
        <line id="Line_24" data-name="Line 24" y1="23.799" x2="4.986" transform="translate(91.8 122.95)" fill="none" stroke="#422c4f" stroke-linecap="round" stroke-linejoin="round" stroke-width="0.226"/>
      </g>
      <g id="Group_1541" data-name="Group 1541" transform="translate(383.735 145.508)">
        <path id="Path_3646" data-name="Path 3646" d="M360.574,154.75l7.038,1.06L371,158.786a36.22,36.22,0,0,1,12.358,25.041L390.4,302.8l-10.783,3.462a161.3,161.3,0,0,1-116.4-6.94h0l6.539-79.855,3.751-29.977a34.732,34.732,0,0,1,10.22-20.476l20.8-20.391,3.606-1.653Z" transform="translate(-263.21 -146.971)" fill="#4987e5"/>
        <path id="Path_3647" data-name="Path 3647" d="M385.646,289.256l-21.188-17.289-23.147-29.641V223.361l28.706-43.067-26.526,4.113-61.483,39.521-14.616-5.815-1.616,19.733,3.4,2.66a25.688,25.688,0,0,0,30.677.576l19.989-14.428,4.218,13.444a17.564,17.564,0,0,0,9.618,10.7l1.985.894c11.422,18.743,30.5,33.793,40.165,40.679.841-.255,1.681-.508,2.518-.776Z" transform="translate(-261.944 -132.308)" fill="#272525" opacity="0.3"/>
        <path id="Path_3648" data-name="Path 3648" d="M274.343,243.734a101.283,101.283,0,0,0,52.032-5.229,97.618,97.618,0,0,0,41.706-30.455" transform="translate(-257.719 -120.095)" fill="none" stroke="#422c4f" stroke-linecap="round" stroke-linejoin="round" stroke-width="0.226"/>
        <path id="Path_3649" data-name="Path 3649" d="M293.89,240.852A93.733,93.733,0,0,0,341,235.112" transform="translate(-248.077 -108.187)" fill="none" stroke="#422c4f" stroke-linecap="round" stroke-linejoin="round" stroke-width="0.226"/>
        <path id="Path_3650" data-name="Path 3650" d="M268.539,249.54a155.709,155.709,0,0,0,107.564,2.3" transform="translate(-260.581 -101.838)" fill="none" stroke="#422c4f" stroke-linecap="round" stroke-linejoin="round" stroke-width="0.226"/>
      </g>
      <g id="Group_1542" data-name="Group 1542" transform="translate(234.527 141.182)">
        <path id="Path_3651" data-name="Path 3651" d="M177.435,143.966l-7.383,8.805.733,10.925h-7.5V149.728l9.807-5.761Z" transform="translate(-163.288 -143.966)" fill="#eba58e"/>
        <path id="Path_3652" data-name="Path 3652" d="M174.625,144.443l-6.808,8.118.449,6.689" transform="translate(-161.054 -143.757)" fill="none" stroke="#422c4f" stroke-linecap="round" stroke-linejoin="round" stroke-width="0.226"/>
      </g>
      <g id="Group_1543" data-name="Group 1543" transform="translate(230.828 141.706)">
        <path id="Path_3653" data-name="Path 3653" d="M174.958,144.331l-7.383,8.805.733,10.925h-7.5V150.092l9.807-5.761Z" transform="translate(-160.811 -144.331)" fill="#eba58e"/>
        <path id="Path_3654" data-name="Path 3654" d="M172.148,144.807l-6.808,8.118.449,6.689" transform="translate(-158.577 -144.121)" fill="none" stroke="#422c4f" stroke-linecap="round" stroke-linejoin="round" stroke-width="0.226"/>
      </g>
      <g id="Group_1544" data-name="Group 1544" transform="translate(226.207 142.032)">
        <path id="Path_3655" data-name="Path 3655" d="M171.863,144.557l-7.383,8.805.733,10.925h-7.5V150.318l9.807-5.761Z" transform="translate(-157.716 -144.557)" fill="#eba58e"/>
        <path id="Path_3656" data-name="Path 3656" d="M169.053,145.034l-6.807,8.118.449,6.689" transform="translate(-155.482 -144.347)" fill="none" stroke="#422c4f" stroke-linecap="round" stroke-linejoin="round" stroke-width="0.226"/>
      </g>
      <g id="Group_1549" data-name="Group 1549" transform="translate(379.888)">
        <path id="Path_3657" data-name="Path 3657" d="M277.927,138.363a29.241,29.241,0,0,1-6.457-23.291c-9.018-6.088-12.851-17.937-9.808-26.633a10.427,10.427,0,0,0,5.861,5.871c10.033-34.677,55.347-51.852,85.557-29.46.809-6.466.67-13.153-2.458-18.925a15.443,15.443,0,0,1,10.038,8.223,13.252,13.252,0,0,1-.838,12.06c4.611-4.746,12.249-6.639,18.781-5.014-4.784,2.48-9.606,5.262-14.389,7.742,36.208-.389,40.943,35.484,32.377,59.615a18.287,18.287,0,0,0-4.925-9.131c.36,16.033-7.419,30.708-7.419,30.708l-22.826,15.328-5.918-11.9,1.351-10.109-6.424-11.088-4.566-16.795-21.3,6.849L304.1,124.854l-.676-5.217-25.869-.652Z" transform="translate(-260.634 -45.925)" fill="#6a3649"/>
        <path id="Path_3658" data-name="Path 3658" d="M330,61.9c12.383,1.529,21.047,11.4,24.767,19.4l-6.932-3.751c13.188,13.208,14.034,27.286,14.541,43.971C370.943,97.389,366.208,61.516,330,61.9Z" transform="translate(-226.419 -38.895)" fill="#8e5a61"/>
        <path id="Path_3659" data-name="Path 3659" d="M270.8,101.537c7.284-26.98,28.914-36.2,35.169-37.991a15.962,15.962,0,0,0-4.057,4.565c15.555-9.294,34.943-8.588,50.838-.327,7.551-8.587,2.073-18.284-2.458-21.86,3.128,5.772,3.267,12.459,2.458,18.925-30.21-22.392-75.524-5.217-85.557,29.46a10.427,10.427,0,0,1-5.861-5.871C260.99,94.527,266.4,100.017,270.8,101.537Z" transform="translate(-260.299 -45.925)" fill="#8e5a61"/>
        <g id="Group_1545" data-name="Group 1545" transform="translate(37.845 27.263)">
          <path id="Path_3660" data-name="Path 3660" d="M285.978,92.451A94.769,94.769,0,0,0,302.1,91.62a74.91,74.91,0,0,0,17.843-4.694,55.676,55.676,0,0,0,15.667-9.592,40.512,40.512,0,0,0,9.712-12.476,56.048,56.048,0,0,1-11.038,10.967A69.558,69.558,0,0,1,318.877,84.5C307.639,89.117,295.36,91.024,285.978,92.451Z" transform="translate(-285.978 -64.857)" fill="#8e5a61"/>
        </g>
        <g id="Group_1546" data-name="Group 1546" transform="translate(60.207 26.531)">
          <path id="Path_3661" data-name="Path 3661" d="M300.953,74.232a49.4,49.4,0,0,0,19.1-1.44A48.369,48.369,0,0,0,337.1,64.349a86.167,86.167,0,0,1-17.459,7.03A87.269,87.269,0,0,1,300.953,74.232Z" transform="translate(-300.953 -64.349)" fill="#8e5a61"/>
        </g>
        <g id="Group_1547" data-name="Group 1547" transform="translate(101.205 29.758)">
          <path id="Path_3662" data-name="Path 3662" d="M346.6,98.661a40.277,40.277,0,0,0-5.3-18.036A41.936,41.936,0,0,0,328.409,66.59a67.1,67.1,0,0,1,11.532,14.75A65.309,65.309,0,0,1,346.6,98.661Z" transform="translate(-328.409 -66.59)" fill="#8e5a61"/>
        </g>
        <g id="Group_1548" data-name="Group 1548" transform="translate(101.171 31.459)">
          <path id="Path_3663" data-name="Path 3663" d="M339.911,113.122a71.1,71.1,0,0,0-2.034-23.556,72.3,72.3,0,0,0-9.491-21.795,160.652,160.652,0,0,1,7.6,22.241A159.227,159.227,0,0,1,339.911,113.122Z" transform="translate(-328.386 -67.771)" fill="#8e5a61"/>
        </g>
      </g>
      <g id="Group_1550" data-name="Group 1550" transform="translate(221.529 159.479)">
        <path id="Rectangle_356" data-name="Rectangle 356" d="M1.812,0H19.718A1.812,1.812,0,0,1,21.53,1.812V18.153a0,0,0,0,1,0,0H0a0,0,0,0,1,0,0V1.812A1.812,1.812,0,0,1,1.812,0Z" fill="#c7d2d7"/>
        <path id="Path_3664" data-name="Path 3664" d="M156.4,156.673v10.6a1.717,1.717,0,0,0,1.747,1.685h0a1.716,1.716,0,0,0,1.747-1.685v-10.6Z" transform="translate(-153.69 -156.673)" fill="#99a3b0"/>
        <path id="Path_3665" data-name="Path 3665" d="M160.623,156.673v10.6a1.716,1.716,0,0,0,1.747,1.685h0a1.717,1.717,0,0,0,1.747-1.685v-10.6Z" transform="translate(-151.605 -156.673)" fill="#99a3b0"/>
        <path id="Path_3666" data-name="Path 3666" d="M164.85,156.673v10.6a1.717,1.717,0,0,0,1.747,1.685h0a1.717,1.717,0,0,0,1.747-1.685v-10.6Z" transform="translate(-149.52 -156.673)" fill="#99a3b0"/>
      </g>
      <g id="Group_1552" data-name="Group 1552" transform="translate(217.815 128.399)">
        <g id="Group_1551" data-name="Group 1551">
          <path id="Path_3667" data-name="Path 3667" d="M283.073,161.713l-16.908,3.373-66.281-24.9-29.731-5a6.9,6.9,0,0,0-6.364,2.257L153.659,149.2a6.365,6.365,0,0,0-1.534,4.775l1.768,18.283,2.441-.294a6.619,6.619,0,0,0,5.919-6.192l.432-9.707,7.395-5.024a4.179,4.179,0,0,1,4.913.174l7.081,5.61-9.222,9.4a4.415,4.415,0,0,0-.346,5.838h0a4.815,4.815,0,0,0,5.865,1.336l15.607-7.527a33.26,33.26,0,0,0,5.6-3.411l2.565-1.937,44.4,30.75a27.2,27.2,0,0,0,19.521,4.483l26.71-4.035Z" transform="translate(-152.096 -135.089)" fill="#f2c9ad"/>
          <path id="Path_3668" data-name="Path 3668" d="M241.6,153.578l-3.847.768a45.806,45.806,0,0,0,2.559,30.893l10.981-1.659Z" transform="translate(-110.623 -126.954)" fill="#eba58e"/>
        </g>
        <line id="Line_25" data-name="Line 25" y1="4.034" x2="26.71" transform="translate(113.961 56.626)" fill="none" stroke="#422c4f" stroke-linecap="round" stroke-linejoin="round" stroke-width="0.226"/>
        <path id="Path_3669" data-name="Path 3669" d="M301.09,144.26h0a65.531,65.531,0,0,0-27.37,1.485l-35.633,9.677c-2.253,17.175,10.145,38.264,10.145,38.264l35.62-8.7Z" transform="translate(-109.817 -131.407)" fill="#4987e5"/>
        <line id="Line_26" data-name="Line 26" y1="8.696" x2="35.62" transform="translate(138.417 53.582)" fill="none" stroke="#422c4f" stroke-linecap="round" stroke-linejoin="round" stroke-width="0.226"/>
        <path id="Path_3670" data-name="Path 3670" d="M243.533,152.143a61.238,61.238,0,0,0,10.384,33.411" transform="translate(-106.996 -127.586)" fill="none" stroke="#422c4f" stroke-linecap="round" stroke-linejoin="round" stroke-width="0.226"/>
        <line id="Line_27" data-name="Line 27" x2="28.18" y2="19.518" transform="translate(50.043 25.428)" fill="none" stroke="#422c4f" stroke-linecap="round" stroke-linejoin="round" stroke-width="0.226"/>
        <line id="Line_28" data-name="Line 28" x2="3.805" y2="2.635" transform="translate(81.86 47.465)" fill="none" stroke="#422c4f" stroke-linecap="round" stroke-linejoin="round" stroke-width="0.226"/>
        <line id="Line_29" data-name="Line 29" x1="14.319" y2="14.59" transform="translate(20.756 16.539)" fill="none" stroke="#422c4f" stroke-linecap="round" stroke-linejoin="round" stroke-width="0.226"/>
        <path id="Path_3671" data-name="Path 3671" d="M165.1,146.924l-5.784,3.93-.4,9.047" transform="translate(-148.731 -129.882)" fill="none" stroke="#422c4f" stroke-linecap="round" stroke-linejoin="round" stroke-width="0.226"/>
        <path id="Path_3672" data-name="Path 3672" d="M171.816,161.427a22.765,22.765,0,0,1-2.966-4.584,3.423,3.423,0,0,0-2.141,2.7,2.82,2.82,0,0,0,1.659,2.63A3.65,3.65,0,0,0,171.816,161.427Z" transform="translate(-144.89 -125.517)" fill="#ffe1cc"/>
        <path id="Path_3673" data-name="Path 3673" d="M152.886,156.681l5.24-.746-.188,1.362a3.972,3.972,0,0,1-3.13,3.3l-1.511.328Z" transform="translate(-151.707 -125.917)" fill="#ffe1cc"/>
      </g>
      <path id="Path_3674" data-name="Path 3674" d="M304.516,150.593l-20.8,20.391a34.732,34.732,0,0,0-10.22,20.476l-3.751,29.977-6.539-11.022V185.555a34.518,34.518,0,0,1,9.242-23.418l16.112-17.454a6.9,6.9,0,0,1,5.921-2.133l14.6,1.826-.966,4.563Z" transform="translate(120.525 -3.431)" fill="#bd6c67"/>
      <g id="Group_1553" data-name="Group 1553" transform="translate(423.076 131.326)">
        <path id="Path_3675" data-name="Path 3675" d="M293.725,138.86v7.648a9.968,9.968,0,0,1-2.2,6.45c-5.812,6.909.971,16.842,24.386,13.3,8.071-1.238,12.027-4.6,13.9-7.082a7.207,7.207,0,0,0,1.432-4.856l-1.216-17.194Z" transform="translate(-289.557 -137.122)" fill="#f2c9ad"/>
        <path id="Path_3676" data-name="Path 3676" d="M313.664,150.268a34.847,34.847,0,0,0,15.585-9.016l-.293-4.13-36.3,1.738v7.648a10.614,10.614,0,0,1-.944,4.44A50.6,50.6,0,0,0,313.664,150.268Z" transform="translate(-288.491 -137.122)" fill="#422c4f"/>
      </g>
      <path id="Path_3677" data-name="Path 3677" d="M270.608,98.164c.676,39.459,6.086,61.309,33.479,65.548s47-7.392,54.218-13.7a18.646,18.646,0,0,0,16.227,2.457,18.4,18.4,0,0,0,11.547-11.7,12.285,12.285,0,0,0-.327-8.871c-1.949-4.077-6.848-6.43-11.49-6.127a16.851,16.851,0,0,0-11.747,6.507,27.113,27.113,0,0,0-5.144,12.371,26.049,26.049,0,0,1-.868-20.238c-15.218-7.011-12.174-36.361-12.174-36.361-13.02,14.511-40.41,16.794-40.41,16.794l9.637-7.664A106.669,106.669,0,0,1,270.608,98.164Z" transform="translate(124.174 -27.387)" fill="#f2c9ad"/>
      <g id="Group_1556" data-name="Group 1556" transform="translate(395.233 94.466)">
        <g id="Group_1555" data-name="Group 1555">
          <path id="Path_3682" data-name="Path 3682" d="M297.766,115c10.614,1.732,26.038,10.1,44.351,13.166l-.408-3.482c-19.173-2.772-31.854-11.251-42.844-13.044-7.89-.87-24.235,3.37-27.955,3.152q.123,1.674.284,3.3C276.534,117.616,290.61,114.213,297.766,115Z" transform="translate(-270.91 -111.525)" fill="#fff"/>
          <path id="Path_3683" data-name="Path 3683" d="M342.023,127.142c-18.313-3.069-33.737-11.434-44.351-13.166-7.156-.789-21.232,2.614-26.572,3.095,1.807,18.376,7.595,32.318,31.222,37.245,25.024,5.217,42.271-5.219,42.271-5.219Z" transform="translate(-270.816 -110.499)" fill="#6ca8bf"/>
        </g>
        <path id="Path_3684" data-name="Path 3684" d="M318.656,124.588l17.735-3.174c-.63,1.342-1.342,3.174-1.342,3.174l-15.973,3.578Z" transform="translate(-247.359 -107.174)" fill="#fff"/>
        <path id="Path_3685" data-name="Path 3685" d="M320.049,138.1l13.869-7.017a20.7,20.7,0,0,0,2.223,1.282l-15.693,9.153Z" transform="translate(-246.672 -102.919)" fill="#e4e4e0"/>
      </g>
      <path id="Path_3686" data-name="Path 3686" d="M349.643,125.679a10.947,10.947,0,0,0-1.623-3.622A4.963,4.963,0,0,0,344.643,120a6.653,6.653,0,0,0-4.166,1.388,21.222,21.222,0,0,0-5.621,5.427,8.876,8.876,0,0,0-1.665,3.59,4.181,4.181,0,0,0,1.056,3.682,4.255,4.255,0,0,0,3.636,1,6.516,6.516,0,0,0,3.376-1.826,6.267,6.267,0,0,0,2.059-4.43,4.189,4.189,0,0,0-2.683-3.9,5.211,5.211,0,0,1,9.007.743Z" transform="translate(155.01 -13.337)" fill="#eba58e"/>
      <g id="Group_1561" data-name="Group 1561" transform="translate(213.413 131.326)">
        <g id="Group_1559" data-name="Group 1559" transform="translate(4.401)">
          <path id="Path_3687" data-name="Path 3687" d="M152.1,206.692H192.22V196.474l38.1-44.415v9.629h18.486V147.556a10.633,10.633,0,0,0-10.822-10.434h-4.321a23.439,23.439,0,0,0-16.145,6.385l-41.981,39.922H152.1Z" transform="translate(-152.096 -137.122)" fill="#c7d2d7"/>
          <path id="Path_3688" data-name="Path 3688" d="M175.537,169.279l-6.073,5.775H152.1v-5.775Z" transform="translate(-152.096 -122.972)" fill="#99a3b0"/>
          <path id="Path_3689" data-name="Path 3689" d="M180.428,178.338,176,183.5v5.061h4.424Z" transform="translate(-140.304 -118.986)" fill="#99a3b0"/>
          <rect id="Rectangle_357" data-name="Rectangle 357" width="18.486" height="6.631" transform="translate(78.224 17.935)" fill="#99a3b0"/>
          <g id="Group_1557" data-name="Group 1557" transform="translate(63.592 10.543)" opacity="0.5">
            <path id="Path_3690" data-name="Path 3690" d="M196.712,151.585a2.059,2.059,0,0,1-1.425-.563,1.906,1.906,0,0,1-.021-2.766l3.3-3.229a2.08,2.08,0,0,1,2.868-.02,1.908,1.908,0,0,1,.021,2.768l-3.3,3.229A2.058,2.058,0,0,1,196.712,151.585Z" transform="translate(-194.683 -144.444)" fill="#fff"/>
          </g>
          <g id="Group_1558" data-name="Group 1558" transform="translate(43.33 18.861)" opacity="0.5">
            <path id="Path_3691" data-name="Path 3691" d="M183.142,168.855a2.064,2.064,0,0,1-1.425-.563,1.909,1.909,0,0,1-.019-2.768L196.756,150.8a2.08,2.08,0,0,1,2.869-.02,1.908,1.908,0,0,1,.021,2.768l-15.058,14.721A2.061,2.061,0,0,1,183.142,168.855Z" transform="translate(-181.114 -150.22)" fill="#fff"/>
          </g>
        </g>
        <g id="Group_1560" data-name="Group 1560" transform="translate(0 69.57)">
          <path id="Path_3692" data-name="Path 3692" d="M196.685,188.631l-3.012-3.2H153.55l-3.01,3.2a5.063,5.063,0,0,0-1.39,3.472,4,4,0,0,0,4.074,3.93H194a4,4,0,0,0,4.074-3.93A5.063,5.063,0,0,0,196.685,188.631Z" transform="translate(-149.149 -185.434)" fill="#8893a0"/>
          <path id="Path_3693" data-name="Path 3693" d="M194,193.995H153.223a4,4,0,0,1-4.074-3.93v14.528h48.926V190.065A4,4,0,0,1,194,193.995Z" transform="translate(-149.149 -183.396)" fill="#74808c"/>
        </g>
      </g>
      <g id="Group_1562" data-name="Group 1562" transform="translate(438.069 146.831)">
        <path id="Path_3694" data-name="Path 3694" d="M339.685,157.492l-12.227,13.081a34.311,34.311,0,0,0-8.165,32.632l12.319,44.672a7.761,7.761,0,0,1-4.82,9.275l-3.538,1.369a8.164,8.164,0,0,1-10.947-5.569l-11.844-51.5a34.33,34.33,0,0,1,8.376-31.043l18.772-20.337a6.91,6.91,0,0,1,6.3-2.074l9.967,1.8a6.725,6.725,0,0,1,4.929,3.75l.859,1.853-2.7-.406A8.292,8.292,0,0,0,339.685,157.492Z" transform="translate(-299.597 -147.889)" fill="#bd6c67"/>
        <path id="Path_3695" data-name="Path 3695" d="M377.307,276.727c-6.988-3.914-46.667-29.785-57.488-59.136L312.07,220.9c10.82,29.351,50.5,55.222,57.487,59.136Z" transform="translate(-293.444 -117.219)" fill="#8c404c"/>
      </g>
      <g id="Group_1565" data-name="Group 1565" transform="translate(172.399 314.708)">
        <g id="Group_1563" data-name="Group 1563" transform="translate(16.103)">
          <rect id="Rectangle_358" data-name="Rectangle 358" width="39.227" height="191.101" transform="translate(0 36.851)" fill="#8893a0"/>
          <path id="Path_3696" data-name="Path 3696" d="M265.514,264.469H153.17l-20.7,36.851H286.218Z" transform="translate(-132.466 -264.469)" fill="#c7d2d7"/>
          <rect id="Rectangle_359" data-name="Rectangle 359" width="39.227" height="191.101" transform="translate(114.525 36.851)" fill="#8893a0"/>
          <path id="Path_3697" data-name="Path 3697" d="M196.384,290.059H158.735v191.1h75.3v-191.1Z" transform="translate(-119.508 -253.209)" fill="#99a3b0"/>
        </g>
        <path id="Path_3698" data-name="Path 3698" d="M307.64,439.086H121.682l16.1-16.319H291.537Z" transform="translate(-121.682 -194.815)" fill="#c7d2d7"/>
        <rect id="Rectangle_360" data-name="Rectangle 360" width="185.957" height="31.799" transform="translate(0 244.271)" fill="#8893a0"/>
        <g id="Group_1564" data-name="Group 1564" transform="translate(20.319)" opacity="0.15">
          <rect id="Rectangle_361" data-name="Rectangle 361" width="29.401" height="191.101" transform="translate(16.487 36.851)" fill="#fff"/>
          <rect id="Rectangle_362" data-name="Rectangle 362" width="13.661" height="191.101" transform="translate(54.35 36.851)" fill="#fff"/>
          <path id="Path_3699" data-name="Path 3699" d="M164.691,439.038h-29.4l16.487-16.271h29.4Z" transform="translate(-135.29 -194.815)" fill="#fff"/>
          <path id="Path_3700" data-name="Path 3700" d="M174.307,439.038H160.646l16.487-16.271h13.661Z" transform="translate(-122.783 -194.815)" fill="#fff"/>
          <rect id="Rectangle_363" data-name="Rectangle 363" width="29.401" height="31.846" transform="translate(0 244.223)" fill="#fff"/>
          <rect id="Rectangle_364" data-name="Rectangle 364" width="13.661" height="31.846" transform="translate(37.863 244.223)" fill="#fff"/>
          <path id="Path_3701" data-name="Path 3701" d="M186.313,264.469,175.732,301.32h-29.4l10.582-36.851Z" transform="translate(-129.844 -264.469)" fill="#fff"/>
          <path id="Path_3702" data-name="Path 3702" d="M176.456,264.469l-4.769,36.851h13.661l2.238-36.851Z" transform="translate(-117.337 -264.469)" fill="#fff"/>
        </g>
      </g>
      <g id="Group_1568" data-name="Group 1568" transform="translate(289.719 155.892)">
        <path id="Path_3703" data-name="Path 3703" d="M230.863,220.382H200.249l8.587-66.2h13.439Z" transform="translate(-200.249 -154.182)" fill="#96e4ff"/>
        <g id="Group_1566" data-name="Group 1566" transform="translate(20.387)">
          <path id="Path_3704" data-name="Path 3704" d="M215.541,154.182H213.9l6.492,66.2h3.734Z" transform="translate(-213.902 -154.182)" fill="#6bc5ff"/>
        </g>
        <g id="Group_1567" data-name="Group 1567" transform="translate(4.251)" opacity="0.5">
          <path id="Path_3705" data-name="Path 3705" d="M209.3,154.182l-6.2,66.2h3.776l4.084-66.2Z" transform="translate(-203.096 -154.182)" fill="#fff"/>
          <path id="Path_3706" data-name="Path 3706" d="M210.125,154.182l-1.935,66.2h6.9l-1.934-66.2Z" transform="translate(-200.583 -154.182)" fill="#fff"/>
        </g>
      </g>
      <g id="Group_1570" data-name="Group 1570" transform="translate(283.301 161.211)">
        <g id="Group_1569" data-name="Group 1569" transform="translate(0 29.256)">
          <path id="Path_3707" data-name="Path 3707" d="M339.671,181.219,316.45,200.786l-64.808-21.864a14.013,14.013,0,0,0-7.136-.474l-24.17,4.693a15.887,15.887,0,0,0-6.393,2.8L197.25,198.25a3.12,3.12,0,0,0-.891,4.07h0a3.372,3.372,0,0,0,4.335,1.342l14.42-6.68L200.35,208.4a3.871,3.871,0,0,0-.673,5.527h0a4.213,4.213,0,0,0,5.379.956l16.653-9.746L209.6,216.4a3.139,3.139,0,0,0-.217,4.414h0a3.427,3.427,0,0,0,4.5.505l16.273-11.452-11.844,11.861a1.975,1.975,0,0,0-.063,2.746h0a2.157,2.157,0,0,0,2.8.308l29.907-20.623,54.184,31.08a27.883,27.883,0,0,0,29.8-1.362l27.5-19.391Z" transform="translate(-195.951 -178.192)" fill="#f2c9ad"/>
          <path id="Path_3708" data-name="Path 3708" d="M294.3,180.294l-6.372,5.368a58.236,58.236,0,0,0,19.475,34.71l9.666-6.816Z" transform="translate(-150.583 -177.267)" fill="#eba58e"/>
        </g>
        <path id="Path_3709" data-name="Path 3709" d="M314.876,228.205s-22.093-23.916-26.151-37.612l38.158-28.341a22.37,22.37,0,0,1,30.965,4.265h0a20.536,20.536,0,0,1-3.281,28.294Z" transform="translate(-150.191 -157.876)" fill="#4987e5"/>
        <path id="Path_3710" data-name="Path 3710" d="M291.928,193.522a38.441,38.441,0,0,1-3.2-7.284l24.861-18.464" transform="translate(-150.191 -153.52)" fill="none" stroke="#422c4f" stroke-linecap="round" stroke-linejoin="round" stroke-width="0.226"/>
        <path id="Path_3711" data-name="Path 3711" d="M353.367,163.877h0a20.536,20.536,0,0,1-3.281,28.294l-39.692,33.394s-6.166-6.676-12.582-14.992" transform="translate(-145.709 -155.235)" fill="none" stroke="#422c4f" stroke-linecap="round" stroke-linejoin="round" stroke-width="0.226"/>
        <path id="Path_3712" data-name="Path 3712" d="M294.253,178.746a117.4,117.4,0,0,0,23.09,29.947" transform="translate(-147.464 -148.692)" fill="none" stroke="#422c4f" stroke-linecap="round" stroke-linejoin="round" stroke-width="0.226"/>
        <line id="Line_30" data-name="Line 30" x1="58.079" y1="19.593" transform="translate(71.039 35.165)" fill="none" stroke="#422c4f" stroke-linecap="round" stroke-linejoin="round" stroke-width="0.226"/>
        <line id="Line_31" data-name="Line 31" y1="9.382" x2="11.135" transform="translate(120.499 42.467)" fill="none" stroke="#422c4f" stroke-linecap="round" stroke-linejoin="round" stroke-width="0.226"/>
        <line id="Line_32" data-name="Line 32" x1="20.408" y1="11.707" transform="translate(88.783 74.593)" fill="none" stroke="#422c4f" stroke-linecap="round" stroke-linejoin="round" stroke-width="0.226"/>
        <line id="Line_33" data-name="Line 33" y1="19.007" x2="27.564" transform="translate(34.378 50.438)" fill="none" stroke="#422c4f" stroke-linecap="round" stroke-linejoin="round" stroke-width="0.226"/>
        <line id="Line_34" data-name="Line 34" y1="3.118" x2="3.113" transform="translate(23.242 68.793)" fill="none" stroke="#422c4f" stroke-linecap="round" stroke-linejoin="round" stroke-width="0.226"/>
        <line id="Line_35" data-name="Line 35" y1="11.452" x2="16.274" transform="translate(17.936 60.926)" fill="none" stroke="#422c4f" stroke-linecap="round" stroke-linejoin="round" stroke-width="0.226"/>
        <path id="Path_3713" data-name="Path 3713" d="M202.048,206.647,218.7,196.9l-3.114,2.9" transform="translate(-192.944 -140.704)" fill="none" stroke="#422c4f" stroke-linecap="round" stroke-linejoin="round" stroke-width="0.226"/>
        <path id="Path_3714" data-name="Path 3714" d="M199.127,197.92l14.42-6.68-6.827,5.279" transform="translate(-194.385 -143.195)" fill="none" stroke="#422c4f" stroke-linecap="round" stroke-linejoin="round" stroke-width="0.226"/>
        <path id="Path_3715" data-name="Path 3715" d="M200.785,195.473a17.185,17.185,0,0,1-2.234-3.453,2.578,2.578,0,0,0-1.613,2.033,2.123,2.123,0,0,0,1.25,1.98A2.749,2.749,0,0,0,200.785,195.473Z" transform="translate(-195.465 -142.851)" fill="#ffe1cc"/>
        <path id="Path_3716" data-name="Path 3716" d="M203.532,203.526a20.535,20.535,0,0,1-2.679-4.14,3.087,3.087,0,0,0-1.934,2.438,2.546,2.546,0,0,0,1.5,2.375A3.3,3.3,0,0,0,203.532,203.526Z" transform="translate(-194.488 -139.61)" fill="#ffe1cc"/>
      </g>
      <g id="Group_1571" data-name="Group 1571" transform="translate(172.269 222.093)">
        <rect id="Rectangle_365" data-name="Rectangle 365" width="186.216" height="32.285" rx="2.717" fill="#fff"/>
        <path id="Path_3717" data-name="Path 3717" d="M156.593,254.858H268.937a27.021,27.021,0,0,0,25.454-17.25L300,222.574H125.526l5.613,15.034A27.02,27.02,0,0,0,156.593,254.858Z" transform="translate(-119.657 -190.288)" fill="#fff"/>
        <rect id="Rectangle_366" data-name="Rectangle 366" width="112.345" height="28.046" transform="translate(36.936 64.57)" fill="#fff"/>
        <path id="Path_3718" data-name="Path 3718" d="M125.526,222.574l3.409,9.13H285.02a31.655,31.655,0,0,1-21.107,19.452l-12.811,3.7h17.835a27.021,27.021,0,0,0,25.454-17.25L300,222.574Z" transform="translate(-119.657 -190.288)" fill="#d4cfbe"/>
        <path id="Path_3719" data-name="Path 3719" d="M121.6,215.553v6.2a3.987,3.987,0,0,0,4.057,3.914h178.1a3.988,3.988,0,0,0,4.057-3.914v-6.2Z" transform="translate(-121.595 -193.378)" fill="#e4e4e0"/>
        <rect id="Rectangle_367" data-name="Rectangle 367" width="112.345" height="6.631" transform="translate(36.936 64.57)" fill="#a59b95"/>
      </g>
    </g>
    <path id="Path_3720" data-name="Path 3720" d="M565.211,459.7h0a3.588,3.588,0,0,0-3.651-3.521H94.974a3.588,3.588,0,0,0-3.651,3.521h0a3.588,3.588,0,0,0,3.651,3.521h42.647a3.587,3.587,0,0,1,3.651,3.521h0a3.588,3.588,0,0,1-3.651,3.521h-12.54a3.586,3.586,0,0,0-3.65,3.519h0a3.586,3.586,0,0,0,3.65,3.519H511.286a3.587,3.587,0,0,0,3.651-3.519h0a3.587,3.587,0,0,0-3.651-3.519H497.879a3.588,3.588,0,0,1-3.651-3.521h0a3.587,3.587,0,0,1,3.651-3.521H561.56A3.588,3.588,0,0,0,565.211,459.7Z" transform="translate(18.63 180.522)" fill="#d1f4f5"/>
  </g>
</svg>
