<svg xmlns="http://www.w3.org/2000/svg" xmlns:xlink="http://www.w3.org/1999/xlink" width="794" height="802" viewBox="0 0 794 802">
  <defs>
    <clipPath id="clip-path">
      <rect id="Rectangle_74" data-name="Rectangle 74" width="794" height="802" transform="translate(0.039 -0.475)" fill="none"/>
    </clipPath>
    <filter id="Path_1765" x="86.898" y="432.611" width="322.524" height="393.412" filterUnits="userSpaceOnUse">
      <feOffset dy="3" input="SourceAlpha"/>
      <feGaussianBlur stdDeviation="3" result="blur"/>
      <feFlood flood-opacity="0.161"/>
      <feComposite operator="in" in2="blur"/>
      <feComposite in="SourceGraphic"/>
    </filter>
    <filter id="Path_1766" x="203.617" y="708.232" width="241.435" height="115.801" filterUnits="userSpaceOnUse">
      <feOffset dy="3" input="SourceAlpha"/>
      <feGaussianBlur stdDeviation="3" result="blur-2"/>
      <feFlood flood-opacity="0.161"/>
      <feComposite operator="in" in2="blur-2"/>
      <feComposite in="SourceGraphic"/>
    </filter>
    <filter id="Path_1774" x="226.589" y="308.98" width="162.039" height="148.284" filterUnits="userSpaceOnUse">
      <feOffset dy="3" input="SourceAlpha"/>
      <feGaussianBlur stdDeviation="3" result="blur-3"/>
      <feFlood flood-opacity="0.161"/>
      <feComposite operator="in" in2="blur-3"/>
      <feComposite in="SourceGraphic"/>
    </filter>
    <filter id="Path_1778" x="494.454" y="498.759" width="132.465" height="258.149" filterUnits="userSpaceOnUse">
      <feOffset dy="3" input="SourceAlpha"/>
      <feGaussianBlur stdDeviation="3" result="blur-4"/>
      <feFlood flood-opacity="0.161"/>
      <feComposite operator="in" in2="blur-4"/>
      <feComposite in="SourceGraphic"/>
    </filter>
    <filter id="Ellipse_84" x="464.259" y="540.377" width="59.711" height="60.263" filterUnits="userSpaceOnUse">
      <feOffset dy="3" input="SourceAlpha"/>
      <feGaussianBlur stdDeviation="3" result="blur-5"/>
      <feFlood flood-opacity="0.161"/>
      <feComposite operator="in" in2="blur-5"/>
      <feComposite in="SourceGraphic"/>
    </filter>
    <filter id="Ellipse_85" x="462.394" y="611.76" width="31.762" height="31.944" filterUnits="userSpaceOnUse">
      <feOffset dy="3" input="SourceAlpha"/>
      <feGaussianBlur stdDeviation="3" result="blur-6"/>
      <feFlood flood-opacity="0.161"/>
      <feComposite operator="in" in2="blur-6"/>
      <feComposite in="SourceGraphic"/>
    </filter>
  </defs>
  <g id="washHands" transform="translate(179 -185)">
    <g id="Graphic_Elements" data-name="Graphic Elements" transform="translate(-179.039 185.474)">
      <g id="Group_812" data-name="Group 812">
        <g id="Group_811" data-name="Group 811" clip-path="url(#clip-path)">
          <g id="Group_809" data-name="Group 809" transform="translate(73.443 149.38)">
            <path id="Path_1762" data-name="Path 1762" d="M400.592,267.128c-52.668-65.98-134.39-52.47-177.522,10.9-19.444,28.568-42.574,54.616-69.631,76.635-57.52,46.808-72.018,154.637,56.2,175.7a633.764,633.764,0,0,1,76.017,17.362c47.834,14.059,115.046,17.8,129.326-56.933,5.194-27.184,9.742-54.478,17.141-81.145C445.732,360.6,453.933,292.93,400.592,267.128Z" transform="translate(-110.991 -223.643)" fill="#4880a1"/>
            <path id="Path_1763" data-name="Path 1763" d="M625.026,969.628c-.861-15.54-6.029-30.181-11.089-44.3l-17.515-48.878c-7.075-19.742-15.664-41.436-30.017-48.29-9.479-4.527-19.445-1.428-28.842,1.7-10.289,3.427-22.348,9.441-24.149,24.722-1.049,8.9,1.93,18.034,4.82,26.408L541.6,948.7c7.461,21.617,15.551,44.3,29.3,57.947C592.331,1027.907,627.247,1009.736,625.026,969.628Z" transform="translate(-247.059 -423.623)" fill="#e8cab5"/>
            <path id="Path_1764" data-name="Path 1764" d="M579.2,1019.763a34.768,34.768,0,0,1,5.236-4.6c4.3-3.065,9.278-2.125,14.387-2.419l29.868-1.719q19.154-1.1,38.308-2.206L685.669,997.4l31.168-19.06,4.747-2.9c.594-.363,1.178-.77,1.792-1.1,5.143-2.732,12.659.073,17.978,1.043l19.126,3.489a54.212,54.212,0,0,1,5.57.919,19.775,19.775,0,0,1,4.369,2.409c2.638,1.555,5.19,3.288,7.764,4.948,5.716,3.686,11.5,7.353,16.919,11.479a23.247,23.247,0,0,1,2.811,2.361c4.026,4.221-8.642,9.521-17.84,4.621s-18.1-12.59-28.441-12.611-22.348-.175-22.348-.175l28.257,7.257,4.521,1.161c4.933,1.266,9.477,3.68,14.045,5.932,6.315,3.113,12.58,6.336,18.733,9.765,13.873,7.731,11.063,12.477,1.474,11.634-9.518-.836-36.639-11.627-37.041-11.788-3.152-1.256-6.234-.285-9.453-.431l-10.161-.461c-3.926-.178-8.644.337-12.484-.566l43.622,10.259s26.865,6.891,28.2,13.78-37.384-.385-37.384-.385l-33.711-3.466a6.828,6.828,0,0,1,1.1.318c11.914,3.432,23.629,6.929,35.829,9.1l8.236,1.468s8.378,1.684,3.456,5.664-22.9,4.438-27.355,4.744-23.932-2.91-32.171-.844-33.569,11.173-43.975,6.12l-10.407-5.052c-17.591,4.253-34.808,10.119-52.638,13.328-6.939,1.248-16.977,4.975-23.648,1.411-7.4-3.954-12.768-15.761-14.8-23.467C568.8,1038.006,572.038,1027.449,579.2,1019.763Z" transform="translate(-266.467 -472.535)" fill="#e8cab5"/>
            <g transform="matrix(1, 0, 0, 1, -73.4, -149.85)" filter="url(#Path_1765)">
              <path id="Path_1765-2" data-name="Path 1765" d="M175.356,988.85c-9.833-50.045-22.134-96.874-28.124-148.194-4.276-36.644-2.136-73.951,3.779-110.074,1-6.131,2.069-12.442,5.083-17.668,4.329-7.508,11.938-11.593,19.162-15.312l35.331-18.192c30.69-15.8,65.605-22.548,99.165-23.317,27.722-.635,78.388.126,101.431,19.495,10.36,8.709,16.513,22.617,19.284,36.852,6.178,31.743,8.623,66.373,13.21,98.872,4.663,33.044,7.3,66.382,4.973,99.829-1.016,14.6-2.477,111.4-24.375,111.418-78.685,1.781-165.568,15.9-243.091,4.231C179.853,1014.258,177.86,1001.6,175.356,988.85Z" transform="translate(-49.09 -217.34)" fill="#fff"/>
            </g>
            <g transform="matrix(1, 0, 0, 1, -73.4, -149.85)" filter="url(#Path_1766)">
              <path id="Path_1766-2" data-name="Path 1766" d="M338,1160.282c-8.821-6.18-14.477-16.795-15.956-27.7-9.409-69.391,83.358-51.91,124.481-55.56l94.917-8.426c-.233.021,3.576,33.124,3.361,35.529-1.9,21.268-24,24.49-43.7,31.8a527.306,527.306,0,0,1-128.753,29.748c-9.875,1.024-20.247,1.553-29.309-2.516A30.743,30.743,0,0,1,338,1160.282Z" transform="translate(-108.76 -354.37)" fill="#f4dcc9"/>
            </g>
            <path id="Path_1767" data-name="Path 1767" d="M349.825,1035.751c-3.723-18.937-12.582-36.011-21.219-52.464l-29.9-56.954c-12.077-23-26.349-48.138-45.154-54.029-12.42-3.891-24.13,1.67-35.136,7.17-12.05,6.021-25.831,15.532-25.423,34.621.238,11.116,5.464,21.811,10.451,31.587l40.319,79.05c12.873,25.239,26.7,51.682,45.928,66.018C319.662,1113.1,359.434,1084.626,349.825,1035.751Z" transform="translate(-138.73 -438.607)" fill="#f4dcc9"/>
            <path id="Path_1768" data-name="Path 1768" d="M509.083,847.331a6.462,6.462,0,0,0,2.792.651c14.964.19,30,.832,44.962.571,13.517-.235,26.551,3.829,39.967,2.743q-5.23-38.5-10.459-76.99c-1.162-8.555-2.336-17.163-4.987-25.366-6.506-20.124-21.283-36.179-35.638-51.533-22.283-23.834-52.476,6.369-54.533,33.067-1.663,21.58,6.307,48.015,9.124,69.546C501.488,809.009,498.708,842.257,509.083,847.331Z" transform="translate(-239.536 -378.091)" fill="#fff"/>
            <path id="Path_1769" data-name="Path 1769" d="M288.19,883.594a10.356,10.356,0,0,1-3.133,2.674c-18.895,10.71-37.588,21.966-56.77,32.183-17.327,9.228-31.291,22.837-49.034,31.06l-35.975-91.846c-4-10.2-8.014-20.478-9.893-31.342-4.611-26.655,3.895-54.647,12.312-81.575,13.067-41.8,70.761-29.838,90.458-1.978,15.921,22.52,22.71,57.129,32.906,82.738C273.32,836.2,298.127,870.744,288.19,883.594Z" transform="translate(-118.128 -387.636)" fill="#fff"/>
            <path id="Path_1770" data-name="Path 1770" d="M360.461,540.655a245.689,245.689,0,0,1,26.076,17.95c5.066,3.992,10.125,8.371,12.909,14.229,2.675,5.627,2.992,12.066,3.261,18.308,1.006,23.53.272,31.225,22.57,38.45,1.736.562,3.571,1.191,4.729,2.618,1.29,1.59,1.448,3.815,1.394,5.872-.519,19.749-17.128,37.746-36.541,39.593-6.991.665-14.01-.526-20.934-1.713l-35.489-6.084c-14.315-2.454-30.029-5.73-38.833-17.426-2.362-3.139-4.112-7.4-2.448-10.97,1.053-2.258,3.239-3.712,5.311-5.066,26.388-17.241,32.681-25.981,42.092-54.277C345.506,579.285,359.167,540,360.461,540.655Z" transform="translate(-173.748 -328.908)" fill="#f2dac7"/>
            <g id="Group_807" data-name="Group 807" transform="translate(116.502 34.8)">
              <g id="Group_806" data-name="Group 806" transform="translate(0 14.191)">
                <g id="Group_802" data-name="Group 802">
                  <g id="Group_801" data-name="Group 801">
                    <path id="Path_1771" data-name="Path 1771" d="M427.717,534.981l-.079.056a26.286,26.286,0,0,1-18.086,4.635c-9.667-1.061-18.852-4.384-28.328-10.145-22.044-13.4-37.645-35.386-44.239-60.563-16.382-62.553,10.621-127.278,10.621-127.278,37.055-74.275,159.6-49.453,153.18,26.568C500.786,368.254,499.219,484.362,427.717,534.981Z" transform="translate(-302.162 -296.99)" fill="#f2dac7" stroke="rgba(0,0,0,0)" stroke-width="1"/>
                    <g id="Group_800" data-name="Group 800" transform="translate(0 97.779)">
                      <g id="Group_799" data-name="Group 799">
                        <path id="Path_1772" data-name="Path 1772" d="M289.9,456.25c9.7-25.62,32.04-5.079,32.04-5.079l-.078,62.286C304.741,514.38,278.32,486.836,289.9,456.25Z" transform="translate(-287.056 -443.379)" fill="#f2dac7" stroke="rgba(0,0,0,0)" stroke-width="1"/>
                      </g>
                    </g>
                  </g>
                </g>
                <g id="Group_803" data-name="Group 803" transform="translate(67.631 17.441)">
                  <path id="Path_1773" data-name="Path 1773" d="M389.264,323.1" transform="translate(-389.264 -323.102)" fill="none" stroke="#98afbb" stroke-linecap="round" stroke-linejoin="round" stroke-width="1.05"/>
                </g>
                <g id="Group_805" data-name="Group 805" transform="translate(31.054 102.304)">
                  <g transform="matrix(1, 0, 0, 1, -220.96, -301.15)" filter="url(#Path_1774)">
                    <path id="Path_1774-2" data-name="Path 1774" d="M453.783,587.712l-.183.165a54,54,0,0,1-57.475,8.168,62.55,62.55,0,0,1-22.893-17.7c-6.06-7.485-10.559-15.046-16.151-21.475h0a113.4,113.4,0,0,0,24.877-76.478l-.17-3.6c9.79-1.681,20.667-3.286,31.562-4.48a115.147,115.147,0,0,1,86.58,26.349C493.552,539.546,470.772,572.951,453.783,587.712Z" transform="translate(-120.84 -156.14)" fill="#a2bac7" stroke="rgba(0,0,0,0)" stroke-width="1"/>
                  </g>
                  <g id="Group_804" data-name="Group 804">
                    <path id="Path_1775" data-name="Path 1775" d="M334.264,450.262a24.754,24.754,0,0,0,8.578,12.909,51.1,51.1,0,0,0,13.542,7.793,73.977,73.977,0,0,0,7.431,2.55c2.505.766,5.032,1.456,7.554,2.191,5.047,1.465,10.153,2.768,15.316,4.16a.143.143,0,0,1,.105.171.146.146,0,0,1-.134.11,67.211,67.211,0,0,1-15.971-1.7,72.209,72.209,0,0,1-15.193-5.408,52.936,52.936,0,0,1-13.575-8.806,25.156,25.156,0,0,1-7.928-13.913.14.14,0,0,1,.275-.057Z" transform="translate(-333.987 -450.154)" fill="#a2bac7" stroke="rgba(0,0,0,0)" stroke-width="1"/>
                  </g>
                </g>
                <path id="Path_1776" data-name="Path 1776" d="M338.218,548.207a56.6,56.6,0,0,0,6.109,9.883,73.873,73.873,0,0,0,7.6,8.7c.678.679,1.415,1.3,2.117,1.952s1.43,1.277,2.191,1.862l4.4,3.684c.712.643,1.432,1.279,2.191,1.866.735.621,1.487,1.219,2.211,1.868,1.48,1.248,3.018,2.425,4.457,3.816l.006.007a.143.143,0,0,1-.146.239,42.392,42.392,0,0,1-10.435-5.562c-3.295-2.23-5.939-5.266-8.61-8.167a75.83,75.83,0,0,1-7.132-9.461,52.947,52.947,0,0,1-5.221-10.589.141.141,0,0,1,.087-.179.139.139,0,0,1,.171.072Z" transform="translate(-304.273 -380.38)" fill="#a2bac7" stroke="rgba(0,0,0,0)" stroke-width="1"/>
              </g>
              <path id="Path_1777" data-name="Path 1777" d="M468.243,304.035s-38.087,100.851-138.806,88.34C283.169,317.739,421.975,229.4,468.243,304.035Z" transform="translate(-298.243 -275.743)" fill="#4880a1" stroke="rgba(0,0,0,0)" stroke-width="1"/>
            </g>
            <g id="Group_808" data-name="Group 808" transform="translate(430.05 354.905)">
              <g transform="matrix(1, 0, 0, 1, -503.45, -504.76)" filter="url(#Path_1778)">
                <path id="Path_1778-2" data-name="Path 1778" d="M781.436,928.336a3.5,3.5,0,0,0,.742-.194,6.812,6.812,0,0,0,2.414-1.916c8.809-9.509,12.651-9.871,16.008-22.642.388-1.473,15.111-138.68,15.116-140.2.04-11.207,11.5-10.9,11.79-.8.292,10.163,13.915,141.158,16.333,154.705,1.331,7.456,10.268,32.015,19.656,20.681.832-1.005,1.418-2.211,2.326-3.146a5.269,5.269,0,0,1,8.949,1.742c1.681,4.432-.419,10.637-3.056,14.208a19.791,19.791,0,0,1-14.091,7.719c-3.134.274-7.148-1.681-10.16-.371-5.86,2.548,1.065,9.19,2.107,12.171.587,1.678.173,3.86-1.379,4.694-.674.362-1.472.432-2.144.8-1.987,1.077-1.925,3.9-2.53,6.1-.631,2.29-1.8,4.766-3.9,5.838-44.891,22.955-48.778-14.015-49.5-20.813a11.216,11.216,0,0,0-1.483-5.185c-2.713-4.01-8.628-3.191-13.277-4.392-7.555-1.953-12.153-9.89-13.8-17.611-.863-4.035-1.109-8.448.778-12.108,2.879-5.583,8.943-6.144,13.253-2.139C777.238,926.994,779.338,928.642,781.436,928.336Z" transform="translate(-257.46 -250.23)" fill="#fff"/>
              </g>
              <ellipse id="Ellipse_83" data-name="Ellipse 83" cx="5.491" cy="5.564" rx="5.491" ry="5.564" transform="matrix(1, -0.001, 0.001, 1, 106.918, 159.17)" fill="#fff"/>
            </g>
            <path id="Path_1779" data-name="Path 1779" d="M678.278,1087.918c5.763,1.528,11.485,3.3,17.2,4.85L725.722,1101a40.006,40.006,0,0,0,6.586,1.4c4.109.4,8.443-.181,12.552-.453,4.287-.284,8.627-.227,12.957-.264,11.614-.1,21.988-5.556,32.906-9.185a14.978,14.978,0,0,0,5.6-2.788c1.191-1.095,2.035-2.884,1.329-4.348a4.462,4.462,0,0,0-2.751-1.991c-7.8-2.673-16.934,2.237-24.386,4.617l-2.415-.167L756.2,1087l-5.773-.4a14.992,14.992,0,0,1-2.453-.267c-.547-.131-1.3-.26-1.517-.659-.079-.146.091-1.78-.187-1.765,4.156-.226,8.318-.584,12.472-.878l10.348-.731a24.121,24.121,0,0,0,4.783-.339c.267-.079,9.791-2.89,31.292-10.166,3.8-1.285,13.841-3.813,15.52-8.341,2.667-7.2-8.746-5.04-11.843-4.476-4.629.844-9.221,1.906-13.8,3q-9.5,2.266-18.929,4.825l-10.8.187-10.894.189-3.8.066c-.581.01-2.3.2-2.64-.176a.679.679,0,0,1-.131-.373,3.305,3.305,0,0,0-.353-1.424c4.27-.872,8.869-.957,13.208-1.413l15.619-1.644c8.292-1.721,16.542-3.837,24.632-6.355,5.857-1.823,11.994-3.78,17.289-6.974,2.321-1.4,4.062-2.932,3.166-5.9-1.113-3.682-4.3-3-7.324-2.724-3.922.353-7.831.881-11.73,1.423q-8.105,1.128-16.182,2.466l-38.554,2.139.3-2.149s26.682-5.182,51.131-7.737c4.3-.45,21.847-.443,21.686-7.383-.178-7.7-30.325-5.1-36.091-4.826l-3.088.365-21.1,2.494-9.876,1.167a17.916,17.916,0,0,1-3.393.088,15.023,15.023,0,0,0-2.99.126c-.331.039-2.446-.2-2.479-.178,6.9-4.174,15.388-3.6,22.322-7.475a15.4,15.4,0,0,0,7.5-11.8,3.884,3.884,0,0,0-1.362-3.538c-2.08-1.479-7.249,1.063-9.493,1.516-3.887.784-7.822,1.3-11.76,1.741-7.412.822-14.866,1.282-22.244,2.411a50.449,50.449,0,0,0-10.465,2.536,63.533,63.533,0,0,0-10.048,5.3c-5.3,3.214-10.167,7.1-15.324,10.537-4.367,2.906-7.844,6.869-12.555,9.274-4.66,2.379-10.44,2.548-15.583,3.2q-25.281,3.22-50.644,5.733-12.68,1.256-25.376,2.336c-7.055.6-14.006,2.409-21.01,3.569-2.86.474-6.9.872-9.194,2.875-1.883,1.64-2.194,4.547-2.7,6.923a49,49,0,0,0-.4,17.134,51.578,51.578,0,0,0,15.027,29.655c2.377,2.274,5.135,4.383,8.368,4.884,4.441.688,7.925-1.779,11.94-3.075,4.269-1.379,8.314-2.929,12.492-4.726q14.229-6.119,28.738-11.54c6.142-2.3,12.328-4.368,18.55-6.322,5.139-1.613,10.078-4.416,15.565-4.628C668.5,1084.608,674,1086.784,678.278,1087.918Z" transform="translate(-260.462 -483.097)" fill="#f4dcc9"/>
            <g transform="matrix(1, 0, 0, 1, -73.4, -149.85)" filter="url(#Ellipse_84)">
              <ellipse id="Ellipse_84-2" data-name="Ellipse 84" cx="20.855" cy="21.131" rx="20.855" ry="21.131" transform="translate(473.26 546.38)" fill="#fff"/>
            </g>
            <g transform="matrix(1, 0, 0, 1, -73.4, -149.85)" filter="url(#Ellipse_85)">
              <ellipse id="Ellipse_85-2" data-name="Ellipse 85" cx="6.881" cy="6.972" rx="6.881" ry="6.972" transform="translate(471.39 617.76)" fill="#fff"/>
            </g>
          </g>
          <g id="Group_810" data-name="Group 810" transform="translate(540.657 404.502)">
            <path id="Path_1780" data-name="Path 1780" d="M981.078,1011.786H943.689V689.814c0-25.625-20.014-46.474-44.613-46.474s-44.613,20.848-44.613,46.474v31.978H817.074V689.814c0-46.437,36.786-84.216,82-84.216s82,37.779,82,84.216Z" transform="translate(-817.074 -605.598)" fill="#ccc"/>
          </g>
        </g>
      </g>
    </g>
  </g>
</svg>
