<svg xmlns="http://www.w3.org/2000/svg" xmlns:xlink="http://www.w3.org/1999/xlink" width="776.05" height="629.581" viewBox="0 0 776.05 629.581"><defs><linearGradient id="linear-gradient" x1=".5" y1=".833" x2=".5" y2=".397" gradientUnits="objectBoundingBox"><stop offset="0" stop-color="#ff9f55"/><stop offset="1" stop-color="#ffd255"/></linearGradient><linearGradient id="linear-gradient-2" x1="-275.263" y1=".5" x2="-274.263" y2=".5" xlink:href="#linear-gradient"/><linearGradient id="linear-gradient-3" x1="-286.342" y1=".5" x2="-285.342" y2=".5" xlink:href="#linear-gradient"/></defs><g id="WFH1" transform="translate(-1234.852 -207.228)"><path id="Path_400" data-name="Path 400" d="M1530.941 804.666l-2.756 7.753-116.452-36.083 5.117-16.685z" fill="#918783"/><g id="Group_158" data-name="Group 158"><path id="Path_401" data-name="Path 401" d="M1445.435 344.782s5.869 9.6 13.171 22.27c8.277 14.368 14.914 27.264 16.71 30.453 3.652 6.49 9.454 19.534 15.2 22 5.288 2.27 102.8 20.16 103.923 20.06s-1.1 23.259-1.1 23.259-121.755-14.948-127.253-19.971-21.394-23.994-28.071-33.416c-6.359-8.973-16.112-23.693-21.286-30.037-5.782-7.091-17.915-31.356-2.489-43.459C1433.952 320.481 1440.691 337.682 1445.435 344.782z" fill="#3a60ab"/></g><path id="Path_402" data-name="Path 402" d="M1570.789 444.37a98.97 98.97.0 0 0 11.3 1.653c3.654.115 20.559-7.55 25.967-6.82s40.689 15.719 42.291 16.812-.753 3.5-.753 3.5l-80.994.96z" fill="#d69778"/><path id="Rectangle_34" data-name="Rectangle 34" d="M0 0h141.109v12.924H0z" transform="translate(1595.34 460.049) rotate(-0.434)" fill="#323657"/><path id="Rectangle_35" data-name="Rectangle 35" d="M0 0h141.109v12.924H0z" transform="translate(1724.229 468.123) rotate(-72.995)" fill="#323657"/><g id="Group_159" data-name="Group 159"><path id="Rectangle_36" data-name="Rectangle 36" d="M0 0h11.011v339.226H0z" transform="translate(1932.074 488.756)" fill="#706865"/></g><g id="Group_160" data-name="Group 160"><path id="Rectangle_37" data-name="Rectangle 37" d="M0 0h444.907v19.288H0z" transform="translate(2010.902 488.759) rotate(180)" fill="#b59074"/></g><g id="Group_161" data-name="Group 161"><path id="Rectangle_38" data-name="Rectangle 38" d="M0 0h11.011v339.226H0z" transform="translate(1638.922 827.985) rotate(180)" fill="#706865"/></g><path id="Rectangle_39" data-name="Rectangle 39" d="M0 0h13.236v167.069H0z" transform="translate(1406.715 605.249)" fill="#918783"/><path id="Path_403" data-name="Path 403" d="M1579.478 752.616a71.218 71.218.0 0 0 2.527 15.984c1.757 6.306 5.287 30.723 9.793 34.139s19.042 12.467 16.907 21.765-3.942 15.787-19.635 10.279-26.186-8.657-29.2-22.431-11.6-26.314-11.6-26.314l-11.344 28.213-5.982-2.4s9.045-30.474 8.268-33.193 4.146-26.93 23.128-32.928S1579.478 752.616 1579.478 752.616z" fill="#d1d1d1"/><path id="Path_404" data-name="Path 404" d="M1684.312 761.514a71.171 71.171.0 0 0 8.307 13.886c3.982 5.2 16.366 26.534 21.822 28.022s22.318 4.463 23.806 13.887 2.231 16.118-14.383 16.862-27.526 1.736-35.461-9.919-20.582-20.086-20.582-20.086v30.409h-6.447s-2.976-31.649-4.711-33.881-6.2-26.533 9.174-39.18S1684.312 761.514 1684.312 761.514z" fill="#d1d1d1"/><path id="Path_405" data-name="Path 405" d="M1654.7 592.2l-33.893 76.251c-2.37 5.346-4.585 10.327-6.519 14.672-2.263 5.094-4.142 9.315-5.435 12.23-8.986 20.215-31.088 64.3-31.088 64.3s-16.63.634-17.594-13.487c0 0 15.955-30.595 15.955-52.091s2.886-84.829 23.424-98.52C1624.6 578.854 1640.863 575.693 1654.7 592.2z" fill="#eea886"/><path id="Path_406" data-name="Path 406" d="M1471.834 507.624s4.172 4.172 7.7 5.134 62.575 5.456 89.852 14.441 63.538 14.761 70.277 22.463 17.97 50.06 17.649 58.083 23.971 143.218 27 153.769c1.6 5.593-21.97 3.451-21.97 3.451s-33.494-79.887-40.648-94.645c-13.144-27.115-13.8-60.329-18.612-65.463s-58.4-16.687-89.21-16.687-99.8 2.567-107.181-1.6-53.589-34.658-34.335-75.412S1471.834 507.624 1471.834 507.624z" fill="#eea886"/><path id="Path_407" data-name="Path 407" d="M1604.808 537.452l-48.595 93.4s-14.72-34.9-40.405-40.9-128.188-2.784-128.188-2.784-47.037-59.5-6.758-90.714 87.319 4.912 87.319 4.912 9.718 10.532 14.419 10.767S1524.8 511.826 1604.808 537.452z" fill="#d1d1d1"/><path id="Path_408" data-name="Path 408" d="M1714.441 803.422s-14.879 3.72-20.582.0-25.093-36.493-31.517-38.457c0 0 6.224-12.626 21.97-3.451C1684.312 761.514 1710.225 797.966 1714.441 803.422z" fill="#eea886"/><path id="Path_409" data-name="Path 409" d="M1591.8 802.739s-15.192-2.1-19.1-7.678-9.668-43.22-14.9-47.438c0 0 10.484-9.394 21.671 4.993C1579.478 752.616 1589.922 796.1 1591.8 802.739z" fill="#eea886"/><path id="Path_410" data-name="Path 410" d="M1436.568 212.269c11.739-.568 37.774 5.337 41.786 36.445a96.834 96.834.0 0 1-2.974 14.977c-2.035 6.589 3.869 26.018 2.328 26.976s-7.907 2.182-7.907 2.182-6.848 21.226-14.3 21.044-35.659-6.006-48.945-32.411S1389.169 214.564 1436.568 212.269z" fill="#eea886"/><path id="Path_411" data-name="Path 411" d="M1445.435 304.212s-.916 2.974-1.957 7.39c-.533 2.256-1.1 4.885-1.589 7.683-1.351 7.746-2.145 16.8-.138 22.823.0.0-16.474 5.708-29.49-17.575.0.0 5.59-25.085-1.674-40.3S1445.435 304.212 1445.435 304.212z" fill="#eea886"/><path id="Path_412" data-name="Path 412" d="M1478.354 248.714s-18.009 16.169-37.059 14.888c-19.345-1.3-31.9 22.872-31.9 22.872s-28.795-36.136-5.582-65.356S1482.47 212.456 1478.354 248.714z" fill="#1d3b54"/><path id="Path_413" data-name="Path 413" d="M1432.525 263.46c-.1-3.662-4.177-9.155-10.176-4.153s2.069 22.411 6.985 20.7S1432.631 267.243 1432.525 263.46z" fill="#eea886"/><path id="Path_414" data-name="Path 414" d="M1443.478 311.6c-.533 2.256-1.1 4.885-1.589 7.683a81.675 81.675.0 0 1-23-21.511C1427.634 305.682 1443.478 311.6 1443.478 311.6z" fill="#a77860"/><path id="Path_415" data-name="Path 415" d="M1488.137 400.584c-3.468 16.07-12.592 16.914-12.038 28.785s4.1 12.891-2.041 31.608a91.773 91.773.0 0 0-2.8 11.09c-.085.454-.177.911-.256 1.371-.4 2.161-.74 4.336-1.037 6.485-.546 3.975-.939 7.854-1.213 11.394-.724 9.237 6.08 16.37 6.08 16.37s-60.065 35.986-101.3 30.935c0 0 10.678-44.874 16.556-60.286s4.1-86.642-.221-101.926c-6.383-22.557 6.369-56.375 23.8-60.778l27.032 12.52s27.231 32.518 33.339 37.424S1491.657 384.287 1488.137 400.584z" fill="#4b7bdb"/><path id="Path_416" data-name="Path 416" d="M1620.81 668.448c-2.37 5.346-4.585 10.327-6.519 14.672-7.273-23.387-6.675-62.477-6.675-62.477A222.032 222.032.0 0 0 1620.81 668.448z" fill="#a77860"/><path id="Rectangle_40" data-name="Rectangle 40" d="M0 0H190.9a17.276 17.276.0 0 1 17.276 17.276v5.635a0 0 0 0 1 0 0H0a0 0 0 0 1 0 0V0A0 0 0 0 1 0 0z" transform="translate(1307.631 587.161)" fill="#323657"/><path id="Path_417" data-name="Path 417" d="M1415.956 514.086s-5.248 21.225 19.464 26.048 55.1 10.981 55.1 49.1h-85.7z" fill="#323657"/><path id="Path_418" data-name="Path 418" d="M1307.631 610.072 1234.852 304.2s131.573-20.555 147.248 38.53 41.463 234.588 72.814 245.44S1307.631 610.072 1307.631 610.072z" fill="#323657"/><path id="Path_419" data-name="Path 419" d="M1396.615 260.5s12.655 33.429 9.213 42.558c0 0 19.752-8.438 16.147-30.338S1396.615 260.5 1396.615 260.5z" fill="#1d3b54"/><path id="Path_420" data-name="Path 420" d="M1442.255 330.006V323.39l-28.087-13.677-9.717 11.227z" fill="#4b7bdb"/><path id="Path_421" data-name="Path 421" d="M1541.824 815.449a10.883 10.883.0 1 1-10.883-10.882A10.884 10.884.0 0 1 1541.824 815.449z" fill="#bfb2ac"/><path id="Path_422" data-name="Path 422" d="M1296.748 804.666l2.756 7.753 116.452-36.083-5.581-15.7z" fill="#918783"/><path id="Path_423" data-name="Path 423" d="M1448.893 811.589v9.019l-37.16-44.272 5.117-16.685z" fill="#918783"/><path id="Path_424" data-name="Path 424" d="M1449.817 815.449a10.883 10.883.0 1 1-10.883-10.882A10.884 10.884.0 0 1 1449.817 815.449z" fill="#bfb2ac"/><path id="Path_425" data-name="Path 425" d="M1307.631 815.449a10.883 10.883.0 1 1-10.883-10.882A10.883 10.883.0 0 1 1307.631 815.449z" fill="#bfb2ac"/><path id="Path_426" data-name="Path 426" d="M1579.45 444.37a98.98 98.98.0 0 0 11.3 1.653c3.655.115 20.559-7.55 25.968-6.82s40.689 15.719 42.29 16.812-.752 3.5-.752 3.5l-80.994.96z" fill="#eea886"/><g id="Group_162" data-name="Group 162"><path id="Path_427" data-name="Path 427" d="M1443.487 361.169s5.237 6 12.538 18.678c8.278 14.368 14.99 28.565 16.786 31.755 3.652 6.489 12.17 13.3 17.92 15.768 5.288 2.27 101.208 14.923 102.328 14.822s-1.446 23.834-1.446 23.834-126.137-3.372-131.634-8.395-21.394-23.993-28.072-33.416c-6.359-8.973-16.112-23.693-21.285-30.037-5.783-7.091-17.916-31.356-2.49-43.458C1427.842 335.257 1438.743 354.068 1443.487 361.169z" fill="#4b7bdb"/></g><g id="Group_163" data-name="Group 163"><path id="Path_428" data-name="Path 428" d="M1879.186 335.43a38.926 38.926.0 1 0-33.309-18.765A38.939 38.939.0 0 0 1879.186 335.43z" fill="#36572b"/><path id="Path_429" data-name="Path 429" d="M1918.731 331.938a27.25 27.25.0 0 0 27.248-27.247c0-.869-.038-1.727-.121-2.576a27.251 27.251.0 1 0-27.127 29.823z" fill="#45613c"/><path id="Path_430" data-name="Path 430" d="M1878.551 298.54s-2.17 18.084-2.893 42.677 18.807 24.594 18.807 24.594V455.9h13.558s-.322-91.89 6.43-99.285 6.752-42.438 6.752-42.438l-3.859-2.251s5.787 41.475-20.576 47.583-16.4-59.157-16.4-59.157z" fill="#925e2e"/><path id="Path_431" data-name="Path 431" d="M1869.541 302.761c22.353-4.176 37.076-13.84 45.033-22.526a38.942 38.942.0 1 0-68.7 36.43C1846.947 311.37 1852.744 305.9 1869.541 302.761z" fill="#48753a"/><path id="Path_432" data-name="Path 432" d="M1926.689 312.166c9.032-2.6 15.152-6.179 19.169-10.051a27.248 27.248.0 1 0-42.047 25.377C1906.574 322.274 1912.824 316.158 1926.689 312.166z" fill="#538742"/><path id="Path_433" data-name="Path 433" d="M1942.027 414.02H1850.4l4.723 17h81.236z" fill="#877670"/><path id="Path_434" data-name="Path 434" d="M1930.579 431.023h-68l9.445 38.464h51.945z" fill="#876455"/><path id="Path_435" data-name="Path 435" d="M1921.2 280.863l2.349.724s3.7-10.047 3.938-11.413S1921.2 280.863 1921.2 280.863z" fill="#538742"/><path id="Path_436" data-name="Path 436" d="M1943.407 281.587l-11.654 3.537s.08 1.045 1.607 1.045S1943.407 281.587 1943.407 281.587z" fill="#538742"/><path id="Path_437" data-name="Path 437" d="M1939.388 306.022h-2.974s.563 4.42 2.974 7.233S1939.388 306.022 1939.388 306.022z" fill="#538742"/><path id="Path_438" data-name="Path 438" d="M1867.853 250.24c-1.205.885 4.26 14.227 4.26 14.227h2.733S1869.059 249.356 1867.853 250.24z" fill="#48753a"/><path id="Path_439" data-name="Path 439" d="M1880.553 261.171c.482-3.616-2.331-9.725-2.331-9.725v9.163S1880.07 264.788 1880.553 261.171z" fill="#48753a"/><path id="Path_440" data-name="Path 440" d="M1859.012 313.752c1.688-1.381 1.768-13.518 1.768-13.518l-2.652.965S1857.324 315.133 1859.012 313.752z" fill="#48753a"/><path id="Path_441" data-name="Path 441" d="M1908.053 431.024h-45.475l9.445 38.463h14.892C1878.5 438.536 1908.053 431.024 1908.053 431.024z" fill="#715346"/></g><g id="Group_164" data-name="Group 164"><path id="Path_442" data-name="Path 442" d="M1874.414 469.487c3.731-1.554 9.756-19.172 12.656-28.3 1.029-3.237 1.665-5.4 1.665-5.4h-34.12c2.949 21.062 10.11 33.7 10.11 33.7z" fill="#9e633a"/><path id="Path_443" data-name="Path 443" d="M1877.151 425.3c0-1.226 5.476-6.357 8.215-9.708s-1.053-9.708-1.053-9.708c-12.216 5.055-10.11 19.416-10.11 19.416S1877.151 426.521 1877.151 425.3z" fill="#97a43c"/><path id="Path_444" data-name="Path 444" d="M1870.2 425.84h1.474s1.054-24.8-8-28.174-9.057-10.109-9.057-10.109-2.738 9.267 1.685 14.111 9.478 10.531 8.636 15.165S1870.2 425.84 1870.2 425.84z" fill="#97a43c"/><path id="Path_445" data-name="Path 445" d="M1887.07 441.192c1.029-3.237 1.665-5.4 1.665-5.4h-34.12c2.949 21.062 10.11 33.7 10.11 33.7h2.227C1866.537 449.766 1879.523 443.289 1887.07 441.192z" fill="#82522f"/><path id="Path_446" data-name="Path 446" d="M1888.728 425.3h-34.372l-1.956 10.493h37.726z" fill="#c67b47"/></g><g id="Group_166" data-name="Group 166"><g id="Group_165" data-name="Group 165"><path id="Path_447" data-name="Path 447" d="M1794.877 362.776l-39.692 89.41-1.066 2.4a10.677 10.677.0 0 1-4.414-.459l.876-1.971 39.311-88.546-57.283-61.6-8.6-1.868.9-4.125 9.891 2.153z" fill="url(#linear-gradient)"/></g><path id="Path_448" data-name="Path 448" d="M1733.753 469.471h36.737a14.147 14.147.0 0 0-.4-2.233c-1.1-4.362-5.131-13.6-19.427-13.6s-16.617 9.236-16.914 13.6A13.594 13.594.0 0 0 1733.753 469.471z" fill="url(#linear-gradient-2)"/><path id="Path_449" data-name="Path 449" d="M1696.342 282.223l2.482 7.032 15.039 42.618a26.325 26.325.0 0 0-17.521-49.65z" fill="url(#linear-gradient-3)"/><path id="Path_450" data-name="Path 450" d="M1756.111 452.194v1.959a9.723 9.723.0 0 1-1.992.434 10.677 10.677.0 0 1-4.414-.459c-.166-.054-.257-.091-.257-.091v-1.888l1.133.008 4.6.029z" fill="#ffa855"/><path id="Path_451" data-name="Path 451" d="M1733.753 469.471h36.737a14.147 14.147.0 0 0-.4-2.233h-36.341A13.594 13.594.0 0 0 1733.753 469.471z" fill="#ffa555"/><path id="Path_452" data-name="Path 452" d="M1696.342 282.223l2.482 7.032c8.777 6.921 22.4 18.888 29.01 31.073a26.327 26.327.0 0 0-31.492-38.105z" fill="#ffa855"/></g></g></svg>